<?xml version="1.0" encoding="utf-8"?>
<!-- Generator: Adobe Illustrator 18.0.0, SVG Export Plug-In . SVG Version: 6.00 Build 0)  -->
<!DOCTYPE svg PUBLIC "-//W3C//DTD SVG 1.1//EN" "http://www.w3.org/Graphics/SVG/1.1/DTD/svg11.dtd">
<svg version="1.1" id="Capa_1" xmlns="http://www.w3.org/2000/svg" xmlns:xlink="http://www.w3.org/1999/xlink" x="0px" y="0px"
	 viewBox="0 0 442.2 89.3" enable-background="new 0 0 442.2 89.3" xml:space="preserve">
<g>
	<g>
		<path fill-rule="evenodd" clip-rule="evenodd" fill="#63B2E5" d="M9.4,44.6L9.4,44.6c0-2.1,1.7-3.7,3.7-3.7h22.1L19.6,25.3
			c-1.4-1.5-1.4-3.9,0-5.3l0,0c1.5-1.5,3.9-1.5,5.3,0l15.6,15.6V13.6c0-2.1,1.7-3.8,3.8-3.8l0,0c2,0,3.7,1.7,3.7,3.8v22.1L63.6,20
			c1.4-1.5,3.8-1.5,5.3,0l0,0c1.4,1.4,1.4,3.8,0,5.3L53.3,40.9h22.1c2.1,0,3.7,1.7,3.7,3.7l0,0c0,2.1-1.7,3.7-3.7,3.7H53.3L68.9,64
			c1.4,1.5,1.4,3.8,0,5.3l0,0c-1.5,1.5-3.9,1.5-5.3,0L48,53.7v22.1c0,2.1-1.7,3.8-3.7,3.8l0,0c-2.1,0-3.8-1.7-3.8-3.8V53.7
			L24.9,69.3c-1.4,1.5-3.8,1.5-5.3,0l0,0c-1.4-1.5-1.4-3.8,0-5.3l15.6-15.6H13.1C11.1,48.4,9.4,46.7,9.4,44.6z"/>
		<g>
			<path fill="#00448E" d="M197.4,29.6c-1.6-1.1-3.7-1.7-6.5-1.7h-1.2v-6.3c0-3.6-0.6-6.1-1.7-7.8c-1.2-1.7-2.9-2.6-5.3-2.6
				c-2.4,0-4.2,0.8-5.4,2.6c-1.2,1.7-1.7,4.3-1.7,7.8V28c-2.9,0.2-5,0.7-6.4,1.8c-1.4,1.1-2.1,2.6-2.1,4.5c0,1.9,0.7,3.4,2.1,4.5
				c1.5,1.1,3.4,1.7,5.9,1.7h0.6v25.3c0,3.5,0.6,6.1,1.7,7.8c1.2,1.7,3,2.6,5.4,2.6c2.4,0,4.1-0.8,5.3-2.5c1.1-1.7,1.7-4.3,1.7-7.8
				V40.4h1.2c3,0,5.2-0.5,6.7-1.6s2.3-2.6,2.3-4.6C199.8,32.3,199,30.8,197.4,29.6z"/>
			<path fill="#00448E" d="M102.6,26.6c-2.5,0-4.2,0.9-5.4,2.6c-1.2,1.7-1.7,4.3-1.7,7.8v28.8c0,3.5,0.6,6.1,1.7,7.8
				c1.2,1.7,3,2.6,5.4,2.6c2.3,0,4.1-0.8,5.2-2.5c1.2-1.7,1.7-4.3,1.7-7.8V37c0-3.5-0.6-6-1.7-7.8C106.8,27.5,104.9,26.6,102.6,26.6
				z"/>
			<path fill="#00448E" d="M64.5,40.8H53.4l9.1-9.1c1.4-1.5,1.4-3.9,0-5.3c-1.5-1.5-3.9-1.5-5.3,0L42.8,40.9H24.1
				c-2.1,0-3.7,1.6-3.7,3.6v0.1c0,2.1,1.7,3.7,3.7,3.7h18.8l14.4,14.4c1.4,1.5,3.8,1.5,5.3,0c1.4-1.4,1.4-3.8,0-5.3l-9.1-9.1h11.1
				c2.1,0,3.7-1.7,3.7-3.7v-0.1C68.2,42.5,66.5,40.8,64.5,40.8z"/>
			<path fill="#00448E" d="M146.1,26.4c-2.8,0-5.3,0.4-7.3,1.2c-2,0.7-3.7,2-5.2,3.7c-0.9-1.6-1.8-2.7-3-3.5
				c-1.2-0.7-2.4-1.2-3.8-1.2c-2.4,0-4.2,0.9-5.4,2.6c-1.2,1.7-1.7,4.3-1.7,7.8v28.8c0,3.5,0.6,6.1,1.7,7.8c1.2,1.7,3,2.6,5.4,2.6
				c2.4,0,4.1-0.8,5.4-2.6c1.2-1.7,1.7-4.3,1.7-7.8V49.4c0-3.7,0.6-6.4,1.8-8.3c1.2-1.7,3.1-2.6,5.7-2.6c2.7,0,4.7,0.8,5.9,2.5
				c1.2,1.7,1.8,4.5,1.8,8.5v16.2c0,3.5,0.6,6.1,1.7,7.8c1.2,1.7,3,2.6,5.4,2.6s4.1-0.8,5.4-2.6c1.2-1.7,1.7-4.3,1.7-7.8V45.2
				c0-6.1-1.5-10.8-4.5-14C155.9,28,151.7,26.4,146.1,26.4z"/>
			<path fill="#00448E" d="M239.7,55.4c2.7,0,4.5-0.5,5.5-1.3c1-0.8,1.5-2.3,1.5-4.5c0-6.5-2.2-12.1-6.7-16.7
				c-4.4-4.6-9.9-6.9-16.4-6.9h-0.1c-6.8,0-12.4,2.4-16.9,7.3c-4.5,4.9-6.8,10.9-6.8,18.2c0,7.3,2.3,13.3,7,18.1
				c4.5,4.6,10.1,7,16.7,7.2c0.2,0,0.5,0,0.8,0c5.7,0,10.7-1.2,15-3.6c4.2-2.5,6.4-5.2,6.4-8.3c0-1.6-0.5-2.9-1.6-4
				c-1.1-1-2.4-1.6-4.1-1.6c-0.7,0-2.7,0.8-6,2.4c-3.2,1.5-6.2,2.3-8.8,2.3c-0.6,0-1.1-0.1-1.6-0.1c-2.4-0.2-4.3-1-5.9-2.1
				c-1.9-1.6-3-3.6-3.3-6.3h9.2H239.7z M214.2,46.1c0.5-2.6,1.6-4.7,3.3-6.2c1.7-1.5,3.7-2.2,6-2.3h0.2c2.5,0,4.5,0.8,6.3,2.4
				c1.7,1.7,2.7,3.6,2.9,6.1h-9.3H214.2z"/>
			<path fill="#00448E" d="M279.6,38.9c2.6-1.6,4-3.4,4-5.4c0-1.9-0.7-3.6-2.1-5c-0.6-0.5-1.2-1-1.8-1.3c-1-0.5-2.1-0.7-3.2-0.7
				c-1.7,0-3.3,0.4-5,1.2c-1.7,0.8-3.2,2-4.7,3.6c-0.8-1.6-1.8-2.7-2.9-3.5c-1.2-0.7-2.4-1.2-3.8-1.2c-2.5,0-4.2,0.9-5.4,2.6
				c-1.2,1.7-1.7,4.3-1.7,7.8v28.8c0,3.5,0.6,6.1,1.7,7.8c1.2,1.7,2.9,2.6,5.4,2.6c2.4,0,4.1-0.8,5.3-2.6c1.2-1.7,1.7-4.3,1.7-7.8
				V50.8c0-2.7,0.3-4.6,0.9-5.7c0.6-1,1.8-2,3.6-2.8c1-0.5,2.3-1,4.2-1.7C277.2,40.1,278.5,39.4,279.6,38.9z"/>
			<path fill="#00448E" d="M386.9,29.6c-1.6-1.1-3.8-1.7-6.6-1.7h-1.2v-6.3c0-3.6-0.6-6.1-1.7-7.8c-1.2-1.7-2.9-2.6-5.3-2.6
				c-2.4,0-4.1,0.8-5.3,2.6c-1.2,1.7-1.8,4.3-1.8,7.8V28c-2.8,0.2-5,0.7-6.4,1.8c-1.4,1.1-2.1,2.6-2.1,4.5c0,1.9,0.7,3.4,2.1,4.5
				c1.4,1.1,3.4,1.7,5.9,1.7h0.5v25.3c0,3.5,0.7,6.1,1.8,7.8c1.2,1.7,2.9,2.6,5.3,2.6c2.5,0,4.2-0.8,5.4-2.5
				c1.2-1.7,1.7-4.3,1.7-7.8V40.4h1.2c3,0,5.3-0.5,6.8-1.6s2.2-2.6,2.2-4.6C389.2,32.3,388.5,30.8,386.9,29.6z"/>
			<path fill="#00448E" d="M348.8,55.4c2.8,0,4.6-0.5,5.6-1.3c1-0.8,1.5-2.3,1.5-4.5c0-6.5-2.2-12.1-6.7-16.7
				c-4.4-4.6-9.9-6.9-16.4-6.9h-0.1c-6.8,0-12.4,2.4-16.9,7.3c-4.5,4.9-6.9,10.9-6.9,18.2c0,7.3,2.4,13.3,7.1,18.1
				c4.5,4.6,10,7,16.7,7.2c0.2,0,0.5,0,0.8,0c5.7,0,10.7-1.2,15-3.6c4.2-2.5,6.4-5.2,6.4-8.3c0-1.6-0.6-2.9-1.6-4
				c-1.1-1-2.5-1.6-4.1-1.6c-0.7,0-2.7,0.8-6,2.4c-3.2,1.5-6.2,2.3-8.8,2.3c-0.6,0-1.1-0.1-1.6-0.1c-2.4-0.2-4.3-1-5.9-2.1
				c-1.9-1.6-3-3.6-3.3-6.3h9.2H348.8z M323.4,46.1c0.5-2.6,1.6-4.7,3.3-6.2c1.7-1.5,3.7-2.2,6-2.3h0.2c2.5,0,4.5,0.8,6.3,2.4
				c1.7,1.7,2.7,3.6,2.9,6.1h-9.3H323.4z"/>
			<path fill="#00448E" d="M298.5,24.2c-2.1,0-3.6,0.7-4.5,2.1c-1,1.4-1.5,3.5-1.5,6.4v24.5c0,3.6-0.3,6.2-0.9,7.6
				c-0.6,1.3-1.6,2.1-3,2.1c-0.7,0-2-0.5-3.6-1.3c-1.7-0.9-3-1.3-4-1.3c-0.6,0-1.1,0.1-1.6,0.2c-0.9,0.2-1.7,0.7-2.4,1.4
				c-1,1-1.5,2.3-1.5,3.9c0,2.4,1.2,4.5,3.8,6.1l0.1,0.1c2.6,1.6,5.8,2.4,9.6,2.4c5,0,8.8-1.5,11.4-4.4c2.6-2.9,3.9-7.2,3.9-12.9
				V32.7c0-2.9-0.5-5-1.5-6.4C302,24.9,300.5,24.2,298.5,24.2z"/>
		</g>
	</g>
</g>
</svg>
