<?xml version="1.0" encoding="utf-8"?>
<!-- Generator: Adobe Illustrator 18.0.0, SVG Export Plug-In . SVG Version: 6.00 Build 0)  -->
<!DOCTYPE svg PUBLIC "-//W3C//DTD SVG 1.1//EN" "http://www.w3.org/Graphics/SVG/1.1/DTD/svg11.dtd">
<svg version="1.1" id="Capa_1" xmlns="http://www.w3.org/2000/svg" xmlns:xlink="http://www.w3.org/1999/xlink" x="0px" y="0px"
	 viewBox="0 0 442.2 89.3" enable-background="new 0 0 442.2 89.3" xml:space="preserve">
<g>
	<path fill="#003563" d="M431.4,53.3c-2.9,0-5.4,2.3-5.4,5.3c0,3.1,2.5,5.3,5.4,5.3c2.9,0,5.4-2.3,5.4-5.3
		C436.8,55.5,434.3,53.3,431.4,53.3L431.4,53.3z M431.4,63.1c-2.4,0-4.3-1.9-4.3-4.5c0-2.5,1.9-4.4,4.3-4.4c2.4,0,4.3,1.9,4.3,4.4
		C435.8,61.2,433.9,63.1,431.4,63.1L431.4,63.1z"/>
	<path fill="#003563" d="M432.3,59c0.9-0.1,1.6-0.6,1.6-1.7c0-1.2-0.7-1.8-2.2-1.8h-2.3v6.1h0.9V59h1.1l1.6,2.7h1L432.3,59L432.3,59
		z M430.3,58.2v-1.9h1.3c0.6,0,1.3,0.1,1.3,0.9c0,0.9-0.7,1-1.5,1H430.3L430.3,58.2z"/>
	<path fill="#003563" d="M70.6,28.6c1.5,0,2.6,0.5,3.4,0.9c1.8,0.8,3.8,1.8,6.4,3c0,0,4.2-3,4.4-3.1c1.4-1,2.8-0.2,3.2,0.6
		c1.6,2.9,4.4,9,5.9,14.6c0.2,0.7,0,1.7-1.1,2c-0.6,0.2-1.6,0.3-2.7,0.5c-1.5,0.2-1.5,1.4-1.5,2.1c0,0.9,0,7.1,0,9.2
		c0,1.3-0.9,5.5-5.8,5.5c-0.3,0-11.2,0-11.1,0c-4.2,0-7.6-3.5-7.6-7.3c0-2.5,0-19.8,0-21.7C64.2,31.1,67.5,28.6,70.6,28.6L70.6,28.6
		z"/>
	<path fill="#003563" d="M53,63.9H16.9v4h42.4c0,0,1.5-3.5,1.5-7.5c0-0.2,0-27.2,0-27.2c0-2.1,0.9-5.8,5.3-6.7
		c0.1,0,0.2-0.1,0.4-0.1c12.5-3,25.4-0.3,32.7,2.9c1.3,0.6,1.6-0.4,1.6-0.9c0.1-6.1-4.5-13.1-13.1-13.5c-7-0.2-10.8,2.3-12.2,3
		c-0.1,0.1-0.3,0-0.4-0.1c-1.3-1.3-4-3.2-7.1-4c-0.5-0.1-0.5-0.8,0-0.8c6.6-0.7,12.3,0,14.7,0.4c0.6,0.1,1-0.2,0.8-0.7
		c-0.2-0.4-0.3-0.6-0.6-1.2c-0.6-1.3-2.1-2.6-4.1-3.1c-5.2-1.4-14-2.7-21.8-2.7c-8.8-0.1-18.1,1.7-20.5,2.2
		c-0.6,0.1-1.4,0.3-1.5,0.3c-0.6,0.1-0.8,0.7-0.5,1c0.2,0.2,0.7,0.6,0.9,0.9c0.3,0.4,0.4,0.9-0.1,1.4L18.8,26.1H30h0.1
		c0.7,0,1.4,0.6,1.4,1.5c0,0.7-0.6,1.5-1.4,1.5h-0.1H15.6l-4.4,4h19l0.1,0c0.7,0,1.3,0.8,1.3,1.5c0,0.6-0.6,1.4-1.3,1.4l-0.1,0H7.9
		l-4.4,4h38.4l0.1,0c0.8,0,1.3,0.8,1.3,1.5c0,0.8-0.5,1.5-1.3,1.5h-0.1H3.4v4h38.4l0.1,0c0.9,0,1.4,0.8,1.4,1.5
		c0,0.7-0.6,1.4-1.4,1.4h-0.1H3.4v4h50.1h0.1c0.8,0,1.4,0.7,1.3,1.5c0,0.7-0.6,1.4-1.3,1.4h-0.1H16.9v4H53l0.8,0
		c0.7,0,1.3,0.8,1.3,1.5c0,0.7-0.6,1.4-1.3,1.4H53L53,63.9z"/>
	<path fill="#003563" d="M30.4,77.7l0,4.1c0,0,5.4,0,8.5,0c7.6-0.1,12.6-4.1,12.6-4.1H30.4L30.4,77.7z"/>
	<path fill="#003563" d="M30.4,70.8l0,4h24.5c1.1-1.2,2.6-3.2,3-4L30.4,70.8L30.4,70.8z"/>
	<path fill="#003563" d="M425.7,46c0-0.1,0-0.1,0-0.2c-0.1-3.1-1.2-5.9-2.6-8.1c-3-4.8-8.4-7.3-14.8-7.2c-6.4-0.1-11.7,2.5-14.8,7.2
		c-1.5,2.2-2.5,5-2.6,8.1c0,0.1,0,0.1,0,0.2c-0.9,10.5,5.2,17.7,15.6,18.5c0.6,0.1,1.2,0.1,1.8,0.1c0.6,0,1.2,0,1.8-0.1
		C420.5,63.7,426.6,56.5,425.7,46L425.7,46z M409.1,59.6c-0.3,0-0.5,0-0.8,0c-0.3,0-0.5,0-0.8,0c-1.5-0.1-2.7-0.7-3.8-1.5
		c-0.3-0.3-0.6-0.6-0.9-0.9c-1.6-1.8-2.5-4.9-2.7-7.3c-0.5-5.7,0.7-13.9,7.6-14.5c0.2,0,0.3,0,0.5,0c0,0,0,0,0.1,0c0,0,0,0,0.1,0
		c0.2,0,0.3,0,0.5,0c7,0.6,8.1,8.8,7.6,14.5c-0.2,2.4-1,5.4-2.7,7.3c-0.3,0.3-0.6,0.6-0.9,0.9C411.8,58.9,410.5,59.5,409.1,59.6
		L409.1,59.6z"/>
	<path fill="#003563" d="M356.6,38.2c0-2.6,0.2-7.1,0.2-7.1h0h-8.5h0c0,0,0.3,4.5,0.3,7.1l0,18.6c0,2.6-0.2,7-0.2,7h0h8.5h0
		c0,0-0.2-4.4-0.2-7L356.6,38.2L356.6,38.2z"/>
	<path fill="#003563" d="M306.9,58.8c-1.8,0-4.1,0-5.9,0c-0.1-3.3-0.1-6.5-0.1-9.4l0-0.5h0c0,0,0-0.1,0-0.1h9.8v-4.6h-9.8
		c0-5,0.1-8.3,0.1-8.3l12.2,0v-4.9c-8.5,0-20.9,0-20.9,0s0.2,4.5,0.2,7.1v18.6c0,2.4-0.1,6.4-0.2,7h21.7l0-5.2
		C314,58.6,309.7,58.8,306.9,58.8L306.9,58.8z"/>
	<path fill="#003563" d="M164.9,58.8c-1.8,0-4.1,0-5.9,0c-0.1-3.3-0.1-6.5-0.1-9.4l0-0.5h0c0,0,0-0.1,0-0.1h9.8v-4.6h-9.8
		c0-5,0.1-8.3,0.1-8.3l12.2,0v-4.9c-8.5,0-20.9,0-20.9,0s0.2,4.5,0.2,7.1v18.6c0,2.4-0.1,6.4-0.2,7H172l0-5.2
		C172,58.6,167.7,58.8,164.9,58.8L164.9,58.8z"/>
	<path fill="#003563" d="M334.7,46.2l9.4-15.1h-6.5l0,0.1c-2,3.4-4.4,7.5-5.4,9l-0.4,0.6l-5.5-9.8h-9.8l9.4,17l-9.8,15.8h6.5
		c4.2-7.2,6.4-10.5,6.4-10.5l5.8,10.5h9.8L334.7,46.2L334.7,46.2z"/>
	<path fill="#003563" d="M383.2,59.4c-7.6,0-11.7-5.6-11.5-12.4c0.2-6,2.9-11.1,9.4-11.5c2.5-0.2,4.5,0.3,8,1.2l-0.4-5.1
		c0,0-3-0.9-7.2-1.1c-5.4-0.2-10.3,0.8-14.2,4.4c-3.5,3.2-5.5,7.9-5.5,12.5c0,5.1,2.1,9.7,6,13c4.1,3.4,8.4,4.2,13.6,4.2
		c3.4,0,5.4-0.2,8.7-1.1l-0.5-5C389,58.6,386.6,59.4,383.2,59.4L383.2,59.4z"/>
	<path fill="#003563" d="M273.8,26.2h9.5l0.3,2.2c2.1,21.9,3.4,35.5,3.4,35.5h-9.9l-1-13.6l-0.9-12.1l-8.4,25.7c-2.2,0-5.3,0-5.3,0
		s-2.7-9.1-3.1-10.4l-4.8-15.4c0,0-0.7,8.6-1,12.2c-0.6,7.3-1.1,13.6-1.1,13.6h-7.4c0,0,3-30.6,3.2-32.5c0.2-1.9,0.6-5.2,0.6-5.2
		h9.7l8,22.1L273.8,26.2L273.8,26.2z"/>
	<path fill="#003563" d="M240.1,46c0-0.1,0-0.2,0-0.2c-0.1-3.1-1.2-5.9-2.6-8c-3-4.7-8.3-7.3-14.7-7.2c-6.4-0.1-11.7,2.5-14.7,7.2
		c-1.4,2.2-2.5,4.9-2.6,8c0,0.1,0,0.1,0,0.2c-0.9,10.4,5.2,17.6,15.5,18.4c0.6,0,1.2,0.1,1.8,0.1c0.6,0,1.2,0,1.8-0.1
		C234.9,63.6,241,56.5,240.1,46L240.1,46z M223.6,59.6c-0.3,0-0.5,0-0.8,0c-0.3,0-0.5,0-0.8,0c-1.5-0.1-2.7-0.7-3.8-1.5
		c-0.3-0.2-0.6-0.6-0.9-0.9c-1.6-1.8-2.4-4.9-2.7-7.3c-0.5-5.6,0.7-13.9,7.6-14.4c0.2,0,0.3,0,0.5,0c0,0,0.1,0,0.1,0
		c0,0,0.1,0,0.1,0c0.2,0,0.3,0,0.5,0c6.9,0.5,8,8.8,7.6,14.4c-0.2,2.4-1,5.4-2.7,7.3c-0.3,0.3-0.6,0.6-0.9,0.9
		C226.3,58.9,225,59.5,223.6,59.6L223.6,59.6z"/>
	<path fill="#003563" d="M148.2,63.8c-0.3-0.7-2-4.8-3.3-8.2l-11.1-29.5h-8.6c0,0-2.5,6.9-2.8,8.1l-8.1,22.9
		c-1.1,2.9-2.5,6.8-2.5,6.8h7c0,0,2-6.4,2.4-7.5l1.1-3.2h12.2l1.7,4.8c0.4,0.9,1.8,5.8,1.8,5.8H148.2L148.2,63.8z M124.1,47.8
		l4.1-12.2l0.2-0.7l4.3,12.9H124.1L124.1,47.8z"/>
	<path fill="#003563" d="M205.8,63.8c-2-2.9-2.8-4.1-4.4-6.3l-5.9-9.1c2.8-1.4,5.5-3.7,5.9-8.6c0.2-3.1-1.4-5.6-2.4-6.5
		c-1.4-1.3-2.8-1.8-4.7-2c-1.6-0.2-2.7-0.2-3.6-0.3h-13.8c0,0,0.2,4.5,0.2,7.1v18.5c0,2.6-0.2,7.1-0.2,7.1h8.5c0,0-0.2-4.5-0.2-7.1
		l0.1-5.9c0,0,1.9,0,3.2,0l5.4,9.9c0.7,1.3,1.8,2.8,2,3.2H205.8L205.8,63.8z M190.8,45.6c-1.3,0.7-4.1,0.5-5.6,0.4l0.1-9.4l0.8-0.1
		c2.6-0.2,4.5,0.1,5.3,0.5c1.2,0.5,1.9,1.6,1.9,3.5C193.5,43.2,192.4,44.7,190.8,45.6L190.8,45.6z"/>
</g>
</svg>
