<?xml version="1.0" encoding="utf-8"?>
<!-- Generator: Adobe Illustrator 18.0.0, SVG Export Plug-In . SVG Version: 6.00 Build 0)  -->
<!DOCTYPE svg PUBLIC "-//W3C//DTD SVG 1.1//EN" "http://www.w3.org/Graphics/SVG/1.1/DTD/svg11.dtd">
<svg version="1.1" id="Capa_1" xmlns="http://www.w3.org/2000/svg" xmlns:xlink="http://www.w3.org/1999/xlink" x="0px" y="0px"
	 viewBox="0 0 437.9 1177.7" enable-background="new 0 0 437.9 1177.7" xml:space="preserve" preserveAspectRatio="none">
<g>
	<defs>
		<path id="SVGID_1_" d="M1,0v353.7l30.1,17.4L1,388.6V961l1.3-0.5c0,0,0,0,0,0s0,0,0,0l0,0c-0.1-0.3-0.2-0.7-0.4-1.1
			c78.6-29.6,158.3-59,237-88.5c77.4-29.1,122.5-45.8,200-74.9V0H1z"/>
	</defs>
	<clipPath id="SVGID_2_">
		<use xlink:href="#SVGID_1_"  overflow="visible"/>
	</clipPath>
</g>
<path fill="none" d="M1,0v353.7l30.1,17.4L1,388.6V961l1.3-0.5c0,0,0,0,0,0s0,0,0,0l0,0c-0.1-0.3-0.2-0.7-0.4-1.1
	c78.6-29.6,158.3-59,237-88.5c77.4-29.1,122.5-45.8,200-74.9V0H1z"/>
<path fill="#546679" d="M1,0v353.7l30.1,17.4L1,388.6V961l1.3-0.5c0,0,0,0,0,0s0,0,0,0l0,0c-0.1-0.3-0.2-0.7-0.4-1.1
	c78.6-29.6,158.3-59,237-88.5c77.4-29.1,122.5-45.8,200-74.9V0H1z"/>
<g>
	<path fill="#FFFFFF" d="M125.1,100.3h-6.9l-4.5-11.9h-23l-4.4,11.9h-6.9l19.6-49.2h6.7L125.1,100.3z M92.7,83h18.9l-9.5-25.7
		L92.7,83z"/>
	<path fill="#FFFFFF" d="M169.1,53.1l-1.1,5.4c-4.2-1.7-8.9-2.7-13.5-2.7c-12.2,0-19.7,7.5-19.7,20.6c0,12.6,6.6,19.6,19.8,19.6
		c3.2,0,6.6-0.5,8.9-1.2v-16h6.2v19.8c-3.8,1.6-10.1,2.7-15.9,2.7c-16.3,0-25.8-10.1-25.8-24.9c0-15.4,9.9-26.1,26.4-26.1
		C159.9,50.2,165,51.1,169.1,53.1z"/>
	<path fill="#FFFFFF" d="M180.8,51.1h27.4v5.5h-20.6v15.7h19.7v5.5h-19.7v16.9h20.8v5.5h-27.6V51.1z"/>
	<path fill="#FFFFFF" d="M252.5,100.3L225,61.7v38.7h-6.5V51.1h6.5l27.6,38.7V51.1h6.5v49.2H252.5z"/>
	<path fill="#FFFFFF" d="M270.9,51.1h13.7c16.9,0,28.1,10.4,28.1,24.6s-11.2,24.6-28.1,24.6h-13.7V51.1z M284.6,94.9
		c11.8,0,21.3-7,21.3-19.1c0-12.1-9.5-19.1-21.3-19.1h-6.9v38.3H284.6z"/>
	<path fill="#FFFFFF" d="M360.7,100.3h-6.9l-4.5-11.9h-23l-4.4,11.9h-6.9l19.6-49.2h6.7L360.7,100.3z M328.3,83h18.9l-9.5-25.7
		L328.3,83z"/>
</g>
<g>
	<path fill="#FFFFFF" d="M80.6,107.3h6.6c9,0,15.1,5.5,15.1,13.3s-6.1,13.3-15.1,13.3h-6.6V107.3z M87.2,131.6
		c6.8,0,12.3-3.9,12.3-11c0-7.1-5.5-11-12.3-11h-3.9v22.1H87.2z"/>
	<path fill="#FFFFFF" d="M107.3,107.3h14.2v2.2H110v9.6h11v2.2h-11v10.2h11.6v2.2h-14.3V107.3z"/>
	<path fill="#FFFFFF" d="M157.2,133.8h-2.8l-2.6-6.8H139l-2.6,6.8h-2.8l10.5-26.5h2.6L157.2,133.8z M145.4,110.1l-5.6,14.7H151
		L145.4,110.1z"/>
	<path fill="#FFFFFF" d="M179.7,108l-0.5,2.1c-1.9-0.7-4-1.1-6-1.1c-7.2,0-11.1,4.3-11.1,11.5S166,132,173.2,132c2,0,4.1-0.4,6-1.1
		l0.5,2.1c-1.8,0.8-4.4,1.2-6.8,1.2c-8.5,0-13.5-5.9-13.5-13.7s5-13.7,13.5-13.7C175.3,106.8,177.9,107.2,179.7,108z"/>
	<path fill="#FFFFFF" d="M201.2,107.3v2.2h-8v24.3h-2.7v-24.3h-8v-2.2H201.2z"/>
	<path fill="#FFFFFF" d="M208.4,133.8h-2.7v-26.5h2.7V133.8z"/>
	<path fill="#FFFFFF" d="M231.7,107.3h2.7l-9.5,26.5h-2.7l-9.5-26.5h2.7l8.2,23.2L231.7,107.3z"/>
	<path fill="#FFFFFF" d="M241.2,133.8h-2.7v-26.5h2.7V133.8z"/>
	<path fill="#FFFFFF" d="M248.2,107.3h6.6c9,0,15.1,5.5,15.1,13.3s-6.1,13.3-15.1,13.3h-6.6V107.3z M254.8,131.6
		c6.8,0,12.3-3.9,12.3-11c0-7.1-5.5-11-12.3-11h-3.9v22.1H254.8z"/>
	<path fill="#FFFFFF" d="M295.1,133.8h-2.8l-2.6-6.8h-12.8l-2.6,6.8h-2.8l10.5-26.5h2.6L295.1,133.8z M283.3,110.1l-5.6,14.7h11.1
		L283.3,110.1z"/>
	<path fill="#FFFFFF" d="M299.7,107.3h6.6c9,0,15.1,5.5,15.1,13.3s-6.1,13.3-15.1,13.3h-6.6V107.3z M306.3,131.6
		c6.8,0,12.3-3.9,12.3-11c0-7.1-5.5-11-12.3-11h-3.9v22.1H306.3z"/>
	<path fill="#FFFFFF" d="M326.4,107.3h14.2v2.2h-11.5v9.6h11v2.2h-11v10.2h11.6v2.2h-14.3V107.3z"/>
	<path fill="#FFFFFF" d="M352.2,134.3c-2.5,0-5.3-0.6-7.4-1.6l0.6-2.2c2.1,1,4.3,1.5,6.7,1.5c3.8,0,6.3-1.9,6.3-4.9
		c0-3.3-2.9-4.7-6.1-6.2c-3.5-1.7-7-3.5-7-7.5c0-4.4,3.6-6.6,8-6.6c2.4,0,4.8,0.5,6.6,1.4l-0.6,2.3c-1.9-0.9-4-1.4-6.1-1.4
		c-3.3,0-5.4,1.4-5.4,4.2c0,2.8,1.6,3.5,5.2,5.3c3.6,1.8,7.9,3.7,7.9,8.4C361.1,131.4,357.4,134.3,352.2,134.3z"/>
</g>
<g>
	<path fill="#F9FAFB" d="M51,167.2h6.5c8,0,13.3,4.9,13.3,11.7s-5.3,11.7-13.3,11.7H51V167.2z M57.5,187.9c5.6,0,10.1-3.3,10.1-9.1
		s-4.5-9.1-10.1-9.1h-3.3v18.1H57.5z"/>
	<path fill="#F9FAFB" d="M74.7,190.5v-16.8h3.2v16.8H74.7z M75,171.1l2.6-5.6h3.5l-3.4,5.6H75z"/>
	<path fill="#F9FAFB" d="M92.6,188.4c-1,1.2-3,2.5-5.6,2.5c-2.8,0-4.8-1.8-4.8-4.7c0-3.1,2.3-4.6,6-4.9c1.5-0.1,3-0.1,4.3-0.1v-0.7
		c0-2.8-1.1-4.6-3.9-4.6c-1.6,0-3.1,0.5-4.4,1.2l-0.7-2.3c1.8-1.1,3.5-1.4,5.7-1.4c4,0,6.5,2.5,6.5,7v10.1h-3.1V188.4z M92.5,186.4
		v-3.1c-1.4,0.1-2.6,0.2-3.8,0.3c-2,0.2-3.5,0.8-3.5,2.6c0,1.6,1,2.3,2.7,2.3C89.7,188.6,91.3,187.7,92.5,186.4z"/>
	<path fill="#F9FAFB" d="M111.7,190.5v-20l-4.5,1.9l-0.9-2.5l6.5-2.7h2.1v23.3H111.7z"/>
</g>
<g>
	<path fill="#F9FAFB" d="M52.3,212c-1.5,0-2.6-1.2-2.6-2.6c0-1.4,1.1-2.6,2.6-2.6c1.5,0,2.6,1.2,2.6,2.6
		C54.9,210.8,53.8,212,52.3,212z"/>
	<path fill="#F9FAFB" d="M64.4,201.5v12.2h5.7v1.5h-7.6v-13.7H64.4z"/>
	<path fill="#F9FAFB" d="M73.8,212.7c0,0.8,0.3,1.2,1,1.2c0.3,0,0.6,0,0.9-0.1l0.1,1.4c-0.5,0.1-0.9,0.2-1.5,0.2
		c-1.7,0-2.4-1.2-2.4-2.6v-12.1h1.9V212.7z"/>
	<path fill="#F9FAFB" d="M85.3,209.1c0,0.6-0.1,1.1-0.2,1.7h-6.2c0.1,1.9,0.9,3.2,3.2,3.2c1.1,0,2-0.2,2.8-0.6l0.2,1.4
		c-0.9,0.4-2.1,0.7-3.3,0.7c-3.3,0-4.9-2.3-4.9-5.1c0-2.9,1.7-5.2,4.5-5.2C84,205.1,85.3,206.9,85.3,209.1z M78.8,209.4h4.6
		c0.2-1.6-0.4-2.9-2.1-2.9C79.9,206.5,79,207.8,78.8,209.4z"/>
	<path fill="#F9FAFB" d="M90.3,211.8c-0.2,0.3-0.3,0.6-0.3,0.8c0,0.5,0.3,0.7,1.1,0.8l2,0.2c1.9,0.2,3.2,0.8,3.2,2.5
		c0,2.1-2.7,3.6-5.5,3.6c-2.4,0-4.3-0.8-4.3-2.6c0-1.5,1.5-2.2,2.8-2.5c-0.6-0.3-1-0.7-1-1.4c0-0.8,0.5-1.2,1.1-1.5
		c-1.3-0.5-2.2-1.6-2.2-3.1c0-2,1.7-3.4,3.9-3.4c0.5,0,0.9,0.1,1.4,0.2h3.7v1.4h-1.7c0.4,0.6,0.6,1.2,0.6,1.8c0,2-1.7,3.4-3.9,3.4
		C90.8,211.9,90.5,211.9,90.3,211.8z M90.4,214.9c-0.9,0.4-2.1,1-2.1,2c0,1,1,1.5,2.6,1.5c1.7,0,3.7-0.7,3.7-2.1
		c0-1-1.1-1.2-2.2-1.3L90.4,214.9z M93.4,208.5c0-1.3-1-2.1-2.3-2.1s-2.3,0.7-2.3,2.1s1,2.1,2.3,2.1S93.4,209.8,93.4,208.5z"/>
	<path fill="#F9FAFB" d="M103.6,214c-0.6,0.7-1.8,1.4-3.3,1.4c-1.6,0-2.8-1.1-2.8-2.7c0-1.8,1.4-2.7,3.5-2.9
		c0.9-0.1,1.7-0.1,2.5-0.1v-0.4c0-1.7-0.7-2.7-2.3-2.7c-1,0-1.8,0.3-2.6,0.7l-0.4-1.4c1-0.6,2.1-0.8,3.4-0.8c2.3,0,3.8,1.5,3.8,4.1
		v5.9h-1.8V214z M103.6,212.8V211c-0.8,0.1-1.5,0.1-2.2,0.2c-1.2,0.1-2.1,0.5-2.1,1.5c0,0.9,0.6,1.4,1.6,1.4
		C102,214.1,102.9,213.5,103.6,212.8z"/>
	<path fill="#F9FAFB" d="M116.5,215.2h-1.7v-1.4c-0.7,0.9-1.7,1.6-3.2,1.6c-2.3,0-3.8-2.1-3.8-5.1c0-3.3,2.2-5.2,5-5.2
		c0.8,0,1.4,0.1,2,0.3v-4.7h1.9V215.2z M114.7,212.6v-5.7c-0.5-0.2-1.1-0.3-1.7-0.3c-2.1,0-3.4,1.3-3.4,3.7c0,2.2,0.8,3.6,2.5,3.6
		C113.2,213.9,114.1,213.2,114.7,212.6z"/>
	<path fill="#F9FAFB" d="M125.1,214c-0.6,0.7-1.8,1.4-3.3,1.4c-1.6,0-2.8-1.1-2.8-2.7c0-1.8,1.4-2.7,3.5-2.9
		c0.9-0.1,1.7-0.1,2.5-0.1v-0.4c0-1.7-0.7-2.7-2.3-2.7c-1,0-1.8,0.3-2.6,0.7l-0.4-1.4c1-0.6,2.1-0.8,3.4-0.8c2.3,0,3.8,1.5,3.8,4.1
		v5.9h-1.8V214z M125.1,212.8V211c-0.8,0.1-1.5,0.1-2.2,0.2c-1.2,0.1-2.1,0.5-2.1,1.5c0,0.9,0.6,1.4,1.6,1.4
		C123.5,214.1,124.4,213.5,125.1,212.8z"/>
	<path fill="#F9FAFB" d="M139.9,214c-0.6,0.7-1.8,1.4-3.3,1.4c-1.6,0-2.8-1.1-2.8-2.7c0-1.8,1.4-2.7,3.5-2.9
		c0.9-0.1,1.7-0.1,2.5-0.1v-0.4c0-1.7-0.7-2.7-2.3-2.7c-1,0-1.8,0.3-2.6,0.7l-0.4-1.4c1-0.6,2.1-0.8,3.4-0.8c2.3,0,3.8,1.5,3.8,4.1
		v5.9h-1.8V214z M139.8,212.8V211c-0.8,0.1-1.5,0.1-2.2,0.2c-1.2,0.1-2.1,0.5-2.1,1.5c0,0.9,0.6,1.4,1.6,1.4
		C138.2,214.1,139.1,213.5,139.8,212.8z"/>
	<path fill="#F9FAFB" d="M159.1,201.9l-0.3,1.5c-0.9-0.3-2-0.6-3.1-0.6c-3.4,0-5.5,2-5.5,5.6c0,3.6,2,5.6,5.5,5.6
		c1,0,2.2-0.2,3.1-0.6l0.3,1.5c-0.9,0.4-2.4,0.6-3.6,0.6c-4.5,0-7.1-3-7.1-7.1s2.6-7.1,7.1-7.1C156.7,201.3,158.2,201.5,159.1,201.9
		z"/>
	<path fill="#F9FAFB" d="M161.7,201.5h3.8c4.7,0,7.8,2.9,7.8,6.8s-3.1,6.8-7.8,6.8h-3.8V201.5z M165.5,213.7c3.3,0,5.9-2,5.9-5.3
		c0-3.4-2.6-5.3-5.9-5.3h-1.9v10.7H165.5z"/>
	<path fill="#F9FAFB" d="M187.5,201.5h1.7l1,13.7h-1.8l-0.7-10.7l-3.9,8.2h-1.9l-3.9-8.2l-0.7,10.7h-1.8l1-13.7h1.7l4.7,9.7
		L187.5,201.5z"/>
	<path fill="#F9FAFB" d="M197.6,209.8l-3.6,5.4h-2l4.6-6.9l-4.5-6.8h2l3.5,5.3l3.5-5.3h2l-4.5,6.8l4.6,6.9h-2L197.6,209.8z"/>
</g>
<g>
	<path fill="#F9FAFB" d="M51,275.9h6.5c8,0,13.3,4.9,13.3,11.7s-5.3,11.7-13.3,11.7H51V275.9z M57.5,296.6c5.6,0,10.1-3.3,10.1-9.1
		s-4.5-9.1-10.1-9.1h-3.3v18.1H57.5z"/>
	<path fill="#F9FAFB" d="M74.7,299.2v-16.8h3.2v16.8H74.7z M75,279.8l2.6-5.6h3.5l-3.4,5.6H75z"/>
	<path fill="#F9FAFB" d="M92.6,297.1c-1,1.2-3,2.5-5.6,2.5c-2.8,0-4.8-1.8-4.8-4.7c0-3.1,2.3-4.6,6-4.9c1.5-0.1,3-0.1,4.3-0.1v-0.7
		c0-2.8-1.1-4.6-3.9-4.6c-1.6,0-3.1,0.5-4.4,1.2l-0.7-2.3c1.8-1.1,3.5-1.4,5.7-1.4c4,0,6.5,2.5,6.5,7v10.1h-3.1V297.1z M92.5,295.1
		V292c-1.4,0.1-2.6,0.2-3.8,0.3c-2,0.2-3.5,0.8-3.5,2.6c0,1.6,1,2.3,2.7,2.3C89.7,297.3,91.3,296.3,92.5,295.1z"/>
	<path fill="#F9FAFB" d="M107.7,276.8c1.5-0.9,3.4-1.4,5.4-1.4c4.3,0,7.2,2.7,7.2,6.9c0,3.9-2,6.6-5.3,9.9c-1.8,1.9-2.9,2.8-4.6,4.3
		h10.2v2.6h-13.8l-0.4-1.9c2.7-2.7,4.7-4.9,6.7-7c2.4-2.6,3.9-4.9,3.9-7.7c0-2.8-1.6-4.4-4.3-4.4c-1.5,0-2.9,0.4-4.3,1.2
		L107.7,276.8z"/>
</g>
<g>
	<path fill="#F9FAFB" d="M52.3,320.6c-1.5,0-2.6-1.2-2.6-2.6c0-1.4,1.1-2.6,2.6-2.6c1.5,0,2.6,1.2,2.6,2.6
		C54.9,319.5,53.8,320.6,52.3,320.6z"/>
	<path fill="#F9FAFB" d="M65.6,324.1c-1.3,0-2.8-0.3-3.9-0.8l0.4-1.5c1,0.5,2.3,0.8,3.5,0.8c1.8,0,3-0.8,3-2.2c0-1.6-1.4-2.2-3-2.9
		c-1.9-0.9-3.6-1.9-3.6-3.9c0-2.4,1.8-3.6,4.4-3.6c1.3,0,2.6,0.3,3.6,0.8l-0.3,1.5c-0.9-0.5-2.1-0.8-3.2-0.8c-1.7,0-2.5,0.6-2.5,1.9
		c0,1.2,0.6,1.6,2.4,2.5c1.7,0.9,4.2,2,4.2,4.5C70.4,322.7,68.2,324.1,65.6,324.1z"/>
	<path fill="#F9FAFB" d="M78.2,322.7c-0.6,0.7-1.8,1.4-3.3,1.4c-1.6,0-2.8-1.1-2.8-2.7c0-1.8,1.4-2.7,3.5-2.9
		c0.9-0.1,1.7-0.1,2.5-0.1V318c0-1.7-0.7-2.7-2.3-2.7c-1,0-1.8,0.3-2.6,0.7l-0.4-1.4c1-0.6,2.1-0.8,3.4-0.8c2.3,0,3.8,1.5,3.8,4.1
		v5.9h-1.8V322.7z M78.2,321.5v-1.8c-0.8,0.1-1.5,0.1-2.2,0.2c-1.2,0.1-2.1,0.5-2.1,1.5c0,0.9,0.6,1.4,1.6,1.4
		C76.5,322.7,77.5,322.2,78.2,321.5z"/>
	<path fill="#F9FAFB" d="M84.7,321.3c0,0.8,0.3,1.2,1,1.2c0.3,0,0.6,0,0.9-0.1l0.1,1.4c-0.5,0.1-0.9,0.2-1.5,0.2
		c-1.7,0-2.4-1.2-2.4-2.6v-12.1h1.9V321.3z"/>
	<path fill="#F9FAFB" d="M89.6,309.9c0.7,0,1.2,0.5,1.2,1.2s-0.5,1.2-1.2,1.2c-0.7,0-1.2-0.5-1.2-1.2S88.9,309.9,89.6,309.9z
		 M88.7,323.9V314h1.9v9.9H88.7z"/>
	<path fill="#F9FAFB" d="M101.7,323.9h-1.7v-1.4c-0.7,0.9-1.7,1.6-3.2,1.6c-2.3,0-3.8-2.1-3.8-5.1c0-3.3,2.2-5.2,5-5.2
		c0.8,0,1.4,0.1,2,0.3v-4.7h1.9V323.9z M99.8,321.3v-5.7c-0.5-0.2-1.1-0.3-1.7-0.3c-2.1,0-3.4,1.3-3.4,3.7c0,2.2,0.8,3.6,2.5,3.6
		C98.4,322.6,99.3,321.9,99.8,321.3z"/>
	<path fill="#F9FAFB" d="M110.3,322.7c-0.6,0.7-1.8,1.4-3.3,1.4c-1.6,0-2.8-1.1-2.8-2.7c0-1.8,1.4-2.7,3.5-2.9
		c0.9-0.1,1.7-0.1,2.5-0.1V318c0-1.7-0.7-2.7-2.3-2.7c-1,0-1.8,0.3-2.6,0.7l-0.4-1.4c1-0.6,2.1-0.8,3.4-0.8c2.3,0,3.8,1.5,3.8,4.1
		v5.9h-1.8V322.7z M110.3,321.5v-1.8c-0.8,0.1-1.5,0.1-2.2,0.2c-1.2,0.1-2.1,0.5-2.1,1.5c0,0.9,0.6,1.4,1.6,1.4
		C108.6,322.7,109.6,322.2,110.3,321.5z"/>
	<path fill="#F9FAFB" d="M125.1,322.7c-0.6,0.7-1.8,1.4-3.3,1.4c-1.6,0-2.8-1.1-2.8-2.7c0-1.8,1.4-2.7,3.5-2.9
		c0.9-0.1,1.7-0.1,2.5-0.1V318c0-1.7-0.7-2.7-2.3-2.7c-1,0-1.8,0.3-2.6,0.7l-0.4-1.4c1-0.6,2.1-0.8,3.4-0.8c2.3,0,3.8,1.5,3.8,4.1
		v5.9h-1.8V322.7z M125,321.5v-1.8c-0.8,0.1-1.5,0.1-2.2,0.2c-1.2,0.1-2.1,0.5-2.1,1.5c0,0.9,0.6,1.4,1.6,1.4
		C123.4,322.7,124.3,322.2,125,321.5z"/>
	<path fill="#F9FAFB" d="M138.2,323.9h-3.9v-13.7h4.2c2.7,0,4.4,1.3,4.4,3.3c0,1.6-1.2,2.7-2.8,3.2c2,0.4,3.3,1.5,3.3,3.3
		C143.5,322.3,141.4,323.9,138.2,323.9z M137.9,316.1c1.9,0,3.3-0.9,3.3-2.4c0-1.4-1.1-2.1-2.8-2.1h-2.3v4.4H137.9z M138.1,317.6
		h-1.9v4.8h2.2c2.1,0,3.4-0.8,3.4-2.4C141.7,318.3,140,317.6,138.1,317.6z"/>
	<path fill="#F9FAFB" d="M150,324.1c-3,0-4.8-2.4-4.8-5.1s1.7-5.1,4.8-5.1s4.8,2.4,4.8,5.1S153,324.1,150,324.1z M150,315.3
		c-2,0-2.9,1.6-2.9,3.7s1,3.7,2.9,3.7s2.9-1.6,2.9-3.7S152,315.3,150,315.3z"/>
	<path fill="#F9FAFB" d="M159.8,320.5c-0.2,0.3-0.3,0.6-0.3,0.8c0,0.5,0.3,0.7,1.1,0.8l2,0.2c1.9,0.2,3.2,0.8,3.2,2.5
		c0,2.1-2.7,3.6-5.5,3.6c-2.4,0-4.3-0.8-4.3-2.6c0-1.5,1.5-2.2,2.8-2.5c-0.6-0.3-1-0.7-1-1.4c0-0.8,0.5-1.2,1.1-1.5
		c-1.3-0.5-2.2-1.6-2.2-3.1c0-2,1.7-3.4,3.9-3.4c0.5,0,0.9,0.1,1.4,0.2h3.7v1.4h-1.7c0.4,0.6,0.6,1.2,0.6,1.8c0,2-1.7,3.4-3.9,3.4
		C160.3,320.6,160.1,320.6,159.8,320.5z M159.9,323.5c-0.9,0.4-2.1,1-2.1,2c0,1,1,1.5,2.6,1.5c1.7,0,3.7-0.7,3.7-2.1
		c0-1-1.1-1.2-2.2-1.3L159.9,323.5z M162.9,317.2c0-1.3-1-2.1-2.3-2.1s-2.3,0.7-2.3,2.1s1,2.1,2.3,2.1S162.9,318.5,162.9,317.2z"/>
	<path fill="#F9FAFB" d="M171.7,324.1c-3,0-4.8-2.4-4.8-5.1s1.7-5.1,4.8-5.1s4.8,2.4,4.8,5.1S174.7,324.1,171.7,324.1z M171.7,315.3
		c-2,0-2.9,1.6-2.9,3.7s1,3.7,2.9,3.7s2.9-1.6,2.9-3.7S173.7,315.3,171.7,315.3z"/>
	<path fill="#F9FAFB" d="M177.7,314h1.8v-2.5h1.9v2.5h3.3v1.5h-3.3v5c0,1.2,0.3,2,1.5,2c0.6,0,1.1-0.1,1.6-0.3l0.2,1.4
		c-0.4,0.2-1.4,0.4-2.1,0.4c-2.1,0-3-1.4-3-3.5v-5.1h-1.8V314z"/>
	<path fill="#F9FAFB" d="M192.4,322.7c-0.6,0.7-1.8,1.4-3.3,1.4c-1.6,0-2.8-1.1-2.8-2.7c0-1.8,1.4-2.7,3.5-2.9
		c0.9-0.1,1.7-0.1,2.5-0.1V318c0-1.7-0.7-2.7-2.3-2.7c-1,0-1.8,0.3-2.6,0.7l-0.4-1.4c1-0.6,2.1-0.8,3.4-0.8c2.3,0,3.8,1.5,3.8,4.1
		v5.9h-1.8V322.7z M192.3,321.5v-1.8c-0.8,0.1-1.5,0.1-2.2,0.2c-1.2,0.1-2.1,0.5-2.1,1.5c0,0.9,0.6,1.4,1.6,1.4
		C190.7,322.7,191.7,322.2,192.3,321.5z M189.4,312.5l1.5-3.3h2.1l-2,3.3H189.4z"/>
	<path fill="#F9FAFB" d="M196.4,326.5c0.8-1.6,1.2-3.1,1.3-4.9l1.8,0.2c-0.1,1.8-0.7,3.7-1.9,5.3L196.4,326.5z"/>
	<path fill="#F9FAFB" d="M217,310.6l-0.3,1.5c-0.9-0.3-2-0.6-3.1-0.6c-3.4,0-5.5,2-5.5,5.6s2,5.6,5.5,5.6c1,0,2.2-0.2,3.1-0.6
		l0.3,1.5c-0.9,0.4-2.4,0.6-3.6,0.6c-4.5,0-7.1-3-7.1-7.1c0-4.1,2.6-7.1,7.1-7.1C214.6,309.9,216.1,310.2,217,310.6z"/>
	<path fill="#F9FAFB" d="M223.1,324.1c-3,0-4.8-2.4-4.8-5.1s1.7-5.1,4.8-5.1s4.8,2.4,4.8,5.1S226.2,324.1,223.1,324.1z M223.1,315.3
		c-2,0-2.9,1.6-2.9,3.7s1,3.7,2.9,3.7s2.9-1.6,2.9-3.7S225.1,315.3,223.1,315.3z"/>
	<path fill="#F9FAFB" d="M232,321.3c0,0.8,0.3,1.2,1,1.2c0.3,0,0.6,0,0.9-0.1l0.1,1.4c-0.5,0.1-0.9,0.2-1.5,0.2
		c-1.7,0-2.4-1.2-2.4-2.6v-12.1h1.9V321.3z"/>
	<path fill="#F9FAFB" d="M239.9,324.1c-3,0-4.8-2.4-4.8-5.1s1.7-5.1,4.8-5.1s4.8,2.4,4.8,5.1S243,324.1,239.9,324.1z M239.9,315.3
		c-2,0-2.9,1.6-2.9,3.7s1,3.7,2.9,3.7s2.9-1.6,2.9-3.7S241.9,315.3,239.9,315.3z"/>
	<path fill="#F9FAFB" d="M255.2,316.9c0.1,0.6,0.2,1.2,0.2,1.8v5.2h-1.9v-5.1c0-2-0.5-3.4-2.1-3.4c-1.1,0-2,0.7-2.4,1.3v7.2h-1.9
		V314h1.8v1.4c0.7-1,1.8-1.6,3.1-1.6c1.4,0,2.3,0.7,2.8,1.9c0.8-1.2,1.9-1.9,3.5-1.9c2.5,0,3.5,2.2,3.5,4.9v5.2H260v-5.1
		c0-2-0.5-3.4-2.1-3.4C256.8,315.3,255.9,316,255.2,316.9z"/>
	<path fill="#F9FAFB" d="M264.8,309.4h1.9v5.6c0.6-0.6,1.6-1.1,2.8-1.1c2.5,0,4.2,2.2,4.2,5.1c0,2.9-1.8,5.2-5.2,5.2
		c-1.3,0-2.6-0.2-3.6-0.7V309.4z M266.6,316.2v6.1c0.5,0.2,1,0.3,1.7,0.3c2.2,0,3.4-1.5,3.4-3.7c0-2-0.9-3.6-2.8-3.6
		C268,315.3,267.2,315.7,266.6,316.2z"/>
	<path fill="#F9FAFB" d="M276.9,309.9c0.7,0,1.2,0.5,1.2,1.2s-0.5,1.2-1.2,1.2c-0.7,0-1.2-0.5-1.2-1.2S276.1,309.9,276.9,309.9z
		 M275.9,323.9V314h1.9v9.9H275.9z"/>
	<path fill="#F9FAFB" d="M286.4,322.7c-0.6,0.7-1.8,1.4-3.3,1.4c-1.6,0-2.8-1.1-2.8-2.7c0-1.8,1.4-2.7,3.5-2.9
		c0.9-0.1,1.7-0.1,2.5-0.1V318c0-1.7-0.7-2.7-2.3-2.7c-1,0-1.8,0.3-2.6,0.7l-0.4-1.4c1-0.6,2.1-0.8,3.4-0.8c2.3,0,3.8,1.5,3.8,4.1
		v5.9h-1.8V322.7z M286.4,321.5v-1.8c-0.8,0.1-1.5,0.1-2.2,0.2c-1.2,0.1-2.1,0.5-2.1,1.5c0,0.9,0.6,1.4,1.6,1.4
		C284.7,322.7,285.7,322.2,286.4,321.5z"/>
</g>
<g>
	<path fill="#F9FAFB" d="M52.3,345.3c-1.5,0-2.6-1.2-2.6-2.6c0-1.4,1.1-2.6,2.6-2.6c1.5,0,2.6,1.2,2.6,2.6
		C54.9,344.1,53.8,345.3,52.3,345.3z"/>
	<path fill="#F9FAFB" d="M72.5,335.3l-0.3,1.5c-0.9-0.3-2-0.6-3.1-0.6c-3.4,0-5.5,2-5.5,5.6s2,5.6,5.5,5.6c1,0,2.2-0.2,3.1-0.6
		l0.3,1.5c-0.9,0.4-2.4,0.6-3.6,0.6c-4.5,0-7.1-3-7.1-7.1c0-4.1,2.6-7.1,7.1-7.1C70.1,334.6,71.5,334.9,72.5,335.3z"/>
	<path fill="#F9FAFB" d="M78.6,348.8c-3,0-4.8-2.4-4.8-5.1s1.7-5.1,4.8-5.1s4.8,2.4,4.8,5.1S81.6,348.8,78.6,348.8z M78.6,339.9
		c-2,0-2.9,1.6-2.9,3.7s1,3.7,2.9,3.7s2.9-1.6,2.9-3.7S80.6,339.9,78.6,339.9z"/>
	<path fill="#F9FAFB" d="M93.9,341.6c0.1,0.6,0.2,1.2,0.2,1.8v5.2h-1.9v-5.1c0-2-0.5-3.4-2.1-3.4c-1.1,0-2,0.7-2.4,1.3v7.2h-1.9
		v-9.9h1.8v1.4c0.7-1,1.8-1.6,3.1-1.6c1.4,0,2.3,0.7,2.8,1.9c0.8-1.2,1.9-1.9,3.5-1.9c2.5,0,3.5,2.2,3.5,4.9v5.2h-1.9v-5.1
		c0-2-0.5-3.4-2.1-3.4C95.4,340,94.5,340.7,93.9,341.6z"/>
	<path fill="#F9FAFB" d="M104.4,334.6c0.7,0,1.2,0.5,1.2,1.2s-0.5,1.2-1.2,1.2c-0.7,0-1.2-0.5-1.2-1.2S103.7,334.6,104.4,334.6z
		 M103.5,348.6v-9.9h1.9v9.9H103.5z"/>
	<path fill="#F9FAFB" d="M116.5,348.6h-1.7v-1.4c-0.7,0.9-1.7,1.6-3.2,1.6c-2.3,0-3.8-2.1-3.8-5.1c0-3.3,2.2-5.2,5-5.2
		c0.8,0,1.4,0.1,2,0.3V334h1.9V348.6z M114.7,345.9v-5.7c-0.5-0.2-1.1-0.3-1.7-0.3c-2.1,0-3.4,1.3-3.4,3.7c0,2.2,0.8,3.6,2.5,3.6
		C113.2,347.3,114.1,346.6,114.7,345.9z"/>
	<path fill="#F9FAFB" d="M125.1,347.3c-0.6,0.7-1.8,1.4-3.3,1.4c-1.6,0-2.8-1.1-2.8-2.7c0-1.8,1.4-2.7,3.5-2.9
		c0.9-0.1,1.7-0.1,2.5-0.1v-0.4c0-1.7-0.7-2.7-2.3-2.7c-1,0-1.8,0.3-2.6,0.7l-0.4-1.4c1-0.6,2.1-0.8,3.4-0.8c2.3,0,3.8,1.5,3.8,4.1
		v5.9h-1.8V347.3z M125.1,346.1v-1.8c-0.8,0.1-1.5,0.1-2.2,0.2c-1.2,0.1-2.1,0.5-2.1,1.5c0,0.9,0.6,1.4,1.6,1.4
		C123.5,347.4,124.4,346.9,125.1,346.1z"/>
</g>
<g>
	<path fill="#F9FAFB" d="M52.3,370c-1.5,0-2.6-1.2-2.6-2.6c0-1.4,1.1-2.6,2.6-2.6c1.5,0,2.6,1.2,2.6,2.6
		C54.9,368.8,53.8,370,52.3,370z"/>
	<path fill="#F9FAFB" d="M65.6,373.5c-1.3,0-2.8-0.3-3.9-0.8l0.4-1.5c1,0.5,2.3,0.8,3.5,0.8c1.8,0,3-0.8,3-2.2c0-1.6-1.4-2.2-3-2.9
		c-1.9-0.9-3.6-1.9-3.6-3.9c0-2.4,1.8-3.6,4.4-3.6c1.3,0,2.6,0.3,3.6,0.8l-0.3,1.5c-0.9-0.5-2.1-0.8-3.2-0.8c-1.7,0-2.5,0.6-2.5,1.9
		c0,1.2,0.6,1.6,2.4,2.5c1.7,0.9,4.2,2,4.2,4.5C70.4,372,68.2,373.5,65.6,373.5z"/>
	<path fill="#F9FAFB" d="M80.3,367.2c0,0.6-0.1,1.1-0.2,1.7h-6.2c0.1,1.9,0.9,3.2,3.2,3.2c1.1,0,2-0.2,2.8-0.6l0.2,1.4
		c-0.9,0.4-2.1,0.7-3.3,0.7c-3.3,0-4.9-2.3-4.9-5.1c0-2.9,1.7-5.2,4.5-5.2C79,363.2,80.3,364.9,80.3,367.2z M73.9,367.4h4.6
		c0.2-1.6-0.4-2.9-2.1-2.9C74.9,364.5,74,365.8,73.9,367.4z"/>
	<path fill="#F9FAFB" d="M85,373.5c-1,0-2.3-0.2-3-0.6l0.3-1.5c0.7,0.3,1.6,0.6,2.8,0.6c1.2,0,2.1-0.4,2.1-1.3c0-0.9-0.9-1.3-2-1.7
		c-1.4-0.5-3-1.3-3-3c0-1.9,1.7-2.7,3.5-2.7c1,0,2.1,0.2,2.9,0.7l-0.3,1.4c-0.8-0.4-1.7-0.6-2.6-0.6c-1,0-1.7,0.3-1.7,1.2
		c0,0.8,1.1,1.1,1.9,1.5c0.7,0.3,3.2,1.1,3.2,3.1C89,372.3,87.3,373.5,85,373.5z"/>
	<path fill="#F9FAFB" d="M92.2,359.3c0.7,0,1.2,0.5,1.2,1.2s-0.5,1.2-1.2,1.2c-0.7,0-1.2-0.5-1.2-1.2S91.4,359.3,92.2,359.3z
		 M91.2,373.2v-9.9h1.9v9.9H91.2z"/>
	<path fill="#F9FAFB" d="M100.2,373.5c-3,0-4.8-2.4-4.8-5.1s1.7-5.1,4.8-5.1s4.8,2.4,4.8,5.1S103.3,373.5,100.2,373.5z M100.2,364.6
		c-2,0-2.9,1.6-2.9,3.7s1,3.7,2.9,3.7s2.9-1.6,2.9-3.7S102.2,364.6,100.2,364.6z M99.4,361.8l1.5-3.3h2.1l-2,3.3H99.4z"/>
	<path fill="#F9FAFB" d="M107.4,373.2v-9.9h1.8v1.4c0.7-1,1.8-1.6,3.1-1.6c2.5,0,3.5,2.2,3.5,4.9v5.2H114v-5.1c0-2-0.6-3.4-2.3-3.4
		c-1.1,0-2,0.7-2.4,1.3v7.2H107.4z"/>
	<path fill="#F9FAFB" d="M131.3,373.2h-1.7v-1.4c-0.7,0.9-1.7,1.6-3.2,1.6c-2.3,0-3.8-2.1-3.8-5.1c0-3.3,2.2-5.2,5-5.2
		c0.8,0,1.4,0.1,2,0.3v-4.7h1.9V373.2z M129.5,370.6v-5.7c-0.5-0.2-1.1-0.3-1.7-0.3c-2.1,0-3.4,1.3-3.4,3.7c0,2.2,0.8,3.6,2.5,3.6
		C128,372,128.9,371.3,129.5,370.6z"/>
	<path fill="#F9FAFB" d="M142,367.2c0,0.6-0.1,1.1-0.2,1.7h-6.2c0.1,1.9,0.9,3.2,3.2,3.2c1.1,0,2-0.2,2.8-0.6l0.2,1.4
		c-0.9,0.4-2.1,0.7-3.3,0.7c-3.3,0-4.9-2.3-4.9-5.1c0-2.9,1.7-5.2,4.5-5.2C140.7,363.2,142,364.9,142,367.2z M135.6,367.4h4.6
		c0.2-1.6-0.4-2.9-2.1-2.9C136.6,364.5,135.7,365.8,135.6,367.4z"/>
	<path fill="#F9FAFB" d="M155.7,363.7l-0.3,1.4c-0.7-0.3-1.5-0.5-2.3-0.5c-2.2,0-3.3,1.5-3.3,3.7s1,3.7,3.3,3.7
		c0.8,0,1.6-0.2,2.3-0.5l0.3,1.4c-0.7,0.3-1.9,0.5-2.8,0.5c-3.3,0-4.9-2.4-4.9-5.1s1.6-5.1,4.9-5.1C154,363.2,155,363.4,155.7,363.7
		z"/>
	<path fill="#F9FAFB" d="M162,373.5c-3,0-4.8-2.4-4.8-5.1s1.7-5.1,4.8-5.1s4.8,2.4,4.8,5.1S165,373.5,162,373.5z M162,364.6
		c-2,0-2.9,1.6-2.9,3.7s1,3.7,2.9,3.7s2.9-1.6,2.9-3.7S164,364.6,162,364.6z"/>
	<path fill="#F9FAFB" d="M169.1,373.2v-9.9h1.8v1.4c0.7-1,1.8-1.6,3.1-1.6c2.5,0,3.5,2.2,3.5,4.9v5.2h-1.9v-5.1c0-2-0.6-3.4-2.3-3.4
		c-1.1,0-2,0.7-2.4,1.3v7.2H169.1z"/>
	<path fill="#F9FAFB" d="M181.2,373.2v-8.4h-1.7v-1.5h1.7V363c0-3,1.5-4.4,3.9-4.4c0.6,0,1.2,0.1,1.7,0.2l-0.2,1.4
		c-0.4-0.1-0.8-0.2-1.3-0.2c-1.6,0-2.2,0.9-2.2,2.8v0.5h2.9v1.5h-2.9v8.4H181.2z"/>
	<path fill="#F9FAFB" d="M195.1,367.2c0,0.6-0.1,1.1-0.2,1.7h-6.2c0.1,1.9,0.9,3.2,3.2,3.2c1.1,0,2-0.2,2.8-0.6l0.2,1.4
		c-0.9,0.4-2.1,0.7-3.3,0.7c-3.3,0-4.9-2.3-4.9-5.1c0-2.9,1.7-5.2,4.5-5.2C193.9,363.2,195.1,364.9,195.1,367.2z M188.7,367.4h4.6
		c0.2-1.6-0.4-2.9-2.1-2.9C189.7,364.5,188.8,365.8,188.7,367.4z"/>
	<path fill="#F9FAFB" d="M203,364.9h-0.5c-1.5,0-2.5,0.5-3.2,1.7v6.6h-1.9v-9.9h1.8v1.9c0.6-1.3,1.5-2,3-2c0.3,0,0.6,0,0.8,0.1
		V364.9z"/>
	<path fill="#F9FAFB" d="M212.5,367.2c0,0.6-0.1,1.1-0.2,1.7H206c0.1,1.9,0.9,3.2,3.2,3.2c1.1,0,2-0.2,2.8-0.6l0.2,1.4
		c-0.9,0.4-2.1,0.7-3.3,0.7c-3.3,0-4.9-2.3-4.9-5.1c0-2.9,1.7-5.2,4.5-5.2C211.2,363.2,212.5,364.9,212.5,367.2z M206,367.4h4.6
		c0.2-1.6-0.4-2.9-2.1-2.9C207,364.5,206.1,365.8,206,367.4z"/>
	<path fill="#F9FAFB" d="M214.8,373.2v-9.9h1.8v1.4c0.7-1,1.8-1.6,3.1-1.6c2.5,0,3.5,2.2,3.5,4.9v5.2h-1.9v-5.1c0-2-0.6-3.4-2.3-3.4
		c-1.1,0-2,0.7-2.4,1.3v7.2H214.8z"/>
	<path fill="#F9FAFB" d="M233.1,363.7l-0.3,1.4c-0.7-0.3-1.5-0.5-2.3-0.5c-2.2,0-3.3,1.5-3.3,3.7s1,3.7,3.3,3.7
		c0.8,0,1.6-0.2,2.3-0.5l0.3,1.4c-0.7,0.3-1.9,0.5-2.8,0.5c-3.3,0-4.9-2.4-4.9-5.1s1.6-5.1,4.9-5.1
		C231.4,363.2,232.4,363.4,233.1,363.7z"/>
	<path fill="#F9FAFB" d="M236.3,359.3c0.7,0,1.2,0.5,1.2,1.2s-0.5,1.2-1.2,1.2c-0.7,0-1.2-0.5-1.2-1.2S235.6,359.3,236.3,359.3z
		 M235.4,373.2v-9.9h1.9v9.9H235.4z"/>
	<path fill="#F9FAFB" d="M245.9,372c-0.6,0.7-1.8,1.4-3.3,1.4c-1.6,0-2.8-1.1-2.8-2.7c0-1.8,1.4-2.7,3.5-2.9
		c0.9-0.1,1.7-0.1,2.5-0.1v-0.4c0-1.7-0.7-2.7-2.3-2.7c-1,0-1.8,0.3-2.6,0.7l-0.4-1.4c1-0.6,2.1-0.8,3.4-0.8c2.3,0,3.8,1.5,3.8,4.1
		v5.9h-1.8V372z M245.8,370.8V369c-0.8,0.1-1.5,0.1-2.2,0.2c-1.2,0.1-2.1,0.5-2.1,1.5c0,0.9,0.6,1.4,1.6,1.4
		C244.2,372.1,245.1,371.6,245.8,370.8z"/>
	<path fill="#F9FAFB" d="M253,373.5c-1,0-2.3-0.2-3-0.6l0.3-1.5c0.7,0.3,1.6,0.6,2.8,0.6c1.2,0,2.1-0.4,2.1-1.3c0-0.9-0.9-1.3-2-1.7
		c-1.4-0.5-3-1.3-3-3c0-1.9,1.7-2.7,3.5-2.7c1,0,2.1,0.2,2.9,0.7l-0.3,1.4c-0.8-0.4-1.7-0.6-2.6-0.6c-1,0-1.7,0.3-1.7,1.2
		c0,0.8,1.1,1.1,1.9,1.5c0.7,0.3,3.2,1.1,3.2,3.1C256.9,372.3,255.3,373.5,253,373.5z"/>
</g>
<g>
	<path fill="#F9FAFB" d="M52.3,394.7c-1.5,0-2.6-1.2-2.6-2.6c0-1.4,1.1-2.6,2.6-2.6c1.5,0,2.6,1.2,2.6,2.6
		C54.9,393.5,53.8,394.7,52.3,394.7z"/>
	<path fill="#F9FAFB" d="M72.5,384.6l-0.3,1.5c-0.9-0.3-2-0.6-3.1-0.6c-3.4,0-5.5,2-5.5,5.6s2,5.6,5.5,5.6c1,0,2.2-0.2,3.1-0.6
		l0.3,1.5c-0.9,0.4-2.4,0.6-3.6,0.6c-4.5,0-7.1-3-7.1-7.1c0-4.1,2.6-7.1,7.1-7.1C70.1,384,71.5,384.2,72.5,384.6z"/>
	<path fill="#F9FAFB" d="M82.1,391.8c0,0.6-0.1,1.1-0.2,1.7h-6.2c0.1,1.9,0.9,3.2,3.2,3.2c1.1,0,2-0.2,2.8-0.6l0.2,1.4
		c-0.9,0.4-2.1,0.7-3.3,0.7c-3.3,0-4.9-2.3-4.9-5.1c0-2.9,1.7-5.2,4.5-5.2C80.9,387.8,82.1,389.6,82.1,391.8z M75.7,392.1h4.6
		c0.2-1.6-0.4-2.9-2.1-2.9C76.7,389.2,75.8,390.5,75.7,392.1z"/>
	<path fill="#F9FAFB" d="M84.5,397.9v-9.9h1.8v1.4c0.7-1,1.8-1.6,3.1-1.6c2.5,0,3.5,2.2,3.5,4.9v5.2H91v-5.1c0-2-0.6-3.4-2.3-3.4
		c-1.1,0-2,0.7-2.4,1.3v7.2H84.5z"/>
	<path fill="#F9FAFB" d="M101.4,396.7c-0.6,0.7-1.8,1.4-3.3,1.4c-1.6,0-2.8-1.1-2.8-2.7c0-1.8,1.4-2.7,3.5-2.9
		c0.9-0.1,1.7-0.1,2.5-0.1V392c0-1.7-0.7-2.7-2.3-2.7c-1,0-1.8,0.3-2.6,0.7l-0.4-1.4c1-0.6,2.1-0.8,3.4-0.8c2.3,0,3.8,1.5,3.8,4.1
		v5.9h-1.8V396.7z M101.4,395.5v-1.8c-0.8,0.1-1.5,0.1-2.2,0.2c-1.2,0.1-2.1,0.5-2.1,1.5c0,0.9,0.6,1.4,1.6,1.4
		C99.7,396.8,100.7,396.2,101.4,395.5z"/>
</g>
<g>
	<path fill="#F9FAFB" d="M51,458.6h6.5c8,0,13.3,4.9,13.3,11.7s-5.3,11.7-13.3,11.7H51V458.6z M57.5,479.3c5.6,0,10.1-3.3,10.1-9.1
		s-4.5-9.1-10.1-9.1h-3.3v18.1H57.5z"/>
	<path fill="#F9FAFB" d="M74.7,481.9v-16.8h3.2v16.8H74.7z M75,462.5l2.6-5.6h3.5l-3.4,5.6H75z"/>
	<path fill="#F9FAFB" d="M92.6,479.8c-1,1.2-3,2.5-5.6,2.5c-2.8,0-4.8-1.8-4.8-4.7c0-3.1,2.3-4.6,6-4.9c1.5-0.1,3-0.1,4.3-0.1v-0.7
		c0-2.8-1.1-4.6-3.9-4.6c-1.6,0-3.1,0.5-4.4,1.2l-0.7-2.3c1.8-1.1,3.5-1.4,5.7-1.4c4,0,6.5,2.5,6.5,7v10.1h-3.1V479.8z M92.5,477.8
		v-3.1c-1.4,0.1-2.6,0.2-3.8,0.3c-2,0.2-3.5,0.8-3.5,2.6c0,1.6,1,2.3,2.7,2.3C89.7,480,91.3,479.1,92.5,477.8z"/>
	<path fill="#F9FAFB" d="M112.8,482.3c-1.9,0-4.1-0.5-5.6-1.2l0.6-2.6c1.5,0.7,3.2,1.1,4.8,1.1c3.2,0,4.8-1.6,4.8-3.9
		c0-3.3-3-4.6-6.5-4.6h-1.4v-2.6h1.3c3.4,0,6.1-1.7,6.1-4.5c0-2.2-1.5-3.4-3.9-3.4c-1.5,0-2.7,0.3-4.4,1l-0.6-2.4
		c1.6-0.9,3.4-1.2,5.4-1.2c3.9,0,6.7,2.2,6.7,5.6c0,2.8-1.8,4.8-4.7,6.1c2.9,0.7,5.2,2.9,5.2,6C120.5,479.8,117.3,482.3,112.8,482.3
		z"/>
</g>
<g>
	<path fill="#F9FAFB" d="M52.3,503.4c-1.5,0-2.6-1.2-2.6-2.6c0-1.4,1.1-2.6,2.6-2.6c1.5,0,2.6,1.2,2.6,2.6
		C54.9,502.2,53.8,503.4,52.3,503.4z"/>
	<path fill="#F9FAFB" d="M70.2,492.9H72l-4.9,13.7h-2l-4.9-13.7h1.9l4,11.5L70.2,492.9z"/>
	<path fill="#F9FAFB" d="M74.7,492.6c0.7,0,1.2,0.5,1.2,1.2s-0.5,1.2-1.2,1.2c-0.7,0-1.2-0.5-1.2-1.2S74,492.6,74.7,492.6z
		 M73.8,506.6v-9.9h1.9v9.9H73.8z"/>
	<path fill="#F9FAFB" d="M81.1,506.8c-1,0-2.3-0.2-3-0.6l0.3-1.5c0.7,0.3,1.6,0.6,2.8,0.6c1.2,0,2.1-0.4,2.1-1.3
		c0-0.9-0.9-1.3-2-1.7c-1.4-0.5-3-1.3-3-3c0-1.9,1.7-2.7,3.5-2.7c1,0,2.1,0.2,2.9,0.7l-0.3,1.4c-0.8-0.4-1.7-0.6-2.6-0.6
		c-1,0-1.7,0.3-1.7,1.2c0,0.8,1.1,1.1,1.9,1.5c0.7,0.3,3.2,1.1,3.2,3.1C85.1,505.6,83.4,506.8,81.1,506.8z"/>
	<path fill="#F9FAFB" d="M88.2,492.6c0.7,0,1.2,0.5,1.2,1.2S89,495,88.2,495c-0.7,0-1.2-0.5-1.2-1.2S87.5,492.6,88.2,492.6z
		 M87.3,506.6v-9.9h1.9v9.9H87.3z"/>
	<path fill="#F9FAFB" d="M91.1,496.7h1.8v-2.5h1.9v2.5H98v1.5h-3.3v5c0,1.2,0.3,2,1.5,2c0.6,0,1.1-0.1,1.6-0.3l0.2,1.4
		c-0.4,0.2-1.4,0.4-2.1,0.4c-2.1,0-3-1.4-3-3.5v-5.1h-1.8V496.7z"/>
	<path fill="#F9FAFB" d="M105.8,505.4c-0.6,0.7-1.8,1.4-3.3,1.4c-1.6,0-2.8-1.1-2.8-2.7c0-1.8,1.4-2.7,3.5-2.9
		c0.9-0.1,1.7-0.1,2.5-0.1v-0.4c0-1.7-0.7-2.7-2.3-2.7c-1,0-1.8,0.3-2.6,0.7l-0.4-1.4c1-0.6,2.1-0.8,3.4-0.8c2.3,0,3.8,1.5,3.8,4.1
		v5.9h-1.8V505.4z M105.8,504.2v-1.8c-0.8,0.1-1.5,0.1-2.2,0.2c-1.2,0.1-2.1,0.5-2.1,1.5c0,0.9,0.6,1.4,1.6,1.4
		C104.1,505.5,105.1,504.9,105.8,504.2z"/>
	<path fill="#F9FAFB" d="M120.5,505.4c-0.6,0.7-1.8,1.4-3.3,1.4c-1.6,0-2.8-1.1-2.8-2.7c0-1.8,1.4-2.7,3.5-2.9
		c0.9-0.1,1.7-0.1,2.5-0.1v-0.4c0-1.7-0.7-2.7-2.3-2.7c-1,0-1.8,0.3-2.6,0.7l-0.4-1.4c1-0.6,2.1-0.8,3.4-0.8c2.3,0,3.8,1.5,3.8,4.1
		v5.9h-1.8V505.4z M120.5,504.2v-1.8c-0.8,0.1-1.5,0.1-2.2,0.2c-1.2,0.1-2.1,0.5-2.1,1.5c0,0.9,0.6,1.4,1.6,1.4
		C118.8,505.5,119.8,504.9,120.5,504.2z"/>
	<path fill="#F9FAFB" d="M139.8,493.3l-0.3,1.5c-0.9-0.3-2-0.6-3.1-0.6c-3.4,0-5.5,2-5.5,5.6s2,5.6,5.5,5.6c1,0,2.2-0.2,3.1-0.6
		l0.3,1.5c-0.9,0.4-2.4,0.6-3.6,0.6c-4.5,0-7.1-3-7.1-7.1c0-4.1,2.6-7.1,7.1-7.1C137.4,492.7,138.9,492.9,139.8,493.3z"/>
	<path fill="#F9FAFB" d="M145.9,506.8c-3,0-4.8-2.4-4.8-5.1s1.7-5.1,4.8-5.1s4.8,2.4,4.8,5.1S149,506.8,145.9,506.8z M145.9,498
		c-2,0-2.9,1.6-2.9,3.7s1,3.7,2.9,3.7s2.9-1.6,2.9-3.7S147.9,498,145.9,498z"/>
	<path fill="#F9FAFB" d="M154.8,504.1c0,0.8,0.3,1.2,1,1.2c0.3,0,0.6,0,0.9-0.1l0.1,1.4c-0.5,0.1-0.9,0.2-1.5,0.2
		c-1.7,0-2.4-1.2-2.4-2.6v-12.1h1.9V504.1z"/>
	<path fill="#F9FAFB" d="M166.3,500.5c0,0.6-0.1,1.1-0.2,1.7h-6.2c0.1,1.9,0.9,3.2,3.2,3.2c1.1,0,2-0.2,2.8-0.6l0.2,1.4
		c-0.9,0.4-2.1,0.7-3.3,0.7c-3.3,0-4.9-2.3-4.9-5.1c0-2.9,1.7-5.2,4.5-5.2C165,496.5,166.3,498.3,166.3,500.5z M159.9,500.8h4.6
		c0.2-1.6-0.4-2.9-2.1-2.9C160.9,497.9,160,499.2,159.9,500.8z"/>
	<path fill="#F9FAFB" d="M171.3,503.2c-0.2,0.3-0.3,0.6-0.3,0.8c0,0.5,0.3,0.7,1.1,0.8l2,0.2c1.9,0.2,3.2,0.8,3.2,2.5
		c0,2.1-2.7,3.6-5.5,3.6c-2.4,0-4.3-0.8-4.3-2.6c0-1.5,1.5-2.2,2.8-2.5c-0.6-0.3-1-0.7-1-1.4c0-0.8,0.5-1.2,1.1-1.5
		c-1.3-0.5-2.2-1.6-2.2-3.1c0-2,1.7-3.4,3.9-3.4c0.5,0,0.9,0.1,1.4,0.2h3.7v1.4h-1.7c0.4,0.6,0.6,1.2,0.6,1.8c0,2-1.7,3.4-3.9,3.4
		C171.8,503.3,171.6,503.3,171.3,503.2z M171.4,506.3c-0.9,0.4-2.1,1-2.1,2c0,1,1,1.5,2.6,1.5c1.7,0,3.7-0.7,3.7-2.1
		c0-1-1.1-1.2-2.2-1.3L171.4,506.3z M174.4,499.9c0-1.3-1-2.1-2.3-2.1s-2.3,0.7-2.3,2.1s1,2.1,2.3,2.1S174.4,501.2,174.4,499.9z"/>
	<path fill="#F9FAFB" d="M180.1,492.6c0.7,0,1.2,0.5,1.2,1.2s-0.5,1.2-1.2,1.2c-0.7,0-1.2-0.5-1.2-1.2S179.4,492.6,180.1,492.6z
		 M179.2,506.6v-9.9h1.9v9.9H179.2z"/>
	<path fill="#F9FAFB" d="M188.2,506.8c-3,0-4.8-2.4-4.8-5.1s1.7-5.1,4.8-5.1s4.8,2.4,4.8,5.1S191.2,506.8,188.2,506.8z M188.2,498
		c-2,0-2.9,1.6-2.9,3.7s1,3.7,2.9,3.7s2.9-1.6,2.9-3.7S190.2,498,188.2,498z"/>
	<path fill="#F9FAFB" d="M197.7,506.8c-1,0-2.3-0.2-3-0.6l0.3-1.5c0.7,0.3,1.6,0.6,2.8,0.6c1.2,0,2.1-0.4,2.1-1.3
		c0-0.9-0.9-1.3-2-1.7c-1.4-0.5-3-1.3-3-3c0-1.9,1.7-2.7,3.5-2.7c1,0,2.1,0.2,2.9,0.7l-0.3,1.4c-0.8-0.4-1.7-0.6-2.6-0.6
		c-1,0-1.7,0.3-1.7,1.2c0,0.8,1.1,1.1,1.9,1.5c0.7,0.3,3.2,1.1,3.2,3.1C201.7,505.6,200,506.8,197.7,506.8z"/>
	<path fill="#F9FAFB" d="M211.5,506.9c-1.3,0-2.8-0.3-3.9-0.8l0.4-1.5c1,0.5,2.3,0.8,3.5,0.8c1.8,0,3-0.8,3-2.2c0-1.6-1.4-2.2-3-2.9
		c-1.9-0.9-3.6-1.9-3.6-3.9c0-2.4,1.8-3.6,4.4-3.6c1.3,0,2.6,0.3,3.6,0.8l-0.3,1.5c-0.9-0.5-2.1-0.8-3.2-0.8c-1.7,0-2.5,0.6-2.5,1.9
		c0,1.2,0.6,1.6,2.4,2.5c1.7,0.9,4.2,2,4.2,4.5C216.3,505.4,214.2,506.9,211.5,506.9z"/>
	<path fill="#F9FAFB" d="M224.2,505.4c-0.6,0.7-1.8,1.4-3.3,1.4c-1.6,0-2.8-1.1-2.8-2.7c0-1.8,1.4-2.7,3.5-2.9
		c0.9-0.1,1.7-0.1,2.5-0.1v-0.4c0-1.7-0.7-2.7-2.3-2.7c-1,0-1.8,0.3-2.6,0.7l-0.4-1.4c1-0.6,2.1-0.8,3.4-0.8c2.3,0,3.8,1.5,3.8,4.1
		v5.9h-1.8V505.4z M224.2,504.2v-1.8c-0.8,0.1-1.5,0.1-2.2,0.2c-1.2,0.1-2.1,0.5-2.1,1.5c0,0.9,0.6,1.4,1.6,1.4
		C222.5,505.5,223.5,504.9,224.2,504.2z"/>
	<path fill="#F9FAFB" d="M228.9,506.6v-9.9h1.8v1.4c0.7-1,1.8-1.6,3.1-1.6c2.5,0,3.5,2.2,3.5,4.9v5.2h-1.9v-5.1c0-2-0.6-3.4-2.3-3.4
		c-1.1,0-2,0.7-2.4,1.3v7.2H228.9z"/>
	<path fill="#F9FAFB" d="M239,496.7h1.8v-2.5h1.9v2.5h3.3v1.5h-3.3v5c0,1.2,0.3,2,1.5,2c0.6,0,1.1-0.1,1.6-0.3l0.2,1.4
		c-0.4,0.2-1.4,0.4-2.1,0.4c-2.1,0-3-1.4-3-3.5v-5.1H239V496.7z"/>
	<path fill="#F9FAFB" d="M249.1,492.6c0.7,0,1.2,0.5,1.2,1.2s-0.5,1.2-1.2,1.2c-0.7,0-1.2-0.5-1.2-1.2S248.4,492.6,249.1,492.6z
		 M248.2,506.6v-9.9h1.9v9.9H248.2z"/>
	<path fill="#F9FAFB" d="M254.9,504.1c0,0.8,0.3,1.2,1,1.2c0.3,0,0.6,0,0.9-0.1l0.1,1.4c-0.5,0.1-0.9,0.2-1.5,0.2
		c-1.7,0-2.4-1.2-2.4-2.6v-12.1h1.9V504.1z"/>
	<path fill="#F9FAFB" d="M260.5,504.1c0,0.8,0.3,1.2,1,1.2c0.3,0,0.6,0,0.9-0.1l0.1,1.4c-0.5,0.1-0.9,0.2-1.5,0.2
		c-1.7,0-2.4-1.2-2.4-2.6v-12.1h1.9V504.1z"/>
	<path fill="#F9FAFB" d="M270,505.4c-0.6,0.7-1.8,1.4-3.3,1.4c-1.6,0-2.8-1.1-2.8-2.7c0-1.8,1.4-2.7,3.5-2.9
		c0.9-0.1,1.7-0.1,2.5-0.1v-0.4c0-1.7-0.7-2.7-2.3-2.7c-1,0-1.8,0.3-2.6,0.7l-0.4-1.4c1-0.6,2.1-0.8,3.4-0.8c2.3,0,3.8,1.5,3.8,4.1
		v5.9H270V505.4z M270,504.2v-1.8c-0.8,0.1-1.5,0.1-2.2,0.2c-1.2,0.1-2.1,0.5-2.1,1.5c0,0.9,0.6,1.4,1.6,1.4
		C268.3,505.5,269.3,504.9,270,504.2z"/>
	<path fill="#F9FAFB" d="M274.8,506.6v-9.9h1.8v1.4c0.7-1,1.8-1.6,3.1-1.6c2.5,0,3.5,2.2,3.5,4.9v5.2h-1.9v-5.1c0-2-0.6-3.4-2.3-3.4
		c-1.1,0-2,0.7-2.4,1.3v7.2H274.8z"/>
	<path fill="#F9FAFB" d="M291.7,505.4c-0.6,0.7-1.8,1.4-3.3,1.4c-1.6,0-2.8-1.1-2.8-2.7c0-1.8,1.4-2.7,3.5-2.9
		c0.9-0.1,1.7-0.1,2.5-0.1v-0.4c0-1.7-0.7-2.7-2.3-2.7c-1,0-1.8,0.3-2.6,0.7l-0.4-1.4c1-0.6,2.1-0.8,3.4-0.8c2.3,0,3.8,1.5,3.8,4.1
		v5.9h-1.8V505.4z M291.7,504.2v-1.8c-0.8,0.1-1.5,0.1-2.2,0.2c-1.2,0.1-2.1,0.5-2.1,1.5c0,0.9,0.6,1.4,1.6,1.4
		C290,505.5,291,504.9,291.7,504.2z"/>
	<path fill="#F9FAFB" d="M311,493.3l-0.3,1.5c-0.9-0.3-2-0.6-3.1-0.6c-3.4,0-5.5,2-5.5,5.6s2,5.6,5.5,5.6c1,0,2.2-0.2,3.1-0.6
		l0.3,1.5c-0.9,0.4-2.4,0.6-3.6,0.6c-4.5,0-7.1-3-7.1-7.1c0-4.1,2.6-7.1,7.1-7.1C308.6,492.7,310.1,492.9,311,493.3z"/>
	<path fill="#F9FAFB" d="M317.1,506.8c-3,0-4.8-2.4-4.8-5.1s1.7-5.1,4.8-5.1s4.8,2.4,4.8,5.1S320.2,506.8,317.1,506.8z M317.1,498
		c-2,0-2.9,1.6-2.9,3.7s1,3.7,2.9,3.7s2.9-1.6,2.9-3.7S319.1,498,317.1,498z"/>
	<path fill="#F9FAFB" d="M332.4,499.6c0.1,0.6,0.2,1.2,0.2,1.8v5.2h-1.9v-5.1c0-2-0.5-3.4-2.1-3.4c-1.1,0-2,0.7-2.4,1.3v7.2h-1.9
		v-9.9h1.8v1.4c0.7-1,1.8-1.6,3.1-1.6c1.4,0,2.3,0.7,2.8,1.9c0.8-1.2,1.9-1.9,3.5-1.9c2.5,0,3.5,2.2,3.5,4.9v5.2h-1.9v-5.1
		c0-2-0.5-3.4-2.1-3.4C334,498,333,498.7,332.4,499.6z"/>
	<path fill="#F9FAFB" d="M342,496.7h1.8v1.3c0.6-0.8,1.6-1.5,3.1-1.5c2.3,0,3.9,2.1,3.9,5.1c0,3.3-2.2,5.2-5,5.2
		c-0.8,0-1.4-0.1-2-0.3v4.3H342V496.7z M343.8,499.4v5.7c0.5,0.2,1.1,0.3,1.7,0.3c2.1,0,3.4-1.3,3.4-3.7c0-2.1-0.8-3.6-2.6-3.6
		C345.2,498,344.3,498.7,343.8,499.4z"/>
	<path fill="#F9FAFB" d="M358.7,505.4c-0.6,0.7-1.8,1.4-3.3,1.4c-1.6,0-2.8-1.1-2.8-2.7c0-1.8,1.4-2.7,3.5-2.9
		c0.9-0.1,1.7-0.1,2.5-0.1v-0.4c0-1.7-0.7-2.7-2.3-2.7c-1,0-1.8,0.3-2.6,0.7l-0.4-1.4c1-0.6,2.1-0.8,3.4-0.8c2.3,0,3.8,1.5,3.8,4.1
		v5.9h-1.8V505.4z M358.7,504.2v-1.8c-0.8,0.1-1.5,0.1-2.2,0.2c-1.2,0.1-2.1,0.5-2.1,1.5c0,0.9,0.6,1.4,1.6,1.4
		C357,505.5,358,504.9,358.7,504.2z"/>
	<path fill="#F9FAFB" d="M369,498.3h-0.5c-1.5,0-2.5,0.5-3.2,1.7v6.6h-1.9v-9.9h1.8v1.9c0.6-1.3,1.5-2,3-2c0.3,0,0.6,0,0.8,0.1
		V498.3z"/>
	<path fill="#F9FAFB" d="M369.8,496.7h1.8v-2.5h1.9v2.5h3.3v1.5h-3.3v5c0,1.2,0.3,2,1.5,2c0.6,0,1.1-0.1,1.6-0.3l0.2,1.4
		c-0.4,0.2-1.4,0.4-2.1,0.4c-2.1,0-3-1.4-3-3.5v-5.1h-1.8V496.7z"/>
	<path fill="#F9FAFB" d="M379.8,492.6c0.7,0,1.2,0.5,1.2,1.2s-0.5,1.2-1.2,1.2c-0.7,0-1.2-0.5-1.2-1.2S379.1,492.6,379.8,492.6z
		 M378.9,506.6v-9.9h1.9v9.9H378.9z"/>
	<path fill="#F9FAFB" d="M389.4,498.3h-0.5c-1.5,0-2.5,0.5-3.2,1.7v6.6h-1.9v-9.9h1.8v1.9c0.6-1.3,1.5-2,3-2c0.3,0,0.6,0,0.8,0.1
		V498.3z"/>
</g>
<g>
	<path fill="#F9FAFB" d="M52.3,528c-1.5,0-2.6-1.2-2.6-2.6c0-1.4,1.1-2.6,2.6-2.6c1.5,0,2.6,1.2,2.6,2.6
		C54.9,526.9,53.8,528,52.3,528z"/>
	<path fill="#F9FAFB" d="M72.5,518l-0.3,1.5c-0.9-0.3-2-0.6-3.1-0.6c-3.4,0-5.5,2-5.5,5.6s2,5.6,5.5,5.6c1,0,2.2-0.2,3.1-0.6
		l0.3,1.5c-0.9,0.4-2.4,0.6-3.6,0.6c-4.5,0-7.1-3-7.1-7.1c0-4.1,2.6-7.1,7.1-7.1C70.1,517.3,71.5,517.6,72.5,518z"/>
	<path fill="#F9FAFB" d="M78.6,531.5c-3,0-4.8-2.4-4.8-5.1s1.7-5.1,4.8-5.1s4.8,2.4,4.8,5.1S81.6,531.5,78.6,531.5z M78.6,522.6
		c-2,0-2.9,1.6-2.9,3.7s1,3.7,2.9,3.7s2.9-1.6,2.9-3.7S80.6,522.6,78.6,522.6z"/>
	<path fill="#F9FAFB" d="M93.9,524.3c0.1,0.6,0.2,1.2,0.2,1.8v5.2h-1.9v-5.1c0-2-0.5-3.4-2.1-3.4c-1.1,0-2,0.7-2.4,1.3v7.2h-1.9
		v-9.9h1.8v1.4c0.7-1,1.8-1.6,3.1-1.6c1.4,0,2.3,0.7,2.8,1.9c0.8-1.2,1.9-1.9,3.5-1.9c2.5,0,3.5,2.2,3.5,4.9v5.2h-1.9v-5.1
		c0-2-0.5-3.4-2.1-3.4C95.4,522.7,94.5,523.4,93.9,524.3z"/>
	<path fill="#F9FAFB" d="M104.4,517.3c0.7,0,1.2,0.5,1.2,1.2s-0.5,1.2-1.2,1.2c-0.7,0-1.2-0.5-1.2-1.2S103.7,517.3,104.4,517.3z
		 M103.5,531.3v-9.9h1.9v9.9H103.5z"/>
	<path fill="#F9FAFB" d="M116.5,531.3h-1.7v-1.4c-0.7,0.9-1.7,1.6-3.2,1.6c-2.3,0-3.8-2.1-3.8-5.1c0-3.3,2.2-5.2,5-5.2
		c0.8,0,1.4,0.1,2,0.3v-4.7h1.9V531.3z M114.7,528.7V523c-0.5-0.2-1.1-0.3-1.7-0.3c-2.1,0-3.4,1.3-3.4,3.7c0,2.2,0.8,3.6,2.5,3.6
		C113.2,530,114.1,529.3,114.7,528.7z"/>
	<path fill="#F9FAFB" d="M125.1,530.1c-0.6,0.7-1.8,1.4-3.3,1.4c-1.6,0-2.8-1.1-2.8-2.7c0-1.8,1.4-2.7,3.5-2.9
		c0.9-0.1,1.7-0.1,2.5-0.1v-0.4c0-1.7-0.7-2.7-2.3-2.7c-1,0-1.8,0.3-2.6,0.7l-0.4-1.4c1-0.6,2.1-0.8,3.4-0.8c2.3,0,3.8,1.5,3.8,4.1
		v5.9h-1.8V530.1z M125.1,528.9V527c-0.8,0.1-1.5,0.1-2.2,0.2c-1.2,0.1-2.1,0.5-2.1,1.5c0,0.9,0.6,1.4,1.6,1.4
		C123.5,530.1,124.4,529.6,125.1,528.9z"/>
</g>
<g>
	<path fill="#F9FAFB" d="M52.3,552.7c-1.5,0-2.6-1.2-2.6-2.6c0-1.4,1.1-2.6,2.6-2.6c1.5,0,2.6,1.2,2.6,2.6
		C54.9,551.5,53.8,552.7,52.3,552.7z"/>
	<path fill="#F9FAFB" d="M70.4,542.3v1.5h-4V556h-1.9v-12.2h-4v-1.5H70.4z"/>
	<path fill="#F9FAFB" d="M76.5,554.7c-0.6,0.7-1.8,1.4-3.3,1.4c-1.6,0-2.8-1.1-2.8-2.7c0-1.8,1.4-2.7,3.5-2.9
		c0.9-0.1,1.7-0.1,2.5-0.1v-0.4c0-1.7-0.7-2.7-2.3-2.7c-1,0-1.8,0.3-2.6,0.7l-0.4-1.4c1-0.6,2.1-0.8,3.4-0.8c2.3,0,3.8,1.5,3.8,4.1
		v5.9h-1.8V554.7z M76.5,553.5v-1.8c-0.8,0.1-1.5,0.1-2.2,0.2c-1.2,0.1-2.1,0.5-2.1,1.5c0,0.9,0.6,1.4,1.6,1.4
		C74.8,554.8,75.8,554.3,76.5,553.5z"/>
	<path fill="#F9FAFB" d="M86.8,547.6h-0.5c-1.5,0-2.5,0.5-3.2,1.7v6.6h-1.9v-9.9H83v1.9c0.6-1.3,1.5-2,3-2c0.3,0,0.6,0,0.8,0.1
		V547.6z"/>
	<path fill="#F9FAFB" d="M96.7,556H95v-1.4c-0.7,0.9-1.7,1.6-3.2,1.6c-2.3,0-3.8-2.1-3.8-5.1c0-3.3,2.2-5.2,5-5.2
		c0.8,0,1.4,0.1,2,0.3v-4.7h1.9V556z M94.9,553.3v-5.7c-0.5-0.2-1.1-0.3-1.7-0.3c-2.1,0-3.4,1.3-3.4,3.7c0,2.2,0.8,3.6,2.5,3.6
		C93.4,554.7,94.3,554,94.9,553.3z"/>
	<path fill="#F9FAFB" d="M107.4,549.9c0,0.6-0.1,1.1-0.2,1.7H101c0.1,1.9,0.9,3.2,3.2,3.2c1.1,0,2-0.2,2.8-0.6l0.2,1.4
		c-0.9,0.4-2.1,0.7-3.3,0.7c-3.3,0-4.9-2.3-4.9-5.1c0-2.9,1.7-5.2,4.5-5.2C106.1,545.9,107.4,547.6,107.4,549.9z M101,550.1h4.6
		c0.2-1.6-0.4-2.9-2.1-2.9C102,547.3,101.1,548.6,101,550.1z"/>
	<path fill="#F9FAFB" d="M115.9,553.4c0,0.8,0.3,1.2,1,1.2c0.3,0,0.6,0,0.9-0.1l0.1,1.4c-0.5,0.1-0.9,0.2-1.5,0.2
		c-1.7,0-2.4-1.2-2.4-2.6v-12.1h1.9V553.4z"/>
	<path fill="#F9FAFB" d="M120.8,542c0.7,0,1.2,0.5,1.2,1.2s-0.5,1.2-1.2,1.2c-0.7,0-1.2-0.5-1.2-1.2S120.1,542,120.8,542z
		 M119.9,556v-9.9h1.9v9.9H119.9z"/>
	<path fill="#F9FAFB" d="M124.8,541.4h1.9v5.6c0.6-0.6,1.6-1.1,2.8-1.1c2.5,0,4.2,2.2,4.2,5.1c0,2.9-1.8,5.2-5.2,5.2
		c-1.3,0-2.6-0.2-3.6-0.7V541.4z M126.6,548.3v6.1c0.5,0.2,1,0.3,1.7,0.3c2.2,0,3.4-1.5,3.4-3.7c0-2-0.9-3.6-2.8-3.6
		C127.9,547.4,127.2,547.8,126.6,548.3z"/>
	<path fill="#F9FAFB" d="M141.5,547.6H141c-1.5,0-2.5,0.5-3.2,1.7v6.6h-1.9v-9.9h1.8v1.9c0.6-1.3,1.5-2,3-2c0.3,0,0.6,0,0.8,0.1
		V547.6z"/>
	<path fill="#F9FAFB" d="M150.9,549.9c0,0.6-0.1,1.1-0.2,1.7h-6.2c0.1,1.9,0.9,3.2,3.2,3.2c1.1,0,2-0.2,2.8-0.6l0.2,1.4
		c-0.9,0.4-2.1,0.7-3.3,0.7c-3.3,0-4.9-2.3-4.9-5.1c0-2.9,1.7-5.2,4.5-5.2C149.6,545.9,150.9,547.6,150.9,549.9z M144.4,550.1h4.6
		c0.2-1.6-0.4-2.9-2.1-2.9C145.5,547.3,144.6,548.6,144.4,550.1z"/>
</g>
<g>
	<path fill="#F9FAFB" d="M52.3,577.4c-1.5,0-2.6-1.2-2.6-2.6c0-1.4,1.1-2.6,2.6-2.6c1.5,0,2.6,1.2,2.6,2.6
		C54.9,576.2,53.8,577.4,52.3,577.4z"/>
	<path fill="#F9FAFB" d="M72.5,567.3l-0.3,1.5c-0.9-0.3-2-0.6-3.1-0.6c-3.4,0-5.5,2-5.5,5.6s2,5.6,5.5,5.6c1,0,2.2-0.2,3.1-0.6
		l0.3,1.5c-0.9,0.4-2.4,0.6-3.6,0.6c-4.5,0-7.1-3-7.1-7.1c0-4.1,2.6-7.1,7.1-7.1C70.1,566.7,71.5,566.9,72.5,567.3z"/>
	<path fill="#F9FAFB" d="M82.1,574.6c0,0.6-0.1,1.1-0.2,1.7h-6.2c0.1,1.9,0.9,3.2,3.2,3.2c1.1,0,2-0.2,2.8-0.6l0.2,1.4
		c-0.9,0.4-2.1,0.7-3.3,0.7c-3.3,0-4.9-2.3-4.9-5.1c0-2.9,1.7-5.2,4.5-5.2C80.9,570.6,82.1,572.3,82.1,574.6z M75.7,574.8h4.6
		c0.2-1.6-0.4-2.9-2.1-2.9C76.7,571.9,75.8,573.2,75.7,574.8z"/>
	<path fill="#F9FAFB" d="M84.5,580.6v-9.9h1.8v1.4c0.7-1,1.8-1.6,3.1-1.6c2.5,0,3.5,2.2,3.5,4.9v5.2H91v-5.1c0-2-0.6-3.4-2.3-3.4
		c-1.1,0-2,0.7-2.4,1.3v7.2H84.5z"/>
	<path fill="#F9FAFB" d="M101.4,579.4c-0.6,0.7-1.8,1.4-3.3,1.4c-1.6,0-2.8-1.1-2.8-2.7c0-1.8,1.4-2.7,3.5-2.9
		c0.9-0.1,1.7-0.1,2.5-0.1v-0.4c0-1.7-0.7-2.7-2.3-2.7c-1,0-1.8,0.3-2.6,0.7l-0.4-1.4c1-0.6,2.1-0.8,3.4-0.8c2.3,0,3.8,1.5,3.8,4.1
		v5.9h-1.8V579.4z M101.4,578.2v-1.8c-0.8,0.1-1.5,0.1-2.2,0.2c-1.2,0.1-2.1,0.5-2.1,1.5c0,0.9,0.6,1.4,1.6,1.4
		C99.7,579.5,100.7,579,101.4,578.2z"/>
</g>
<g>
	<path fill="#F9FAFB" d="M51,641.3h6.5c8,0,13.3,4.9,13.3,11.7s-5.3,11.7-13.3,11.7H51V641.3z M57.5,662.1c5.6,0,10.1-3.3,10.1-9.1
		s-4.5-9.1-10.1-9.1h-3.3v18.1H57.5z"/>
	<path fill="#F9FAFB" d="M74.7,664.6v-16.8h3.2v16.8H74.7z M75,645.2l2.6-5.6h3.5l-3.4,5.6H75z"/>
	<path fill="#F9FAFB" d="M92.6,662.5c-1,1.2-3,2.5-5.6,2.5c-2.8,0-4.8-1.8-4.8-4.7c0-3.1,2.3-4.6,6-4.9c1.5-0.1,3-0.1,4.3-0.1v-0.7
		c0-2.8-1.1-4.6-3.9-4.6c-1.6,0-3.1,0.5-4.4,1.2l-0.7-2.3c1.8-1.1,3.5-1.4,5.7-1.4c4,0,6.5,2.5,6.5,7v10.1h-3.1V662.5z M92.5,660.5
		v-3.1c-1.4,0.1-2.6,0.2-3.8,0.3c-2,0.2-3.5,0.8-3.5,2.6c0,1.6,1,2.3,2.7,2.3C89.7,662.7,91.3,661.8,92.5,660.5z"/>
	<path fill="#F9FAFB" d="M119.9,657.9v6.7h-3v-6.7h-9.7l-0.4-2.5l9.7-14.1h3.5v14h3.2v2.6H119.9z M116.9,644.8l-7,10.5h7V644.8z"/>
</g>
<g>
	<path fill="#F9FAFB" d="M52.3,686.1c-1.5,0-2.6-1.2-2.6-2.6c0-1.4,1.1-2.6,2.6-2.6c1.5,0,2.6,1.2,2.6,2.6
		C54.9,684.9,53.8,686.1,52.3,686.1z"/>
	<path fill="#F9FAFB" d="M72.5,676l-0.3,1.5c-0.9-0.3-2-0.6-3.1-0.6c-3.4,0-5.5,2-5.5,5.6s2,5.6,5.5,5.6c1,0,2.2-0.2,3.1-0.6
		l0.3,1.5c-0.9,0.4-2.4,0.6-3.6,0.6c-4.5,0-7.1-3-7.1-7.1c0-4.1,2.6-7.1,7.1-7.1C70.1,675.4,71.5,675.6,72.5,676z"/>
	<path fill="#F9FAFB" d="M78.6,689.5c-3,0-4.8-2.4-4.8-5.1s1.7-5.1,4.8-5.1s4.8,2.4,4.8,5.1S81.6,689.5,78.6,689.5z M78.6,680.7
		c-2,0-2.9,1.6-2.9,3.7s1,3.7,2.9,3.7s2.9-1.6,2.9-3.7S80.6,680.7,78.6,680.7z"/>
	<path fill="#F9FAFB" d="M93.9,682.3c0.1,0.6,0.2,1.2,0.2,1.8v5.2h-1.9v-5.1c0-2-0.5-3.4-2.1-3.4c-1.1,0-2,0.7-2.4,1.3v7.2h-1.9
		v-9.9h1.8v1.4c0.7-1,1.8-1.6,3.1-1.6c1.4,0,2.3,0.7,2.8,1.9c0.8-1.2,1.9-1.9,3.5-1.9c2.5,0,3.5,2.2,3.5,4.9v5.2h-1.9v-5.1
		c0-2-0.5-3.4-2.1-3.4C95.4,680.7,94.5,681.4,93.9,682.3z"/>
	<path fill="#F9FAFB" d="M104.4,675.4c0.7,0,1.2,0.5,1.2,1.2s-0.5,1.2-1.2,1.2c-0.7,0-1.2-0.5-1.2-1.2S103.7,675.4,104.4,675.4z
		 M103.5,689.3v-9.9h1.9v9.9H103.5z"/>
	<path fill="#F9FAFB" d="M116.5,689.3h-1.7V688c-0.7,0.9-1.7,1.6-3.2,1.6c-2.3,0-3.8-2.1-3.8-5.1c0-3.3,2.2-5.2,5-5.2
		c0.8,0,1.4,0.1,2,0.3v-4.7h1.9V689.3z M114.7,686.7V681c-0.5-0.2-1.1-0.3-1.7-0.3c-2.1,0-3.4,1.3-3.4,3.7c0,2.2,0.8,3.6,2.5,3.6
		C113.2,688,114.1,687.3,114.7,686.7z"/>
	<path fill="#F9FAFB" d="M125.1,688.1c-0.6,0.7-1.8,1.4-3.3,1.4c-1.6,0-2.8-1.1-2.8-2.7c0-1.8,1.4-2.7,3.5-2.9
		c0.9-0.1,1.7-0.1,2.5-0.1v-0.4c0-1.7-0.7-2.7-2.3-2.7c-1,0-1.8,0.3-2.6,0.7l-0.4-1.4c1-0.6,2.1-0.8,3.4-0.8c2.3,0,3.8,1.5,3.8,4.1
		v5.9h-1.8V688.1z M125.1,686.9v-1.8c-0.8,0.1-1.5,0.1-2.2,0.2c-1.2,0.1-2.1,0.5-2.1,1.5c0,0.9,0.6,1.4,1.6,1.4
		C123.5,688.2,124.4,687.6,125.1,686.9z"/>
	<path fill="#F9FAFB" d="M141.9,683.2c0,0.6-0.1,1.1-0.2,1.7h-6.2c0.1,1.9,0.9,3.2,3.2,3.2c1.1,0,2-0.2,2.8-0.6l0.2,1.4
		c-0.9,0.4-2.1,0.7-3.3,0.7c-3.3,0-4.9-2.3-4.9-5.1c0-2.9,1.7-5.2,4.5-5.2C140.6,679.2,141.9,681,141.9,683.2z M135.5,683.5h4.6
		c0.2-1.6-0.4-2.9-2.1-2.9C136.5,680.6,135.6,681.9,135.5,683.5z"/>
	<path fill="#F9FAFB" d="M144.3,689.3v-9.9h1.8v1.4c0.7-1,1.8-1.6,3.1-1.6c2.5,0,3.5,2.2,3.5,4.9v5.2h-1.9v-5.1c0-2-0.6-3.4-2.3-3.4
		c-1.1,0-2,0.7-2.4,1.3v7.2H144.3z"/>
	<path fill="#F9FAFB" d="M171.9,689.3h-1.9l-1.3-3.3h-6.4l-1.2,3.3h-1.9l5.5-13.7h1.9L171.9,689.3z M162.9,684.5h5.3l-2.6-7.1
		L162.9,684.5z"/>
	<path fill="#F9FAFB" d="M174,689.3v-9.9h1.8v1.4c0.7-1,1.8-1.6,3.1-1.6c2.5,0,3.5,2.2,3.5,4.9v5.2h-1.9v-5.1c0-2-0.6-3.4-2.3-3.4
		c-1.1,0-2,0.7-2.4,1.3v7.2H174z"/>
	<path fill="#F9FAFB" d="M193.5,689.3h-1.7V688c-0.7,0.9-1.7,1.6-3.2,1.6c-2.3,0-3.8-2.1-3.8-5.1c0-3.3,2.2-5.2,5-5.2
		c0.8,0,1.4,0.1,2,0.3v-4.7h1.9V689.3z M191.6,686.7V681c-0.5-0.2-1.1-0.3-1.7-0.3c-2.1,0-3.4,1.3-3.4,3.7c0,2.2,0.8,3.6,2.5,3.6
		C190.2,688,191.1,687.3,191.6,686.7z"/>
	<path fill="#F9FAFB" d="M202.1,681h-0.5c-1.5,0-2.5,0.5-3.2,1.7v6.6h-1.9v-9.9h1.8v1.9c0.6-1.3,1.5-2,3-2c0.3,0,0.6,0,0.8,0.1V681z
		"/>
	<path fill="#F9FAFB" d="M211.5,683.2c0,0.6-0.1,1.1-0.2,1.7h-6.2c0.1,1.9,0.9,3.2,3.2,3.2c1.1,0,2-0.2,2.8-0.6l0.2,1.4
		c-0.9,0.4-2.1,0.7-3.3,0.7c-3.3,0-4.9-2.3-4.9-5.1c0-2.9,1.7-5.2,4.5-5.2C210.3,679.2,211.5,681,211.5,683.2z M205.1,683.5h4.6
		c0.2-1.6-0.4-2.9-2.1-2.9C206.1,680.6,205.2,681.9,205.1,683.5z M206.6,677.9l1.5-3.3h2.1l-2,3.3H206.6z"/>
	<path fill="#F9FAFB" d="M216.3,689.5c-1,0-2.3-0.2-3-0.6l0.3-1.5c0.7,0.3,1.6,0.6,2.8,0.6c1.2,0,2.1-0.4,2.1-1.3
		c0-0.9-0.9-1.3-2-1.7c-1.4-0.5-3-1.3-3-3c0-1.9,1.7-2.7,3.5-2.7c1,0,2.1,0.2,2.9,0.7l-0.3,1.4c-0.8-0.4-1.7-0.6-2.6-0.6
		c-1,0-1.7,0.3-1.7,1.2c0,0.8,1.1,1.1,1.9,1.5c0.7,0.3,3.2,1.1,3.2,3.1C220.2,688.4,218.5,689.5,216.3,689.5z"/>
	<path fill="#F9FAFB" d="M237,676l-0.3,1.5c-0.9-0.3-2-0.6-3.1-0.6c-3.4,0-5.5,2-5.5,5.6s2,5.6,5.5,5.6c1,0,2.2-0.2,3.1-0.6l0.3,1.5
		c-0.9,0.4-2.4,0.6-3.6,0.6c-4.5,0-7.1-3-7.1-7.1c0-4.1,2.6-7.1,7.1-7.1C234.6,675.4,236.1,675.6,237,676z"/>
	<path fill="#F9FAFB" d="M244.8,688.1c-0.6,0.7-1.8,1.4-3.3,1.4c-1.6,0-2.8-1.1-2.8-2.7c0-1.8,1.4-2.7,3.5-2.9
		c0.9-0.1,1.7-0.1,2.5-0.1v-0.4c0-1.7-0.7-2.7-2.3-2.7c-1,0-1.8,0.3-2.6,0.7l-0.4-1.4c1-0.6,2.1-0.8,3.4-0.8c2.3,0,3.8,1.5,3.8,4.1
		v5.9h-1.8V688.1z M244.8,686.9v-1.8c-0.8,0.1-1.5,0.1-2.2,0.2c-1.2,0.1-2.1,0.5-2.1,1.5c0,0.9,0.6,1.4,1.6,1.4
		C243.1,688.2,244.1,687.6,244.8,686.9z"/>
	<path fill="#F9FAFB" d="M255.1,681h-0.5c-1.5,0-2.5,0.5-3.2,1.7v6.6h-1.9v-9.9h1.8v1.9c0.6-1.3,1.5-2,3-2c0.3,0,0.6,0,0.8,0.1V681z
		"/>
	<path fill="#F9FAFB" d="M257,689.3v-9.9h1.8v1.4c0.7-1,1.8-1.6,3.1-1.6c2.5,0,3.5,2.2,3.5,4.9v5.2h-1.9v-5.1c0-2-0.6-3.4-2.3-3.4
		c-1.1,0-2,0.7-2.4,1.3v7.2H257z"/>
	<path fill="#F9FAFB" d="M276,683.2c0,0.6-0.1,1.1-0.2,1.7h-6.2c0.1,1.9,0.9,3.2,3.2,3.2c1.1,0,2-0.2,2.8-0.6l0.2,1.4
		c-0.9,0.4-2.1,0.7-3.3,0.7c-3.3,0-4.9-2.3-4.9-5.1c0-2.9,1.7-5.2,4.5-5.2C274.7,679.2,276,681,276,683.2z M269.5,683.5h4.6
		c0.2-1.6-0.4-2.9-2.1-2.9C270.5,680.6,269.6,681.9,269.5,683.5z"/>
	<path fill="#F9FAFB" d="M290.8,689.3h-1.7V688c-0.7,0.9-1.7,1.6-3.2,1.6c-2.3,0-3.8-2.1-3.8-5.1c0-3.3,2.2-5.2,5-5.2
		c0.8,0,1.4,0.1,2,0.3v-4.7h1.9V689.3z M289,686.7V681c-0.5-0.2-1.1-0.3-1.7-0.3c-2.1,0-3.4,1.3-3.4,3.7c0,2.2,0.8,3.6,2.5,3.6
		C287.6,688,288.4,687.3,289,686.7z"/>
	<path fill="#F9FAFB" d="M301.5,683.2c0,0.6-0.1,1.1-0.2,1.7h-6.2c0.1,1.9,0.9,3.2,3.2,3.2c1.1,0,2-0.2,2.8-0.6l0.2,1.4
		c-0.9,0.4-2.1,0.7-3.3,0.7c-3.3,0-4.9-2.3-4.9-5.1c0-2.9,1.7-5.2,4.5-5.2C300.3,679.2,301.5,681,301.5,683.2z M295.1,683.5h4.6
		c0.2-1.6-0.4-2.9-2.1-2.9C296.1,680.6,295.2,681.9,295.1,683.5z"/>
	<path fill="#F9FAFB" d="M310.3,689.3h-1.9v-13.7h3.6c2.9,0,5.3,1.3,5.3,3.9c0,1.9-1.3,3.4-3.5,4l4.8,5.8h-2.3l-4.5-5.5
		c-0.3,0-1.2,0-1.5,0V689.3z M311.9,677.1h-1.6v5.2h0.9c2.3,0,4.1-0.9,4.1-2.8C315.4,677.8,313.8,677.1,311.9,677.1z"/>
	<path fill="#F9FAFB" d="M327.8,683.2c0,0.6-0.1,1.1-0.2,1.7h-6.2c0.1,1.9,0.9,3.2,3.2,3.2c1.1,0,2-0.2,2.8-0.6l0.2,1.4
		c-0.9,0.4-2.1,0.7-3.3,0.7c-3.3,0-4.9-2.3-4.9-5.1c0-2.9,1.7-5.2,4.5-5.2C326.6,679.2,327.8,681,327.8,683.2z M321.4,683.5h4.6
		c0.2-1.6-0.4-2.9-2.1-2.9C322.4,680.6,321.5,681.9,321.4,683.5z"/>
	<path fill="#F9FAFB" d="M332.6,689.5c-1,0-2.3-0.2-3-0.6l0.3-1.5c0.7,0.3,1.6,0.6,2.8,0.6c1.2,0,2.1-0.4,2.1-1.3
		c0-0.9-0.9-1.3-2-1.7c-1.4-0.5-3-1.3-3-3c0-1.9,1.7-2.7,3.5-2.7c1,0,2.1,0.2,2.9,0.7l-0.3,1.4c-0.8-0.4-1.7-0.6-2.6-0.6
		c-1,0-1.7,0.3-1.7,1.2c0,0.8,1.1,1.1,1.9,1.5c0.7,0.3,3.2,1.1,3.2,3.1C336.5,688.4,334.8,689.5,332.6,689.5z"/>
</g>
<g>
	<path fill="#F9FAFB" d="M52.3,710.7c-1.5,0-2.6-1.2-2.6-2.6c0-1.4,1.1-2.6,2.6-2.6c1.5,0,2.6,1.2,2.6,2.6
		C54.9,709.6,53.8,710.7,52.3,710.7z"/>
	<path fill="#F9FAFB" d="M64.4,714h-1.9v-13.7H66c2.9,0,5.3,1.3,5.3,3.9c0,1.9-1.3,3.4-3.5,4l4.8,5.8h-2.3l-4.5-5.5
		c-0.3,0-1.2,0-1.5,0V714z M66,701.8h-1.6v5.2h0.9c2.3,0,4.1-0.9,4.1-2.8C69.4,702.5,67.8,701.8,66,701.8z"/>
	<path fill="#F9FAFB" d="M81.9,707.9c0,0.6-0.1,1.1-0.2,1.7h-6.2c0.1,1.9,0.9,3.2,3.2,3.2c1.1,0,2-0.2,2.8-0.6l0.2,1.4
		c-0.9,0.4-2.1,0.7-3.3,0.7c-3.3,0-4.9-2.3-4.9-5.1c0-2.9,1.7-5.2,4.5-5.2C80.6,703.9,81.9,705.7,81.9,707.9z M75.5,708.2h4.6
		c0.2-1.6-0.4-2.9-2.1-2.9C76.5,705.3,75.6,706.6,75.5,708.2z"/>
	<path fill="#F9FAFB" d="M91.2,704.5l-0.3,1.4c-0.7-0.3-1.5-0.5-2.3-0.5c-2.2,0-3.3,1.5-3.3,3.7s1,3.7,3.3,3.7
		c0.8,0,1.6-0.2,2.3-0.5l0.3,1.4c-0.7,0.3-1.9,0.5-2.8,0.5c-3.3,0-4.9-2.4-4.9-5.1s1.6-5.1,4.9-5.1
		C89.5,703.9,90.5,704.1,91.2,704.5z"/>
	<path fill="#F9FAFB" d="M97.5,714.2c-3,0-4.8-2.4-4.8-5.1s1.7-5.1,4.8-5.1s4.8,2.4,4.8,5.1S100.5,714.2,97.5,714.2z M97.5,705.4
		c-2,0-2.9,1.6-2.9,3.7s1,3.7,2.9,3.7s2.9-1.6,2.9-3.7S99.5,705.4,97.5,705.4z"/>
	<path fill="#F9FAFB" d="M110.2,705.6h-0.5c-1.5,0-2.5,0.5-3.2,1.7v6.6h-1.9v-9.9h1.8v1.9c0.6-1.3,1.5-2,3-2c0.3,0,0.6,0,0.8,0.1
		V705.6z"/>
	<path fill="#F9FAFB" d="M117.6,705.6h-0.5c-1.5,0-2.5,0.5-3.2,1.7v6.6h-1.9v-9.9h1.8v1.9c0.6-1.3,1.5-2,3-2c0.3,0,0.6,0,0.8,0.1
		V705.6z"/>
	<path fill="#F9FAFB" d="M120.4,700c0.7,0,1.2,0.5,1.2,1.2s-0.5,1.2-1.2,1.2c-0.7,0-1.2-0.5-1.2-1.2S119.7,700,120.4,700z
		 M119.5,714v-9.9h1.9v9.9H119.5z"/>
	<path fill="#F9FAFB" d="M132.5,714h-1.7v-1.4c-0.7,0.9-1.7,1.6-3.2,1.6c-2.3,0-3.8-2.1-3.8-5.1c0-3.3,2.2-5.2,5-5.2
		c0.8,0,1.4,0.1,2,0.3v-4.7h1.9V714z M130.7,711.4v-5.7c-0.5-0.2-1.1-0.3-1.7-0.3c-2.1,0-3.4,1.3-3.4,3.7c0,2.2,0.8,3.6,2.5,3.6
		C129.2,712.7,130.1,712,130.7,711.4z"/>
	<path fill="#F9FAFB" d="M139.7,714.2c-3,0-4.8-2.4-4.8-5.1s1.7-5.1,4.8-5.1s4.8,2.4,4.8,5.1S142.7,714.2,139.7,714.2z M139.7,705.4
		c-2,0-2.9,1.6-2.9,3.7s1,3.7,2.9,3.7s2.9-1.6,2.9-3.7S141.7,705.4,139.7,705.4z"/>
	<path fill="#F9FAFB" d="M150.1,704.1h1.8v-2.5h1.9v2.5h3.3v1.5h-3.3v5c0,1.2,0.3,2,1.5,2c0.6,0,1.1-0.1,1.6-0.3l0.2,1.4
		c-0.4,0.2-1.4,0.4-2.1,0.4c-2.1,0-3-1.4-3-3.5v-5.1h-1.8V704.1z"/>
	<path fill="#F9FAFB" d="M167.4,704.1v9.9h-1.8v-1.4c-0.7,1-1.8,1.6-3.1,1.6c-2.5,0-3.4-2.2-3.4-4.9v-5.2h1.9v5.1
		c0,2,0.5,3.4,2.2,3.4c1.1,0,1.9-0.7,2.4-1.3v-7.2H167.4z"/>
	<path fill="#F9FAFB" d="M176,705.6h-0.5c-1.5,0-2.5,0.5-3.2,1.7v6.6h-1.9v-9.9h1.8v1.9c0.6-1.3,1.5-2,3-2c0.3,0,0.6,0,0.8,0.1
		V705.6z"/>
	<path fill="#F9FAFB" d="M177.9,714v-9.9h1.9v9.9H177.9z M178,702.6l1.5-3.3h2.1l-2,3.3H178z"/>
	<path fill="#F9FAFB" d="M185.2,714.2c-1,0-2.3-0.2-3-0.6l0.3-1.5c0.7,0.3,1.6,0.6,2.8,0.6c1.2,0,2.1-0.4,2.1-1.3
		c0-0.9-0.9-1.3-2-1.7c-1.4-0.5-3-1.3-3-3c0-1.9,1.7-2.7,3.5-2.7c1,0,2.1,0.2,2.9,0.7l-0.3,1.4c-0.8-0.4-1.7-0.6-2.6-0.6
		c-1,0-1.7,0.3-1.7,1.2c0,0.8,1.1,1.1,1.9,1.5c0.7,0.3,3.2,1.1,3.2,3.1C189.1,713,187.5,714.2,185.2,714.2z"/>
	<path fill="#F9FAFB" d="M190.2,704.1h1.8v-2.5h1.9v2.5h3.3v1.5h-3.3v5c0,1.2,0.3,2,1.5,2c0.6,0,1.1-0.1,1.6-0.3l0.2,1.4
		c-0.4,0.2-1.4,0.4-2.1,0.4c-2.1,0-3-1.4-3-3.5v-5.1h-1.8V704.1z"/>
	<path fill="#F9FAFB" d="M200.2,700c0.7,0,1.2,0.5,1.2,1.2s-0.5,1.2-1.2,1.2c-0.7,0-1.2-0.5-1.2-1.2S199.5,700,200.2,700z
		 M199.3,714v-9.9h1.9v9.9H199.3z"/>
	<path fill="#F9FAFB" d="M211.1,704.5l-0.3,1.4c-0.7-0.3-1.5-0.5-2.3-0.5c-2.2,0-3.3,1.5-3.3,3.7s1,3.7,3.3,3.7
		c0.8,0,1.6-0.2,2.3-0.5l0.3,1.4c-0.7,0.3-1.9,0.5-2.8,0.5c-3.3,0-4.9-2.4-4.9-5.1s1.6-5.1,4.9-5.1
		C209.5,703.9,210.5,704.1,211.1,704.5z"/>
	<path fill="#F9FAFB" d="M217.4,714.2c-3,0-4.8-2.4-4.8-5.1s1.7-5.1,4.8-5.1s4.8,2.4,4.8,5.1S220.5,714.2,217.4,714.2z M217.4,705.4
		c-2,0-2.9,1.6-2.9,3.7s1,3.7,2.9,3.7s2.9-1.6,2.9-3.7S219.4,705.4,217.4,705.4z"/>
</g>
<g>
	<path fill="#F9FAFB" d="M52.3,735.4c-1.5,0-2.6-1.2-2.6-2.6c0-1.4,1.1-2.6,2.6-2.6c1.5,0,2.6,1.2,2.6,2.6
		C54.9,734.3,53.8,735.4,52.3,735.4z"/>
	<path fill="#F9FAFB" d="M72.5,725.4l-0.3,1.5c-0.9-0.3-2-0.6-3.1-0.6c-3.4,0-5.5,2-5.5,5.6s2,5.6,5.5,5.6c1,0,2.2-0.2,3.1-0.6
		l0.3,1.5c-0.9,0.4-2.4,0.6-3.6,0.6c-4.5,0-7.1-3-7.1-7.1c0-4.1,2.6-7.1,7.1-7.1C70.1,724.7,71.5,725,72.5,725.4z"/>
	<path fill="#F9FAFB" d="M82.1,732.6c0,0.6-0.1,1.1-0.2,1.7h-6.2c0.1,1.9,0.9,3.2,3.2,3.2c1.1,0,2-0.2,2.8-0.6l0.2,1.4
		c-0.9,0.4-2.1,0.7-3.3,0.7c-3.3,0-4.9-2.3-4.9-5.1c0-2.9,1.7-5.2,4.5-5.2C80.9,728.6,82.1,730.3,82.1,732.6z M75.7,732.8h4.6
		c0.2-1.6-0.4-2.9-2.1-2.9C76.7,730,75.8,731.3,75.7,732.8z"/>
	<path fill="#F9FAFB" d="M84.5,738.7v-9.9h1.8v1.4c0.7-1,1.8-1.6,3.1-1.6c2.5,0,3.5,2.2,3.5,4.9v5.2H91v-5.1c0-2-0.6-3.4-2.3-3.4
		c-1.1,0-2,0.7-2.4,1.3v7.2H84.5z"/>
	<path fill="#F9FAFB" d="M101.4,737.4c-0.6,0.7-1.8,1.4-3.3,1.4c-1.6,0-2.8-1.1-2.8-2.7c0-1.8,1.4-2.7,3.5-2.9
		c0.9-0.1,1.7-0.1,2.5-0.1v-0.4c0-1.7-0.7-2.7-2.3-2.7c-1,0-1.8,0.3-2.6,0.7l-0.4-1.4c1-0.6,2.1-0.8,3.4-0.8c2.3,0,3.8,1.5,3.8,4.1
		v5.9h-1.8V737.4z M101.4,736.3v-1.8c-0.8,0.1-1.5,0.1-2.2,0.2c-1.2,0.1-2.1,0.5-2.1,1.5c0,0.9,0.6,1.4,1.6,1.4
		C99.7,737.5,100.7,737,101.4,736.3z"/>
	<path fill="#F9FAFB" d="M118.7,738.7H117v-1.4c-0.7,0.9-1.7,1.6-3.2,1.6c-2.3,0-3.8-2.1-3.8-5.1c0-3.3,2.2-5.2,5-5.2
		c0.8,0,1.4,0.1,2,0.3v-4.7h1.9V738.7z M116.9,736v-5.7c-0.5-0.2-1.1-0.3-1.7-0.3c-2.1,0-3.4,1.3-3.4,3.7c0,2.2,0.8,3.6,2.5,3.6
		C115.4,737.4,116.3,736.7,116.9,736z"/>
	<path fill="#F9FAFB" d="M129.4,732.6c0,0.6-0.1,1.1-0.2,1.7H123c0.1,1.9,0.9,3.2,3.2,3.2c1.1,0,2-0.2,2.8-0.6l0.2,1.4
		c-0.9,0.4-2.1,0.7-3.3,0.7c-3.3,0-4.9-2.3-4.9-5.1c0-2.9,1.7-5.2,4.5-5.2C128.1,728.6,129.4,730.3,129.4,732.6z M123,732.8h4.6
		c0.2-1.6-0.4-2.9-2.1-2.9C124,730,123.1,731.3,123,732.8z"/>
	<path fill="#F9FAFB" d="M143.1,729.1l-0.3,1.4c-0.7-0.3-1.5-0.5-2.3-0.5c-2.2,0-3.3,1.5-3.3,3.7s1,3.7,3.3,3.7
		c0.8,0,1.6-0.2,2.3-0.5l0.3,1.4c-0.7,0.3-1.9,0.5-2.8,0.5c-3.3,0-4.9-2.4-4.9-5.1s1.6-5.1,4.9-5.1
		C141.4,728.6,142.4,728.8,143.1,729.1z"/>
	<path fill="#F9FAFB" d="M147.1,736.1c0,0.8,0.3,1.2,1,1.2c0.3,0,0.6,0,0.9-0.1l0.1,1.4c-0.5,0.1-0.9,0.2-1.5,0.2
		c-1.7,0-2.4-1.2-2.4-2.6v-12.1h1.9V736.1z"/>
	<path fill="#F9FAFB" d="M156.6,737.4c-0.6,0.7-1.8,1.4-3.3,1.4c-1.6,0-2.8-1.1-2.8-2.7c0-1.8,1.4-2.7,3.5-2.9
		c0.9-0.1,1.7-0.1,2.5-0.1v-0.4c0-1.7-0.7-2.7-2.3-2.7c-1,0-1.8,0.3-2.6,0.7l-0.4-1.4c1-0.6,2.1-0.8,3.4-0.8c2.3,0,3.8,1.5,3.8,4.1
		v5.9h-1.8V737.4z M156.5,736.3v-1.8c-0.8,0.1-1.5,0.1-2.2,0.2c-1.2,0.1-2.1,0.5-2.1,1.5c0,0.9,0.6,1.4,1.6,1.4
		C154.9,737.5,155.8,737,156.5,736.3z"/>
	<path fill="#F9FAFB" d="M169.4,728.8v9.9h-1.8v-1.4c-0.7,1-1.8,1.6-3.1,1.6c-2.5,0-3.4-2.2-3.4-4.9v-5.2h1.9v5.1
		c0,2,0.5,3.4,2.2,3.4c1.1,0,1.9-0.7,2.4-1.3v-7.2H169.4z"/>
	<path fill="#F9FAFB" d="M174.9,738.9c-1,0-2.3-0.2-3-0.6l0.3-1.5c0.7,0.3,1.6,0.6,2.8,0.6c1.2,0,2.1-0.4,2.1-1.3
		c0-0.9-0.9-1.3-2-1.7c-1.4-0.5-3-1.3-3-3c0-1.9,1.7-2.7,3.5-2.7c1,0,2.1,0.2,2.9,0.7l-0.3,1.4c-0.8-0.4-1.7-0.6-2.6-0.6
		c-1,0-1.7,0.3-1.7,1.2c0,0.8,1.1,1.1,1.9,1.5c0.7,0.3,3.2,1.1,3.2,3.1C178.9,737.7,177.2,738.9,174.9,738.9z"/>
	<path fill="#F9FAFB" d="M189.2,728.8v9.9h-1.8v-1.4c-0.7,1-1.8,1.6-3.1,1.6c-2.5,0-3.4-2.2-3.4-4.9v-5.2h1.9v5.1
		c0,2,0.5,3.4,2.2,3.4c1.1,0,1.9-0.7,2.4-1.3v-7.2H189.2z"/>
	<path fill="#F9FAFB" d="M197.9,730.3h-0.5c-1.5,0-2.5,0.5-3.2,1.7v6.6h-1.9v-9.9h1.8v1.9c0.6-1.3,1.5-2,3-2c0.3,0,0.6,0,0.8,0.1
		V730.3z"/>
	<path fill="#F9FAFB" d="M205.2,737.4c-0.6,0.7-1.8,1.4-3.3,1.4c-1.6,0-2.8-1.1-2.8-2.7c0-1.8,1.4-2.7,3.5-2.9
		c0.9-0.1,1.7-0.1,2.5-0.1v-0.4c0-1.7-0.7-2.7-2.3-2.7c-1,0-1.8,0.3-2.6,0.7l-0.4-1.4c1-0.6,2.1-0.8,3.4-0.8c2.3,0,3.8,1.5,3.8,4.1
		v5.9h-1.8V737.4z M205.1,736.3v-1.8c-0.8,0.1-1.5,0.1-2.2,0.2c-1.2,0.1-2.1,0.5-2.1,1.5c0,0.9,0.6,1.4,1.6,1.4
		C203.5,737.5,204.5,737,205.1,736.3z"/>
</g>
<g>
	<path fill="#F9FAFB" d="M51,799.4h6.5c8,0,13.3,4.9,13.3,11.7s-5.3,11.7-13.3,11.7H51V799.4z M57.5,820.1c5.6,0,10.1-3.3,10.1-9.1
		s-4.5-9.1-10.1-9.1h-3.3v18.1H57.5z"/>
	<path fill="#F9FAFB" d="M74.7,822.7v-16.8h3.2v16.8H74.7z M75,803.3l2.6-5.6h3.5l-3.4,5.6H75z"/>
	<path fill="#F9FAFB" d="M92.6,820.6c-1,1.2-3,2.5-5.6,2.5c-2.8,0-4.8-1.8-4.8-4.7c0-3.1,2.3-4.6,6-4.9c1.5-0.1,3-0.1,4.3-0.1v-0.7
		c0-2.8-1.1-4.6-3.9-4.6c-1.6,0-3.1,0.5-4.4,1.2l-0.7-2.3c1.8-1.1,3.5-1.4,5.7-1.4c4,0,6.5,2.5,6.5,7v10.1h-3.1V820.6z M92.5,818.5
		v-3.1c-1.4,0.1-2.6,0.2-3.8,0.3c-2,0.2-3.5,0.8-3.5,2.6c0,1.6,1,2.3,2.7,2.3C89.7,820.7,91.3,819.8,92.5,818.5z"/>
	<path fill="#F9FAFB" d="M113.3,823.1c-1.9,0-4.3-0.4-5.6-1l0.5-2.5c1.5,0.6,3.3,0.9,5,0.9c3.1,0,5.3-1.5,5.3-4.2
		c0-3.1-2.7-4.6-6.5-4.6h-3.4v-12.4h12.1v2.6h-8.9v7.2h1.1c4.5,0,8.8,2.2,8.8,6.9C121.6,820.3,118,823.1,113.3,823.1z"/>
</g>
<g>
	<path fill="#F9FAFB" d="M52.3,844.1c-1.5,0-2.6-1.2-2.6-2.6c0-1.4,1.1-2.6,2.6-2.6c1.5,0,2.6,1.2,2.6,2.6
		C54.9,842.9,53.8,844.1,52.3,844.1z"/>
	<path fill="#F9FAFB" d="M64.4,847.4h-1.9v-13.7H66c2.9,0,5.3,1.3,5.3,3.9c0,1.9-1.3,3.4-3.5,4l4.8,5.8h-2.3l-4.5-5.5
		c-0.3,0-1.2,0-1.5,0V847.4z M66,835.2h-1.6v5.2h0.9c2.3,0,4.1-0.9,4.1-2.8C69.4,835.8,67.8,835.2,66,835.2z"/>
	<path fill="#F9FAFB" d="M81.9,841.3c0,0.6-0.1,1.1-0.2,1.7h-6.2c0.1,1.9,0.9,3.2,3.2,3.2c1.1,0,2-0.2,2.8-0.6l0.2,1.4
		c-0.9,0.4-2.1,0.7-3.3,0.7c-3.3,0-4.9-2.3-4.9-5.1c0-2.9,1.7-5.2,4.5-5.2C80.6,837.3,81.9,839,81.9,841.3z M75.5,841.5h4.6
		c0.2-1.6-0.4-2.9-2.1-2.9C76.5,838.7,75.6,840,75.5,841.5z"/>
	<path fill="#F9FAFB" d="M86.9,844c-0.2,0.3-0.3,0.6-0.3,0.8c0,0.5,0.3,0.7,1.1,0.8l2,0.2c1.9,0.2,3.2,0.8,3.2,2.5
		c0,2.1-2.7,3.6-5.5,3.6c-2.4,0-4.3-0.8-4.3-2.6c0-1.5,1.5-2.2,2.8-2.5c-0.6-0.3-1-0.7-1-1.4c0-0.8,0.5-1.2,1.1-1.5
		c-1.3-0.5-2.2-1.6-2.2-3.1c0-2,1.7-3.4,3.9-3.4c0.5,0,0.9,0.1,1.4,0.2h3.7v1.4H91c0.4,0.6,0.6,1.2,0.6,1.8c0,2-1.7,3.4-3.9,3.4
		C87.4,844,87.2,844,86.9,844z M87,847c-0.9,0.4-2.1,1-2.1,2c0,1,1,1.5,2.6,1.5c1.7,0,3.7-0.7,3.7-2.1c0-1-1.1-1.2-2.2-1.3L87,847z
		 M90,840.7c0-1.3-1-2.1-2.3-2.1s-2.3,0.7-2.3,2.1s1,2.1,2.3,2.1S90,842,90,840.7z"/>
	<path fill="#F9FAFB" d="M100.4,839h-0.5c-1.5,0-2.5,0.5-3.2,1.7v6.6h-1.9v-9.9h1.8v1.9c0.6-1.3,1.5-2,3-2c0.3,0,0.6,0,0.8,0.1V839z
		"/>
	<path fill="#F9FAFB" d="M109.8,841.3c0,0.6-0.1,1.1-0.2,1.7h-6.2c0.1,1.9,0.9,3.2,3.2,3.2c1.1,0,2-0.2,2.8-0.6l0.2,1.4
		c-0.9,0.4-2.1,0.7-3.3,0.7c-3.3,0-4.9-2.3-4.9-5.1c0-2.9,1.7-5.2,4.5-5.2C108.5,837.3,109.8,839,109.8,841.3z M103.3,841.5h4.6
		c0.2-1.6-0.4-2.9-2.1-2.9C104.3,838.7,103.4,840,103.3,841.5z"/>
	<path fill="#F9FAFB" d="M114.5,847.6c-1,0-2.3-0.2-3-0.6l0.3-1.5c0.7,0.3,1.6,0.6,2.8,0.6c1.2,0,2.1-0.4,2.1-1.3
		c0-0.9-0.9-1.3-2-1.7c-1.4-0.5-3-1.3-3-3c0-1.9,1.7-2.7,3.5-2.7c1,0,2.1,0.2,2.9,0.7l-0.3,1.4c-0.8-0.4-1.7-0.6-2.6-0.6
		c-1,0-1.7,0.3-1.7,1.2c0,0.8,1.1,1.1,1.9,1.5c0.7,0.3,3.2,1.1,3.2,3.1C118.5,846.4,116.8,847.6,114.5,847.6z"/>
	<path fill="#F9FAFB" d="M124.8,847.6c-3,0-4.8-2.4-4.8-5.1s1.7-5.1,4.8-5.1s4.8,2.4,4.8,5.1S127.8,847.6,124.8,847.6z M124.8,838.7
		c-2,0-2.9,1.6-2.9,3.7s1,3.7,2.9,3.7s2.9-1.6,2.9-3.7S126.8,838.7,124.8,838.7z"/>
	<path fill="#F9FAFB" d="M141.9,846.1c-0.6,0.7-1.8,1.4-3.3,1.4c-1.6,0-2.8-1.1-2.8-2.7c0-1.8,1.4-2.7,3.5-2.9
		c0.9-0.1,1.7-0.1,2.5-0.1v-0.4c0-1.7-0.7-2.7-2.3-2.7c-1,0-1.8,0.3-2.6,0.7l-0.4-1.4c1-0.6,2.1-0.8,3.4-0.8c2.3,0,3.8,1.5,3.8,4.1
		v5.9h-1.8V846.1z M141.9,844.9v-1.8c-0.8,0.1-1.5,0.1-2.2,0.2c-1.2,0.1-2.1,0.5-2.1,1.5c0,0.9,0.6,1.4,1.6,1.4
		C140.2,846.2,141.2,845.7,141.9,844.9z"/>
	<path fill="#F9FAFB" d="M159.2,847.4h-1.7V846c-0.7,0.9-1.7,1.6-3.2,1.6c-2.3,0-3.8-2.1-3.8-5.1c0-3.3,2.2-5.2,5-5.2
		c0.8,0,1.4,0.1,2,0.3v-4.7h1.9V847.4z M157.3,844.7V839c-0.5-0.2-1.1-0.3-1.7-0.3c-2.1,0-3.4,1.3-3.4,3.7c0,2.2,0.8,3.6,2.5,3.6
		C155.9,846.1,156.8,845.4,157.3,844.7z"/>
	<path fill="#F9FAFB" d="M169.9,841.3c0,0.6-0.1,1.1-0.2,1.7h-6.2c0.1,1.9,0.9,3.2,3.2,3.2c1.1,0,2-0.2,2.8-0.6l0.2,1.4
		c-0.9,0.4-2.1,0.7-3.3,0.7c-3.3,0-4.9-2.3-4.9-5.1c0-2.9,1.7-5.2,4.5-5.2C168.6,837.3,169.9,839,169.9,841.3z M163.5,841.5h4.6
		c0.2-1.6-0.4-2.9-2.1-2.9C164.5,838.7,163.6,840,163.5,841.5z"/>
	<path fill="#F9FAFB" d="M174.6,847.6c-1,0-2.3-0.2-3-0.6l0.3-1.5c0.7,0.3,1.6,0.6,2.8,0.6c1.2,0,2.1-0.4,2.1-1.3
		c0-0.9-0.9-1.3-2-1.7c-1.4-0.5-3-1.3-3-3c0-1.9,1.7-2.7,3.5-2.7c1,0,2.1,0.2,2.9,0.7l-0.3,1.4c-0.8-0.4-1.7-0.6-2.6-0.6
		c-1,0-1.7,0.3-1.7,1.2c0,0.8,1.1,1.1,1.9,1.5c0.7,0.3,3.2,1.1,3.2,3.1C178.6,846.4,176.9,847.6,174.6,847.6z"/>
	<path fill="#F9FAFB" d="M179.6,837.5h1.8V835h1.9v2.5h3.3v1.5h-3.3v5c0,1.2,0.3,2,1.5,2c0.6,0,1.1-0.1,1.6-0.3l0.2,1.4
		c-0.4,0.2-1.4,0.4-2.1,0.4c-2.1,0-3-1.4-3-3.5V839h-1.8V837.5z"/>
	<path fill="#F9FAFB" d="M189.7,833.4c0.7,0,1.2,0.5,1.2,1.2s-0.5,1.2-1.2,1.2c-0.7,0-1.2-0.5-1.2-1.2S189,833.4,189.7,833.4z
		 M188.7,847.4v-9.9h1.9v9.9H188.7z"/>
	<path fill="#F9FAFB" d="M193.7,847.4v-9.9h1.8v1.4c0.7-1,1.8-1.6,3.1-1.6c2.5,0,3.5,2.2,3.5,4.9v5.2h-1.9v-5.1c0-2-0.6-3.4-2.3-3.4
		c-1.1,0-2,0.7-2.4,1.3v7.2H193.7z"/>
	<path fill="#F9FAFB" d="M209.1,847.6c-3,0-4.8-2.4-4.8-5.1s1.7-5.1,4.8-5.1s4.8,2.4,4.8,5.1S212.2,847.6,209.1,847.6z M209.1,838.7
		c-2,0-2.9,1.6-2.9,3.7s1,3.7,2.9,3.7s2.9-1.6,2.9-3.7S211.1,838.7,209.1,838.7z"/>
	<path fill="#F9FAFB" d="M218.7,847.6c-1,0-2.3-0.2-3-0.6l0.3-1.5c0.7,0.3,1.6,0.6,2.8,0.6c1.2,0,2.1-0.4,2.1-1.3
		c0-0.9-0.9-1.3-2-1.7c-1.4-0.5-3-1.3-3-3c0-1.9,1.7-2.7,3.5-2.7c1,0,2.1,0.2,2.9,0.7l-0.3,1.4c-0.8-0.4-1.7-0.6-2.6-0.6
		c-1,0-1.7,0.3-1.7,1.2c0,0.8,1.1,1.1,1.9,1.5c0.7,0.3,3.2,1.1,3.2,3.1C222.6,846.4,220.9,847.6,218.7,847.6z"/>
</g>
<rect x="48.2" y="246" fill="#FFFFFF" width="356.8" height="2.5"/>
<rect x="48.2" y="425.4" fill="#FFFFFF" width="356.8" height="2.5"/>
<rect x="48.2" y="604.9" fill="#FFFFFF" width="356.8" height="2.5"/>
<rect x="48.2" y="766.9" fill="#FFFFFF" width="356.8" height="2.5"/>
<g>
	<path fill="#FFFFFF" d="M145,930.3v-8.5h4.8v1h-3.6v2.9h3.5v1h-3.5v3.7H145z"/>
	<path fill="#FFFFFF" d="M157.9,930.3h-1.2l-0.8-2.1h-4l-0.8,2.1H150l3.4-8.5h1.2L157.9,930.3z M152.3,927.3h3.3l-1.6-4.4
		L152.3,927.3z"/>
	<path fill="#FFFFFF" d="M163.7,921.8h1.2l-3.1,8.5h-1.2l-3.1-8.5h1.2l2.5,7.1L163.7,921.8z"/>
	<path fill="#FFFFFF" d="M165.5,926c0-2.4,1.5-4.4,4.2-4.4c2.7,0,4.2,2,4.2,4.4c0,2.4-1.5,4.4-4.2,4.4
		C166.9,930.4,165.5,928.4,165.5,926z M172.6,926c0-1.9-1-3.5-3-3.5c-2,0-3,1.6-3,3.5c0,1.9,1,3.5,3,3.5
		C171.6,929.5,172.6,928,172.6,926z"/>
	<path fill="#FFFFFF" d="M176.6,930.3h-1.2v-8.5h2.2c1.8,0,3.3,0.8,3.3,2.4c0,1.2-0.8,2.1-2.2,2.5l3,3.6h-1.4l-2.8-3.4
		c-0.2,0-0.7,0-0.9,0V930.3z M177.6,922.7h-1v3.2h0.6c1.4,0,2.6-0.5,2.6-1.7C179.7,923.1,178.7,922.7,177.6,922.7z"/>
	<path fill="#FFFFFF" d="M185.6,921.8h2.4c2.9,0,4.9,1.8,4.9,4.3s-1.9,4.3-4.9,4.3h-2.4V921.8z M188,929.3c2,0,3.7-1.2,3.7-3.3
		s-1.6-3.3-3.7-3.3h-1.2v6.6H188z"/>
	<path fill="#FFFFFF" d="M194.4,921.8h4.7v1h-3.6v2.7h3.4v1h-3.4v2.9h3.6v1h-4.8V921.8z"/>
	<path fill="#FFFFFF" d="M203.6,921.8h4.7v1h-3.6v2.7h3.4v1h-3.4v2.9h3.6v1h-4.8V921.8z"/>
	<path fill="#FFFFFF" d="M216.1,930.3l-4.8-6.7v6.7h-1.1v-8.5h1.1l4.8,6.7v-6.7h1.1v8.5H216.1z"/>
	<path fill="#FFFFFF" d="M224.5,921.8h1.2l-3.1,8.5h-1.2l-3.1-8.5h1.2l2.5,7.1L224.5,921.8z"/>
	<path fill="#FFFFFF" d="M228.1,930.3h-1.2v-8.5h1.2V930.3z"/>
	<path fill="#FFFFFF" d="M237.5,930.3h-1.2l-0.8-2.1h-4l-0.8,2.1h-1.2l3.4-8.5h1.2L237.5,930.3z M231.9,927.3h3.3l-1.6-4.4
		L231.9,927.3z"/>
	<path fill="#FFFFFF" d="M240,930.3h-1.2v-8.5h2.2c1.8,0,3.3,0.8,3.3,2.4c0,1.2-0.8,2.1-2.2,2.5l3,3.6h-1.4l-2.8-3.4
		c-0.2,0-0.7,0-0.9,0V930.3z M241.1,922.7h-1v3.2h0.6c1.4,0,2.6-0.5,2.6-1.7C243.2,923.1,242.2,922.7,241.1,922.7z"/>
	<path fill="#FFFFFF" d="M255.3,922l-0.2,0.9c-0.6-0.2-1.3-0.3-1.9-0.3c-2.1,0-3.4,1.2-3.4,3.5c0,2.2,1.3,3.5,3.4,3.5
		c0.7,0,1.3-0.1,1.9-0.3l0.2,0.9c-0.6,0.2-1.5,0.4-2.3,0.4c-2.8,0-4.4-1.9-4.4-4.4c0-2.5,1.6-4.4,4.4-4.4
		C253.8,921.6,254.7,921.8,255.3,922z"/>
	<path fill="#FFFFFF" d="M256.2,926c0-2.4,1.5-4.4,4.2-4.4c2.7,0,4.2,2,4.2,4.4c0,2.4-1.5,4.4-4.2,4.4
		C257.7,930.4,256.2,928.4,256.2,926z M263.4,926c0-1.9-1-3.5-3-3.5c-2,0-3,1.6-3,3.5c0,1.9,1,3.5,3,3.5
		C262.3,929.5,263.4,928,263.4,926z"/>
	<path fill="#FFFFFF" d="M272,930.3l-4.8-6.7v6.7h-1.1v-8.5h1.1l4.8,6.7v-6.7h1.1v8.5H272z"/>
	<path fill="#FFFFFF" d="M275.2,930.3v-8.5h4.8v1h-3.6v2.9h3.5v1h-3.5v3.7H275.2z"/>
	<path fill="#FFFFFF" d="M282.8,930.3h-1.2v-8.5h1.2V930.3z"/>
	<path fill="#FFFFFF" d="M286.1,930.3h-1.2v-8.5h2.2c1.8,0,3.3,0.8,3.3,2.4c0,1.2-0.8,2.1-2.2,2.5l3,3.6h-1.4l-2.8-3.4
		c-0.2,0-0.7,0-0.9,0V930.3z M287.1,922.7h-1v3.2h0.6c1.4,0,2.6-0.5,2.6-1.7C289.2,923.1,288.2,922.7,287.1,922.7z"/>
	<path fill="#FFFFFF" d="M299.7,921.8h1.1l0.6,8.5h-1.1l-0.4-6.6l-2.5,5.1h-1.2l-2.5-5.1l-0.4,6.6h-1.1l0.6-8.5h1.1l2.9,6
		L299.7,921.8z"/>
	<path fill="#FFFFFF" d="M310.5,930.3h-1.2l-0.8-2.1h-4l-0.8,2.1h-1.2l3.4-8.5h1.2L310.5,930.3z M304.9,927.3h3.3l-1.6-4.4
		L304.9,927.3z"/>
	<path fill="#FFFFFF" d="M317.7,922l-0.2,0.9c-0.6-0.2-1.3-0.3-1.9-0.3c-2.1,0-3.4,1.2-3.4,3.5c0,2.2,1.3,3.5,3.4,3.5
		c0.7,0,1.3-0.1,1.9-0.3l0.2,0.9c-0.6,0.2-1.5,0.4-2.3,0.4c-2.8,0-4.4-1.9-4.4-4.4c0-2.5,1.6-4.4,4.4-4.4
		C316.2,921.6,317.1,921.8,317.7,922z"/>
	<path fill="#FFFFFF" d="M320.5,930.3h-1.2v-8.5h1.2V930.3z"/>
	<path fill="#FFFFFF" d="M322.2,926c0-2.4,1.5-4.4,4.2-4.4c2.7,0,4.2,2,4.2,4.4c0,2.4-1.5,4.4-4.2,4.4
		C323.7,930.4,322.2,928.4,322.2,926z M329.3,926c0-1.9-1-3.5-3-3.5c-2,0-3,1.6-3,3.5c0,1.9,1,3.5,3,3.5
		C328.3,929.5,329.3,928,329.3,926z M325.7,921l1.1-1.5h1.4l-1.5,1.5H325.7z"/>
	<path fill="#FFFFFF" d="M338,930.3l-4.8-6.7v6.7h-1.1v-8.5h1.1l4.8,6.7v-6.7h1.1v8.5H338z"/>
	<path fill="#FFFFFF" d="M343.9,921.8h2.4c2.9,0,4.9,1.8,4.9,4.3s-1.9,4.3-4.9,4.3h-2.4V921.8z M346.3,929.3c2,0,3.7-1.2,3.7-3.3
		s-1.6-3.3-3.7-3.3h-1.2v6.6H346.3z"/>
	<path fill="#FFFFFF" d="M352.7,921.8h4.7v1h-3.6v2.7h3.4v1h-3.4v2.9h3.6v1h-4.8V921.8z"/>
	<path fill="#FFFFFF" d="M369.2,930.3H368l-0.8-2.1h-4l-0.8,2.1h-1.2l3.4-8.5h1.2L369.2,930.3z M363.6,927.3h3.3l-1.6-4.4
		L363.6,927.3z"/>
	<path fill="#FFFFFF" d="M372.5,930.4c-0.8,0-1.7-0.2-2.4-0.5l0.2-0.9c0.6,0.3,1.4,0.5,2.2,0.5c1.1,0,1.9-0.5,1.9-1.4
		c0-1-0.8-1.4-1.9-1.8c-1.2-0.6-2.2-1.2-2.2-2.4c0-1.5,1.1-2.2,2.7-2.2c0.8,0,1.6,0.2,2.2,0.5l-0.2,0.9c-0.6-0.3-1.3-0.5-2-0.5
		c-1,0-1.5,0.4-1.5,1.2c0,0.7,0.4,1,1.5,1.5c1.1,0.6,2.6,1.2,2.6,2.8C375.5,929.5,374.2,930.4,372.5,930.4z"/>
	<path fill="#FFFFFF" d="M378.3,930.3h-1.2v-8.5h1.2V930.3z"/>
	<path fill="#FFFFFF" d="M382.3,930.4c-0.8,0-1.7-0.2-2.4-0.5l0.2-0.9c0.6,0.3,1.4,0.5,2.2,0.5c1.1,0,1.9-0.5,1.9-1.4
		c0-1-0.8-1.4-1.9-1.8c-1.2-0.6-2.2-1.2-2.2-2.4c0-1.5,1.1-2.2,2.7-2.2c0.8,0,1.6,0.2,2.2,0.5l-0.2,0.9c-0.6-0.3-1.3-0.5-2-0.5
		c-1,0-1.5,0.4-1.5,1.2c0,0.7,0.4,1,1.5,1.5c1.1,0.6,2.6,1.2,2.6,2.8C385.3,929.5,384,930.4,382.3,930.4z"/>
	<path fill="#FFFFFF" d="M392.2,921.8v1h-2.5v7.6h-1.2v-7.6h-2.5v-1H392.2z"/>
	<path fill="#FFFFFF" d="M393.6,921.8h4.7v1h-3.6v2.7h3.4v1h-3.4v2.9h3.6v1h-4.8V921.8z"/>
	<path fill="#FFFFFF" d="M406,930.3l-4.8-6.7v6.7h-1.1v-8.5h1.1l4.8,6.7v-6.7h1.1v8.5H406z"/>
	<path fill="#FFFFFF" d="M415.4,922l-0.2,0.9c-0.6-0.2-1.3-0.3-1.9-0.3c-2.1,0-3.4,1.2-3.4,3.5c0,2.2,1.3,3.5,3.4,3.5
		c0.7,0,1.3-0.1,1.9-0.3l0.2,0.9c-0.6,0.2-1.5,0.4-2.3,0.4c-2.8,0-4.4-1.9-4.4-4.4c0-2.5,1.6-4.4,4.4-4.4
		C413.9,921.6,414.8,921.8,415.4,922z"/>
	<path fill="#FFFFFF" d="M418.2,930.3H417v-8.5h1.2V930.3z"/>
	<path fill="#FFFFFF" d="M427.6,930.3h-1.2l-0.8-2.1h-4l-0.8,2.1h-1.2l3.4-8.5h1.2L427.6,930.3z M422,927.3h3.3l-1.6-4.4L422,927.3z
		"/>
</g>
<g>
	<path fill="#FFFFFF" d="M182,937.1h1.3l-2.8,5.2v3.4h-1.2v-3.4l-2.8-5.2h1.3l2.1,4.1L182,937.1z"/>
	<path fill="#FFFFFF" d="M193.3,937.4l-0.2,0.9c-0.6-0.2-1.3-0.3-1.9-0.3c-2.1,0-3.4,1.2-3.4,3.5c0,2.2,1.3,3.5,3.4,3.5
		c0.7,0,1.3-0.1,1.9-0.3l0.2,0.9c-0.6,0.2-1.5,0.4-2.3,0.4c-2.8,0-4.4-1.9-4.4-4.4c0-2.5,1.6-4.4,4.4-4.4
		C191.8,937,192.7,937.1,193.3,937.4z"/>
	<path fill="#FFFFFF" d="M194.2,941.4c0-2.4,1.5-4.4,4.2-4.4c2.7,0,4.2,2,4.2,4.4c0,2.4-1.5,4.4-4.2,4.4
		C195.7,945.8,194.2,943.8,194.2,941.4z M201.4,941.4c0-1.9-1-3.5-3-3.5c-2,0-3,1.6-3,3.5c0,1.9,1,3.5,3,3.5
		C200.3,944.9,201.4,943.3,201.4,941.4z"/>
	<path fill="#FFFFFF" d="M205.9,942.3h-0.6v3.4h-1.2v-8.5h2.1c1.8,0,3.3,0.8,3.3,2.5C209.5,941.3,207.9,942.3,205.9,942.3z
		 M206.2,938.1h-0.8v3.3h0.6c1.4,0,2.3-0.6,2.3-1.7C208.3,938.5,207.3,938.1,206.2,938.1z"/>
	<path fill="#FFFFFF" d="M211.9,945.7h-1.2v-8.5h1.2V945.7z"/>
	<path fill="#FFFFFF" d="M221.3,945.7h-1.2l-0.8-2.1h-4l-0.8,2.1h-1.2l3.4-8.5h1.2L221.3,945.7z M215.7,942.6h3.3l-1.6-4.4
		L215.7,942.6z"/>
	<path fill="#FFFFFF" d="M225.4,937.1h2.4c2.9,0,4.9,1.8,4.9,4.3s-1.9,4.3-4.9,4.3h-2.4V937.1z M227.8,944.7c2,0,3.7-1.2,3.7-3.3
		s-1.6-3.3-3.7-3.3h-1.2v6.6H227.8z"/>
	<path fill="#FFFFFF" d="M234.2,937.1h4.7v1h-3.6v2.7h3.4v1h-3.4v2.9h3.6v1h-4.8V937.1z"/>
	<path fill="#FFFFFF" d="M245.2,942.3h-0.6v3.4h-1.2v-8.5h2.1c1.8,0,3.3,0.8,3.3,2.5C248.8,941.3,247.2,942.3,245.2,942.3z
		 M245.5,938.1h-0.8v3.3h0.6c1.4,0,2.3-0.6,2.3-1.7C247.6,938.5,246.6,938.1,245.5,938.1z"/>
	<path fill="#FFFFFF" d="M256.5,945.7h-1.2l-0.8-2.1h-4l-0.8,2.1h-1.2l3.4-8.5h1.2L256.5,945.7z M250.9,942.6h3.3l-1.6-4.4
		L250.9,942.6z"/>
	<path fill="#FFFFFF" d="M259.8,945.8c-0.8,0-1.7-0.2-2.4-0.5l0.2-0.9c0.6,0.3,1.4,0.5,2.2,0.5c1.1,0,1.9-0.5,1.9-1.4
		c0-1-0.8-1.4-1.9-1.8c-1.2-0.6-2.2-1.2-2.2-2.4c0-1.5,1.1-2.2,2.7-2.2c0.8,0,1.6,0.2,2.2,0.5l-0.2,0.9c-0.6-0.3-1.3-0.5-2-0.5
		c-1,0-1.5,0.4-1.5,1.2c0,0.7,0.4,1,1.5,1.5c1.1,0.6,2.6,1.2,2.6,2.8C262.8,944.9,261.5,945.8,259.8,945.8z"/>
	<path fill="#FFFFFF" d="M271.5,945.7h-1.2l-0.8-2.1h-4l-0.8,2.1h-1.2l3.4-8.5h1.2L271.5,945.7z M265.9,942.6h3.3l-1.6-4.4
		L265.9,942.6z"/>
	<path fill="#FFFFFF" d="M274.7,942.3h-0.6v3.4h-1.2v-8.5h2.1c1.8,0,3.3,0.8,3.3,2.5C278.3,941.3,276.7,942.3,274.7,942.3z
		 M274.9,938.1h-0.8v3.3h0.6c1.4,0,2.3-0.6,2.3-1.7C277.1,938.5,276.1,938.1,274.9,938.1z"/>
	<path fill="#FFFFFF" d="M279,941.4c0-2.4,1.5-4.4,4.2-4.4c2.7,0,4.2,2,4.2,4.4c0,2.4-1.5,4.4-4.2,4.4
		C280.5,945.8,279,943.8,279,941.4z M286.2,941.4c0-1.9-1-3.5-3-3.5c-2,0-3,1.6-3,3.5c0,1.9,1,3.5,3,3.5
		C285.2,944.9,286.2,943.3,286.2,941.4z"/>
	<path fill="#FFFFFF" d="M290.1,945.7H289v-8.5h2.2c1.8,0,3.3,0.8,3.3,2.4c0,1.2-0.8,2.1-2.2,2.5l3,3.6h-1.4l-2.8-3.4
		c-0.2,0-0.7,0-0.9,0V945.7z M291.2,938.1h-1v3.2h0.6c1.4,0,2.6-0.5,2.6-1.7C293.3,938.5,292.3,938.1,291.2,938.1z"/>
	<path fill="#FFFFFF" d="M301.6,937.1v1h-2.5v7.6h-1.2v-7.6h-2.5v-1H301.6z"/>
	<path fill="#FFFFFF" d="M302.9,937.1h4.7v1h-3.6v2.7h3.4v1h-3.4v2.9h3.6v1h-4.8V937.1z"/>
	<path fill="#FFFFFF" d="M317,937.1h1.2l-3.1,8.5h-1.2l-3.1-8.5h1.2l2.5,7.1L317,937.1z"/>
	<path fill="#FFFFFF" d="M320.5,945.7h-1.2v-8.5h1.2V945.7z"/>
	<path fill="#FFFFFF" d="M329.3,937.5l-0.2,0.9c-0.7-0.3-1.5-0.5-2.3-0.5c-2.1,0-3.4,1.3-3.4,3.6c0,2.2,1.1,3.4,3.4,3.4
		c0.6,0,1.1-0.1,1.5-0.2v-2.8h1.1v3.4c-0.7,0.3-1.7,0.5-2.8,0.5c-2.8,0-4.5-1.8-4.5-4.3c0-2.7,1.7-4.5,4.6-4.5
		C327.7,937,328.6,937.1,329.3,937.5z"/>
	<path fill="#FFFFFF" d="M331.3,937.1h4.7v1h-3.6v2.7h3.4v1h-3.4v2.9h3.6v1h-4.8V937.1z"/>
	<path fill="#FFFFFF" d="M343.8,945.7L339,939v6.7h-1.1v-8.5h1.1l4.8,6.7v-6.7h1.1v8.5H343.8z"/>
	<path fill="#FFFFFF" d="M352.4,937.1v1h-2.5v7.6h-1.2v-7.6h-2.5v-1H352.4z"/>
	<path fill="#FFFFFF" d="M353.7,937.1h4.7v1h-3.6v2.7h3.4v1h-3.4v2.9h3.6v1h-4.8V937.1z"/>
	<path fill="#FFFFFF" d="M370.2,945.7H369l-0.8-2.1h-4l-0.8,2.1h-1.2l3.4-8.5h1.2L370.2,945.7z M364.6,942.6h3.3l-1.6-4.4
		L364.6,942.6z"/>
	<path fill="#FFFFFF" d="M372.8,937.1v7.6h3.6v1h-4.7v-8.5H372.8z"/>
	<path fill="#FFFFFF" d="M386.6,937.4l-0.2,0.9c-0.6-0.2-1.3-0.3-1.9-0.3c-2.1,0-3.4,1.2-3.4,3.5c0,2.2,1.3,3.5,3.4,3.5
		c0.7,0,1.3-0.1,1.9-0.3l0.2,0.9c-0.6,0.2-1.5,0.4-2.3,0.4c-2.8,0-4.4-1.9-4.4-4.4c0-2.5,1.6-4.4,4.4-4.4
		C385.1,937,386.1,937.1,386.6,937.4z"/>
	<path fill="#FFFFFF" d="M387.6,941.4c0-2.4,1.5-4.4,4.2-4.4c2.7,0,4.2,2,4.2,4.4c0,2.4-1.5,4.4-4.2,4.4
		C389.1,945.8,387.6,943.8,387.6,941.4z M394.7,941.4c0-1.9-1-3.5-3-3.5c-2,0-3,1.6-3,3.5c0,1.9,1,3.5,3,3.5
		C393.7,944.9,394.7,943.3,394.7,941.4z"/>
	<path fill="#FFFFFF" d="M398.7,945.7h-1.2v-8.5h2.2c1.8,0,3.3,0.8,3.3,2.4c0,1.2-0.8,2.1-2.2,2.5l3,3.6h-1.4l-2.8-3.4
		c-0.2,0-0.7,0-0.9,0V945.7z M399.7,938.1h-1v3.2h0.6c1.4,0,2.6-0.5,2.6-1.7C401.8,938.5,400.8,938.1,399.7,938.1z"/>
	<path fill="#FFFFFF" d="M406.1,945.7H405v-8.5h2.2c1.8,0,3.3,0.8,3.3,2.4c0,1.2-0.8,2.1-2.2,2.5l3,3.6h-1.4l-2.8-3.4
		c-0.2,0-0.7,0-0.9,0V945.7z M407.2,938.1h-1v3.2h0.6c1.4,0,2.6-0.5,2.6-1.7C409.3,938.5,408.3,938.1,407.2,938.1z"/>
	<path fill="#FFFFFF" d="M412.4,937.1h4.7v1h-3.6v2.7h3.4v1h-3.4v2.9h3.6v1h-4.8V937.1z"/>
	<path fill="#FFFFFF" d="M418.5,941.4c0-2.4,1.5-4.4,4.2-4.4c2.7,0,4.2,2,4.2,4.4c0,2.4-1.5,4.4-4.2,4.4
		C420,945.8,418.5,943.8,418.5,941.4z M425.7,941.4c0-1.9-1-3.5-3-3.5c-2,0-3,1.6-3,3.5c0,1.9,1,3.5,3,3.5
		C424.6,944.9,425.7,943.3,425.7,941.4z"/>
	<path fill="#FFFFFF" d="M429.1,941.7c-0.4,0-0.7-0.3-0.7-0.7c0-0.4,0.3-0.7,0.7-0.7s0.7,0.3,0.7,0.7
		C429.8,941.4,429.5,941.7,429.1,941.7z M429.1,945.7c-0.4,0-0.7-0.3-0.7-0.7c0-0.4,0.3-0.7,0.7-0.7s0.7,0.3,0.7,0.7
		C429.8,945.4,429.5,945.7,429.1,945.7z"/>
</g>
<g>
	<path fill="#FFFFFF" d="M83.6,952.5h1.1l0.6,8.5h-1.1l-0.4-6.6l-2.5,5.1h-1.2l-2.5-5.1l-0.4,6.6h-1.1l0.6-8.5h1.1l2.9,6L83.6,952.5
		z"/>
	<path fill="#FFFFFF" d="M87.1,952.5h4.7v1h-3.6v2.7h3.4v1h-3.4v2.9h3.6v1h-4.8V952.5z"/>
	<path fill="#FFFFFF" d="M94.8,961h-1.2v-8.5h2.2c1.8,0,3.3,0.8,3.3,2.4c0,1.2-0.8,2.1-2.2,2.5l3,3.6h-1.4l-2.8-3.4
		c-0.2,0-0.7,0-0.9,0V961z M95.9,953.4h-1v3.2h0.6c1.4,0,2.6-0.5,2.6-1.7C98,953.8,97,953.4,95.9,953.4z"/>
	<path fill="#FFFFFF" d="M107.3,952.7l-0.2,0.9c-0.6-0.2-1.3-0.3-1.9-0.3c-2.1,0-3.4,1.2-3.4,3.5s1.3,3.5,3.4,3.5
		c0.7,0,1.3-0.1,1.9-0.3l0.2,0.9c-0.6,0.2-1.5,0.4-2.3,0.4c-2.8,0-4.4-1.9-4.4-4.4c0-2.5,1.6-4.4,4.4-4.4
		C105.8,952.3,106.7,952.5,107.3,952.7z"/>
	<path fill="#FFFFFF" d="M116.2,961h-1.2l-0.8-2.1h-4l-0.8,2.1h-1.2l3.4-8.5h1.2L116.2,961z M110.5,958h3.3l-1.6-4.4L110.5,958z"/>
	<path fill="#FFFFFF" d="M117.5,952.5h2.4c2.9,0,4.9,1.8,4.9,4.3s-1.9,4.3-4.9,4.3h-2.4V952.5z M119.9,960.1c2,0,3.7-1.2,3.7-3.3
		s-1.6-3.3-3.7-3.3h-1.2v6.6H119.9z"/>
	<path fill="#FFFFFF" d="M125.9,956.8c0-2.4,1.5-4.4,4.2-4.4c2.7,0,4.2,2,4.2,4.4c0,2.4-1.5,4.4-4.2,4.4
		C127.4,961.2,125.9,959.1,125.9,956.8z M133,956.8c0-1.9-1-3.5-3-3.5c-2,0-3,1.6-3,3.5c0,1.9,1,3.5,3,3.5
		C132,960.2,133,958.7,133,956.8z"/>
	<path fill="#FFFFFF" d="M141,952.5v1h-2.5v7.6h-1.2v-7.6h-2.5v-1H141z"/>
	<path fill="#FFFFFF" d="M142.3,952.5h4.7v1h-3.6v2.7h3.4v1h-3.4v2.9h3.6v1h-4.8V952.5z"/>
	<path fill="#FFFFFF" d="M155,952.7l-0.2,0.9c-0.6-0.2-1.3-0.3-1.9-0.3c-2.1,0-3.4,1.2-3.4,3.5s1.3,3.5,3.4,3.5
		c0.7,0,1.3-0.1,1.9-0.3l0.2,0.9c-0.6,0.2-1.5,0.4-2.3,0.4c-2.8,0-4.4-1.9-4.4-4.4c0-2.5,1.6-4.4,4.4-4.4
		C153.6,952.3,154.5,952.5,155,952.7z"/>
	<path fill="#FFFFFF" d="M162.5,961l-4.8-6.7v6.7h-1.1v-8.5h1.1l4.8,6.7v-6.7h1.1v8.5H162.5z"/>
	<path fill="#FFFFFF" d="M167,961h-1.2v-8.5h1.2V961z"/>
	<path fill="#FFFFFF" d="M176.3,961h-1.2l-0.8-2.1h-4l-0.8,2.1h-1.2l3.4-8.5h1.2L176.3,961z M170.7,958h3.3l-1.6-4.4L170.7,958z"/>
	<path fill="#FFFFFF" d="M179.6,961.2c-0.8,0-1.7-0.2-2.4-0.5l0.2-0.9c0.6,0.3,1.4,0.5,2.2,0.5c1.1,0,1.9-0.5,1.9-1.4
		c0-1-0.8-1.4-1.9-1.8c-1.2-0.6-2.2-1.2-2.2-2.4c0-1.5,1.1-2.2,2.7-2.2c0.8,0,1.6,0.2,2.2,0.5l-0.2,0.9c-0.6-0.3-1.3-0.5-2-0.5
		c-1,0-1.5,0.4-1.5,1.2c0,0.7,0.4,1,1.5,1.5c1.1,0.6,2.6,1.2,2.6,2.8C182.6,960.3,181.3,961.2,179.6,961.2z"/>
	<path fill="#FFFFFF" d="M191.4,961h-1.2l-0.8-2.1h-4l-0.8,2.1h-1.2l3.4-8.5h1.2L191.4,961z M185.8,958h3.3l-1.6-4.4L185.8,958z"/>
	<path fill="#FFFFFF" d="M198.7,961l-4.8-6.7v6.7h-1.1v-8.5h1.1l4.8,6.7v-6.7h1.1v8.5H198.7z"/>
	<path fill="#FFFFFF" d="M207.3,952.5v1h-2.5v7.6h-1.2v-7.6h-2.5v-1H207.3z"/>
	<path fill="#FFFFFF" d="M209.8,961h-1.2v-8.5h1.2V961z"/>
	<path fill="#FFFFFF" d="M213.1,952.5v7.6h3.6v1H212v-8.5H213.1z"/>
	<path fill="#FFFFFF" d="M219.2,952.5v7.6h3.6v1H218v-8.5H219.2z"/>
	<path fill="#FFFFFF" d="M231.5,961h-1.2l-0.8-2.1h-4l-0.8,2.1h-1.2l3.4-8.5h1.2L231.5,961z M225.9,958h3.3l-1.6-4.4L225.9,958z"/>
	<path fill="#FFFFFF" d="M238.8,961l-4.8-6.7v6.7h-1.1v-8.5h1.1l4.8,6.7v-6.7h1.1v8.5H238.8z"/>
	<path fill="#FFFFFF" d="M249.2,961H248l-0.8-2.1h-4l-0.8,2.1h-1.2l3.4-8.5h1.2L249.2,961z M243.6,958h3.3l-1.6-4.4L243.6,958z"/>
	<path fill="#FFFFFF" d="M256.4,952.7l-0.2,0.9c-0.6-0.2-1.3-0.3-1.9-0.3c-2.1,0-3.4,1.2-3.4,3.5s1.3,3.5,3.4,3.5
		c0.7,0,1.3-0.1,1.9-0.3l0.2,0.9c-0.6,0.2-1.5,0.4-2.3,0.4c-2.8,0-4.4-1.9-4.4-4.4c0-2.5,1.6-4.4,4.4-4.4
		C254.9,952.3,255.9,952.5,256.4,952.7z"/>
	<path fill="#FFFFFF" d="M257.4,956.8c0-2.4,1.5-4.4,4.2-4.4c2.7,0,4.2,2,4.2,4.4c0,2.4-1.5,4.4-4.2,4.4
		C258.9,961.2,257.4,959.1,257.4,956.8z M264.5,956.8c0-1.9-1-3.5-3-3.5c-2,0-3,1.6-3,3.5c0,1.9,1,3.5,3,3.5
		C263.5,960.2,264.5,958.7,264.5,956.8z"/>
	<path fill="#FFFFFF" d="M274.6,952.5h1.1l0.6,8.5h-1.1l-0.4-6.6l-2.5,5.1h-1.2l-2.5-5.1l-0.4,6.6h-1.1l0.6-8.5h1.1l2.9,6
		L274.6,952.5z"/>
	<path fill="#FFFFFF" d="M279.9,957.7h-0.6v3.4h-1.2v-8.5h2.1c1.8,0,3.3,0.8,3.3,2.5C283.4,956.6,281.9,957.7,279.9,957.7z
		 M280.1,953.4h-0.8v3.3h0.6c1.4,0,2.3-0.6,2.3-1.7C282.3,953.9,281.3,953.4,280.1,953.4z"/>
	<path fill="#FFFFFF" d="M291.2,961H290l-0.8-2.1h-4l-0.8,2.1h-1.2l3.4-8.5h1.2L291.2,961z M285.6,958h3.3l-1.6-4.4L285.6,958z"/>
	<path fill="#FFFFFF" d="M293.8,961h-1.2v-8.5h2.2c1.8,0,3.3,0.8,3.3,2.4c0,1.2-0.8,2.1-2.2,2.5l3,3.6h-1.4l-2.8-3.4
		c-0.2,0-0.7,0-0.9,0V961z M294.8,953.4h-1v3.2h0.6c1.4,0,2.6-0.5,2.6-1.7C296.9,953.8,295.9,953.4,294.8,953.4z"/>
	<path fill="#FFFFFF" d="M305.3,952.5v1h-2.5v7.6h-1.2v-7.6h-2.5v-1H305.3z"/>
	<path fill="#FFFFFF" d="M307.8,961h-1.2v-8.5h1.2V961z"/>
	<path fill="#FFFFFF" d="M311.1,961h-1.2v-8.5h2.2c1.8,0,3.3,0.8,3.3,2.4c0,1.2-0.8,2.1-2.2,2.5l3,3.6h-1.4l-2.8-3.4
		c-0.2,0-0.7,0-0.9,0V961z M312.1,953.4h-1v3.2h0.6c1.4,0,2.6-0.5,2.6-1.7C314.2,953.8,313.2,953.4,312.1,953.4z"/>
	<path fill="#FFFFFF" d="M323.5,956.3l-0.3,1.9c0,0.1,0,0.2,0,0.4c0,0.5,0.2,0.8,0.7,0.8c0.8,0,1.5-1,1.5-2.3c0-1.8-1.4-2.8-3.3-2.8
		c-2.3,0-4,1.6-4,4.1c0,2.2,1.3,3.5,3.7,3.5c1.2,0,2.1-0.3,3.1-0.8l0.2,0.7c-0.9,0.5-2.3,0.8-3.4,0.8c-2.9,0-4.5-1.8-4.5-4.2
		c0-2.9,2.1-4.8,4.9-4.8c2.5,0,4.1,1.6,4.1,3.5c0,1.6-1,2.9-2.4,2.9c-0.9,0-1.3-0.6-1.4-1.2c-0.4,0.7-0.9,1.1-1.5,1.1
		c-0.8,0-1-0.7-1-1.4c0-1.3,0.8-2.6,2.3-2.6C322.6,955.9,323.1,956.1,323.5,956.3z M320.6,958.5c0,0.4,0.1,0.7,0.4,0.7
		c0.4,0,0.9-0.6,1.2-1.3l0.2-1.2c-0.2,0-0.3-0.1-0.5-0.1C321.1,956.6,320.6,957.6,320.6,958.5z"/>
	<path fill="#FFFFFF" d="M329.7,961.2c-0.8,0-1.7-0.2-2.4-0.5l0.2-0.9c0.6,0.3,1.4,0.5,2.2,0.5c1.1,0,1.9-0.5,1.9-1.4
		c0-1-0.8-1.4-1.9-1.8c-1.2-0.6-2.2-1.2-2.2-2.4c0-1.5,1.1-2.2,2.7-2.2c0.8,0,1.6,0.2,2.2,0.5l-0.2,0.9c-0.6-0.3-1.3-0.5-2-0.5
		c-1,0-1.5,0.4-1.5,1.2c0,0.7,0.4,1,1.5,1.5c1.1,0.6,2.6,1.2,2.6,2.8C332.7,960.3,331.4,961.2,329.7,961.2z"/>
	<path fill="#FFFFFF" d="M341.5,961h-1.2l-0.8-2.1h-4l-0.8,2.1h-1.2l3.4-8.5h1.2L341.5,961z M335.8,958h3.3l-1.6-4.4L335.8,958z"/>
	<path fill="#FFFFFF" d="M348.7,961l-4.8-6.7v6.7h-1.1v-8.5h1.1l4.8,6.7v-6.7h1.1v8.5H348.7z"/>
	<path fill="#FFFFFF" d="M357.4,952.5v1h-2.5v7.6h-1.2v-7.6h-2.5v-1H357.4z"/>
	<path fill="#FFFFFF" d="M359.9,961h-1.2v-8.5h1.2V961z"/>
	<path fill="#FFFFFF" d="M363.2,952.5v7.6h3.6v1H362v-8.5H363.2z"/>
	<path fill="#FFFFFF" d="M369.2,952.5v7.6h3.6v1h-4.7v-8.5H369.2z"/>
	<path fill="#FFFFFF" d="M381.6,961h-1.2l-0.8-2.1h-4l-0.8,2.1h-1.2l3.4-8.5h1.2L381.6,961z M376,958h3.3l-1.6-4.4L376,958z"/>
	<path fill="#FFFFFF" d="M388.9,961l-4.8-6.7v6.7H383v-8.5h1.1l4.8,6.7v-6.7h1.1v8.5H388.9z"/>
	<path fill="#FFFFFF" d="M399.3,961h-1.2l-0.8-2.1h-4l-0.8,2.1h-1.2l3.4-8.5h1.2L399.3,961z M393.7,958h3.3l-1.6-4.4L393.7,958z"/>
	<path fill="#FFFFFF" d="M401.3,961.1c-0.4,0-0.7-0.3-0.7-0.7c0-0.4,0.3-0.7,0.7-0.7s0.7,0.3,0.7,0.7
		C402.1,960.8,401.8,961.1,401.3,961.1z"/>
	<path fill="#FFFFFF" d="M410,952.7l-0.2,0.9c-0.6-0.2-1.3-0.3-1.9-0.3c-2.1,0-3.4,1.2-3.4,3.5s1.3,3.5,3.4,3.5
		c0.7,0,1.3-0.1,1.9-0.3l0.2,0.9c-0.6,0.2-1.5,0.4-2.3,0.4c-2.8,0-4.4-1.9-4.4-4.4c0-2.5,1.6-4.4,4.4-4.4
		C408.6,952.3,409.5,952.5,410,952.7z"/>
	<path fill="#FFFFFF" d="M411,956.8c0-2.4,1.5-4.4,4.2-4.4c2.7,0,4.2,2,4.2,4.4c0,2.4-1.5,4.4-4.2,4.4
		C412.5,961.2,411,959.1,411,956.8z M418.1,956.8c0-1.9-1-3.5-3-3.5c-2,0-3,1.6-3,3.5c0,1.9,1,3.5,3,3.5
		C417.1,960.2,418.1,958.7,418.1,956.8z"/>
	<path fill="#FFFFFF" d="M428.2,952.5h1.1l0.6,8.5h-1.1l-0.4-6.6l-2.5,5.1h-1.2l-2.5-5.1l-0.4,6.6h-1.1l0.6-8.5h1.1l2.9,6
		L428.2,952.5z"/>
</g>
<g>
	<path fill="#FFFFFF" d="M195.3,1014.9l-0.4,2.2c-0.7-0.3-1.7-0.5-2.6-0.5c-2.5,0-4,1.3-4,3.9s1.5,3.9,4,3.9c0.9,0,1.9-0.2,2.6-0.5
		l0.4,2.2c-0.9,0.5-2.3,0.7-3.5,0.7c-4.2,0-6.5-2.6-6.5-6.2c0-3.6,2.2-6.2,6.5-6.2C193,1014.2,194.4,1014.5,195.3,1014.9z"/>
	<path fill="#FFFFFF" d="M204.4,1014.4h3v7.7c0,2.8-1.9,4.6-5.1,4.6c-3.2,0-5.1-1.7-5.1-4.6v-7.7h3v7.8c0,1.4,0.7,2.1,2.1,2.1
		c1.4,0,2.1-0.7,2.1-2.1V1014.4z"/>
	<path fill="#FFFFFF" d="M212.9,1022.4h-0.3v4.1h-3v-12h3.5c3.1,0,5.2,1.2,5.2,3.9C218.4,1020.9,216,1022.4,212.9,1022.4z
		 M213.1,1016.7h-0.5v3.4h0.5c1.6,0,2.4-0.7,2.4-1.8C215.5,1017.3,214.7,1016.7,213.1,1016.7z"/>
	<path fill="#FFFFFF" d="M225.5,1026.7c-3.9,0-6.1-2.8-6.1-6.2s2.2-6.2,6.1-6.2c3.9,0,6.1,2.8,6.1,6.2S229.4,1026.7,225.5,1026.7z
		 M228.7,1020.5c0-2.3-1.1-3.9-3.2-3.9s-3.2,1.6-3.2,3.9c0,2.3,1.1,3.9,3.2,3.9S228.7,1022.7,228.7,1020.5z"/>
	<path fill="#FFFFFF" d="M240.3,1014.4v9.7h4.4v2.3h-7.4v-12H240.3z"/>
	<path fill="#FFFFFF" d="M249.2,1026.5h-3v-12h3V1026.5z"/>
	<path fill="#FFFFFF" d="M259.7,1024.6h-2.9l-2.3-4.8l-0.4,6.7h-2.9l0.9-12h2.7l3.5,7.4l3.5-7.4h2.7l0.9,12h-2.9l-0.4-6.7
		L259.7,1024.6z"/>
	<path fill="#FFFFFF" d="M270.3,1026.5h-3v-12h3V1026.5z"/>
	<path fill="#FFFFFF" d="M281.3,1014.4v2.3h-3.2v9.7h-3v-9.7h-3.2v-2.3H281.3z"/>
	<path fill="#FFFFFF" d="M289.4,1024.1h-4.6l-0.7,2.3H281l4.5-12h3.3l4.5,12h-3.1L289.4,1024.1z M285.5,1021.8h3.1l-1.5-5.1
		L285.5,1021.8z"/>
	<path fill="#FFFFFF" d="M294.6,1014.4h3.7c4.3,0,7.2,2.5,7.2,6c0,3.5-2.9,6-7.2,6h-3.7V1014.4z M298.4,1024.1c2.4,0,4-1.4,4-3.7
		c0-2.3-1.6-3.7-4-3.7h-0.9v7.3H298.4z"/>
	<path fill="#FFFFFF" d="M312.7,1026.7c-3.9,0-6.1-2.8-6.1-6.2s2.2-6.2,6.1-6.2c3.9,0,6.1,2.8,6.1,6.2S316.6,1026.7,312.7,1026.7z
		 M315.9,1020.5c0-2.3-1.1-3.9-3.2-3.9s-3.2,1.6-3.2,3.9c0,2.3,1.1,3.9,3.2,3.9S315.9,1022.7,315.9,1020.5z"/>
</g>
<g>
	<path fill="#FFFFFF" d="M186.1,1100.5h6.8v1.4h-5.1v3.9h4.9v1.4h-4.9v4.2h5.2v1.4h-6.8V1100.5z"/>
	<path fill="#FFFFFF" d="M198.2,1112.9c-1.2,0-2.5-0.2-3.5-0.7l0.3-1.3c0.9,0.4,2,0.7,3.1,0.7c1.6,0,2.7-0.7,2.7-2
		c0-1.4-1.2-1.9-2.7-2.6c-1.7-0.8-3.2-1.6-3.2-3.5c0-2.1,1.6-3.2,3.9-3.2c1.2,0,2.3,0.3,3.2,0.7l-0.3,1.3c-0.8-0.4-1.8-0.7-2.9-0.7
		c-1.5,0-2.2,0.6-2.2,1.7c0,1,0.5,1.4,2.1,2.2c1.6,0.8,3.7,1.7,3.7,4C202.5,1111.6,200.6,1112.9,198.2,1112.9z"/>
	<path fill="#FFFFFF" d="M207.2,1107.8h-0.8v4.8h-1.7v-12.2h2.9c2.6,0,4.7,1.2,4.7,3.6C212.3,1106.4,210.1,1107.8,207.2,1107.8z
		 M207.5,1101.8h-1.2v4.7h0.9c2,0,3.3-0.9,3.3-2.5C210.6,1102.4,209.2,1101.8,207.5,1101.8z"/>
	<path fill="#FFFFFF" d="M213.9,1100.5h6.8v1.4h-5.1v3.9h4.9v1.4h-4.9v4.2h5.2v1.4h-6.8V1100.5z"/>
	<path fill="#FFFFFF" d="M225,1112.7h-1.7v-12.2h3.2c2.6,0,4.7,1.2,4.7,3.4c0,1.7-1.1,3-3.1,3.5l4.3,5.2h-2.1l-4-4.9
		c-0.3,0-1.1,0-1.4,0V1112.7z M226.4,1101.8H225v4.6h0.8c2,0,3.7-0.8,3.7-2.5C229.5,1102.4,228,1101.8,226.4,1101.8z"/>
	<path fill="#FFFFFF" d="M244.5,1112.7h-1.7l-1.1-2.9H236l-1.1,2.9h-1.7l4.8-12.2h1.6L244.5,1112.7z M236.5,1108.4h4.7l-2.3-6.3
		L236.5,1108.4z"/>
	<path fill="#FFFFFF" d="M252.9,1107.8h-0.8v4.8h-1.7v-12.2h2.9c2.6,0,4.7,1.2,4.7,3.6C258,1106.4,255.8,1107.8,252.9,1107.8z
		 M253.3,1101.8h-1.2v4.7h0.9c2,0,3.3-0.9,3.3-2.5C256.3,1102.4,255,1101.8,253.3,1101.8z"/>
	<path fill="#FFFFFF" d="M261.4,1112.7h-1.7v-12.2h3.2c2.6,0,4.7,1.2,4.7,3.4c0,1.7-1.1,3-3.1,3.5l4.3,5.2h-2.1l-4-4.9
		c-0.3,0-1.1,0-1.4,0V1112.7z M262.8,1101.8h-1.5v4.6h0.8c2,0,3.7-0.8,3.7-2.5C265.9,1102.4,264.4,1101.8,262.8,1101.8z"/>
	<path fill="#FFFFFF" d="M269.6,1106.6c0-3.4,2.1-6.3,5.9-6.3c3.8,0,5.9,2.9,5.9,6.3c0,3.4-2.1,6.3-5.9,6.3
		C271.8,1112.9,269.6,1109.9,269.6,1106.6z M279.8,1106.6c0-2.7-1.5-5-4.3-5c-2.8,0-4.3,2.2-4.3,5c0,2.7,1.5,5,4.3,5
		C278.4,1111.5,279.8,1109.3,279.8,1106.6z M274.7,1099.3l1.5-2.1h1.9l-2.1,2.1H274.7z"/>
	<path fill="#FFFFFF" d="M287.5,1107.8l-3.2,4.8h-1.8l4.1-6.1l-4-6.1h1.8l3.1,4.7l3.1-4.7h1.8l-4,6.1l4.1,6.1h-1.8L287.5,1107.8z"/>
	<path fill="#FFFFFF" d="M296.2,1112.7h-1.7v-12.2h1.7V1112.7z"/>
	<path fill="#FFFFFF" d="M309.7,1100.5h1.5l0.9,12.2h-1.6l-0.6-9.5l-3.5,7.3h-1.7l-3.5-7.3l-0.6,9.5H299l0.9-12.2h1.5l4.2,8.6
		L309.7,1100.5z"/>
	<path fill="#FFFFFF" d="M325.1,1112.7h-1.7l-1.1-2.9h-5.7l-1.1,2.9h-1.7l4.8-12.2h1.6L325.1,1112.7z M317.1,1108.4h4.7l-2.3-6.3
		L317.1,1108.4z"/>
	<path fill="#FFFFFF" d="M337.6,1100.5h1.5l0.9,12.2h-1.6l-0.6-9.5l-3.5,7.3h-1.7l-3.5-7.3l-0.6,9.5h-1.6l0.9-12.2h1.5l4.2,8.6
		L337.6,1100.5z"/>
	<path fill="#FFFFFF" d="M342.6,1100.5h6.8v1.4h-5.1v3.9h4.9v1.4h-4.9v4.2h5.2v1.4h-6.8V1100.5z"/>
	<path fill="#FFFFFF" d="M360.4,1112.7l-6.8-9.6v9.6h-1.6v-12.2h1.6l6.8,9.6v-9.6h1.6v12.2H360.4z"/>
	<path fill="#FFFFFF" d="M372.7,1100.5v1.4h-3.6v10.8h-1.7v-10.8h-3.6v-1.4H372.7z"/>
	<path fill="#FFFFFF" d="M374.6,1100.5h6.8v1.4h-5.1v3.9h4.9v1.4h-4.9v4.2h5.2v1.4h-6.8V1100.5z"/>
</g>
<g>
	<path fill="#FFFFFF" d="M214.6,1122.4h1.5l0.9,12.2h-1.6l-0.6-9.5l-3.5,7.3h-1.7l-3.5-7.3l-0.6,9.5h-1.6l0.9-12.2h1.5l4.2,8.6
		L214.6,1122.4z"/>
	<path fill="#FFFFFF" d="M230,1134.6h-1.7l-1.1-2.9h-5.7l-1.1,2.9h-1.7l4.8-12.2h1.6L230,1134.6z M222,1130.3h4.7l-2.3-6.3
		L222,1130.3z M223.8,1121.3l1.5-2.1h1.9l-2.1,2.1H223.8z"/>
	<path fill="#FFFFFF" d="M234.8,1134.8c-1.2,0-2.5-0.2-3.5-0.7l0.3-1.3c0.9,0.4,2,0.7,3.1,0.7c1.6,0,2.7-0.7,2.7-2
		c0-1.4-1.2-1.9-2.7-2.6c-1.7-0.8-3.2-1.6-3.2-3.5c0-2.1,1.6-3.2,3.9-3.2c1.2,0,2.3,0.3,3.2,0.7l-0.3,1.3c-0.8-0.4-1.8-0.7-2.9-0.7
		c-1.5,0-2.2,0.6-2.2,1.7c0,1,0.5,1.4,2.1,2.2c1.6,0.8,3.7,1.7,3.7,4C239,1133.5,237.1,1134.8,234.8,1134.8z"/>
	<path fill="#FFFFFF" d="M246.9,1134.6h-1.7v-12.2h1.7V1134.6z"/>
	<path fill="#FFFFFF" d="M258.4,1134.6l-6.8-9.6v9.6h-1.6v-12.2h1.6l6.8,9.6v-9.6h1.6v12.2H258.4z"/>
	<path fill="#FFFFFF" d="M262.9,1134.6v-12.2h6.9v1.4h-5.2v4.2h5v1.4h-5v5.3H262.9z"/>
	<path fill="#FFFFFF" d="M271.2,1128.5c0-3.4,2.1-6.3,5.9-6.3c3.8,0,5.9,2.9,5.9,6.3c0,3.4-2.1,6.3-5.9,6.3
		C273.3,1134.8,271.2,1131.9,271.2,1128.5z M281.4,1128.5c0-2.7-1.5-5-4.3-5c-2.8,0-4.3,2.2-4.3,5c0,2.7,1.5,5,4.3,5
		C280,1133.5,281.4,1131.3,281.4,1128.5z"/>
	<path fill="#FFFFFF" d="M287.1,1134.6h-1.7v-12.2h3.2c2.6,0,4.7,1.2,4.7,3.4c0,1.7-1.1,3-3.1,3.5l4.3,5.2h-2.1l-4-4.9
		c-0.3,0-1.1,0-1.4,0V1134.6z M288.6,1123.8h-1.5v4.6h0.8c2,0,3.7-0.8,3.7-2.5C291.6,1124.4,290.2,1123.8,288.6,1123.8z"/>
	<path fill="#FFFFFF" d="M306.5,1122.4h1.5l0.9,12.2h-1.6l-0.6-9.5l-3.5,7.3h-1.7l-3.5-7.3l-0.6,9.5h-1.6l0.9-12.2h1.5l4.2,8.6
		L306.5,1122.4z"/>
	<path fill="#FFFFFF" d="M322,1134.6h-1.7l-1.1-2.9h-5.7l-1.1,2.9h-1.7l4.8-12.2h1.6L322,1134.6z M314,1130.3h4.7l-2.3-6.3
		L314,1130.3z"/>
	<path fill="#FFFFFF" d="M332.2,1122.8l-0.3,1.3c-0.8-0.3-1.8-0.5-2.7-0.5c-3.1,0-4.8,1.8-4.8,4.9s1.8,4.9,4.8,4.9
		c0.9,0,1.9-0.2,2.7-0.5l0.3,1.3c-0.8,0.3-2.1,0.6-3.2,0.6c-4,0-6.3-2.7-6.3-6.3c0-3.6,2.3-6.3,6.3-6.3
		C330.1,1122.2,331.4,1122.4,332.2,1122.8z"/>
	<path fill="#FFFFFF" d="M336.3,1134.6h-1.7v-12.2h1.7V1134.6z"/>
	<path fill="#FFFFFF" d="M338.7,1128.5c0-3.4,2.1-6.3,5.9-6.3s5.9,2.9,5.9,6.3c0,3.4-2.1,6.3-5.9,6.3S338.7,1131.9,338.7,1128.5z
		 M348.9,1128.5c0-2.7-1.5-5-4.3-5c-2.8,0-4.3,2.2-4.3,5c0,2.7,1.5,5,4.3,5C347.4,1133.5,348.9,1131.3,348.9,1128.5z M343.8,1121.3
		l1.5-2.1h1.9l-2.1,2.1H343.8z"/>
	<path fill="#FFFFFF" d="M361.3,1134.6l-6.8-9.6v9.6h-1.6v-12.2h1.6l6.8,9.6v-9.6h1.6v12.2H361.3z"/>
</g>
<g>
	<path fill="#EEC030" d="M113.4,1075.4h32.8v-7.1c0-1.8-0.7-3.4-1.9-4.6c-1.2-1.2-2.8-1.9-4.6-1.9h-9.9h-9.9c-1.8,0-3.4,0.7-4.6,1.9
		v0c-1.2,1.2-1.9,2.8-1.9,4.6V1075.4z M159.2,1075.4v-15.6c0-3.2-1.3-6.1-3.4-8.2c-2.1-2.1-5-3.4-8.2-3.4h-17.8H112
		c-3.2,0-6.1,1.3-8.2,3.4c-2.1,2.1-3.4,5-3.4,8.2v15.6h8.4v-7.1c0-3.1,1.3-5.9,3.3-7.9l0,0c2-2,4.8-3.3,7.9-3.3h9.9h9.9
		c3.1,0,5.9,1.3,7.9,3.3c2,2,3.3,4.8,3.3,7.9v7.1H159.2z M107.8,1118.4h22h22c2.1,0,3.9-0.8,5.3-2.2l0,0c1.3-1.3,2.2-3.2,2.2-5.3
		v-30.8h-58.9v30.8c0,2.1,0.8,3.9,2.2,5.3l0,0C103.9,1117.5,105.8,1118.4,107.8,1118.4 M129.8,1123.1h22c3.3,0,6.4-1.4,8.6-3.6l0,0
		l0,0c2.2-2.2,3.6-5.2,3.6-8.6v-51.1c0-4.5-1.8-8.6-4.8-11.5c-3-3-7-4.8-11.5-4.8h-17.8H112c-4.5,0-8.6,1.8-11.5,4.8
		c-3,3-4.8,7-4.8,11.5v51.1c0,3.3,1.4,6.4,3.6,8.6l0,0l0,0c2.2,2.2,5.2,3.6,8.6,3.6H129.8z M106.1,1127.9l-0.8,5
		c-0.1,0.9-0.8,1.7-1.7,1.7h-6.2c-1,0-1.6-0.8-1.7-1.7l-0.9-5.9c-3.4-1.6-5.8-5-5.8-9v-75.3c0-5.4,4.4-9.9,9.9-9.9h61.8
		c5.4,0,9.9,4.5,9.9,9.9v75.3c0,4-2.4,7.4-5.8,9l-0.9,5.9c-0.1,0.9-0.8,1.7-1.7,1.7H156c-1,0-1.6-0.8-1.7-1.7l-0.8-5H106.1z
		 M129.8,1018.7c-3,0-5.9,0.4-8.9,0.7v8.8h-4.7v-8.5c-0.3,0-0.5,0-0.8,0c-1.7,0-2.3-1-2.3-2.3v-2.9c0-1.5,0.9-2.2,2.3-2.3
		c2.4-0.2,4.4-0.6,6.6-0.9c5.2-0.7,10.2-0.7,15.4,0c2.2,0.3,4.2,0.7,6.6,0.9c1.4,0.2,2.3,0.8,2.3,2.3v2.9c0,1.4-0.7,2.3-2.3,2.3
		c-0.3,0-0.5,0-0.8,0v8.5h-4.7v-8.8C135.7,1019.1,132.7,1018.7,129.8,1018.7"/>
</g>
</svg>
