<?xml version="1.0" encoding="utf-8"?>
<!-- Generator: Adobe Illustrator 18.0.0, SVG Export Plug-In . SVG Version: 6.00 Build 0)  -->
<!DOCTYPE svg PUBLIC "-//W3C//DTD SVG 1.1//EN" "http://www.w3.org/Graphics/SVG/1.1/DTD/svg11.dtd">
<svg version="1.1" id="Capa_1" xmlns="http://www.w3.org/2000/svg" xmlns:xlink="http://www.w3.org/1999/xlink" x="0px" y="0px"
	 viewBox="0 0 174 74.7" enable-background="new 0 0 174 74.7" xml:space="preserve">
<g>
	<path fill="#FFFFFF" d="M11.6,13.9v-5H5.9v5H4.3V2.7h1.5v4.9h5.7V2.7h1.5v11.2H11.6z"/>
	<path fill="#FFFFFF" d="M20.3,12.8c-0.5,0.6-1.5,1.2-2.7,1.2c-1.3,0-2.3-0.9-2.3-2.2c0-1.5,1.1-2.2,2.9-2.3
		c0.7-0.1,1.4-0.1,2.1-0.1V9c0-1.4-0.5-2.2-1.9-2.2c-0.8,0-1.5,0.2-2.1,0.6l-0.4-1.1c0.9-0.5,1.7-0.7,2.8-0.7c1.9,0,3.1,1.2,3.1,3.4
		v4.9h-1.5V12.8z M20.3,11.9v-1.5c-0.7,0.1-1.2,0.1-1.8,0.2c-1,0.1-1.7,0.4-1.7,1.3c0,0.8,0.5,1.1,1.3,1.1
		C18.9,12.9,19.7,12.5,20.3,11.9z"/>
	<path fill="#FFFFFF" d="M23.9,13.9v-1.2L28,7h-4V5.8h5.7V7l-4.2,5.7h4.4v1.2H23.9z"/>
	<path fill="#FFFFFF" d="M41,6.1l-0.2,1.2c-0.6-0.3-1.3-0.4-1.9-0.4c-1.8,0-2.7,1.2-2.7,3c0,1.8,0.8,3,2.7,3c0.7,0,1.3-0.1,1.9-0.4
		l0.2,1.2c-0.6,0.3-1.5,0.4-2.3,0.4c-2.7,0-4-1.9-4-4.2s1.3-4.2,4-4.2C39.7,5.6,40.5,5.8,41,6.1z"/>
	<path fill="#FFFFFF" d="M44.3,11.8c0,0.7,0.2,1,0.9,1c0.3,0,0.5,0,0.8-0.1l0.1,1.1c-0.4,0.1-0.8,0.2-1.2,0.2c-1.4,0-2-0.9-2-2.2V2
		h1.5V11.8z"/>
	<path fill="#FFFFFF" d="M48.3,2.4c0.6,0,1,0.4,1,1c0,0.5-0.4,1-1,1s-1-0.4-1-1C47.3,2.9,47.7,2.4,48.3,2.4z M47.5,13.9V5.8H49v8.1
		H47.5z"/>
	<path fill="#FFFFFF" d="M57.2,6.1L57,7.2c-0.6-0.3-1.3-0.4-1.9-0.4c-1.8,0-2.7,1.2-2.7,3c0,1.8,0.8,3,2.7,3c0.7,0,1.3-0.1,1.9-0.4
		l0.2,1.2c-0.6,0.3-1.5,0.4-2.3,0.4c-2.7,0-4-1.9-4-4.2s1.3-4.2,4-4.2C55.8,5.6,56.7,5.8,57.2,6.1z"/>
	<path fill="#FFFFFF" d="M67.2,12.8c-0.5,0.6-1.5,1.2-2.7,1.2c-1.3,0-2.3-0.9-2.3-2.2c0-1.5,1.1-2.2,2.9-2.3
		c0.7-0.1,1.4-0.1,2.1-0.1V9c0-1.4-0.5-2.2-1.9-2.2c-0.8,0-1.5,0.2-2.1,0.6l-0.4-1.1c0.9-0.5,1.7-0.7,2.8-0.7c1.9,0,3.1,1.2,3.1,3.4
		v4.9h-1.5V12.8z M67.2,11.9v-1.5c-0.7,0.1-1.2,0.1-1.8,0.2c-1,0.1-1.7,0.4-1.7,1.3c0,0.8,0.5,1.1,1.3,1.1
		C65.8,12.9,66.6,12.5,67.2,11.9z"/>
	<path fill="#FFFFFF" d="M77.7,17.3h-1.5v-4.2c-0.5,0.5-1.3,0.9-2.3,0.9c-2.1,0-3.4-1.7-3.4-4.1c0-2.4,1.5-4.3,4.3-4.3
		c1.1,0,2,0.2,2.9,0.6V17.3z M76.2,12.1V7c-0.5-0.2-0.9-0.2-1.4-0.2C73,6.8,72,8.1,72,9.9c0,1.7,0.7,2.9,2.3,2.9
		C75.1,12.8,75.7,12.5,76.2,12.1z"/>
	<path fill="#FFFFFF" d="M86.9,5.8v8.1h-1.4v-1.2C84.8,13.5,84,14,82.9,14c-2,0-2.8-1.8-2.8-4V5.8h1.5V10c0,1.6,0.4,2.8,1.8,2.8
		c0.9,0,1.6-0.6,2-1.1V5.8H86.9z"/>
	<path fill="#FFFFFF" d="M89.4,13.9V5.8h1.5v8.1H89.4z M89.5,4.5l1.2-2.7h1.7l-1.6,2.7H89.5z"/>
	<path fill="#FFFFFF" d="M97,5.8h1.4v1.1c0.5-0.7,1.3-1.3,2.6-1.3c1.9,0,3.2,1.7,3.2,4.1c0,2.7-1.8,4.3-4.1,4.3
		c-0.7,0-1.1-0.1-1.6-0.2v3.5H97V5.8z M98.5,7.9v4.7c0.4,0.2,0.9,0.2,1.4,0.2c1.7,0,2.8-1.1,2.8-3.1c0-1.7-0.7-2.9-2.1-2.9
		C99.7,6.8,99,7.4,98.5,7.9z"/>
	<path fill="#FFFFFF" d="M110.7,12.8c-0.5,0.6-1.5,1.2-2.7,1.2c-1.3,0-2.3-0.9-2.3-2.2c0-1.5,1.1-2.2,2.9-2.3
		c0.7-0.1,1.4-0.1,2.1-0.1V9c0-1.4-0.5-2.2-1.9-2.2c-0.8,0-1.5,0.2-2.1,0.6l-0.4-1.1c0.9-0.5,1.7-0.7,2.8-0.7c1.9,0,3.1,1.2,3.1,3.4
		v4.9h-1.5V12.8z M110.7,11.9v-1.5c-0.7,0.1-1.2,0.1-1.8,0.2c-1,0.1-1.7,0.4-1.7,1.3c0,0.8,0.5,1.1,1.3,1.1
		C109.3,12.9,110.1,12.5,110.7,11.9z"/>
	<path fill="#FFFFFF" d="M119.1,7h-0.4c-1.2,0-2,0.4-2.6,1.4v5.4h-1.5V5.8h1.4v1.5c0.5-1.1,1.2-1.6,2.5-1.6c0.3,0,0.5,0,0.6,0.1V7z"
		/>
	<path fill="#FFFFFF" d="M125.1,12.8c-0.5,0.6-1.5,1.2-2.7,1.2c-1.3,0-2.3-0.9-2.3-2.2c0-1.5,1.1-2.2,2.9-2.3
		c0.7-0.1,1.4-0.1,2.1-0.1V9c0-1.4-0.5-2.2-1.9-2.2c-0.8,0-1.5,0.2-2.1,0.6l-0.4-1.1c0.9-0.5,1.7-0.7,2.8-0.7c1.9,0,3.1,1.2,3.1,3.4
		v4.9h-1.5V12.8z M125.1,11.9v-1.5c-0.7,0.1-1.2,0.1-1.8,0.2c-1,0.1-1.7,0.4-1.7,1.3c0,0.8,0.5,1.1,1.3,1.1
		C123.7,12.9,124.5,12.5,125.1,11.9z"/>
</g>
<g>
	<path fill="#FFFFFF" d="M44.3,26.2l-0.2,1.2c-0.6-0.3-1.3-0.4-1.9-0.4c-1.8,0-2.7,1.2-2.7,3c0,1.8,0.8,3,2.7,3
		c0.7,0,1.3-0.1,1.9-0.4l0.2,1.2c-0.6,0.3-1.5,0.4-2.3,0.4c-2.7,0-4-1.9-4-4.2s1.3-4.2,4-4.2C42.9,25.8,43.8,26,44.3,26.2z"/>
	<path fill="#FFFFFF" d="M49.5,34.2c-2.5,0-3.9-1.9-3.9-4.2c0-2.3,1.4-4.2,3.9-4.2s3.9,1.9,3.9,4.2C53.4,32.3,52,34.2,49.5,34.2z
		 M49.5,27c-1.6,0-2.4,1.3-2.4,3c0,1.7,0.8,3,2.4,3s2.4-1.3,2.4-3C51.9,28.3,51.1,27,49.5,27z"/>
	<path fill="#FFFFFF" d="M55.3,34V26h1.4v1.2c0.6-0.9,1.4-1.3,2.6-1.3c2,0,2.9,1.8,2.9,4V34h-1.5v-4.2c0-1.6-0.5-2.8-1.8-2.8
		c-0.9,0-1.6,0.6-2,1.1V34H55.3z"/>
	<path fill="#FFFFFF" d="M68,34.2c-2.5,0-3.9-1.9-3.9-4.2c0-2.3,1.4-4.2,3.9-4.2s3.9,1.9,3.9,4.2C71.9,32.3,70.5,34.2,68,34.2z
		 M68,27c-1.6,0-2.4,1.3-2.4,3c0,1.7,0.8,3,2.4,3s2.4-1.3,2.4-3C70.4,28.3,69.6,27,68,27z"/>
	<path fill="#FFFFFF" d="M79.5,26.2l-0.2,1.2C78.7,27.1,78,27,77.3,27c-1.8,0-2.7,1.2-2.7,3c0,1.8,0.8,3,2.7,3
		c0.7,0,1.3-0.1,1.9-0.4l0.2,1.2c-0.6,0.3-1.5,0.4-2.3,0.4c-2.7,0-4-1.9-4-4.2s1.3-4.2,4-4.2C78.1,25.8,78.9,26,79.5,26.2z"/>
	<path fill="#FFFFFF" d="M87.5,29c0,0.5,0,0.9-0.2,1.4h-5.1c0.1,1.5,0.8,2.6,2.6,2.6c0.9,0,1.6-0.2,2.3-0.5l0.2,1.1
		c-0.7,0.3-1.7,0.5-2.7,0.5c-2.7,0-4-1.8-4-4.2c0-2.4,1.4-4.2,3.7-4.2C86.5,25.8,87.5,27.2,87.5,29z M82.2,29.2H86
		c0.1-1.3-0.3-2.3-1.7-2.3C83.1,26.9,82.3,28,82.2,29.2z"/>
	<path fill="#FFFFFF" d="M94,27.2h-0.4c-1.2,0-2,0.4-2.6,1.4V34h-1.5V26h1.4v1.5c0.5-1.1,1.2-1.6,2.5-1.6c0.3,0,0.5,0,0.6,0.1V27.2z
		"/>
	<path fill="#FFFFFF" d="M105.7,28.3c0.1,0.5,0.2,1,0.2,1.5V34h-1.5v-4.2c0-1.6-0.4-2.8-1.7-2.8c-0.9,0-1.6,0.6-2,1.1V34h-1.5V26
		h1.4v1.2c0.6-0.9,1.4-1.3,2.6-1.3c1.1,0,1.9,0.6,2.3,1.6c0.7-1,1.6-1.6,2.9-1.6c2,0,2.8,1.8,2.8,4V34h-1.5v-4.2
		c0-1.6-0.4-2.8-1.7-2.8C107,27,106.3,27.6,105.7,28.3z"/>
	<path fill="#FFFFFF" d="M118.1,33c-0.5,0.6-1.5,1.2-2.7,1.2c-1.3,0-2.3-0.9-2.3-2.2c0-1.5,1.1-2.2,2.9-2.3c0.7-0.1,1.4-0.1,2.1-0.1
		v-0.4c0-1.4-0.5-2.2-1.9-2.2c-0.8,0-1.5,0.2-2.1,0.6l-0.4-1.1c0.9-0.5,1.7-0.7,2.8-0.7c1.9,0,3.1,1.2,3.1,3.4V34h-1.5V33z
		 M118.1,32v-1.5c-0.7,0.1-1.2,0.1-1.8,0.2c-1,0.1-1.7,0.4-1.7,1.3c0,0.8,0.5,1.1,1.3,1.1C116.7,33.1,117.5,32.6,118.1,32z
		 M115.7,24.7l1.2-2.7h1.7l-1.6,2.7H115.7z"/>
	<path fill="#FFFFFF" d="M124,34.2c-0.8,0-1.9-0.2-2.5-0.5l0.3-1.2c0.6,0.3,1.3,0.5,2.3,0.5c1,0,1.7-0.3,1.7-1.1
		c0-0.7-0.8-1.1-1.6-1.4c-1.1-0.4-2.5-1.1-2.5-2.5c0-1.6,1.4-2.2,2.9-2.2c0.9,0,1.7,0.2,2.3,0.5l-0.3,1.1c-0.7-0.3-1.4-0.5-2.1-0.5
		c-0.8,0-1.4,0.2-1.4,0.9c0,0.7,0.9,0.9,1.5,1.2c0.6,0.3,2.6,0.9,2.6,2.6C127.2,33.2,125.8,34.2,124,34.2z"/>
</g>
<g>
	<path d="M155.8,36.3l-1.6,1c-0.3,0.2-0.6,0.4-0.8,0.7c-0.9-0.8-2.3-1-3.4-0.3l-1.6,1c-0.3,0.2-0.6,0.4-0.8,0.7
		c-0.9-0.8-2.3-1-3.4-0.3l-1.6,1c-0.3,0.2-0.5,0.4-0.7,0.6l-3.1-5c-1.1-1.8-3.4-2.3-5.2-1.2s-2.3,3.4-1.2,5.2l8.9,14.2l-1.6-0.7
		c-1.2-0.6-3.1-0.4-4.2,0.3c-1.3,0.8-1.7,2.6-0.9,3.9l0.1,0.2l2.2,1.3c0.8,0.5,2.1,1.5,2.7,2.2l2.9,3c0.9,0.7,2.6,1.4,3.7,1.7l4.1,1
		c0.8,0.2,1.8,0.9,2.3,1.6l1.5,2.4l16-10l-1.5-2.4c-0.5-0.8-1-2.2-1-3.1l-0.4-4.6c-0.1-1.2-0.7-2.9-1.3-3.9l-6-9.6
		C158.8,35.9,157.1,35.5,155.8,36.3"/>
	<path fill="#FFFFFF" d="M164.1,47.8c0.5,0.8,1,2.2,1,3.1l0.4,4.6c0.1,1.2,0.7,2.9,1.3,3.9l0.5,0.8l-12.8,8l-0.5-0.8
		c-0.7-1.1-2.2-2.2-3.4-2.4l-4.1-1c-0.9-0.2-2.3-0.8-2.9-1.3l-2.8-2.9c-0.8-0.8-2.1-1.9-3.1-2.5l-1.8-1.1c-0.2-0.4,0-0.9,0.4-1.1
		c0.6-0.4,1.8-0.5,2.4-0.2l3.6,1.6c0.9,0.4,1.4,0,1.6-0.2c0.2-0.2,0.5-0.7,0-1.6l-10-16c-0.6-0.9-0.3-2.1,0.6-2.6
		c0.9-0.6,2.1-0.3,2.6,0.6l4.5,7.2l1.5,2.4l1.5,2.4l1.6-1l-1.5-2.4l-1.5-2.4c-0.3-0.4-0.1-1,0.3-1.3l1.6-1c0.4-0.3,1-0.1,1.3,0.3
		l1,1.6L149,45l1.1,1.7l1.6-1l-1.1-1.7l-1.5-2.4c-0.3-0.4-0.1-1,0.3-1.3l1.6-1c0.4-0.3,1-0.1,1.3,0.3l1,1.6l1.5,2.4l0.6,1l1.6-1
		l-0.6-1l-1.5-2.4c-0.3-0.4-0.1-1,0.3-1.3l1.6-1c0.4-0.3,1-0.1,1.3,0.3L164.1,47.8z"/>
</g>
</svg>
