<?xml version="1.0" encoding="utf-8"?>
<!-- Generator: Adobe Illustrator 18.0.0, SVG Export Plug-In . SVG Version: 6.00 Build 0)  -->
<!DOCTYPE svg PUBLIC "-//W3C//DTD SVG 1.1//EN" "http://www.w3.org/Graphics/SVG/1.1/DTD/svg11.dtd">
<svg version="1.1" id="Capa_1" xmlns="http://www.w3.org/2000/svg" xmlns:xlink="http://www.w3.org/1999/xlink" x="0px" y="0px"
	 viewBox="0 0 32 32" enable-background="new 0 0 32 32" xml:space="preserve">
<g>
	<path fill="#F48E28" d="M5,13.3L5,13.3l21.2,12.2c1.1,0.7,2.4,1,3.6,1.2C29.1,28,28,28.6,28,28.6l-4.9,2.8
		c-0.4,0.2-1.3,0.5-2.2,0.5c-0.8,0-1.7-0.1-2.5-0.7L4,23.1c-0.9-0.5-1.4-1.2-1.8-1.9c-0.5-0.9-0.7-1.7-0.7-2.2l0-5.7
		c0,0,0-1.3,0.7-2.5C2.9,11.8,3.9,12.7,5,13.3"/>
	<path fill="#94BB1E" d="M29.8,5.3c0.4,0.7,0.7,1.5,0.7,2.5v16.5c0,1-0.3,1.8-0.7,2.5c-1.2-0.1-2.5-0.5-3.6-1.2l-4.6-2.7V9.1
		l4.6-2.6C27.3,5.8,28.6,5.4,29.8,5.3"/>
	<path fill="#4DA6DE" d="M9.6,16L5,13.3c-1.1-0.7-2.1-1.5-2.8-2.6C2.6,10.1,3.1,9.4,4,8.9l14.3-8.2C19.2,0.2,20,0,20.8,0
		c0.5,1.1,0.8,2.4,0.8,3.7v5.3L9.6,16z"/>
	<path fill="#369443" d="M25.7,2L28,3.4c0,0,1.1,0.6,1.8,1.9c-1.2,0.1-2.5,0.5-3.6,1.2l-4.6,2.6V3.8v0c0-1.3-0.3-2.6-0.8-3.7
		c1.5,0,2.5,0.7,2.5,0.7L25.7,2z"/>
	<path fill="#0074C5" d="M5,13.3L5,13.3L9.6,16L5,18.6v0c-1.2,0.7-2.1,1.5-2.8,2.6c0,0,0,0,0,0c0-0.1-0.1-0.1-0.1-0.2
		c0,0,0-0.1,0-0.1c-0.5-1-0.6-2-0.6-2.2l0-5.4c0,0,0-1.3,0.7-2.5C2.9,11.8,3.9,12.7,5,13.3"/>
	<path fill="#E35100" d="M26.2,25.6L26.2,25.6l-4.6-2.6v5.3c0,1.3-0.3,2.6-0.8,3.7h0c0.1,0,0.1,0,0.2,0c0,0,0.1,0,0.1,0
		c1.1-0.1,2-0.5,2.2-0.6l4.7-2.7c0,0,1.1-0.6,1.8-1.9C28.6,26.6,27.3,26.2,26.2,25.6"/>
</g>
</svg>
