<?xml version="1.0" encoding="utf-8"?>
<!-- Generator: Adobe Illustrator 18.0.0, SVG Export Plug-In . SVG Version: 6.00 Build 0)  -->
<!DOCTYPE svg PUBLIC "-//W3C//DTD SVG 1.1//EN" "http://www.w3.org/Graphics/SVG/1.1/DTD/svg11.dtd">
<svg version="1.1" id="Capa_1" xmlns="http://www.w3.org/2000/svg" xmlns:xlink="http://www.w3.org/1999/xlink" x="0px" y="0px"
	 viewBox="0 0 467 542" enable-background="new 0 0 467 542" xml:space="preserve">
<g>
	<g>
		<path fill="#FFFFFF" d="M130.2,275.2v6.4h-16.7v50.2h-7.8v-50.2H89.1v-6.4H130.2z"/>
		<path fill="#FFFFFF" d="M146.7,331.8h-7.8v-56.6h14.7c12.2,0,21.8,5.4,21.8,16c0,7.8-5.3,13.9-14.4,16.5l20,24.1h-9.6L153,309
			c-1.2,0-4.9,0.1-6.3,0.1V331.8z M153.5,281.5h-6.8v21.3h3.9c9.5,0,17-3.6,17-11.5C167.6,284.2,161,281.5,153.5,281.5z"/>
		<path fill="#FFFFFF" d="M237.5,331.8h-8l-5.2-13.7h-26.4l-5.1,13.7h-8l22.5-56.6h7.7L237.5,331.8z M200.3,311.9H222l-10.9-29.5
			L200.3,311.9z"/>
		<path fill="#FFFFFF" d="M275.9,275.2h7.8l-20.3,56.6h-8.2l-20.3-56.6h7.8l16.6,47.3L275.9,275.2z"/>
		<path fill="#FFFFFF" d="M291.4,275.2h31.5v6.4h-23.7v18.1h22.7v6.4h-22.7v19.4h24v6.4h-31.8V275.2z"/>
		<path fill="#FFFFFF" d="M347.5,332.8c-5.4,0-11.5-1.1-16.2-3.4l1.5-6.2c4.2,2,9.4,3.3,14.5,3.3c7.4,0,12.3-3.2,12.3-9.1
			c0-6.5-5.6-9-12.4-12.2c-7.7-3.7-14.8-7.7-14.8-16.2c0-9.9,7.4-14.9,18-14.9c5.4,0,10.9,1.4,14.7,3.4l-1.4,6.2
			c-3.7-2-8.5-3.3-13.3-3.3c-6.9,0-10.3,2.6-10.3,8c0,4.8,2.6,6.5,9.9,10.2c7.2,3.7,17.3,8.1,17.3,18.4
			C367.4,326.8,358.5,332.8,347.5,332.8z"/>
		<path fill="#FFFFFF" d="M385.6,331.8h-7.8v-56.6h7.8V331.8z M378.3,269.9l7.1-9.7h9l-9.8,9.7H378.3z"/>
		<path fill="#FFFFFF" d="M447.9,331.8h-8l-5.2-13.7h-26.4l-5.1,13.7h-8l22.5-56.6h7.7L447.9,331.8z M410.6,311.9h21.8l-10.9-29.5
			L410.6,311.9z"/>
	</g>
	<g>
		<path fill="#FFFFFF" d="M92.9,351h26.5v5.4H99.5v15.2h19.1v5.4H99.5v16.3h20.2v5.4H92.9V351z"/>
		<path fill="#FFFFFF" d="M129.4,351h13.2c16.4,0,27.2,10.1,27.2,23.8s-10.8,23.8-27.2,23.8h-13.2V351z M142.6,393.3
			c11.4,0,20.6-6.8,20.6-18.5c0-11.7-9.1-18.5-20.6-18.5H136v37H142.6z"/>
		<path fill="#FFFFFF" d="M208.6,351h6.6v30.7c0,10-6.5,17.7-18.7,17.7c-12.1,0-18.7-7.7-18.7-17.7V351h6.6v31
			c0,7.1,4.1,12.1,12.1,12.1c8,0,12.1-4.9,12.1-12.1V351z"/>
		<path fill="#FFFFFF" d="M261,352.4l-1.1,5.1c-3.2-1.1-7.1-1.9-10.7-1.9c-11.9,0-18.9,6.9-18.9,19.3s7,19.3,18.9,19.3
			c3.6,0,7.5-0.8,10.7-1.9l1.1,5.1c-3.1,1.4-8.3,2.2-12.6,2.2c-15.6,0-24.7-10.4-24.7-24.7c0-14.2,9.1-24.7,24.7-24.7
			C252.7,350.2,257.9,351,261,352.4z"/>
		<path fill="#FFFFFF" d="M310.5,398.6h-6.7l-4.4-11.5h-22.2l-4.3,11.5h-6.7l18.9-47.6h6.4L310.5,398.6z M279.2,381.8h18.3
			l-9.1-24.8L279.2,381.8z"/>
		<path fill="#FFFFFF" d="M344.1,351v5.4h-14v42.2h-6.6v-42.2h-14V351H344.1z"/>
		<path fill="#FFFFFF" d="M358.3,398.6h-6.6V351h6.6V398.6z"/>
		<path fill="#FFFFFF" d="M399.6,351h6.6l-17.1,47.6h-6.9L365.1,351h6.6l13.9,39.8L399.6,351z"/>
		<path fill="#FFFFFF" d="M448.3,398.6h-6.7l-4.4-11.5H415l-4.3,11.5H404l18.9-47.6h6.4L448.3,398.6z M417,381.8h18.3l-9.1-24.8
			L417,381.8z"/>
	</g>
	<g>
		<path fill="#4E4E4E" d="M12.1,94.9c48.2,179.5,52.6,323.1,46.3,428c31.6-148.1,26.9-263.8-4.7-383.7C48,117.7,39.7,91,12.1,94.9"
			/>
		<path fill="none" stroke="#FFFFFF" stroke-width="2.85" stroke-miterlimit="10" d="M12.1,94.9c48.2,179.5,52.6,323.1,46.3,428
			c31.6-148.1,26.9-263.8-4.7-383.7C48,117.7,39.7,91,12.1,94.9z"/>
		<path fill="#969696" d="M450.2,246.6c-54.6-10.3-205-6.8-321.6,8.2c-19.2,2.5-46.6,5.6-52.2-11.9c8.6,5,23.5,7,54.2,1.2
			C222,227,395.1,216,435.1,219.4c-13.2-67.5-23.8-116.7-47.4-183.1C332.2,25.2,193.6,51.8,47.2,88.9C52.7,70.2,321.5,3.8,403,11.7
			C422.5,62,439.9,164.7,450.2,246.6"/>
		<path fill="none" stroke="#FFFFFF" stroke-width="2.85" stroke-miterlimit="10" d="M450.2,246.6c-54.6-10.3-205-6.8-321.6,8.2
			c-19.2,2.5-46.6,5.6-52.2-11.9c8.6,5,23.5,7,54.2,1.2C222,227,395.1,216,435.1,219.4c-13.2-67.5-23.8-116.7-47.4-183.1
			C332.2,25.2,193.6,51.8,47.2,88.9C52.7,70.2,321.5,3.8,403,11.7C422.5,62,439.9,164.7,450.2,246.6z"/>
		<path fill="#EEC030" d="M107.1,160.4c92.7-18.9,243.5-34.6,298.4-27.4c-16.7-81.2-27.3-82.9-66.7-81.3
			c-108.1,4.9-183.7,29.8-280.2,49C72,154.6,74.8,167,107.1,160.4"/>
		<path fill="#CC3331" d="M139.2,229.2c75-14.2,218.6-26.9,282.3-22.6c-2.7-28.5-20.9-31.4-62.8-29.4
			c-88.4,4.1-188.3,16.9-278.2,34.7C86.3,244.9,111.2,234.5,139.2,229.2"/>
		<path fill="#435FA8" d="M130.7,193.6c76.9-13.4,229.4-31.8,282.8-23.8c-2.4-29.2-18.4-31.4-62.8-29.4
			c-88.4,3.8-184.3,16.1-274.1,33.9C78.1,209.2,98.1,199.3,130.7,193.6"/>
		<path fill="#FFFFFF" d="M450.2,464.1c0-0.7-0.3-1.3-1.1-1.7c-0.8-0.4-1.8-0.8-3.4-0.8c-2.7,0-5.2,1.4-6.2,4.1
			c-0.4-1.9-1.2-2.6-1.6-2.9c-0.7-0.6-1.7-1-2.5-1c-1.1,0-2,0.5-2,1.7c0,0.6,0.3,1.1,0.8,1.3c0.9,0.5,1.4,1.1,1.4,2.9v6.6h0v8.7
			c0,1.3,0.9,2.1,2,2.1c1.1,0,2-0.8,2-2.1v-8.7v-1V472c0-3.8,1.4-6.7,4.8-6.7c1,0,1.8,0.2,2.6,0.6c0.3,0.1,0.7,0.2,1,0.2
			C449.4,466.1,450.2,465.2,450.2,464.1 M429.3,455.9c0-1.5-1.2-2.6-2.6-2.6c-1.4,0-2.6,1.1-2.6,2.6c0,1.4,1.2,2.6,2.6,2.6
			C428.1,458.5,429.3,457.3,429.3,455.9 M414.6,478.3v-12.7c0-0.2,0.1-0.3,0.3-0.3h3c1.1,0,1.7-0.7,1.7-1.6c0-1-0.6-1.6-1.7-1.6h-3
			c-0.2,0-0.3-0.1-0.3-0.3v-5c0-1.3-0.9-2.1-2-2.1c-1.1,0-2,0.8-2,2.1v5c0,0.2-0.1,0.3-0.3,0.3H409c-1.1,0-1.7,0.7-1.7,1.6
			c0,1,0.6,1.6,1.7,1.6h1.3c0.2,0,0.3,0.1,0.3,0.3v12.9c0,4.8,1.7,6.7,6.4,6.7h0.5c1.4,0,2.1-0.8,2.1-1.9c0-1.1-0.7-1.9-2-1.9
			C415.2,481.5,414.6,480.8,414.6,478.3 M405.5,464.1c0-0.7-0.3-1.3-1.1-1.7c-0.8-0.4-1.8-0.8-3.4-0.8c-2.7,0-5.2,1.4-6.2,4.1
			c-0.4-1.9-1.2-2.6-1.6-2.9c-0.7-0.6-1.7-1-2.5-1c-1.1,0-2,0.5-2,1.7c0,0.6,0.3,1.1,0.8,1.3c0.9,0.5,1.4,1.1,1.4,2.9v6.6h0v8.7
			c0,1.3,0.9,2.1,2,2.1c1.1,0,2-0.8,2-2.1v-8.7v-1V472c0-3.8,1.4-6.7,4.8-6.7c1,0,1.8,0.2,2.6,0.6c0.3,0.1,0.7,0.2,1,0.2
			C404.7,466.1,405.5,465.2,405.5,464.1 M387,483.3c0-0.4-0.1-0.8-0.3-1.1l-0.8-1.5c-0.3-0.7-0.4-1.1-0.4-2.3v-8.2
			c0-5.6-2.9-8.6-9-8.6c-3.2,0-5.5,0.8-7,1.7c-0.7,0.4-1,1-1,1.6c0,1,0.7,1.7,1.7,1.7c0.3,0,0.8-0.1,1.1-0.3
			c1.1-0.6,2.9-1.1,4.7-1.1c4,0,5.5,1.8,5.5,5v1.1c0,0.2-0.1,0.3-0.3,0.3h-5.2c-5.7,0-8.9,2.3-8.9,7.1c0,4.3,3,6.9,8.1,6.9
			c3.3,0,5.5-1,7-2.7h0l0.9,1.4c0.5,0.7,1.1,1,1.8,1C386.2,485.2,387,484.4,387,483.3 M381.6,477.6c0,2.8-2.2,4.5-5.8,4.5
			c-3.1,0-4.8-1.2-4.8-3.6c0-2.6,1.8-3.7,5.7-3.7h4.6c0.2,0,0.3,0.1,0.3,0.3V477.6z M363.1,479.8c0.6-1.8,0.8-3.6,0.8-6.2
			c0-2.6-0.2-4.4-0.8-6.3c-1.2-3.6-4-5.7-7.9-5.7c-2.9,0-5.7,1-6.9,3.8c-0.4-1.6-1.2-2.3-1.5-2.6c-0.7-0.6-1.7-1-2.5-1
			c-1.1,0-2,0.5-2,1.7c0,0.6,0.3,1.1,0.8,1.3c0.9,0.5,1.4,1.1,1.4,2.9v6.6h0v17.3c0,1.3,0.9,2.1,2,2.1c1.1,0,2-0.8,2-2.1v-9.2h0
			c1,1.8,3.1,3.1,6.5,3.1C359.1,485.5,362,483.3,363.1,479.8 M359.9,473.5c0,2-0.1,3.4-0.5,4.6c-0.8,2.3-2.5,3.6-5,3.6
			c-2.6,0-4.3-1.3-5.1-3.6c-0.4-1.2-0.5-2.7-0.5-4.6c0-2,0.1-3.4,0.5-4.7c0.8-2.3,2.5-3.6,5.1-3.6c2.5,0,4.3,1.3,5,3.6
			C359.8,470.1,359.9,471.5,359.9,473.5 M339.2,483.1v-12.9c0-5.4-3-8.6-8.2-8.6c-3.6,0-5.9,1.4-7.4,3.6h0c-1.2-2.2-3.5-3.5-6.7-3.6
			c-2.9,0-5.5,1.3-6.8,3.7c-0.4-1.6-1.2-2.2-1.5-2.5c-0.7-0.6-1.7-1-2.5-1c-1.1,0-2,0.5-2,1.7c0,0.6,0.3,1.1,0.8,1.3
			c0.9,0.5,1.4,1.1,1.4,2.9v11.8h0v3.5c0,1.3,0.9,2.2,2,2.2c1.1,0,2-0.8,2-2.2v-3.5v-3.1v-6.4c0.6-3.6,2.8-4.8,5.3-4.8
			c3.4,0,5.1,2.1,5.1,5.8v11.9c0,1.3,0.9,2.2,2,2.2c1.1,0,2-0.8,2-2.2v-12.2c0-3.4,2.2-5.6,5.3-5.6c3.4,0,5.1,2.1,5.1,5.8v11.9
			c0,1.3,0.9,2.2,2,2.2C338.3,485.2,339.2,484.4,339.2,483.1 M301.3,479.3c0.5-1.6,0.8-3.2,0.8-5.8c0-2.6-0.2-4.2-0.8-5.8
			c-1.2-3.9-4.6-6.2-9-6.2s-7.8,2.2-9,6.2c-0.5,1.6-0.8,3.2-0.8,5.8c0,2.7,0.2,4.3,0.8,5.8c1.2,3.9,4.6,6.2,9,6.2
			S300.1,483.2,301.3,479.3 M298,473.5c0,2.2-0.1,3.4-0.5,4.7c-0.8,2.3-2.6,3.6-5.2,3.6c-2.5,0-4.4-1.3-5.2-3.6
			c-0.4-1.2-0.5-2.5-0.5-4.7s0.1-3.4,0.5-4.6c0.8-2.3,2.6-3.6,5.2-3.6c2.5,0,4.4,1.3,5.2,3.6C297.8,470.1,298,471.3,298,473.5
			 M266.7,478.2c-0.4-1.2-0.5-2.6-0.5-4.7c0-2,0.1-3.4,0.5-4.6c0.8-2.4,2.6-3.6,5.1-3.6c2.1,0,3.3,0.8,4.3,1.9c0.5,0.6,1,1,1.8,1
			c1,0,1.8-0.8,1.8-1.8c0-0.5-0.2-1-0.6-1.5c-1.4-1.9-3.9-3.3-7.3-3.3c-4.4,0-7.7,2.2-9,6.2c-0.4,1.4-0.7,3.2-0.7,5.8
			c0,2.6,0.3,4.4,0.7,5.8c1.3,4,4.6,6.2,9,6.2c3.4,0,5.9-1.5,7.3-3.3c0.4-0.5,0.6-1,0.6-1.5c0-1-0.8-1.8-1.8-1.8
			c-0.7,0-1.2,0.4-1.8,1c-1.1,1.1-2.3,1.9-4.3,1.9C269.3,481.8,267.4,480.6,266.7,478.2 M424.6,464v19.1c0,1.3,0.9,2.1,2,2.1
			c1.1,0,2-0.8,2-2.1V464c0-1.3-0.9-2.1-2-2.1C425.5,461.8,424.6,462.7,424.6,464"/>
		<path fill="#FFFFFF" d="M315.7,449.5l-3.4,0v-2.8v-4.3c0-1.3-2.4-0.9-2.4-0.9v8.7c0,0.9,0.8,1.5,3.2,1.3
			C315.9,451.2,315.8,450.3,315.7,449.5 M262.3,450.9c0,0,0.2-1.8,1.8-1.5c1.8,0.3,4,0.6,3.9-0.6c-0.1-1.3-5.3-1.2-5.3-4.5
			c0-4.4,7.5-2.2,7.5-2.2s0,1.8-1.5,1.7c-1.2-0.1-3.5-0.5-3.6,0.4c-0.1,1.2,5.4,1.3,5.3,4.5C270.2,453.7,262.3,450.9,262.3,450.9
			 M286.9,441.6v6l-3.2-5.2c-0.3-0.5-0.8-0.8-1.4-0.9c-0.2-0.1-0.5-0.1-0.7-0.1c-0.5,0-0.8,0.1-0.8,0.1v9c0,1.3,2.4,0.9,2.4,0.9v-6
			l3.2,5.2c0.3,0.5,0.8,0.8,1.4,0.9c0.2,0.1,0.5,0.1,0.7,0.1c0.5,0,0.8-0.1,0.8-0.1v-9C289.3,441.2,286.9,441.6,286.9,441.6
			 M332.1,441.6v6l-3.2-5.2c-0.3-0.5-0.8-0.8-1.4-0.9c-0.2-0.1-0.5-0.1-0.7-0.1c-0.5,0-0.8,0.1-0.8,0.1v9c0,1.3,2.4,0.9,2.4,0.9v-6
			l3.2,5.2c0.3,0.5,0.8,0.8,1.4,0.9c0.2,0.1,0.5,0.1,0.7,0.1c0.5,0,0.8-0.1,0.8-0.1v-9C334.5,441.2,332.1,441.6,332.1,441.6
			 M276.7,442.2c-0.5-1.2-2.5-0.6-2.5-0.6l-3.6,9.1c-0.5,1.3,2.2,0.8,2.2,0.8l0.7-2h3.5l0.4,1.1c0.5,1.4,2.9,0.9,2.9,0.9
			L276.7,442.2z M274.3,447.4l1-2.7l0.9,2.7H274.3z M344.8,451.5c0,0-2.4,0.5-2.9-0.9l-0.4-1.1H338l-0.7,2c0,0-2.7,0.4-2.2-0.8
			l3.6-9.1c0,0,2-0.6,2.5,0.6L344.8,451.5z M340.8,447.4l-0.9-2.7l-1,2.7H340.8z M322,442.2c-0.5-1.2-2.5-0.6-2.5-0.6l-3.6,9.1
			c-0.5,1.3,2.2,0.8,2.2,0.8l0.7-2h3.5l0.4,1.1c0.5,1.4,2.9,0.9,2.9,0.9L322,442.2z M319.6,447.4l1-2.7l0.9,2.7H319.6z M297.7,441.6
			h-6.5c-1.5,0-1.1,2.2-1.1,2.2h2.6v6.9c0,1.3,2.4,0.9,2.4,0.9v-7.8h1.5C298.2,443.7,297.7,441.6,297.7,441.6 M298.7,441.6v9
			c0,1.3,2.4,0.9,2.4,0.9v-9C301.1,441.2,298.7,441.6,298.7,441.6 M309.2,449.5h-4.1v-7c0-1.3-2.4-0.9-2.4-0.9v8.7
			c0,1.1,1.1,1.5,3.8,1.3C309.5,451.2,309.3,450.3,309.2,449.5"/>
		<path fill="#FFFFFF" d="M241.3,428.3c0.9,1.5,1.6,3.4,1.6,5.6v37.2c0,2.3-0.7,4.1-1.6,5.6c-2.8-0.3-5.6-1.1-8.2-2.6l-10.4-6v-31.3
			l10.3-6C235.7,429.5,238.5,428.6,241.3,428.3"/>
		<path fill="#FFFFFF" d="M195.7,452.6l-10.3-6c-2.6-1.5-4.7-3.5-6.4-5.8c0.9-1.5,2.1-3,4.1-4.2l32.2-18.6c2-1.1,3.9-1.5,5.7-1.5
			c1.2,2.6,1.8,5.4,1.8,8.4v0v11.9L195.7,452.6z"/>
		<path fill="#E0EBF6" d="M220.9,416.6c1.2,2.6,1.8,5.4,1.8,8.4v0v11.9l10.3-6c0.1,0,0.2-0.1,0.2-0.1c1.5-0.9,3.1-1.5,4.7-1.9
			c0,0,0,0,0,0c0,0,0,0,0.1,0c0,0,0,0,0,0c0,0,0,0,0,0c0,0,0,0,0,0c0,0,0,0,0,0c0,0,0,0,0,0c0,0,0,0,0,0c0,0,0,0,0,0c0,0,0,0,0,0
			c0,0,0,0,0,0c0,0,0,0,0,0c0,0,0,0,0.1,0c0,0,0,0,0,0c0,0,0,0,0.1,0c0,0,0,0,0,0c0,0,0,0,0,0c0,0,0,0,0,0c0,0,0,0,0,0c0,0,0,0,0,0
			c0,0,0,0,0.1,0c0,0,0,0,0,0c0,0,0,0,0.1,0c0,0,0,0,0,0c0,0,0,0,0.1,0h0c0.8-0.2,1.6-0.3,2.4-0.4c-1.7-2.8-4.1-4.2-4.1-4.2l-5.2-3
			l-5.2-3C226.7,418.1,224.2,416.7,220.9,416.6"/>
		<path fill="#FFFFFF" d="M238.8,428.7C238.8,428.7,238.8,428.7,238.8,428.7L238.8,428.7 M238.8,428.7
			C238.8,428.7,238.8,428.7,238.8,428.7C238.8,428.7,238.8,428.7,238.8,428.7 M238.7,428.7C238.7,428.7,238.7,428.7,238.7,428.7
			C238.7,428.7,238.7,428.7,238.7,428.7 M238.7,428.7C238.7,428.7,238.6,428.7,238.7,428.7C238.6,428.7,238.7,428.7,238.7,428.7
			 M238.6,428.8C238.6,428.8,238.6,428.8,238.6,428.8C238.6,428.8,238.6,428.8,238.6,428.8 M238.5,428.8
			C238.5,428.8,238.5,428.8,238.5,428.8C238.5,428.8,238.5,428.8,238.5,428.8 M238.5,428.8C238.5,428.8,238.5,428.8,238.5,428.8
			C238.5,428.8,238.5,428.8,238.5,428.8 M238.4,428.8C238.4,428.8,238.4,428.8,238.4,428.8C238.4,428.8,238.4,428.8,238.4,428.8
			 M238.3,428.8C238.3,428.8,238.3,428.8,238.3,428.8C238.3,428.8,238.3,428.8,238.3,428.8 M238.3,428.8
			C238.3,428.8,238.2,428.8,238.3,428.8C238.2,428.8,238.3,428.8,238.3,428.8 M238.2,428.9C238.2,428.9,238.2,428.9,238.2,428.9
			C238.2,428.9,238.2,428.9,238.2,428.9 M238.1,428.9C238.1,428.9,238.1,428.9,238.1,428.9C238.1,428.9,238.1,428.9,238.1,428.9
			 M238.1,428.9C238.1,428.9,238.1,428.9,238.1,428.9C238.1,428.9,238.1,428.9,238.1,428.9 M238,428.9c-1.6,0.4-3.2,1.1-4.7,1.9
			c0.1-0.1,0.3-0.2,0.4-0.2C235.1,429.9,236.6,429.3,238,428.9"/>
		<path fill="#FFFFFF" d="M220.9,416.6c1.2,2.6,1.8,5.4,1.8,8.4C222.7,422,222.1,419.1,220.9,416.6"/>
		<path fill="#E0EBF6" d="M179,440.8c-1.6,2.9-1.6,5.7-1.6,5.7l0,12.2v0c0,0.5,0.2,2.5,1.2,4.8l0.1,0.3l0.1,0.2l0.1,0.3l0,0.1l0,0
			c1.6-2.3,3.8-4.3,6.4-5.8l10.4-6l-10.3-6c-0.2-0.1-0.5-0.3-0.7-0.4C182.3,444.7,180.4,442.9,179,440.8"/>
		<path fill="#E0EBF6" d="M222.7,468.2v12c0,3-0.7,5.8-1.8,8.4h0l0.1,0l0.3,0l0.2,0l0.3,0c2.4-0.2,4.3-1.1,4.7-1.3l6.7-3.9l3.9-2.2
			c0,0,0.3-0.2,0.7-0.5c0.8-0.6,2-1.7,3.1-3.3l0.3-0.4c-2.8-0.3-5.6-1.1-8.2-2.6L222.7,468.2z"/>
	</g>
</g>
<path fill="#FFFFFF" d="M222.8,468.2v12c0,3-0.7,5.8-1.8,8.4c-1.7,0-3.7-0.3-5.7-1.5l-32.2-18.6c-2-1.1-3.3-2.7-4.1-4.2l0-0.1l0,0.1
	l0,0c1.6-2.3,3.8-4.3,6.4-5.8l10.4-6L222.8,468.2z"/>
</svg>
