<?xml version="1.0" encoding="utf-8"?>
<!-- Generator: Adobe Illustrator 18.0.0, SVG Export Plug-In . SVG Version: 6.00 Build 0)  -->
<!DOCTYPE svg PUBLIC "-//W3C//DTD SVG 1.1//EN" "http://www.w3.org/Graphics/SVG/1.1/DTD/svg11.dtd">
<svg version="1.1" id="Capa_1" xmlns="http://www.w3.org/2000/svg" xmlns:xlink="http://www.w3.org/1999/xlink" x="0px" y="0px"
	 viewBox="0 0 386 621.8" enable-background="new 0 0 386 621.8" xml:space="preserve">
<g>
	<g>
		<path fill="#F9FAFB" d="M31.9,567.3c-0.6,0.7-1.8,1.5-3.4,1.5c-1.7,0-2.9-1.1-2.9-2.8c0-1.8,1.4-2.8,3.6-2.9
			c0.9-0.1,1.8-0.1,2.6-0.1v-0.4c0-1.7-0.7-2.7-2.4-2.7c-1,0-1.8,0.3-2.7,0.7l-0.4-1.4c1.1-0.7,2.1-0.9,3.4-0.9
			c2.4,0,3.9,1.5,3.9,4.2v6.1h-1.8V567.3z M31.9,566.1v-1.9c-0.8,0.1-1.5,0.1-2.3,0.2c-1.2,0.1-2.1,0.5-2.1,1.6
			c0,0.9,0.6,1.4,1.6,1.4C30.2,567.4,31.2,566.9,31.9,566.1z"/>
		<path fill="#F9FAFB" d="M43.1,566c0,0.8,0.3,1.3,1.1,1.3c0.3,0,0.6,0,0.9-0.1l0.1,1.4c-0.5,0.1-1,0.2-1.5,0.2
			c-1.8,0-2.5-1.2-2.5-2.7v-12.3h1.9V566z"/>
		<path fill="#F9FAFB" d="M48.9,566c0,0.8,0.3,1.3,1.1,1.3c0.3,0,0.6,0,0.9-0.1l0.1,1.4c-0.5,0.1-1,0.2-1.5,0.2
			c-1.8,0-2.5-1.2-2.5-2.7v-12.3h1.9V566z"/>
		<path fill="#F9FAFB" d="M60.6,562.4c0,0.6-0.1,1.1-0.2,1.7H54c0.1,1.9,0.9,3.2,3.3,3.2c1.1,0,2.1-0.3,2.9-0.6l0.3,1.4
			c-0.9,0.4-2.1,0.7-3.4,0.7c-3.4,0-5-2.3-5-5.2c0-2.9,1.7-5.3,4.6-5.3C59.3,558.3,60.6,560.1,60.6,562.4z M54,562.6h4.7
			c0.2-1.6-0.4-2.9-2.1-2.9C55,559.7,54.1,561,54,562.6z"/>
		<path fill="#F9FAFB" d="M69,558.5h1.9l-3.6,10.1h-2l-3.6-10.1h1.9l2.7,8.2L69,558.5z"/>
		<path fill="#F9FAFB" d="M78.4,567.3c-0.6,0.7-1.8,1.5-3.4,1.5c-1.7,0-2.9-1.1-2.9-2.8c0-1.8,1.4-2.8,3.6-2.9
			c0.9-0.1,1.8-0.1,2.6-0.1v-0.4c0-1.7-0.7-2.7-2.4-2.7c-1,0-1.8,0.3-2.7,0.7l-0.4-1.4c1.1-0.7,2.1-0.9,3.4-0.9
			c2.4,0,3.9,1.5,3.9,4.2v6.1h-1.8V567.3z M78.3,566.1v-1.9c-0.8,0.1-1.5,0.1-2.3,0.2c-1.2,0.1-2.1,0.5-2.1,1.6
			c0,0.9,0.6,1.4,1.6,1.4C76.6,567.4,77.6,566.9,78.3,566.1z"/>
		<path fill="#F9FAFB" d="M88.9,560.1h-0.5c-1.5,0-2.5,0.5-3.3,1.8v6.7h-1.9v-10.1H85v1.9c0.6-1.3,1.5-2.1,3.1-2.1
			c0.3,0,0.6,0,0.8,0.1V560.1z"/>
		<path fill="#F9FAFB" d="M93.2,568.8c-1,0-2.4-0.3-3.1-0.6l0.3-1.5c0.7,0.3,1.7,0.6,2.8,0.6c1.2,0,2.1-0.4,2.1-1.4
			c0-0.9-0.9-1.3-2-1.8c-1.4-0.5-3.1-1.3-3.1-3.1c0-2,1.7-2.8,3.6-2.8c1.1,0,2.1,0.3,2.9,0.7l-0.3,1.4c-0.8-0.4-1.7-0.6-2.6-0.6
			c-1,0-1.7,0.3-1.7,1.2c0,0.8,1.1,1.2,1.9,1.6c0.8,0.4,3.2,1.1,3.2,3.2C97.3,567.6,95.5,568.8,93.2,568.8z"/>
		<path fill="#F9FAFB" d="M107.3,562.4c0,0.6-0.1,1.1-0.2,1.7h-6.4c0.1,1.9,0.9,3.2,3.3,3.2c1.1,0,2.1-0.3,2.9-0.6l0.3,1.4
			c-0.9,0.4-2.1,0.7-3.4,0.7c-3.4,0-5-2.3-5-5.2c0-2.9,1.7-5.3,4.6-5.3C106,558.3,107.3,560.1,107.3,562.4z M100.7,562.6h4.7
			c0.2-1.6-0.4-2.9-2.1-2.9C101.7,559.7,100.8,561,100.7,562.6z"/>
		<path fill="#F9FAFB" d="M119.8,567.3c-0.6,0.7-1.8,1.5-3.4,1.5c-1.7,0-2.9-1.1-2.9-2.8c0-1.8,1.4-2.8,3.6-2.9
			c0.9-0.1,1.8-0.1,2.6-0.1v-0.4c0-1.7-0.7-2.7-2.4-2.7c-1,0-1.8,0.3-2.7,0.7l-0.4-1.4c1.1-0.7,2.1-0.9,3.4-0.9
			c2.4,0,3.9,1.5,3.9,4.2v6.1h-1.8V567.3z M119.8,566.1v-1.9c-0.8,0.1-1.5,0.1-2.3,0.2c-1.2,0.1-2.1,0.5-2.1,1.6
			c0,0.9,0.6,1.4,1.6,1.4C118.1,567.4,119.1,566.9,119.8,566.1z"/>
		<path fill="#F9FAFB" d="M136.3,558.8l-0.3,1.4c-0.7-0.3-1.6-0.5-2.4-0.5c-2.3,0-3.3,1.5-3.3,3.7c0,2.2,1,3.7,3.3,3.7
			c0.8,0,1.7-0.2,2.4-0.5l0.3,1.4c-0.7,0.3-1.9,0.5-2.8,0.5c-3.4,0-5-2.4-5-5.2s1.7-5.2,5-5.2C134.5,558.3,135.6,558.5,136.3,558.8z
			"/>
		<path fill="#F9FAFB" d="M144.2,567.3c-0.6,0.7-1.8,1.5-3.4,1.5c-1.7,0-2.9-1.1-2.9-2.8c0-1.8,1.4-2.8,3.6-2.9
			c0.9-0.1,1.8-0.1,2.6-0.1v-0.4c0-1.7-0.7-2.7-2.4-2.7c-1,0-1.8,0.3-2.7,0.7l-0.4-1.4c1.1-0.7,2.1-0.9,3.4-0.9
			c2.4,0,3.9,1.5,3.9,4.2v6.1h-1.8V567.3z M144.2,566.1v-1.9c-0.8,0.1-1.5,0.1-2.3,0.2c-1.2,0.1-2.1,0.5-2.1,1.6
			c0,0.9,0.6,1.4,1.6,1.4C142.5,567.4,143.5,566.9,144.2,566.1z"/>
		<path fill="#F9FAFB" d="M149.1,553.8h1.9v5.7c0.6-0.7,1.6-1.1,2.9-1.1c2.6,0,4.2,2.2,4.2,5.2c0,2.9-1.9,5.3-5.3,5.3
			c-1.3,0-2.6-0.3-3.7-0.7V553.8z M151,560.7v6.2c0.5,0.2,1,0.3,1.8,0.3c2.3,0,3.4-1.5,3.4-3.8c0-2-0.9-3.7-2.8-3.7
			C152.3,559.8,151.5,560.2,151,560.7z"/>
		<path fill="#F9FAFB" d="M164.6,568.8c-3.1,0-4.9-2.4-4.9-5.2c0-2.8,1.8-5.2,4.9-5.2s4.9,2.4,4.9,5.2
			C169.5,566.4,167.7,568.8,164.6,568.8z M164.6,559.8c-2,0-3,1.7-3,3.8s1,3.8,3,3.8s3-1.7,3-3.8S166.6,559.8,164.6,559.8z"/>
		<path fill="#F9FAFB" d="M184.2,562.4c0,0.6-0.1,1.1-0.2,1.7h-6.4c0.1,1.9,0.9,3.2,3.3,3.2c1.1,0,2.1-0.3,2.9-0.6l0.3,1.4
			c-0.9,0.4-2.1,0.7-3.4,0.7c-3.4,0-5-2.3-5-5.2c0-2.9,1.7-5.3,4.6-5.3C182.9,558.3,184.2,560.1,184.2,562.4z M177.6,562.6h4.7
			c0.2-1.6-0.4-2.9-2.1-2.9C178.7,559.7,177.7,561,177.6,562.6z"/>
		<path fill="#F9FAFB" d="M186.6,568.6v-10.1h1.8v1.5c0.8-1.1,1.8-1.7,3.2-1.7c2.5,0,3.6,2.3,3.6,5v5.3h-1.9v-5.2
			c0-2.1-0.6-3.5-2.3-3.5c-1.1,0-2,0.7-2.5,1.4v7.4H186.6z"/>
		<path fill="#F9FAFB" d="M206.8,568.6h-3.9v-14h4.3c2.7,0,4.5,1.4,4.5,3.4c0,1.6-1.2,2.7-2.9,3.3c2.1,0.4,3.4,1.5,3.4,3.4
			C212.2,567,210.1,568.6,206.8,568.6z M206.5,560.6c1.9,0,3.4-0.9,3.4-2.4c0-1.4-1.2-2.1-2.8-2.1h-2.3v4.5H206.5z M206.7,562.1h-2
			v4.9h2.2c2.1,0,3.4-0.8,3.4-2.5C210.4,562.9,208.7,562.1,206.7,562.1z"/>
		<path fill="#F9FAFB" d="M218.9,568.8c-3.1,0-4.9-2.4-4.9-5.2c0-2.8,1.8-5.2,4.9-5.2s4.9,2.4,4.9,5.2
			C223.8,566.4,222,568.8,218.9,568.8z M218.9,559.8c-2,0-3,1.7-3,3.8s1,3.8,3,3.8s3-1.7,3-3.8S220.9,559.8,218.9,559.8z"/>
		<path fill="#F9FAFB" d="M228.9,565.1c-0.2,0.3-0.3,0.6-0.3,0.8c0,0.5,0.3,0.7,1.1,0.8l2.1,0.2c1.9,0.2,3.3,0.8,3.3,2.6
			c0,2.2-2.7,3.6-5.6,3.6c-2.4,0-4.4-0.8-4.4-2.6c0-1.5,1.6-2.2,2.8-2.6c-0.6-0.3-1-0.7-1-1.5c0-0.8,0.5-1.2,1.1-1.6
			c-1.4-0.5-2.3-1.6-2.3-3.1c0-2,1.8-3.5,4-3.5c0.5,0,1,0.1,1.4,0.2h3.8v1.4h-1.8c0.4,0.6,0.6,1.2,0.6,1.9c0,2-1.7,3.4-4,3.4
			C229.4,565.2,229.2,565.2,228.9,565.1z M229,568.2c-1,0.4-2.1,1-2.1,2.1c0,1.1,1,1.5,2.7,1.5c1.7,0,3.8-0.7,3.8-2.1
			c0-1-1.1-1.2-2.2-1.3L229,568.2z M232,561.8c0-1.3-1-2.1-2.3-2.1s-2.3,0.7-2.3,2.1c0,1.4,1,2.1,2.3,2.1
			C231,563.9,232,563.1,232,561.8z"/>
		<path fill="#F9FAFB" d="M241,568.8c-3.1,0-4.9-2.4-4.9-5.2c0-2.8,1.8-5.2,4.9-5.2s4.9,2.4,4.9,5.2
			C245.9,566.4,244.1,568.8,241,568.8z M241,559.8c-2,0-3,1.7-3,3.8s1,3.8,3,3.8s3-1.7,3-3.8S243,559.8,241,559.8z"/>
		<path fill="#F9FAFB" d="M247.1,558.5h1.8v-2.6h1.9v2.6h3.3v1.5h-3.3v5.1c0,1.2,0.3,2.1,1.5,2.1c0.6,0,1.1-0.1,1.6-0.3l0.2,1.4
			c-0.4,0.2-1.4,0.4-2.2,0.4c-2.2,0-3-1.5-3-3.5V560h-1.8V558.5z"/>
		<path fill="#F9FAFB" d="M262.1,567.3c-0.6,0.7-1.8,1.5-3.4,1.5c-1.7,0-2.9-1.1-2.9-2.8c0-1.8,1.4-2.8,3.6-2.9
			c0.9-0.1,1.8-0.1,2.6-0.1v-0.4c0-1.7-0.7-2.7-2.4-2.7c-1,0-1.8,0.3-2.7,0.7l-0.4-1.4c1.1-0.7,2.1-0.9,3.4-0.9
			c2.4,0,3.9,1.5,3.9,4.2v6.1h-1.8V567.3z M262.1,566.1v-1.9c-0.8,0.1-1.5,0.1-2.3,0.2c-1.2,0.1-2.1,0.5-2.1,1.6
			c0,0.9,0.6,1.4,1.6,1.4C260.4,567.4,261.4,566.9,262.1,566.1z M259.1,556.9l1.6-3.4h2.1l-2.1,3.4H259.1z"/>
		<path fill="#F9FAFB" d="M266.2,571.3c0.8-1.6,1.3-3.2,1.3-5l1.8,0.2c-0.1,1.8-0.8,3.8-1.9,5.4L266.2,571.3z"/>
		<path fill="#F9FAFB" d="M287.2,555l-0.3,1.5c-0.9-0.3-2.1-0.6-3.1-0.6c-3.5,0-5.6,2-5.6,5.7c0,3.6,2.1,5.7,5.6,5.7
			c1.1,0,2.2-0.2,3.1-0.6l0.3,1.5c-0.9,0.4-2.4,0.7-3.7,0.7c-4.6,0-7.3-3.1-7.3-7.2c0-4.2,2.7-7.2,7.3-7.2
			C284.8,554.3,286.3,554.6,287.2,555z"/>
		<path fill="#F9FAFB" d="M293.5,568.8c-3.1,0-4.9-2.4-4.9-5.2c0-2.8,1.8-5.2,4.9-5.2s4.9,2.4,4.9,5.2
			C298.4,566.4,296.6,568.8,293.5,568.8z M293.5,559.8c-2,0-3,1.7-3,3.8s1,3.8,3,3.8s3-1.7,3-3.8S295.5,559.8,293.5,559.8z"/>
		<path fill="#F9FAFB" d="M302.6,566c0,0.8,0.3,1.3,1.1,1.3c0.3,0,0.6,0,0.9-0.1l0.1,1.4c-0.5,0.1-1,0.2-1.5,0.2
			c-1.8,0-2.5-1.2-2.5-2.7v-12.3h1.9V566z"/>
		<path fill="#F9FAFB" d="M310.7,568.8c-3.1,0-4.9-2.4-4.9-5.2c0-2.8,1.8-5.2,4.9-5.2s4.9,2.4,4.9,5.2
			C315.6,566.4,313.8,568.8,310.7,568.8z M310.7,559.8c-2,0-3,1.7-3,3.8s1,3.8,3,3.8s3-1.7,3-3.8S312.7,559.8,310.7,559.8z"/>
		<path fill="#F9FAFB" d="M326.3,561.4c0.1,0.6,0.2,1.2,0.2,1.8v5.3h-1.9v-5.2c0-2.1-0.5-3.5-2.2-3.5c-1.1,0-2,0.7-2.5,1.4v7.4H318
			v-10.1h1.8v1.5c0.8-1.1,1.8-1.7,3.2-1.7c1.4,0,2.4,0.7,2.9,2c0.8-1.3,2-2,3.6-2c2.5,0,3.5,2.3,3.5,5v5.3h-1.9v-5.2
			c0-2.1-0.5-3.5-2.2-3.5C327.9,559.8,327,560.5,326.3,561.4z"/>
		<path fill="#F9FAFB" d="M336.1,553.8h1.9v5.7c0.6-0.7,1.6-1.1,2.9-1.1c2.6,0,4.2,2.2,4.2,5.2c0,2.9-1.9,5.3-5.3,5.3
			c-1.3,0-2.6-0.3-3.7-0.7V553.8z M337.9,560.7v6.2c0.5,0.2,1,0.3,1.8,0.3c2.3,0,3.4-1.5,3.4-3.8c0-2-0.9-3.7-2.8-3.7
			C339.3,559.8,338.5,560.2,337.9,560.7z"/>
		<path fill="#F9FAFB" d="M348.4,554.3c0.7,0,1.2,0.5,1.2,1.2c0,0.7-0.5,1.2-1.2,1.2c-0.7,0-1.2-0.5-1.2-1.2
			C347.2,554.9,347.7,554.3,348.4,554.3z M347.4,568.6v-10.1h1.9v10.1H347.4z"/>
		<path fill="#F9FAFB" d="M358.2,567.3c-0.6,0.7-1.8,1.5-3.4,1.5c-1.7,0-2.9-1.1-2.9-2.8c0-1.8,1.4-2.8,3.6-2.9
			c0.9-0.1,1.8-0.1,2.6-0.1v-0.4c0-1.7-0.7-2.7-2.4-2.7c-1,0-1.8,0.3-2.7,0.7l-0.4-1.4c1.1-0.7,2.1-0.9,3.4-0.9
			c2.4,0,3.9,1.5,3.9,4.2v6.1h-1.8V567.3z M358.1,566.1v-1.9c-0.8,0.1-1.5,0.1-2.3,0.2c-1.2,0.1-2.1,0.5-2.1,1.6
			c0,0.9,0.6,1.4,1.6,1.4C356.4,567.4,357.4,566.9,358.1,566.1z"/>
	</g>
	<g>
		<path fill="#F9FAFB" d="M80.3,155.9h1.8v-2.6H84v2.6h3.3v1.5H84v5.1c0,1.2,0.3,2.1,1.5,2.1c0.6,0,1.1-0.1,1.6-0.3l0.2,1.4
			c-0.4,0.2-1.4,0.4-2.2,0.4c-2.2,0-3-1.5-3-3.5v-5.2h-1.8V155.9z"/>
		<path fill="#F9FAFB" d="M97.3,159.7c0,0.6-0.1,1.1-0.2,1.7h-6.4c0.1,1.9,0.9,3.2,3.3,3.2c1.1,0,2.1-0.3,2.9-0.6l0.3,1.4
			c-0.9,0.4-2.1,0.7-3.4,0.7c-3.4,0-5-2.3-5-5.2c0-2.9,1.7-5.3,4.6-5.3C96,155.7,97.3,157.4,97.3,159.7z M90.7,160h4.7
			c0.2-1.6-0.4-2.9-2.1-2.9C91.7,157.1,90.8,158.4,90.7,160z"/>
		<path fill="#F9FAFB" d="M105.1,151.7c0.7,0,1.2,0.5,1.2,1.2s-0.5,1.2-1.2,1.2c-0.7,0-1.2-0.5-1.2-1.2S104.4,151.7,105.1,151.7z
			 M104.2,165.9v-10.1h1.9v10.1H104.2z"/>
		<path fill="#F9FAFB" d="M109.2,165.9v-10.1h1.8v1.5c0.8-1.1,1.8-1.7,3.2-1.7c2.5,0,3.6,2.3,3.6,5v5.3h-1.9v-5.2
			c0-2.1-0.6-3.5-2.3-3.5c-1.1,0-2,0.7-2.5,1.4v7.4H109.2z"/>
		<path fill="#F9FAFB" d="M126.9,155.9h1.9l-3.6,10.1h-2l-3.6-10.1h1.9l2.7,8.2L126.9,155.9z"/>
		<path fill="#F9FAFB" d="M131.7,151.7c0.7,0,1.2,0.5,1.2,1.2s-0.5,1.2-1.2,1.2c-0.7,0-1.2-0.5-1.2-1.2S130.9,151.7,131.7,151.7z
			 M130.7,165.9v-10.1h1.9v10.1H130.7z"/>
		<path fill="#F9FAFB" d="M134.6,155.9h1.8v-2.6h1.9v2.6h3.3v1.5h-3.3v5.1c0,1.2,0.3,2.1,1.5,2.1c0.6,0,1.1-0.1,1.6-0.3l0.2,1.4
			c-0.4,0.2-1.4,0.4-2.2,0.4c-2.2,0-3-1.5-3-3.5v-5.2h-1.8V155.9z"/>
		<path fill="#F9FAFB" d="M149.6,164.7c-0.6,0.7-1.8,1.5-3.4,1.5c-1.7,0-2.9-1.1-2.9-2.8c0-1.8,1.4-2.8,3.6-2.9
			c0.9-0.1,1.8-0.1,2.6-0.1v-0.4c0-1.7-0.7-2.7-2.4-2.7c-1,0-1.8,0.3-2.7,0.7l-0.4-1.4c1.1-0.7,2.1-0.9,3.4-0.9
			c2.4,0,3.9,1.5,3.9,4.2v6.1h-1.8V164.7z M149.5,163.5v-1.9c-0.8,0.1-1.5,0.1-2.3,0.2c-1.2,0.1-2.1,0.5-2.1,1.6
			c0,0.9,0.6,1.4,1.6,1.4C147.9,164.8,148.8,164.2,149.5,163.5z"/>
		<path fill="#F9FAFB" d="M164.6,164.7c-0.6,0.7-1.8,1.5-3.4,1.5c-1.7,0-2.9-1.1-2.9-2.8c0-1.8,1.4-2.8,3.6-2.9
			c0.9-0.1,1.8-0.1,2.6-0.1v-0.4c0-1.7-0.7-2.7-2.4-2.7c-1,0-1.8,0.3-2.7,0.7l-0.4-1.4c1.1-0.7,2.1-0.9,3.4-0.9
			c2.4,0,3.9,1.5,3.9,4.2v6.1h-1.8V164.7z M164.6,163.5v-1.9c-0.8,0.1-1.5,0.1-2.3,0.2c-1.2,0.1-2.1,0.5-2.1,1.6
			c0,0.9,0.6,1.4,1.6,1.4C162.9,164.8,163.9,164.2,164.6,163.5z"/>
		<path fill="#F9FAFB" d="M174,155.9h1.8v1.4c0.7-0.9,1.6-1.6,3.2-1.6c2.4,0,4,2.1,4,5.2c0,3.4-2.2,5.3-5.1,5.3
			c-0.8,0-1.4-0.1-2-0.3v4.4H174V155.9z M175.9,158.6v5.8c0.5,0.2,1.1,0.3,1.8,0.3c2.1,0,3.4-1.4,3.4-3.8c0-2.1-0.8-3.6-2.6-3.6
			C177.3,157.2,176.4,157.9,175.9,158.6z"/>
		<path fill="#F9FAFB" d="M191.1,164.7c-0.6,0.7-1.8,1.5-3.4,1.5c-1.7,0-2.9-1.1-2.9-2.8c0-1.8,1.4-2.8,3.6-2.9
			c0.9-0.1,1.8-0.1,2.6-0.1v-0.4c0-1.7-0.7-2.7-2.4-2.7c-1,0-1.8,0.3-2.7,0.7l-0.4-1.4c1.1-0.7,2.1-0.9,3.4-0.9
			c2.4,0,3.9,1.5,3.9,4.2v6.1h-1.8V164.7z M191,163.5v-1.9c-0.8,0.1-1.5,0.1-2.3,0.2c-1.2,0.1-2.1,0.5-2.1,1.6
			c0,0.9,0.6,1.4,1.6,1.4C189.4,164.8,190.3,164.2,191,163.5z"/>
		<path fill="#F9FAFB" d="M201.6,157.4h-0.5c-1.5,0-2.5,0.5-3.3,1.8v6.7h-1.9v-10.1h1.8v1.9c0.6-1.3,1.5-2.1,3.1-2.1
			c0.3,0,0.6,0,0.8,0.1V157.4z"/>
		<path fill="#F9FAFB" d="M202.4,155.9h1.8v-2.6h1.9v2.6h3.3v1.5h-3.3v5.1c0,1.2,0.3,2.1,1.5,2.1c0.6,0,1.1-0.1,1.6-0.3l0.2,1.4
			c-0.4,0.2-1.4,0.4-2.2,0.4c-2.2,0-3-1.5-3-3.5v-5.2h-1.8V155.9z"/>
		<path fill="#F9FAFB" d="M212.6,151.7c0.7,0,1.2,0.5,1.2,1.2s-0.5,1.2-1.2,1.2c-0.7,0-1.2-0.5-1.2-1.2S211.9,151.7,212.6,151.7z
			 M211.7,165.9v-10.1h1.9v10.1H211.7z"/>
		<path fill="#F9FAFB" d="M223.8,156.2l-0.3,1.4c-0.7-0.3-1.6-0.5-2.4-0.5c-2.3,0-3.3,1.5-3.3,3.7s1,3.7,3.3,3.7
			c0.8,0,1.7-0.2,2.4-0.5l0.3,1.4c-0.7,0.3-1.9,0.5-2.8,0.5c-3.4,0-5-2.4-5-5.2s1.7-5.2,5-5.2C222.1,155.7,223.1,155.9,223.8,156.2z
			"/>
		<path fill="#F9FAFB" d="M227,151.7c0.7,0,1.2,0.5,1.2,1.2s-0.5,1.2-1.2,1.2c-0.7,0-1.2-0.5-1.2-1.2S226.3,151.7,227,151.7z
			 M226.1,165.9v-10.1h1.9v10.1H226.1z"/>
		<path fill="#F9FAFB" d="M231.1,155.9h1.8v1.4c0.7-0.9,1.6-1.6,3.2-1.6c2.4,0,4,2.1,4,5.2c0,3.4-2.2,5.3-5.1,5.3
			c-0.8,0-1.4-0.1-2-0.3v4.4h-1.9V155.9z M233,158.6v5.8c0.5,0.2,1.1,0.3,1.8,0.3c2.1,0,3.4-1.4,3.4-3.8c0-2.1-0.8-3.6-2.6-3.6
			C234.4,157.2,233.5,157.9,233,158.6z"/>
		<path fill="#F9FAFB" d="M248.2,164.7c-0.6,0.7-1.8,1.5-3.4,1.5c-1.7,0-2.9-1.1-2.9-2.8c0-1.8,1.4-2.8,3.6-2.9
			c0.9-0.1,1.8-0.1,2.6-0.1v-0.4c0-1.7-0.7-2.7-2.4-2.7c-1,0-1.8,0.3-2.7,0.7l-0.4-1.4c1.1-0.7,2.1-0.9,3.4-0.9
			c2.4,0,3.9,1.5,3.9,4.2v6.1h-1.8V164.7z M248.2,163.5v-1.9c-0.8,0.1-1.5,0.1-2.3,0.2c-1.2,0.1-2.1,0.5-2.1,1.6
			c0,0.9,0.6,1.4,1.6,1.4C246.5,164.8,247.5,164.2,248.2,163.5z"/>
		<path fill="#F9FAFB" d="M258.7,157.4h-0.5c-1.5,0-2.5,0.5-3.3,1.8v6.7h-1.9v-10.1h1.8v1.9c0.6-1.3,1.5-2.1,3.1-2.1
			c0.3,0,0.6,0,0.8,0.1V157.4z"/>
		<path fill="#F9FAFB" d="M272.9,159.7c0,0.6-0.1,1.1-0.2,1.7h-6.4c0.1,1.9,0.9,3.2,3.3,3.2c1.1,0,2.1-0.3,2.9-0.6l0.3,1.4
			c-0.9,0.4-2.1,0.7-3.4,0.7c-3.4,0-5-2.3-5-5.2c0-2.9,1.7-5.3,4.6-5.3C271.6,155.7,272.9,157.4,272.9,159.7z M266.4,160h4.7
			c0.2-1.6-0.4-2.9-2.1-2.9C267.4,157.1,266.5,158.4,266.4,160z"/>
		<path fill="#F9FAFB" d="M275.3,165.9v-10.1h1.8v1.5c0.8-1.1,1.8-1.7,3.2-1.7c2.5,0,3.6,2.3,3.6,5v5.3H282v-5.2
			c0-2.1-0.6-3.5-2.3-3.5c-1.1,0-2,0.7-2.5,1.4v7.4H275.3z"/>
		<path fill="#F9FAFB" d="M293.3,163.3c0,0.8,0.3,1.3,1.1,1.3c0.3,0,0.6,0,0.9-0.1l0.1,1.4c-0.5,0.1-1,0.2-1.5,0.2
			c-1.8,0-2.5-1.2-2.5-2.7v-12.3h1.9V163.3z"/>
		<path fill="#F9FAFB" d="M302.9,164.7c-0.6,0.7-1.8,1.5-3.4,1.5c-1.7,0-2.9-1.1-2.9-2.8c0-1.8,1.4-2.8,3.6-2.9
			c0.9-0.1,1.8-0.1,2.6-0.1v-0.4c0-1.7-0.7-2.7-2.4-2.7c-1,0-1.8,0.3-2.7,0.7l-0.4-1.4c1.1-0.7,2.1-0.9,3.4-0.9
			c2.4,0,3.9,1.5,3.9,4.2v6.1h-1.8V164.7z M302.9,163.5v-1.9c-0.8,0.1-1.5,0.1-2.3,0.2c-1.2,0.1-2.1,0.5-2.1,1.6
			c0,0.9,0.6,1.4,1.6,1.4C301.2,164.8,302.2,164.2,302.9,163.5z"/>
	</g>
	<polygon fill="#FFFFFF" points="193,195.2 193,195.2 193,195.2 193,195.2 	"/>
	<g>
		<path fill="#FFFFFF" d="M124.6,365.7v4.3h-11.3v34.1H108V370H96.7v-4.3H124.6z"/>
		<path fill="#FFFFFF" d="M135.8,404.1h-5.3v-38.4h10c8.2,0,14.8,3.7,14.8,10.8c0,5.3-3.6,9.4-9.7,11.2l13.5,16.4h-6.5l-12.5-15.4
			c-0.8,0-3.3,0.1-4.3,0.1V404.1z M140.4,369.9h-4.6v14.5h2.7c6.5,0,11.5-2.4,11.5-7.8C150,371.8,145.5,369.9,140.4,369.9z"/>
		<path fill="#FFFFFF" d="M197.4,404.1H192l-3.5-9.3h-17.9l-3.5,9.3h-5.4l15.3-38.4h5.2L197.4,404.1z M172.1,390.5h14.8l-7.4-20
			L172.1,390.5z"/>
		<path fill="#FFFFFF" d="M223.4,365.7h5.3L215,404.1h-5.5l-13.8-38.4h5.3l11.2,32.1L223.4,365.7z"/>
		<path fill="#FFFFFF" d="M233.9,365.7h21.4v4.3h-16.1v12.3h15.4v4.3h-15.4v13.1h16.3v4.3h-21.6V365.7z"/>
		<path fill="#FFFFFF" d="M272,404.8c-3.7,0-7.8-0.8-11-2.3l1-4.2c2.8,1.3,6.4,2.2,9.9,2.2c5,0,8.4-2.2,8.4-6.2
			c0-4.4-3.8-6.1-8.4-8.2c-5.2-2.5-10-5.2-10-11c0-6.7,5-10.1,12.2-10.1c3.7,0,7.4,0.9,10,2.3l-1,4.2c-2.5-1.3-5.8-2.2-9-2.2
			c-4.7,0-7,1.8-7,5.4c0,3.3,1.7,4.4,6.7,6.9c4.9,2.5,11.8,5.5,11.8,12.5C285.4,400.7,279.5,404.8,272,404.8z"/>
		<path fill="#FFFFFF" d="M297.8,404.1h-5.3v-38.4h5.3V404.1z M292.9,362l4.8-6.6h6.1l-6.6,6.6H292.9z"/>
		<path fill="#FFFFFF" d="M340,404.1h-5.4l-3.5-9.3h-17.9l-3.5,9.3h-5.4l15.3-38.4h5.2L340,404.1z M314.8,390.5h14.8l-7.4-20
			L314.8,390.5z"/>
	</g>
	<g>
		<path fill="#FFFFFF" d="M99.3,417.1h18v3.6h-13.5v10.3h12.9v3.6h-12.9v11h13.7v3.6H99.3V417.1z"/>
		<path fill="#FFFFFF" d="M124.1,417.1h9c11.1,0,18.4,6.8,18.4,16.1s-7.3,16.1-18.4,16.1h-9V417.1z M133,445.8c7.8,0,14-4.6,14-12.6
			c0-7.9-6.2-12.6-14-12.6h-4.5v25.1H133z"/>
		<path fill="#FFFFFF" d="M177.8,417.1h4.5v20.8c0,6.8-4.4,12-12.6,12c-8.2,0-12.6-5.2-12.6-12v-20.8h4.5v21c0,4.8,2.8,8.2,8.2,8.2
			s8.2-3.3,8.2-8.2V417.1z"/>
		<path fill="#FFFFFF" d="M213.3,418l-0.7,3.4c-2.2-0.8-4.8-1.3-7.3-1.3c-8.1,0-12.8,4.7-12.8,13.1s4.7,13.1,12.8,13.1
			c2.5,0,5.1-0.5,7.3-1.3l0.7,3.4c-2.1,0.9-5.6,1.5-8.5,1.5c-10.6,0-16.8-7.1-16.8-16.7c0-9.6,6.2-16.7,16.8-16.7
			C207.7,416.5,211.2,417.1,213.3,418z"/>
		<path fill="#FFFFFF" d="M246.9,449.4h-4.6l-3-7.8h-15.1l-2.9,7.8h-4.6l12.8-32.3h4.4L246.9,449.4z M225.7,438h12.4l-6.2-16.8
			L225.7,438z"/>
		<path fill="#FFFFFF" d="M269.7,417.1v3.6h-9.5v28.6h-4.5v-28.6h-9.5v-3.6H269.7z"/>
		<path fill="#FFFFFF" d="M279.3,449.4h-4.5v-32.3h4.5V449.4z"/>
		<path fill="#FFFFFF" d="M307.3,417.1h4.5l-11.6,32.3h-4.7l-11.6-32.3h4.5l9.5,27L307.3,417.1z"/>
		<path fill="#FFFFFF" d="M340.3,449.4h-4.6l-3-7.8h-15.1l-2.9,7.8h-4.6l12.8-32.3h4.4L340.3,449.4z M319.1,438h12.4l-6.2-16.8
			L319.1,438z"/>
	</g>
	<g>
		<path fill="#4E4E4E" d="M44.5,243.4c32.7,121.7,35.7,219.1,31.4,290.2c21.4-100.5,18.3-178.9-3.2-260.2
			C68.9,258.8,63.2,240.7,44.5,243.4"/>
		<path fill="none" stroke="#FFFFFF" stroke-width="2.85" stroke-miterlimit="10" d="M44.5,243.4c32.7,121.7,35.7,219.1,31.4,290.2
			c21.4-100.5,18.3-178.9-3.2-260.2C68.9,258.8,63.2,240.7,44.5,243.4z"/>
		<path fill="#969696" d="M341.6,346.3c-37-7-139-4.6-218.1,5.6c-13,1.7-31.6,3.8-35.4-8.1c5.8,3.4,15.9,4.8,36.8,0.8
			c62-11.6,179.4-19.1,206.5-16.8c-8.9-45.8-16.2-79.1-32.2-124.2c-37.7-7.5-131.6,10.5-230.9,35.7c3.7-12.7,186-57.8,241.2-52.4
			C322.8,221.1,334.7,290.7,341.6,346.3"/>
		<path fill="none" stroke="#FFFFFF" stroke-width="2.85" stroke-miterlimit="10" d="M341.6,346.3c-37-7-139-4.6-218.1,5.6
			c-13,1.7-31.6,3.8-35.4-8.1c5.8,3.4,15.9,4.8,36.8,0.8c62-11.6,179.4-19.1,206.5-16.8c-8.9-45.8-16.2-79.1-32.2-124.2
			c-37.7-7.5-131.6,10.5-230.9,35.7c3.7-12.7,186-57.8,241.2-52.4C322.8,221.1,334.7,290.7,341.6,346.3z"/>
		<path fill="#EEC030" d="M108.9,287.8c62.8-12.8,165.1-23.4,202.3-18.6c-11.4-55-18.5-56.2-45.2-55.1
			c-73.3,3.3-124.6,20.2-190.1,33.2C85.1,283.9,87.1,292.3,108.9,287.8"/>
		<path fill="#CC3331" d="M130.7,334.5c50.9-9.6,148.2-18.3,191.4-15.3c-1.8-19.4-14.2-21.3-42.6-20c-60,2.8-127.7,11.5-188.7,23.5
			C94.8,345.1,111.7,338.1,130.7,334.5"/>
		<path fill="#435FA8" d="M124.9,310.3c52.2-9.1,155.6-21.6,191.8-16.1c-1.6-19.8-12.5-21.3-42.6-20c-60,2.6-125,10.9-185.9,23
			C89.3,320.9,102.8,314.2,124.9,310.3"/>
		<path fill="#FFFFFF" d="M341.6,493.8c0-0.5-0.2-0.9-0.8-1.2c-0.5-0.3-1.2-0.6-2.3-0.6c-1.8,0-3.6,0.9-4.2,2.8
			c-0.3-1.3-0.8-1.8-1.1-2c-0.5-0.4-1.2-0.7-1.7-0.7c-0.7,0-1.3,0.4-1.3,1.2c0,0.4,0.2,0.7,0.5,0.9c0.6,0.3,1,0.7,1,2v4.5h0v5.9
			c0,0.9,0.6,1.5,1.4,1.5c0.8,0,1.4-0.5,1.4-1.5v-5.9v-0.7v-1c0-2.6,0.9-4.5,3.3-4.5c0.6,0,1.2,0.2,1.8,0.4c0.2,0.1,0.5,0.2,0.7,0.2
			C341.1,495.1,341.6,494.5,341.6,493.8 M327.4,488.2c0-1-0.8-1.8-1.8-1.8c-1,0-1.8,0.8-1.8,1.8c0,1,0.8,1.8,1.8,1.8
			C326.6,490,327.4,489.2,327.4,488.2 M317.5,503.4v-8.6c0-0.1,0.1-0.2,0.2-0.2h2c0.7,0,1.2-0.5,1.2-1.1c0-0.6-0.4-1.1-1.2-1.1h-2
			c-0.1,0-0.2-0.1-0.2-0.2v-3.4c0-0.9-0.6-1.5-1.4-1.5c-0.8,0-1.4,0.6-1.4,1.5v3.4c0,0.1-0.1,0.2-0.2,0.2h-0.9
			c-0.7,0-1.2,0.5-1.2,1.1c0,0.6,0.4,1.1,1.2,1.1h0.9c0.1,0,0.2,0.1,0.2,0.2v8.7c0,3.2,1.2,4.6,4.3,4.6h0.3c1,0,1.5-0.5,1.5-1.3
			c0-0.7-0.5-1.3-1.3-1.3C317.9,505.6,317.5,505.1,317.5,503.4 M311.3,493.8c0-0.5-0.2-0.9-0.8-1.2c-0.5-0.3-1.2-0.6-2.3-0.6
			c-1.8,0-3.5,0.9-4.2,2.8c-0.3-1.3-0.8-1.8-1.1-2c-0.5-0.4-1.2-0.7-1.7-0.7c-0.7,0-1.3,0.4-1.3,1.2c0,0.4,0.2,0.7,0.5,0.9
			c0.6,0.3,1,0.7,1,2v4.5h0v5.9c0,0.9,0.6,1.5,1.4,1.5c0.8,0,1.4-0.5,1.4-1.5v-5.9v-0.7v-1c0-2.6,0.9-4.5,3.3-4.5
			c0.6,0,1.2,0.2,1.8,0.4c0.2,0.1,0.5,0.2,0.7,0.2C310.8,495.1,311.3,494.5,311.3,493.8 M298.8,506.8c0-0.3-0.1-0.6-0.2-0.8l-0.6-1
			c-0.2-0.5-0.3-0.8-0.3-1.6v-5.6c0-3.8-1.9-5.8-6.1-5.8c-2.1,0-3.8,0.5-4.7,1.2c-0.5,0.3-0.6,0.7-0.6,1.1c0,0.7,0.5,1.2,1.2,1.2
			c0.2,0,0.5-0.1,0.8-0.2c0.7-0.4,2-0.8,3.2-0.8c2.7,0,3.7,1.2,3.7,3.4v0.7c0,0.1-0.1,0.2-0.2,0.2h-3.5c-3.9,0-6.1,1.6-6.1,4.8
			c0,2.9,2,4.7,5.5,4.7c2.3,0,3.7-0.7,4.8-1.8h0l0.6,1c0.3,0.5,0.7,0.7,1.2,0.7C298.2,508.1,298.8,507.5,298.8,506.8 M295.1,502.9
			c0,1.9-1.5,3-3.9,3c-2.1,0-3.2-0.8-3.2-2.4c0-1.8,1.2-2.5,3.9-2.5h3.1c0.1,0,0.2,0.1,0.2,0.2V502.9z M282.6,504.4
			c0.4-1.2,0.6-2.5,0.6-4.2c0-1.8-0.2-3-0.6-4.2c-0.8-2.4-2.7-3.9-5.3-3.9c-2,0-3.8,0.7-4.6,2.6c-0.3-1.1-0.8-1.5-1-1.7
			c-0.5-0.4-1.2-0.7-1.7-0.7c-0.7,0-1.3,0.4-1.3,1.2c0,0.4,0.2,0.7,0.5,0.9c0.6,0.3,1,0.7,1,2v4.5h0v11.7c0,0.9,0.6,1.5,1.4,1.5
			c0.8,0,1.4-0.6,1.4-1.5v-6.3h0c0.7,1.2,2.1,2.1,4.4,2.1C279.9,508.3,281.8,506.8,282.6,504.4 M280.3,500.2c0,1.3-0.1,2.3-0.4,3.1
			c-0.5,1.6-1.7,2.4-3.4,2.4c-1.8,0-2.9-0.9-3.4-2.4c-0.3-0.8-0.4-1.8-0.4-3.1c0-1.4,0.1-2.3,0.4-3.2c0.5-1.6,1.7-2.4,3.4-2.4
			c1.7,0,2.9,0.9,3.4,2.4C280.3,497.8,280.3,498.8,280.3,500.2 M266.3,506.6v-8.7c0-3.6-2-5.8-5.5-5.8c-2.4,0-4,1-5,2.4h0
			c-0.8-1.5-2.4-2.4-4.5-2.4c-2,0-3.7,0.9-4.6,2.5c-0.3-1.1-0.8-1.5-1-1.7c-0.5-0.4-1.2-0.6-1.7-0.6c-0.7,0-1.3,0.4-1.3,1.2
			c0,0.4,0.2,0.7,0.5,0.9c0.6,0.3,1,0.7,1,2v8h0v2.3c0,0.9,0.6,1.5,1.4,1.5c0.8,0,1.4-0.6,1.4-1.5v-2.3v-2.1v-4.4
			c0.4-2.4,1.9-3.2,3.6-3.2c2.3,0,3.5,1.5,3.5,4v8.1c0,0.9,0.6,1.5,1.4,1.5c0.8,0,1.4-0.6,1.4-1.5v-8.3c0-2.3,1.5-3.8,3.6-3.8
			c2.3,0,3.5,1.5,3.5,4v8.1c0,0.9,0.6,1.5,1.4,1.5C265.8,508.1,266.3,507.5,266.3,506.6 M240.6,504.1c0.4-1.1,0.5-2.1,0.5-4
			c0-1.8-0.2-2.8-0.5-3.9c-0.8-2.7-3.1-4.2-6.1-4.2s-5.3,1.5-6.1,4.2c-0.4,1.1-0.5,2.1-0.5,3.9c0,1.8,0.2,2.9,0.5,4
			c0.8,2.6,3.1,4.2,6.1,4.2S239.8,506.7,240.6,504.1 M238.4,500.1c0,1.5-0.1,2.3-0.4,3.2c-0.5,1.6-1.8,2.4-3.5,2.4
			c-1.7,0-3-0.9-3.5-2.4c-0.3-0.8-0.4-1.7-0.4-3.2s0.1-2.3,0.4-3.1c0.5-1.6,1.8-2.4,3.5-2.4c1.7,0,3,0.9,3.5,2.4
			C238.3,497.8,238.4,498.7,238.4,500.1 M217.1,503.3c-0.3-0.8-0.4-1.8-0.4-3.2c0-1.4,0.1-2.3,0.4-3.1c0.5-1.6,1.8-2.4,3.5-2.4
			c1.4,0,2.2,0.5,2.9,1.3c0.4,0.4,0.7,0.6,1.2,0.6c0.7,0,1.2-0.5,1.2-1.2c0-0.4-0.1-0.6-0.4-1c-1-1.3-2.6-2.3-5-2.3
			c-3,0-5.2,1.5-6.1,4.2c-0.3,0.9-0.5,2.2-0.5,3.9c0,1.8,0.2,3,0.5,4c0.9,2.7,3.1,4.2,6.1,4.2c2.3,0,4-1,5-2.3
			c0.3-0.4,0.4-0.6,0.4-1c0-0.7-0.5-1.2-1.2-1.2c-0.5,0-0.8,0.3-1.2,0.7c-0.7,0.8-1.6,1.3-2.9,1.3
			C218.9,505.8,217.7,504.9,217.1,503.3 M324.3,493.7v12.9c0,0.9,0.6,1.5,1.4,1.5c0.8,0,1.4-0.5,1.4-1.5v-12.9
			c0-0.9-0.6-1.5-1.4-1.5C324.9,492.2,324.3,492.8,324.3,493.7"/>
		<path fill="#FFFFFF" d="M250.4,483.9l-2.3,0V482v-2.9c0-0.9-1.6-0.6-1.6-0.6v5.9c0,0.6,0.5,1,2.2,0.9
			C250.6,485,250.5,484.4,250.4,483.9 M214.2,484.8c0,0,0.1-1.2,1.2-1c1.2,0.2,2.7,0.4,2.7-0.4c0-0.9-3.6-0.8-3.6-3.1
			c0-3,5.1-1.5,5.1-1.5s0,1.2-1,1.2c-0.8-0.1-2.4-0.3-2.4,0.3c0,0.8,3.7,0.9,3.6,3C219.6,486.7,214.2,484.8,214.2,484.8
			 M230.9,478.5v4.1l-2.2-3.5c-0.2-0.4-0.6-0.5-0.9-0.6c-0.2,0-0.3,0-0.5,0c-0.3,0-0.6,0-0.6,0v6.1c0,0.9,1.6,0.6,1.6,0.6v-4.1
			l2.2,3.5c0.2,0.4,0.6,0.5,0.9,0.6c0.2,0,0.3,0,0.5,0c0.3,0,0.6,0,0.6,0v-6.1C232.5,478.2,230.9,478.5,230.9,478.5 M261.5,478.5
			v4.1l-2.2-3.5c-0.2-0.4-0.6-0.5-0.9-0.6c-0.2,0-0.3,0-0.5,0c-0.3,0-0.6,0-0.6,0v6.1c0,0.9,1.6,0.6,1.6,0.6v-4.1l2.2,3.5
			c0.2,0.4,0.6,0.5,0.9,0.6c0.2,0,0.3,0,0.5,0c0.3,0,0.6,0,0.6,0v-6.1C263.2,478.2,261.5,478.5,261.5,478.5 M223.9,478.9
			c-0.3-0.8-1.7-0.4-1.7-0.4l-2.5,6.1c-0.3,0.9,1.5,0.6,1.5,0.6l0.5-1.3h2.4l0.3,0.8c0.4,0.9,2,0.6,2,0.6L223.9,478.9z M222.4,482.4
			l0.7-1.8l0.6,1.8H222.4z M270.2,485.2c0,0-1.6,0.4-2-0.6l-0.3-0.8h-2.4l-0.5,1.3c0,0-1.8,0.3-1.5-0.6l2.5-6.1c0,0,1.4-0.4,1.7,0.4
			L270.2,485.2z M267.4,482.4l-0.6-1.8l-0.7,1.8H267.4z M254.7,478.9c-0.3-0.8-1.7-0.4-1.7-0.4l-2.5,6.1c-0.3,0.9,1.5,0.6,1.5,0.6
			l0.5-1.3h2.4l0.3,0.8c0.4,0.9,2,0.6,2,0.6L254.7,478.9z M253.1,482.4l0.7-1.8l0.6,1.8H253.1z M238.2,478.5h-4.4
			c-1,0-0.8,1.5-0.8,1.5h1.8v4.7c0,0.9,1.6,0.6,1.6,0.6V480h1C238.5,480,238.2,478.5,238.2,478.5 M238.9,478.5v6.1
			c0,0.9,1.6,0.6,1.6,0.6v-6.1C240.5,478.2,238.9,478.5,238.9,478.5 M246,483.9h-2.7v-4.8c0-0.9-1.6-0.6-1.6-0.6v5.9
			c0,0.8,0.8,1,2.6,0.9C246.2,485,246.1,484.4,246,483.9"/>
		<path fill="#FFFFFF" d="M199.9,469.5c0.6,1,1.1,2.3,1.1,3.8v25.2c0,1.5-0.5,2.8-1.1,3.8c-1.9-0.2-3.8-0.8-5.5-1.8l-7-4.1v-21.2
			l7-4.1C196.1,470.3,198,469.7,199.9,469.5"/>
		<path fill="#FFFFFF" d="M169,485.9l-7-4.1c-1.8-1-3.2-2.4-4.3-3.9c0.6-1,1.4-2.1,2.8-2.8l21.8-12.6c1.3-0.8,2.7-1,3.9-1
			c0.8,1.7,1.2,3.7,1.2,5.7v0v8.1L169,485.9z"/>
		<path fill="#E0EBF6" d="M186.1,461.6c0.8,1.7,1.2,3.7,1.2,5.7v0v8.1l7-4c0.1,0,0.1-0.1,0.2-0.1c1-0.6,2.1-1,3.2-1.3c0,0,0,0,0,0
			c0,0,0,0,0,0c0,0,0,0,0,0c0,0,0,0,0,0c0,0,0,0,0,0c0,0,0,0,0,0c0,0,0,0,0,0c0,0,0,0,0,0c0,0,0,0,0,0c0,0,0,0,0,0c0,0,0,0,0,0
			c0,0,0,0,0,0c0,0,0,0,0,0c0,0,0,0,0,0c0,0,0,0,0,0c0,0,0,0,0,0c0,0,0,0,0,0c0,0,0,0,0,0c0,0,0,0,0,0c0,0,0,0,0,0c0,0,0,0,0,0
			c0,0,0,0,0,0c0,0,0,0,0,0c0,0,0,0,0,0c0,0,0,0,0,0h0c0.5-0.1,1.1-0.2,1.6-0.3c-1.2-1.9-2.8-2.9-2.8-2.9l-3.5-2.1l-3.5-2
			C190,462.6,188.4,461.6,186.1,461.6"/>
		<path fill="#FFFFFF" d="M198.3,469.8C198.3,469.8,198.3,469.8,198.3,469.8L198.3,469.8 M198.2,469.8
			C198.2,469.8,198.2,469.8,198.2,469.8C198.2,469.8,198.2,469.8,198.2,469.8 M198.2,469.8C198.2,469.8,198.2,469.8,198.2,469.8
			C198.2,469.8,198.2,469.8,198.2,469.8 M198.2,469.8C198.2,469.8,198.2,469.8,198.2,469.8C198.2,469.8,198.2,469.8,198.2,469.8
			 M198.1,469.8C198.1,469.8,198.1,469.8,198.1,469.8C198.1,469.8,198.1,469.8,198.1,469.8 M198.1,469.8
			C198.1,469.8,198.1,469.8,198.1,469.8C198.1,469.8,198.1,469.8,198.1,469.8 M198,469.8C198,469.8,198,469.8,198,469.8
			C198,469.8,198,469.8,198,469.8 M198,469.8C198,469.8,198,469.8,198,469.8C198,469.8,198,469.8,198,469.8 M197.9,469.9
			C197.9,469.9,197.9,469.9,197.9,469.9C197.9,469.9,197.9,469.9,197.9,469.9 M197.9,469.9C197.9,469.9,197.9,469.9,197.9,469.9
			C197.9,469.9,197.9,469.9,197.9,469.9 M197.9,469.9C197.8,469.9,197.8,469.9,197.9,469.9C197.8,469.9,197.8,469.9,197.9,469.9
			 M197.8,469.9C197.8,469.9,197.8,469.9,197.8,469.9C197.8,469.9,197.8,469.9,197.8,469.9 M197.8,469.9
			C197.8,469.9,197.8,469.9,197.8,469.9C197.8,469.9,197.8,469.9,197.8,469.9 M197.7,469.9c-1.1,0.3-2.2,0.7-3.2,1.3
			c0.1-0.1,0.2-0.1,0.3-0.2C195.8,470.5,196.7,470.2,197.7,469.9"/>
		<path fill="#FFFFFF" d="M186.1,461.6c0.8,1.7,1.2,3.7,1.2,5.7C187.4,465.2,186.9,463.3,186.1,461.6"/>
		<path fill="#E0EBF6" d="M157.7,478c-1.1,2-1.1,3.9-1.1,3.9l0,8.3v0c0,0.4,0.1,1.7,0.8,3.2l0.1,0.2l0.1,0.1l0.1,0.2l0,0l0,0
			c1.1-1.6,2.6-2.9,4.3-3.9l7-4.1l-7-4.1c-0.2-0.1-0.3-0.2-0.5-0.3C160,480.6,158.7,479.4,157.7,478"/>
		<path fill="#E0EBF6" d="M187.4,496.5v8.1c0,2-0.4,4-1.2,5.7h0l0,0l0.2,0l0.1,0l0.2,0c1.7-0.2,2.9-0.7,3.2-0.9l4.5-2.6l2.6-1.5
			c0,0,0.2-0.1,0.5-0.3c0.5-0.4,1.4-1.1,2.1-2.2l0.2-0.3c-1.9-0.2-3.8-0.8-5.5-1.8L187.4,496.5z"/>
		<path fill="#FFFFFF" d="M371.6,87.7c0-0.9-0.4-1.7-1.5-2.3c-1-0.6-2.4-1.1-4.4-1.1c-3.5,0-6.9,1.8-8.1,5.4c-0.5-2.4-1.6-3.4-2-3.8
			c-1-0.8-2.3-1.3-3.2-1.3c-1.4,0-2.6,0.7-2.6,2.3c0,0.8,0.4,1.4,1,1.7c1.2,0.7,1.9,1.4,1.9,3.8v8.7h0v11.3c0,1.8,1.1,2.8,2.6,2.8
			c1.5,0,2.6-1.1,2.6-2.8v-11.3v-1.3V98c0-5,1.8-8.8,6.3-8.8c1.3,0,2.3,0.3,3.4,0.8c0.4,0.2,0.9,0.3,1.3,0.3
			C370.5,90.3,371.6,89.2,371.6,87.7 M344.1,76.9c0-1.9-1.6-3.4-3.4-3.4c-1.9,0-3.4,1.5-3.4,3.4c0,1.9,1.6,3.4,3.4,3.4
			C342.6,80.3,344.1,78.8,344.1,76.9 M324.9,106.3V89.7c0-0.2,0.1-0.4,0.4-0.4h3.9c1.4,0,2.3-0.9,2.3-2.1c0-1.3-0.8-2.1-2.3-2.1
			h-3.9c-0.2,0-0.4-0.1-0.4-0.4v-6.6c0-1.8-1.1-2.8-2.6-2.8c-1.5,0-2.6,1.1-2.6,2.8v6.6c0,0.3-0.1,0.4-0.4,0.4h-1.7
			c-1.4,0-2.3,0.9-2.3,2.1c0,1.2,0.8,2.1,2.3,2.1h1.7c0.3,0,0.4,0.1,0.4,0.4v16.8c0,6.3,2.3,8.8,8.4,8.8h0.6c1.9,0,2.8-1,2.8-2.4
			c0-1.4-0.9-2.4-2.6-2.4C325.7,110.4,324.9,109.5,324.9,106.3 M313,87.7c0-0.9-0.4-1.7-1.5-2.3c-1-0.6-2.4-1.1-4.4-1.1
			c-3.5,0-6.9,1.8-8.1,5.4c-0.5-2.4-1.6-3.4-2-3.8c-1-0.8-2.3-1.3-3.2-1.3c-1.4,0-2.6,0.7-2.6,2.3c0,0.8,0.4,1.4,1,1.7
			c1.2,0.7,1.9,1.4,1.9,3.8v8.7h0v11.3c0,1.8,1.1,2.8,2.6,2.8c1.5,0,2.6-1.1,2.6-2.8v-11.3v-1.3V98c0-5,1.8-8.8,6.3-8.8
			c1.3,0,2.3,0.3,3.4,0.8c0.4,0.2,0.9,0.3,1.3,0.3C312,90.3,313,89.2,313,87.7 M288.9,112.8c0-0.5-0.2-1.1-0.4-1.5l-1.1-1.9
			c-0.4-0.9-0.6-1.5-0.6-3.1V95.6c0-7.4-3.8-11.2-11.8-11.2c-4.1,0-7.3,1-9.1,2.3c-0.9,0.5-1.3,1.3-1.3,2.1c0,1.4,0.9,2.3,2.3,2.3
			c0.4,0,1-0.2,1.5-0.4c1.4-0.8,3.8-1.5,6.1-1.5c5.3,0,7.2,2.4,7.2,6.6v1.4c0,0.2-0.1,0.4-0.4,0.4h-6.8c-7.4,0-11.7,3.1-11.7,9.3
			c0,5.7,3.9,9,10.6,9c4.4,0,7.2-1.3,9.2-3.6h0.1l1.2,1.9c0.6,0.9,1.4,1.3,2.3,1.3C287.8,115.3,288.9,114.3,288.9,112.8
			 M281.7,105.3c0,3.7-2.9,5.9-7.6,5.9c-4,0-6.3-1.6-6.3-4.7c0-3.4,2.3-4.9,7.4-4.9h6c0.2,0,0.4,0.1,0.4,0.4V105.3z M257.6,108.2
			c0.8-2.4,1.1-4.8,1.1-8.1c0-3.4-0.3-5.8-1.1-8.2c-1.6-4.7-5.3-7.5-10.3-7.5c-3.8,0-7.4,1.4-9,5c-0.6-2.1-1.6-3-1.9-3.3
			c-1-0.8-2.3-1.3-3.2-1.3c-1.4,0-2.6,0.7-2.6,2.3c0,0.8,0.4,1.4,1,1.7c1.2,0.7,1.9,1.4,1.9,3.8v8.7h0v22.6c0,1.8,1.1,2.8,2.6,2.8
			c1.5,0,2.6-1.1,2.6-2.8v-12.1h0.1c1.4,2.3,4,4,8.5,4C252.3,115.7,256,112.9,257.6,108.2 M253.3,100.1c0,2.6-0.1,4.4-0.7,6.1
			c-1,3-3.3,4.7-6.6,4.7c-3.4,0-5.6-1.7-6.6-4.7c-0.6-1.6-0.7-3.5-0.7-6.1c0-2.6,0.1-4.5,0.7-6.1c1-3,3.2-4.7,6.6-4.7
			c3.3,0,5.6,1.7,6.6,4.7C253.2,95.6,253.3,97.4,253.3,100.1 M226.3,112.5V95.6c0-7-3.9-11.3-10.7-11.3c-4.7,0-7.7,1.9-9.7,4.7h-0.1
			c-1.6-2.9-4.6-4.6-8.8-4.7c-3.8-0.1-7.2,1.7-8.9,4.9c-0.6-2.1-1.5-2.9-1.9-3.3c-1-0.8-2.3-1.3-3.2-1.3c-1.4,0-2.6,0.7-2.6,2.3
			c0,0.8,0.4,1.4,1,1.7c1.2,0.7,1.9,1.4,1.9,3.8V108h0v4.5c0,1.8,1.1,2.8,2.6,2.8c1.5,0,2.6-1.1,2.6-2.8V108v-4.1v-8.4
			c0.8-4.7,3.7-6.3,6.9-6.3c4.5,0,6.7,2.8,6.7,7.6v15.6c0,1.8,1.1,2.8,2.6,2.8c1.5,0,2.6-1.1,2.6-2.8V96.6c0-4.4,2.8-7.3,6.9-7.3
			c4.5,0,6.7,2.8,6.7,7.6v15.6c0,1.8,1.1,2.8,2.6,2.8C225.1,115.3,226.3,114.3,226.3,112.5 M176.6,107.6c0.7-2.1,1-4.1,1-7.6
			c0-3.4-0.3-5.5-1-7.6c-1.6-5.1-6-8.1-11.8-8.1s-10.2,2.9-11.8,8.1c-0.7,2.1-1,4.1-1,7.6c0,3.5,0.3,5.6,1,7.6
			c1.6,5.1,6,8.1,11.8,8.1S175,112.7,176.6,107.6 M172.3,100c0,2.9-0.2,4.5-0.7,6.1c-1,3-3.4,4.7-6.8,4.7c-3.3,0-5.8-1.7-6.8-4.7
			c-0.5-1.6-0.7-3.3-0.7-6.1c0-2.9,0.2-4.4,0.7-6.1c1-3,3.4-4.7,6.8-4.7c3.3,0,5.8,1.7,6.8,4.7C172.1,95.6,172.3,97.1,172.3,100
			 M131.3,106.1c-0.5-1.6-0.7-3.4-0.7-6.1c0-2.6,0.2-4.5,0.7-6.1c1-3.1,3.4-4.7,6.7-4.7c2.7,0,4.3,1,5.7,2.5
			c0.7,0.8,1.4,1.3,2.3,1.3c1.3,0,2.3-1,2.3-2.3c0-0.7-0.3-1.3-0.8-1.9c-1.9-2.4-5.1-4.4-9.6-4.4c-5.8,0-10.1,2.9-11.8,8.1
			c-0.6,1.8-0.9,4.3-0.9,7.6c0,3.4,0.4,5.8,0.9,7.6c1.7,5.2,6.1,8.1,11.8,8.1c4.5,0,7.7-1.9,9.6-4.4c0.5-0.7,0.8-1.3,0.8-1.9
			c0-1.3-1-2.3-2.3-2.3c-0.9,0-1.6,0.5-2.3,1.3c-1.4,1.5-3,2.5-5.7,2.5C134.7,110.8,132.3,109.3,131.3,106.1 M338.1,87.6v24.9
			c0,1.8,1.1,2.8,2.6,2.8c1.5,0,2.6-1.1,2.6-2.8V87.6c0-1.7-1.1-2.8-2.6-2.8C339.2,84.7,338.1,85.8,338.1,87.6"/>
		<path fill="#FFFFFF" d="M195.4,68.6l-4.5,0V65v-5.6c0-1.7-3.1-1.1-3.1-1.1v11.4c0,1.2,1,2,4.2,1.6
			C195.8,70.9,195.6,69.6,195.4,68.6 M125.6,70.4c0,0,0.2-2.4,2.4-2c2.4,0.4,5.2,0.8,5.1-0.8c-0.1-1.6-6.9-1.5-6.9-5.9
			c-0.1-5.7,9.8-2.9,9.8-2.9s0.1,2.4-2,2.3c-1.6-0.1-4.6-0.6-4.7,0.6c-0.1,1.5,7.1,1.7,6.9,5.9C136,74.1,125.6,70.4,125.6,70.4
			 M157.8,58.3v7.9l-4.2-6.8c-0.4-0.7-1.1-1-1.8-1.1c-0.3-0.1-0.6-0.1-1-0.1c-0.6,0-1.1,0.1-1.1,0.1v11.8c0,1.7,3.1,1.1,3.1,1.1
			v-7.9l4.2,6.8c0.4,0.7,1.1,1,1.8,1.1c0.3,0.1,0.6,0.1,1,0.1c0.6,0,1.1-0.1,1.1-0.1V59.4C160.9,57.7,157.8,58.3,157.8,58.3
			 M216.9,58.3v7.9l-4.2-6.8c-0.4-0.7-1.1-1-1.8-1.1c-0.3-0.1-0.6-0.1-1-0.1c-0.6,0-1.1,0.1-1.1,0.1v11.8c0,1.7,3.1,1.1,3.1,1.1
			v-7.9l4.2,6.8c0.4,0.7,1.1,1,1.8,1.1c0.3,0.1,0.6,0.1,1,0.1c0.6,0,1.1-0.1,1.1-0.1V59.4C220.1,57.7,216.9,58.3,216.9,58.3
			 M144.4,59c-0.6-1.5-3.2-0.7-3.2-0.7l-4.8,11.9c-0.6,1.7,2.9,1.1,2.9,1.1l1-2.6h4.6l0.5,1.5c0.7,1.8,3.8,1.1,3.8,1.1L144.4,59z
			 M141.3,65.8l1.3-3.5l1.2,3.5H141.3z M233.6,71.2c0,0-3.1,0.7-3.8-1.1l-0.5-1.5h-4.6l-1,2.6c0,0-3.5,0.6-2.9-1.1l4.8-11.9
			c0,0,2.6-0.8,3.2,0.7L233.6,71.2z M228.3,65.8l-1.2-3.5l-1.3,3.5H228.3z M203.7,59c-0.6-1.5-3.2-0.7-3.2-0.7l-4.8,11.9
			c-0.6,1.7,2.9,1.1,2.9,1.1l1-2.6h4.6l0.5,1.5c0.7,1.8,3.8,1.1,3.8,1.1L203.7,59z M200.6,65.8l1.3-3.5l1.2,3.5H200.6z M172,58.2
			h-8.5c-2,0-1.5,2.8-1.5,2.8h0h3.4v9c0,1.7,3.2,1.1,3.2,1.1V61h1.9C172.6,61,172,58.2,172,58.2 M173.3,58.3v11.8
			c0,1.7,3.1,1.1,3.1,1.1V59.4C176.4,57.7,173.3,58.3,173.3,58.3 M187,68.6h-5.3v-9.2c0-1.7-3.1-1.1-3.1-1.1v11.4c0,1.5,1.5,2,5,1.6
			C187.3,70.9,187.1,69.6,187,68.6"/>
		<path fill="#FFFFFF" d="M98.1,40.9c1.2,2,2.1,4.4,2.1,7.4v48.7c0,3-0.9,5.4-2,7.4c-3.7-0.3-7.3-1.5-10.7-3.4L73.8,93V52.1
			l13.5-7.8C90.7,42.4,94.4,41.2,98.1,40.9"/>
		<path fill="#FFFFFF" d="M38.4,72.6l-13.5-7.8c-3.4-2-6.2-4.5-8.3-7.5c1.1-2,2.8-4,5.4-5.5L64,27.4c2.6-1.5,5.2-1.9,7.4-1.9
			c1.5,3.3,2.4,7.1,2.4,11v0v15.6L38.4,72.6z"/>
		<path fill="#E0EBF6" d="M71.5,25.5c1.5,3.3,2.4,7.1,2.4,11v0v15.6l13.5-7.8c0.1-0.1,0.2-0.1,0.3-0.2c2-1.1,4.1-1.9,6.2-2.5
			c0,0,0,0,0,0c0,0,0,0,0.1,0c0,0,0,0,0,0c0,0,0,0,0.1,0c0,0,0,0,0,0c0,0,0,0,0.1,0c0,0,0,0,0,0c0,0,0,0,0.1,0c0,0,0,0,0,0
			c0,0,0,0,0.1,0c0,0,0,0,0,0c0,0,0,0,0,0c0,0,0.1,0,0.1,0c0,0,0,0,0,0c0,0,0,0,0.1,0c0,0,0,0,0,0c0,0,0,0,0.1,0c0,0,0,0,0,0
			c0,0,0,0,0.1,0c0,0,0,0,0,0c0,0,0,0,0.1,0l0,0c0,0,0,0,0.1,0c0,0,0,0,0,0c0,0,0,0,0.1,0h0c1-0.2,2.1-0.4,3.2-0.5
			c-2.2-3.7-5.4-5.5-5.4-5.5l-6.8-4l-6.8-3.9C78.9,27.4,75.8,25.6,71.5,25.5"/>
		<path fill="#FFFFFF" d="M94.9,41.4C94.9,41.4,94.9,41.4,94.9,41.4L94.9,41.4 M94.8,41.4C94.8,41.4,94.8,41.4,94.8,41.4
			C94.8,41.4,94.8,41.4,94.8,41.4 M94.7,41.4C94.7,41.4,94.7,41.4,94.7,41.4C94.7,41.4,94.7,41.4,94.7,41.4 M94.6,41.4
			C94.6,41.4,94.6,41.4,94.6,41.4C94.6,41.4,94.6,41.4,94.6,41.4 M94.6,41.5C94.6,41.5,94.6,41.5,94.6,41.5
			C94.6,41.5,94.6,41.5,94.6,41.5 M94.5,41.5C94.5,41.5,94.5,41.5,94.5,41.5C94.5,41.5,94.5,41.5,94.5,41.5 M94.4,41.5
			C94.4,41.5,94.4,41.5,94.4,41.5C94.4,41.5,94.4,41.5,94.4,41.5 M94.3,41.5C94.3,41.5,94.3,41.5,94.3,41.5
			C94.3,41.5,94.3,41.5,94.3,41.5 M94.2,41.5C94.2,41.5,94.2,41.5,94.2,41.5C94.2,41.5,94.2,41.5,94.2,41.5 M94.1,41.6
			C94.1,41.6,94.1,41.6,94.1,41.6C94.1,41.6,94.1,41.6,94.1,41.6 M94.1,41.6C94,41.6,94,41.6,94.1,41.6C94,41.6,94,41.6,94.1,41.6
			 M94,41.6C94,41.6,93.9,41.6,94,41.6C93.9,41.6,94,41.6,94,41.6 M93.9,41.6C93.9,41.6,93.9,41.6,93.9,41.6
			C93.9,41.6,93.9,41.6,93.9,41.6 M93.8,41.6c-2.1,0.6-4.2,1.4-6.2,2.5c0.2-0.1,0.4-0.2,0.6-0.3C90,42.9,91.9,42.1,93.8,41.6"/>
		<path fill="#FFFFFF" d="M71.5,25.5c1.5,3.3,2.4,7.1,2.4,11C73.8,32.6,73,28.9,71.5,25.5"/>
		<path fill="#E0EBF6" d="M16.5,57.2c-2.1,3.8-2.1,7.4-2.1,7.4l0,16v0c0,0.7,0.2,3.3,1.6,6.2l0.1,0.3l0.1,0.3l0.2,0.3l0,0.1l0,0
			c2.1-3,4.9-5.6,8.3-7.6l13.6-7.8l-13.5-7.8c-0.3-0.2-0.6-0.4-0.9-0.6C20.9,62.3,18.4,60,16.5,57.2"/>
		<path fill="#E0EBF6" d="M73.8,93.1v15.7c0,3.9-0.9,7.6-2.4,11h0l0.1,0l0.4,0l0.3,0l0.4-0.1c3.2-0.3,5.6-1.4,6.2-1.8l8.7-5.1
			l5.1-2.9c0,0,0.4-0.2,1-0.7c1-0.8,2.7-2.2,4.1-4.3l0.4-0.6c-3.7-0.3-7.3-1.5-10.7-3.4L73.8,93.1z"/>
		<path fill="#FFFFFF" d="M73.8,93.1v15.7c0,3.9-0.9,7.6-2.4,11c-2.3,0-4.8-0.4-7.4-1.9L21.9,93.4c-2.6-1.5-4.3-3.5-5.4-5.5l0-0.1
			l0.1,0.1l0,0c2.1-3,4.9-5.6,8.3-7.6l13.6-7.8L73.8,93.1z"/>
	</g>
</g>
<path fill="#FFFFFF" d="M187.4,496.5v8.1c0,2-0.4,4-1.2,5.7c-1.2,0-2.5-0.2-3.8-1l-21.8-12.6c-1.3-0.8-2.2-1.8-2.8-2.8l0,0l0,0l0,0
	c1.1-1.6,2.6-2.9,4.3-3.9l7-4.1L187.4,496.5z"/>
<g>
	<path fill="#FFFFFF" d="M95.6,598.1h-1.9v-1.4c-0.8,0.9-1.9,1.7-3.4,1.7c-2.4,0-4.1-2.2-4.1-5.4c0-3.5,2.3-5.5,5.3-5.5
		c0.9,0,1.5,0.1,2.1,0.3v-5h2V598.1z M93.6,595.3v-6c-0.5-0.2-1.2-0.3-1.9-0.3c-2.2,0-3.6,1.4-3.6,4c0,2.3,0.8,3.8,2.7,3.8
		C92.1,596.8,93,596,93.6,595.3z"/>
	<path fill="#FFFFFF" d="M106.9,591.7c0,0.6-0.1,1.2-0.2,1.8h-6.6c0.1,2,1,3.4,3.4,3.4c1.1,0,2.1-0.3,3-0.6l0.3,1.5
		c-0.9,0.4-2.2,0.7-3.5,0.7c-3.5,0-5.1-2.4-5.1-5.4c0-3.1,1.8-5.5,4.8-5.5C105.6,587.4,106.9,589.3,106.9,591.7z M100.1,591.9h4.9
		c0.2-1.7-0.4-3-2.2-3C101.2,588.9,100.2,590.3,100.1,591.9z"/>
	<path fill="#FFFFFF" d="M111.3,595.4c0,0.9,0.3,1.3,1.1,1.3c0.3,0,0.7,0,1-0.1l0.1,1.5c-0.5,0.2-1,0.2-1.6,0.2
		c-1.8,0-2.6-1.2-2.6-2.8v-12.8h2V595.4z"/>
	<path fill="#FFFFFF" d="M122.3,598.1v-12.4l-2.8,1.2l-0.6-1.5l4.1-1.7h1.3v14.5H122.3z"/>
	<path fill="#FFFFFF" d="M135.2,584.7c-3,1.5-5.3,3.1-5.9,6.5c0.9-1,2-1.6,3.5-1.6c2.5,0,4.3,1.8,4.3,4.2c0,2.7-2.2,4.5-4.7,4.5
		c-3.3,0-4.9-3-4.9-5.6c0-4.5,2.8-7.5,7.1-9.4L135.2,584.7z M132.4,591.2c-1.3,0-2.5,0.7-3.2,1.5c-0.1,2,0.9,4.1,3,4.1
		c1.8,0,2.8-1.3,2.8-3S134.1,591.2,132.4,591.2z"/>
	<path fill="#FFFFFF" d="M150.3,596.8c-0.6,0.7-1.9,1.5-3.5,1.5c-1.7,0-3-1.1-3-2.9c0-1.9,1.5-2.9,3.7-3c0.9-0.1,1.9-0.1,2.7-0.1
		v-0.5c0-1.8-0.7-2.8-2.4-2.8c-1,0-1.9,0.3-2.8,0.7l-0.5-1.4c1.1-0.7,2.2-0.9,3.6-0.9c2.5,0,4.1,1.6,4.1,4.4v6.3h-1.9V596.8z
		 M150.2,595.5v-1.9c-0.9,0.1-1.6,0.1-2.4,0.2c-1.2,0.1-2.2,0.5-2.2,1.6c0,1,0.6,1.5,1.7,1.5C148.5,596.9,149.5,596.3,150.2,595.5z"
		/>
	<path fill="#FFFFFF" d="M157.2,595.4c0,0.9,0.3,1.3,1.1,1.3c0.3,0,0.7,0,1-0.1l0.1,1.5c-0.5,0.2-1,0.2-1.6,0.2
		c-1.8,0-2.6-1.2-2.6-2.8v-12.8h2V595.4z"/>
	<path fill="#FFFFFF" d="M165.7,584.2c0.9-0.6,2.1-0.8,3.3-0.8c2.7,0,4.5,1.7,4.5,4.3c0,2.4-1.3,4.1-3.3,6.1
		c-1.1,1.2-1.8,1.8-2.8,2.7h6.3v1.6h-8.6l-0.2-1.2c1.7-1.7,2.9-3,4.2-4.4c1.5-1.6,2.4-3.1,2.4-4.8c0-1.7-1-2.8-2.7-2.8
		c-0.9,0-1.8,0.3-2.7,0.7L165.7,584.2z"/>
	<path fill="#FFFFFF" d="M181.1,598.4c-3.7,0-5.3-3.2-5.3-7.5s1.7-7.5,5.3-7.5c3.7,0,5.3,3.2,5.3,7.5S184.8,598.4,181.1,598.4z
		 M184.5,590.9c0-3.4-0.9-5.9-3.3-5.9c-2.4,0-3.3,2.5-3.3,5.9s0.9,5.9,3.3,5.9C183.6,596.8,184.5,594.3,184.5,590.9z"/>
	<path fill="#FFFFFF" d="M202.5,598.1h-1.9v-1.4c-0.8,0.9-1.9,1.7-3.4,1.7c-2.4,0-4.1-2.2-4.1-5.4c0-3.5,2.3-5.5,5.3-5.5
		c0.9,0,1.5,0.1,2.1,0.3v-5h2V598.1z M200.5,595.3v-6c-0.5-0.2-1.2-0.3-1.9-0.3c-2.2,0-3.6,1.4-3.6,4c0,2.3,0.8,3.8,2.7,3.8
		C199,596.8,200,596,200.5,595.3z"/>
	<path fill="#FFFFFF" d="M213.8,591.7c0,0.6-0.1,1.2-0.2,1.8H207c0.1,2,1,3.4,3.4,3.4c1.1,0,2.1-0.3,3-0.6l0.3,1.5
		c-0.9,0.4-2.2,0.7-3.5,0.7c-3.5,0-5.1-2.4-5.1-5.4c0-3.1,1.8-5.5,4.8-5.5C212.5,587.4,213.8,589.3,213.8,591.7z M207,591.9h4.9
		c0.2-1.7-0.4-3-2.2-3C208.1,588.9,207.1,590.3,207,591.9z"/>
	<path fill="#FFFFFF" d="M220.4,590.9c0-4,2.5-7.5,7.1-7.5c4.6,0,7.1,3.5,7.1,7.5s-2.5,7.5-7.1,7.5
		C222.9,598.4,220.4,594.9,220.4,590.9z M232.5,590.9c0-3.2-1.7-5.9-5.1-5.9c-3.3,0-5.1,2.7-5.1,5.9c0,3.3,1.7,5.9,5.1,5.9
		C230.8,596.8,232.5,594.1,232.5,590.9z"/>
	<path fill="#FFFFFF" d="M244.5,588l-0.3,1.5c-0.8-0.3-1.6-0.5-2.5-0.5c-2.4,0-3.4,1.6-3.4,3.9c0,2.3,1.1,3.9,3.4,3.9
		c0.9,0,1.7-0.2,2.5-0.5l0.3,1.5c-0.7,0.3-2,0.6-2.9,0.6c-3.5,0-5.2-2.5-5.2-5.4c0-2.9,1.7-5.4,5.2-5.4
		C242.7,587.4,243.7,587.7,244.5,588z"/>
	<path fill="#FFFFFF" d="M245.7,587.7h1.9V585h2v2.7h3.4v1.6h-3.4v5.3c0,1.2,0.3,2.2,1.6,2.2c0.6,0,1.2-0.1,1.7-0.3l0.2,1.5
		c-0.5,0.2-1.4,0.4-2.2,0.4c-2.2,0-3.1-1.5-3.1-3.7v-5.4h-1.9V587.7z"/>
	<path fill="#FFFFFF" d="M263.9,587.7v10.5H262v-1.5c-0.8,1-1.9,1.7-3.3,1.7c-2.6,0-3.6-2.4-3.6-5.2v-5.5h2v5.4
		c0,2.1,0.5,3.6,2.3,3.6c1.2,0,2-0.7,2.6-1.4v-7.7H263.9z"/>
	<path fill="#FFFFFF" d="M267.2,582.7h2v5.9c0.6-0.7,1.7-1.2,3-1.2c2.7,0,4.4,2.3,4.4,5.4c0,3.1-1.9,5.5-5.5,5.5
		c-1.4,0-2.7-0.3-3.8-0.8V582.7z M269.1,590v6.5c0.5,0.2,1,0.3,1.9,0.3c2.4,0,3.6-1.6,3.6-3.9c0-2.1-0.9-3.8-2.9-3.8
		C270.5,589,269.7,589.4,269.1,590z"/>
	<path fill="#FFFFFF" d="M284.9,589.3h-0.5c-1.5,0-2.6,0.5-3.4,1.9v7h-2v-10.5h1.9v2c0.6-1.4,1.5-2.1,3.2-2.1c0.3,0,0.6,0,0.8,0.1
		V589.3z"/>
	<path fill="#FFFFFF" d="M294.8,591.7c0,0.6-0.1,1.2-0.2,1.8H288c0.1,2,1,3.4,3.4,3.4c1.1,0,2.1-0.3,3-0.6l0.3,1.5
		c-0.9,0.4-2.2,0.7-3.5,0.7c-3.5,0-5.1-2.4-5.1-5.4c0-3.1,1.8-5.5,4.8-5.5C293.5,587.4,294.8,589.3,294.8,591.7z M288,591.9h4.9
		c0.2-1.7-0.4-3-2.2-3C289.1,588.9,288.1,590.3,288,591.9z"/>
	<path fill="#FFFFFF" d="M298.5,598.3c-0.8,0-1.3-0.6-1.3-1.3c0-0.7,0.5-1.3,1.3-1.3c0.8,0,1.3,0.6,1.3,1.3
		C299.8,597.7,299.3,598.3,298.5,598.3z"/>
</g>
</svg>
