<?xml version="1.0" encoding="utf-8"?>
<!-- Generator: Adobe Illustrator 18.0.0, SVG Export Plug-In . SVG Version: 6.00 Build 0)  -->
<!DOCTYPE svg PUBLIC "-//W3C//DTD SVG 1.1//EN" "http://www.w3.org/Graphics/SVG/1.1/DTD/svg11.dtd">
<svg version="1.1" id="Capa_1" xmlns="http://www.w3.org/2000/svg" xmlns:xlink="http://www.w3.org/1999/xlink" x="0px" y="0px"
	 viewBox="0 0 386 621.8" enable-background="new 0 0 386 621.8" xml:space="preserve">
<g>
	<g>
		<path fill="#F9FAFB" d="M32.2,567.3c-0.6,0.7-1.8,1.5-3.4,1.5c-1.7,0-2.9-1.1-2.9-2.8c0-1.8,1.4-2.8,3.6-2.9
			c0.9-0.1,1.8-0.1,2.6-0.1v-0.4c0-1.7-0.7-2.7-2.4-2.7c-1,0-1.8,0.3-2.7,0.7l-0.4-1.4c1.1-0.7,2.1-0.9,3.4-0.9
			c2.4,0,3.9,1.5,3.9,4.2v6.1h-1.8V567.3z M32.2,566.1v-1.9c-0.8,0.1-1.5,0.1-2.3,0.2c-1.2,0.1-2.1,0.5-2.1,1.6
			c0,0.9,0.6,1.4,1.6,1.4C30.5,567.4,31.5,566.9,32.2,566.1z"/>
		<path fill="#F9FAFB" d="M43.4,566c0,0.8,0.3,1.3,1.1,1.3c0.3,0,0.6,0,0.9-0.1l0.1,1.4c-0.5,0.1-1,0.2-1.5,0.2
			c-1.8,0-2.5-1.2-2.5-2.7v-12.3h1.9V566z"/>
		<path fill="#F9FAFB" d="M49.2,566c0,0.8,0.3,1.3,1.1,1.3c0.3,0,0.6,0,0.9-0.1l0.1,1.4c-0.5,0.1-1,0.2-1.5,0.2
			c-1.8,0-2.5-1.2-2.5-2.7v-12.3h1.9V566z"/>
		<path fill="#F9FAFB" d="M60.9,562.4c0,0.6-0.1,1.1-0.2,1.7h-6.4c0.1,1.9,0.9,3.2,3.3,3.2c1.1,0,2.1-0.3,2.9-0.6l0.3,1.4
			c-0.9,0.4-2.1,0.7-3.4,0.7c-3.4,0-5-2.3-5-5.2c0-2.9,1.7-5.3,4.6-5.3C59.6,558.3,60.9,560.1,60.9,562.4z M54.3,562.6H59
			c0.2-1.6-0.4-2.9-2.1-2.9C55.3,559.7,54.4,561,54.3,562.6z"/>
		<path fill="#F9FAFB" d="M69.3,558.5h1.9l-3.6,10.1h-2L62,558.5h1.9l2.7,8.2L69.3,558.5z"/>
		<path fill="#F9FAFB" d="M78.6,567.3c-0.6,0.7-1.8,1.5-3.4,1.5c-1.7,0-2.9-1.1-2.9-2.8c0-1.8,1.4-2.8,3.6-2.9
			c0.9-0.1,1.8-0.1,2.6-0.1v-0.4c0-1.7-0.7-2.7-2.4-2.7c-1,0-1.8,0.3-2.7,0.7l-0.4-1.4c1.1-0.7,2.1-0.9,3.4-0.9
			c2.4,0,3.9,1.5,3.9,4.2v6.1h-1.8V567.3z M78.6,566.1v-1.9c-0.8,0.1-1.5,0.1-2.3,0.2c-1.2,0.1-2.1,0.5-2.1,1.6
			c0,0.9,0.6,1.4,1.6,1.4C76.9,567.4,77.9,566.9,78.6,566.1z"/>
		<path fill="#F9FAFB" d="M89.2,560.1h-0.5c-1.5,0-2.5,0.5-3.3,1.8v6.7h-1.9v-10.1h1.8v1.9c0.6-1.3,1.5-2.1,3.1-2.1
			c0.3,0,0.6,0,0.8,0.1V560.1z"/>
		<path fill="#F9FAFB" d="M93.5,568.8c-1,0-2.4-0.3-3.1-0.6l0.3-1.5c0.7,0.3,1.7,0.6,2.8,0.6c1.2,0,2.1-0.4,2.1-1.4
			c0-0.9-0.9-1.3-2-1.8c-1.4-0.5-3.1-1.3-3.1-3.1c0-2,1.7-2.8,3.6-2.8c1.1,0,2.1,0.3,2.9,0.7l-0.3,1.4c-0.8-0.4-1.7-0.6-2.6-0.6
			c-1,0-1.7,0.3-1.7,1.2c0,0.8,1.1,1.2,1.9,1.6c0.8,0.4,3.2,1.1,3.2,3.2C97.5,567.6,95.8,568.8,93.5,568.8z"/>
		<path fill="#F9FAFB" d="M107.6,562.4c0,0.6-0.1,1.1-0.2,1.7H101c0.1,1.9,0.9,3.2,3.3,3.2c1.1,0,2.1-0.3,2.9-0.6l0.3,1.4
			c-0.9,0.4-2.1,0.7-3.4,0.7c-3.4,0-5-2.3-5-5.2c0-2.9,1.7-5.3,4.6-5.3C106.3,558.3,107.6,560.1,107.6,562.4z M101,562.6h4.7
			c0.2-1.6-0.4-2.9-2.1-2.9C102,559.7,101.1,561,101,562.6z"/>
		<path fill="#F9FAFB" d="M120.1,567.3c-0.6,0.7-1.8,1.5-3.4,1.5c-1.7,0-2.9-1.1-2.9-2.8c0-1.8,1.4-2.8,3.6-2.9
			c0.9-0.1,1.8-0.1,2.6-0.1v-0.4c0-1.7-0.7-2.7-2.4-2.7c-1,0-1.8,0.3-2.7,0.7l-0.4-1.4c1.1-0.7,2.1-0.9,3.4-0.9
			c2.4,0,3.9,1.5,3.9,4.2v6.1h-1.8V567.3z M120.1,566.1v-1.9c-0.8,0.1-1.5,0.1-2.3,0.2c-1.2,0.1-2.1,0.5-2.1,1.6
			c0,0.9,0.6,1.4,1.6,1.4C118.4,567.4,119.4,566.9,120.1,566.1z"/>
		<path fill="#F9FAFB" d="M136.6,558.8l-0.3,1.4c-0.7-0.3-1.6-0.5-2.4-0.5c-2.3,0-3.3,1.5-3.3,3.7c0,2.2,1,3.7,3.3,3.7
			c0.8,0,1.7-0.2,2.4-0.5l0.3,1.4c-0.7,0.3-1.9,0.5-2.8,0.5c-3.4,0-5-2.4-5-5.2s1.7-5.2,5-5.2C134.8,558.3,135.9,558.5,136.6,558.8z
			"/>
		<path fill="#F9FAFB" d="M144.5,567.3c-0.6,0.7-1.8,1.5-3.4,1.5c-1.7,0-2.9-1.1-2.9-2.8c0-1.8,1.4-2.8,3.6-2.9
			c0.9-0.1,1.8-0.1,2.6-0.1v-0.4c0-1.7-0.7-2.7-2.4-2.7c-1,0-1.8,0.3-2.7,0.7l-0.4-1.4c1.1-0.7,2.1-0.9,3.4-0.9
			c2.4,0,3.9,1.5,3.9,4.2v6.1h-1.8V567.3z M144.5,566.1v-1.9c-0.8,0.1-1.5,0.1-2.3,0.2c-1.2,0.1-2.1,0.5-2.1,1.6
			c0,0.9,0.6,1.4,1.6,1.4C142.8,567.4,143.8,566.9,144.5,566.1z"/>
		<path fill="#F9FAFB" d="M149.4,553.8h1.9v5.7c0.6-0.7,1.6-1.1,2.9-1.1c2.6,0,4.2,2.2,4.2,5.2c0,2.9-1.9,5.3-5.3,5.3
			c-1.3,0-2.6-0.3-3.7-0.7V553.8z M151.3,560.7v6.2c0.5,0.2,1,0.3,1.8,0.3c2.3,0,3.4-1.5,3.4-3.8c0-2-0.9-3.7-2.8-3.7
			C152.6,559.8,151.8,560.2,151.3,560.7z"/>
		<path fill="#F9FAFB" d="M164.9,568.8c-3.1,0-4.9-2.4-4.9-5.2c0-2.8,1.8-5.2,4.9-5.2s4.9,2.4,4.9,5.2
			C169.8,566.4,168,568.8,164.9,568.8z M164.9,559.8c-2,0-3,1.7-3,3.8s1,3.8,3,3.8s3-1.7,3-3.8S166.9,559.8,164.9,559.8z"/>
		<path fill="#F9FAFB" d="M184.5,562.4c0,0.6-0.1,1.1-0.2,1.7h-6.4c0.1,1.9,0.9,3.2,3.3,3.2c1.1,0,2.1-0.3,2.9-0.6l0.3,1.4
			c-0.9,0.4-2.1,0.7-3.4,0.7c-3.4,0-5-2.3-5-5.2c0-2.9,1.7-5.3,4.6-5.3C183.2,558.3,184.5,560.1,184.5,562.4z M177.9,562.6h4.7
			c0.2-1.6-0.4-2.9-2.1-2.9C179,559.7,178,561,177.9,562.6z"/>
		<path fill="#F9FAFB" d="M186.9,568.6v-10.1h1.8v1.5c0.8-1.1,1.8-1.7,3.2-1.7c2.5,0,3.6,2.3,3.6,5v5.3h-1.9v-5.2
			c0-2.1-0.6-3.5-2.3-3.5c-1.1,0-2,0.7-2.5,1.4v7.4H186.9z"/>
		<path fill="#F9FAFB" d="M207.1,568.6h-3.9v-14h4.3c2.7,0,4.5,1.4,4.5,3.4c0,1.6-1.2,2.7-2.9,3.3c2.1,0.4,3.4,1.5,3.4,3.4
			C212.5,567,210.3,568.6,207.1,568.6z M206.8,560.6c1.9,0,3.4-0.9,3.4-2.4c0-1.4-1.2-2.1-2.8-2.1H205v4.5H206.8z M207,562.1h-2v4.9
			h2.2c2.1,0,3.4-0.8,3.4-2.5C210.7,562.9,209,562.1,207,562.1z"/>
		<path fill="#F9FAFB" d="M219.1,568.8c-3.1,0-4.9-2.4-4.9-5.2c0-2.8,1.8-5.2,4.9-5.2s4.9,2.4,4.9,5.2
			C224,566.4,222.3,568.8,219.1,568.8z M219.1,559.8c-2,0-3,1.7-3,3.8s1,3.8,3,3.8s3-1.7,3-3.8S221.2,559.8,219.1,559.8z"/>
		<path fill="#F9FAFB" d="M229.2,565.1c-0.2,0.3-0.3,0.6-0.3,0.8c0,0.5,0.3,0.7,1.1,0.8l2.1,0.2c1.9,0.2,3.3,0.8,3.3,2.6
			c0,2.2-2.7,3.6-5.6,3.6c-2.4,0-4.4-0.8-4.4-2.6c0-1.5,1.6-2.2,2.8-2.6c-0.6-0.3-1-0.7-1-1.5c0-0.8,0.5-1.2,1.1-1.6
			c-1.4-0.5-2.3-1.6-2.3-3.1c0-2,1.8-3.5,4-3.5c0.5,0,1,0.1,1.4,0.2h3.8v1.4h-1.8c0.4,0.6,0.6,1.2,0.6,1.9c0,2-1.7,3.4-4,3.4
			C229.7,565.2,229.4,565.2,229.2,565.1z M229.3,568.2c-1,0.4-2.1,1-2.1,2.1c0,1.1,1,1.5,2.7,1.5c1.7,0,3.8-0.7,3.8-2.1
			c0-1-1.1-1.2-2.2-1.3L229.3,568.2z M232.3,561.8c0-1.3-1-2.1-2.3-2.1s-2.3,0.7-2.3,2.1c0,1.4,1,2.1,2.3,2.1
			C231.3,563.9,232.3,563.1,232.3,561.8z"/>
		<path fill="#F9FAFB" d="M241.3,568.8c-3.1,0-4.9-2.4-4.9-5.2c0-2.8,1.8-5.2,4.9-5.2s4.9,2.4,4.9,5.2
			C246.2,566.4,244.4,568.8,241.3,568.8z M241.3,559.8c-2,0-3,1.7-3,3.8s1,3.8,3,3.8s3-1.7,3-3.8S243.3,559.8,241.3,559.8z"/>
		<path fill="#F9FAFB" d="M247.4,558.5h1.8v-2.6h1.9v2.6h3.3v1.5h-3.3v5.1c0,1.2,0.3,2.1,1.5,2.1c0.6,0,1.1-0.1,1.6-0.3l0.2,1.4
			c-0.4,0.2-1.4,0.4-2.2,0.4c-2.2,0-3-1.5-3-3.5V560h-1.8V558.5z"/>
		<path fill="#F9FAFB" d="M262.4,567.3c-0.6,0.7-1.8,1.5-3.4,1.5c-1.7,0-2.9-1.1-2.9-2.8c0-1.8,1.4-2.8,3.6-2.9
			c0.9-0.1,1.8-0.1,2.6-0.1v-0.4c0-1.7-0.7-2.7-2.4-2.7c-1,0-1.8,0.3-2.7,0.7l-0.4-1.4c1.1-0.7,2.1-0.9,3.4-0.9
			c2.4,0,3.9,1.5,3.9,4.2v6.1h-1.8V567.3z M262.4,566.1v-1.9c-0.8,0.1-1.5,0.1-2.3,0.2c-1.2,0.1-2.1,0.5-2.1,1.6
			c0,0.9,0.6,1.4,1.6,1.4C260.7,567.4,261.7,566.9,262.4,566.1z M259.3,556.9l1.6-3.4h2.1l-2.1,3.4H259.3z"/>
		<path fill="#F9FAFB" d="M266.5,571.3c0.8-1.6,1.3-3.2,1.3-5l1.8,0.2c-0.1,1.8-0.8,3.8-1.9,5.4L266.5,571.3z"/>
		<path fill="#F9FAFB" d="M287.5,555l-0.3,1.5c-0.9-0.3-2.1-0.6-3.1-0.6c-3.5,0-5.6,2-5.6,5.7c0,3.6,2.1,5.7,5.6,5.7
			c1.1,0,2.2-0.2,3.1-0.6l0.3,1.5c-0.9,0.4-2.4,0.7-3.7,0.7c-4.6,0-7.3-3.1-7.3-7.2c0-4.2,2.7-7.2,7.3-7.2
			C285.1,554.3,286.6,554.6,287.5,555z"/>
		<path fill="#F9FAFB" d="M293.8,568.8c-3.1,0-4.9-2.4-4.9-5.2c0-2.8,1.8-5.2,4.9-5.2s4.9,2.4,4.9,5.2
			C298.7,566.4,296.9,568.8,293.8,568.8z M293.8,559.8c-2,0-3,1.7-3,3.8s1,3.8,3,3.8s3-1.7,3-3.8S295.8,559.8,293.8,559.8z"/>
		<path fill="#F9FAFB" d="M302.9,566c0,0.8,0.3,1.3,1.1,1.3c0.3,0,0.6,0,0.9-0.1l0.1,1.4c-0.5,0.1-1,0.2-1.5,0.2
			c-1.8,0-2.5-1.2-2.5-2.7v-12.3h1.9V566z"/>
		<path fill="#F9FAFB" d="M311,568.8c-3.1,0-4.9-2.4-4.9-5.2c0-2.8,1.8-5.2,4.9-5.2s4.9,2.4,4.9,5.2
			C315.9,566.4,314.1,568.8,311,568.8z M311,559.8c-2,0-3,1.7-3,3.8s1,3.8,3,3.8s3-1.7,3-3.8S313,559.8,311,559.8z"/>
		<path fill="#F9FAFB" d="M326.6,561.4c0.1,0.6,0.2,1.2,0.2,1.8v5.3h-1.9v-5.2c0-2.1-0.5-3.5-2.2-3.5c-1.1,0-2,0.7-2.5,1.4v7.4h-1.9
			v-10.1h1.8v1.5c0.8-1.1,1.8-1.7,3.2-1.7c1.4,0,2.4,0.7,2.9,2c0.8-1.3,2-2,3.6-2c2.5,0,3.5,2.3,3.5,5v5.3h-1.9v-5.2
			c0-2.1-0.5-3.5-2.2-3.5C328.2,559.8,327.3,560.5,326.6,561.4z"/>
		<path fill="#F9FAFB" d="M336.3,553.8h1.9v5.7c0.6-0.7,1.6-1.1,2.9-1.1c2.6,0,4.2,2.2,4.2,5.2c0,2.9-1.9,5.3-5.3,5.3
			c-1.3,0-2.6-0.3-3.7-0.7V553.8z M338.2,560.7v6.2c0.5,0.2,1,0.3,1.8,0.3c2.3,0,3.4-1.5,3.4-3.8c0-2-0.9-3.7-2.8-3.7
			C339.6,559.8,338.8,560.2,338.2,560.7z"/>
		<path fill="#F9FAFB" d="M348.7,554.3c0.7,0,1.2,0.5,1.2,1.2c0,0.7-0.5,1.2-1.2,1.2c-0.7,0-1.2-0.5-1.2-1.2
			C347.5,554.9,347.9,554.3,348.7,554.3z M347.7,568.6v-10.1h1.9v10.1H347.7z"/>
		<path fill="#F9FAFB" d="M358.4,567.3c-0.6,0.7-1.8,1.5-3.4,1.5c-1.7,0-2.9-1.1-2.9-2.8c0-1.8,1.4-2.8,3.6-2.9
			c0.9-0.1,1.8-0.1,2.6-0.1v-0.4c0-1.7-0.7-2.7-2.4-2.7c-1,0-1.8,0.3-2.7,0.7l-0.4-1.4c1.1-0.7,2.1-0.9,3.4-0.9
			c2.4,0,3.9,1.5,3.9,4.2v6.1h-1.8V567.3z M358.4,566.1v-1.9c-0.8,0.1-1.5,0.1-2.3,0.2c-1.2,0.1-2.1,0.5-2.1,1.6
			c0,0.9,0.6,1.4,1.6,1.4C356.7,567.4,357.7,566.9,358.4,566.1z"/>
	</g>
	<g>
		<path fill="#F9FAFB" d="M84.1,593.8h-1.8v-1.4c-0.8,0.9-1.8,1.6-3.3,1.6c-2.3,0-3.9-2.1-3.9-5.2c0-3.4,2.2-5.3,5.1-5.3
			c0.8,0,1.4,0.1,2,0.3V579h1.9V593.8z M82.3,591.1v-5.8c-0.5-0.2-1.1-0.3-1.8-0.3c-2.1,0-3.4,1.4-3.4,3.8c0,2.2,0.8,3.7,2.6,3.7
			C80.8,592.5,81.7,591.8,82.3,591.1z"/>
		<path fill="#F9FAFB" d="M95.6,583.7v10.1h-1.8v-1.5c-0.7,1-1.8,1.7-3.2,1.7c-2.5,0-3.5-2.3-3.5-5v-5.3H89v5.2
			c0,2.1,0.5,3.5,2.2,3.5c1.1,0,2-0.7,2.5-1.4v-7.4H95.6z"/>
		<path fill="#F9FAFB" d="M104.4,585.3h-0.5c-1.5,0-2.5,0.5-3.3,1.8v6.7h-1.9v-10.1h1.8v1.9c0.6-1.3,1.5-2.1,3.1-2.1
			c0.3,0,0.6,0,0.8,0.1V585.3z"/>
		<path fill="#F9FAFB" d="M111.9,592.5c-0.6,0.7-1.8,1.5-3.4,1.5c-1.7,0-2.9-1.1-2.9-2.8c0-1.8,1.4-2.8,3.6-2.9
			c0.9-0.1,1.8-0.1,2.6-0.1v-0.4c0-1.7-0.7-2.7-2.4-2.7c-1,0-1.8,0.3-2.7,0.7l-0.4-1.4c1.1-0.7,2.1-0.9,3.4-0.9
			c2.4,0,3.9,1.5,3.9,4.2v6.1h-1.8V592.5z M111.8,591.3v-1.9c-0.8,0.1-1.5,0.1-2.3,0.2c-1.2,0.1-2.1,0.5-2.1,1.6
			c0,0.9,0.6,1.4,1.6,1.4C110.1,592.6,111.1,592.1,111.8,591.3z"/>
		<path fill="#F9FAFB" d="M116.7,593.8v-10.1h1.8v1.5c0.8-1.1,1.8-1.7,3.2-1.7c2.5,0,3.6,2.3,3.6,5v5.3h-1.9v-5.2
			c0-2.1-0.6-3.5-2.3-3.5c-1.1,0-2,0.7-2.5,1.4v7.4H116.7z"/>
		<path fill="#F9FAFB" d="M127,583.7h1.8v-2.6h1.9v2.6h3.3v1.5h-3.3v5.1c0,1.2,0.3,2.1,1.5,2.1c0.6,0,1.1-0.1,1.6-0.3l0.2,1.4
			c-0.4,0.2-1.4,0.4-2.2,0.4c-2.2,0-3-1.5-3-3.5v-5.2H127V583.7z"/>
		<path fill="#F9FAFB" d="M144.1,587.6c0,0.6-0.1,1.1-0.2,1.7h-6.4c0.1,1.9,0.9,3.2,3.3,3.2c1.1,0,2.1-0.3,2.9-0.6l0.3,1.4
			c-0.9,0.4-2.1,0.7-3.4,0.7c-3.4,0-5-2.3-5-5.2c0-2.9,1.7-5.3,4.6-5.3C142.8,583.5,144.1,585.3,144.1,587.6z M137.5,587.8h4.7
			c0.2-1.6-0.4-2.9-2.1-2.9C138.5,584.9,137.6,586.2,137.5,587.8z"/>
		<path fill="#F9FAFB" d="M158.7,587.6c0,0.6-0.1,1.1-0.2,1.7h-6.4c0.1,1.9,0.9,3.2,3.3,3.2c1.1,0,2.1-0.3,2.9-0.6l0.3,1.4
			c-0.9,0.4-2.1,0.7-3.4,0.7c-3.4,0-5-2.3-5-5.2c0-2.9,1.7-5.3,4.6-5.3C157.4,583.5,158.7,585.3,158.7,587.6z M152.2,587.8h4.7
			c0.2-1.6-0.4-2.9-2.1-2.9C153.2,584.9,152.3,586.2,152.2,587.8z"/>
		<path fill="#F9FAFB" d="M162.9,591.2c0,0.8,0.3,1.3,1.1,1.3c0.3,0,0.6,0,0.9-0.1l0.1,1.4c-0.5,0.1-1,0.2-1.5,0.2
			c-1.8,0-2.5-1.2-2.5-2.7V579h1.9V591.2z"/>
		<path fill="#F9FAFB" d="M179.7,586.6c0.1,0.6,0.2,1.2,0.2,1.8v5.3H178v-5.2c0-2.1-0.5-3.5-2.2-3.5c-1.1,0-2,0.7-2.5,1.4v7.4h-1.9
			v-10.1h1.8v1.5c0.8-1.1,1.8-1.7,3.2-1.7c1.4,0,2.4,0.7,2.9,2c0.8-1.3,2-2,3.6-2c2.5,0,3.5,2.3,3.5,5v5.3h-1.9v-5.2
			c0-2.1-0.5-3.5-2.2-3.5C181.3,585,180.4,585.7,179.7,586.6z"/>
		<path fill="#F9FAFB" d="M197.3,587.6c0,0.6-0.1,1.1-0.2,1.7h-6.4c0.1,1.9,0.9,3.2,3.3,3.2c1.1,0,2.1-0.3,2.9-0.6l0.3,1.4
			c-0.9,0.4-2.1,0.7-3.4,0.7c-3.4,0-5-2.3-5-5.2c0-2.9,1.7-5.3,4.6-5.3C196,583.5,197.3,585.3,197.3,587.6z M190.7,587.8h4.7
			c0.2-1.6-0.4-2.9-2.1-2.9C191.7,584.9,190.8,586.2,190.7,587.8z"/>
		<path fill="#F9FAFB" d="M202.1,594c-1,0-2.4-0.3-3.1-0.6l0.3-1.5c0.7,0.3,1.7,0.6,2.8,0.6c1.2,0,2.1-0.4,2.1-1.4
			c0-0.9-0.9-1.3-2-1.8c-1.4-0.5-3.1-1.3-3.1-3.1c0-2,1.7-2.8,3.6-2.8c1.1,0,2.1,0.3,2.9,0.7l-0.3,1.4c-0.8-0.4-1.7-0.6-2.6-0.6
			c-1,0-1.7,0.3-1.7,1.2c0,0.8,1.1,1.2,1.9,1.6c0.8,0.4,3.2,1.1,3.2,3.2C206.2,592.8,204.4,594,202.1,594z"/>
		<path fill="#F9FAFB" d="M221.3,593.8h-1.8v-1.4c-0.8,0.9-1.8,1.6-3.3,1.6c-2.3,0-3.9-2.1-3.9-5.2c0-3.4,2.2-5.3,5.1-5.3
			c0.8,0,1.4,0.1,2,0.3V579h1.9V593.8z M219.4,591.1v-5.8c-0.5-0.2-1.1-0.3-1.8-0.3c-2.1,0-3.4,1.4-3.4,3.8c0,2.2,0.8,3.7,2.6,3.7
			C217.9,592.5,218.8,591.8,219.4,591.1z"/>
		<path fill="#F9FAFB" d="M232.2,587.6c0,0.6-0.1,1.1-0.2,1.7h-6.4c0.1,1.9,0.9,3.2,3.3,3.2c1.1,0,2.1-0.3,2.9-0.6l0.3,1.4
			c-0.9,0.4-2.1,0.7-3.4,0.7c-3.4,0-5-2.3-5-5.2c0-2.9,1.7-5.3,4.6-5.3C230.9,583.5,232.2,585.3,232.2,587.6z M225.6,587.8h4.7
			c0.2-1.6-0.4-2.9-2.1-2.9C226.6,584.9,225.7,586.2,225.6,587.8z"/>
		<path fill="#F9FAFB" d="M243.2,594c-3.1,0-4.9-2.4-4.9-5.2c0-2.8,1.8-5.2,4.9-5.2s4.9,2.4,4.9,5.2
			C248.1,591.6,246.3,594,243.2,594z M243.2,585c-2,0-3,1.7-3,3.8s1,3.8,3,3.8s3-1.7,3-3.8S245.3,585,243.2,585z"/>
		<path fill="#F9FAFB" d="M257.6,584l-0.3,1.4c-0.7-0.3-1.6-0.5-2.4-0.5c-2.3,0-3.3,1.5-3.3,3.7c0,2.2,1,3.7,3.3,3.7
			c0.8,0,1.7-0.2,2.4-0.5l0.3,1.4c-0.7,0.3-1.9,0.5-2.8,0.5c-3.4,0-5-2.4-5-5.2s1.7-5.2,5-5.2C255.9,583.5,256.9,583.7,257.6,584z"
			/>
		<path fill="#F9FAFB" d="M258.8,583.7h1.8v-2.6h1.9v2.6h3.3v1.5h-3.3v5.1c0,1.2,0.3,2.1,1.5,2.1c0.6,0,1.1-0.1,1.6-0.3l0.2,1.4
			c-0.4,0.2-1.4,0.4-2.2,0.4c-2.2,0-3-1.5-3-3.5v-5.2h-1.8V583.7z"/>
		<path fill="#F9FAFB" d="M276.3,583.7v10.1h-1.8v-1.5c-0.7,1-1.8,1.7-3.2,1.7c-2.5,0-3.5-2.3-3.5-5v-5.3h1.9v5.2
			c0,2.1,0.5,3.5,2.2,3.5c1.1,0,2-0.7,2.5-1.4v-7.4H276.3z"/>
		<path fill="#F9FAFB" d="M279.5,579h1.9v5.7c0.6-0.7,1.6-1.1,2.9-1.1c2.6,0,4.2,2.2,4.2,5.2c0,2.9-1.9,5.3-5.3,5.3
			c-1.3,0-2.6-0.3-3.7-0.7V579z M281.4,585.9v6.2c0.5,0.2,1,0.3,1.8,0.3c2.3,0,3.4-1.5,3.4-3.8c0-2-0.9-3.7-2.8-3.7
			C282.7,585,281.9,585.4,281.4,585.9z"/>
		<path fill="#F9FAFB" d="M296.5,585.3H296c-1.5,0-2.5,0.5-3.3,1.8v6.7h-1.9v-10.1h1.8v1.9c0.6-1.3,1.5-2.1,3.1-2.1
			c0.3,0,0.6,0,0.8,0.1V585.3z"/>
		<path fill="#F9FAFB" d="M306.2,587.6c0,0.6-0.1,1.1-0.2,1.7h-6.4c0.1,1.9,0.9,3.2,3.3,3.2c1.1,0,2.1-0.3,2.9-0.6l0.3,1.4
			c-0.9,0.4-2.1,0.7-3.4,0.7c-3.4,0-5-2.3-5-5.2c0-2.9,1.7-5.3,4.6-5.3C304.8,583.5,306.2,585.3,306.2,587.6z M299.6,587.8h4.7
			c0.2-1.6-0.4-2.9-2.1-2.9C300.6,584.9,299.7,586.2,299.6,587.8z"/>
		<path fill="#F9FAFB" d="M309.7,593.9c-0.7,0-1.2-0.5-1.2-1.2s0.5-1.2,1.2-1.2c0.7,0,1.2,0.5,1.2,1.2S310.4,593.9,309.7,593.9z"/>
	</g>
	<g>
		<path fill="#F9FAFB" d="M80.6,155.9h1.8v-2.6h1.9v2.6h3.3v1.5h-3.3v5.1c0,1.2,0.3,2.1,1.5,2.1c0.6,0,1.1-0.1,1.6-0.3l0.2,1.4
			c-0.4,0.2-1.4,0.4-2.2,0.4c-2.2,0-3-1.5-3-3.5v-5.2h-1.8V155.9z"/>
		<path fill="#F9FAFB" d="M97.6,159.7c0,0.6-0.1,1.1-0.2,1.7H91c0.1,1.9,0.9,3.2,3.3,3.2c1.1,0,2.1-0.3,2.9-0.6l0.3,1.4
			c-0.9,0.4-2.1,0.7-3.4,0.7c-3.4,0-5-2.3-5-5.2c0-2.9,1.7-5.3,4.6-5.3C96.3,155.7,97.6,157.4,97.6,159.7z M91,160h4.7
			c0.2-1.6-0.4-2.9-2.1-2.9C92,157.1,91.1,158.4,91,160z"/>
		<path fill="#F9FAFB" d="M105.4,151.7c0.7,0,1.2,0.5,1.2,1.2s-0.5,1.2-1.2,1.2c-0.7,0-1.2-0.5-1.2-1.2S104.7,151.7,105.4,151.7z
			 M104.5,165.9v-10.1h1.9v10.1H104.5z"/>
		<path fill="#F9FAFB" d="M109.5,165.9v-10.1h1.8v1.5c0.8-1.1,1.8-1.7,3.2-1.7c2.5,0,3.6,2.3,3.6,5v5.3h-1.9v-5.2
			c0-2.1-0.6-3.5-2.3-3.5c-1.1,0-2,0.7-2.5,1.4v7.4H109.5z"/>
		<path fill="#F9FAFB" d="M127.2,155.9h1.9l-3.6,10.1h-2l-3.6-10.1h1.9l2.7,8.2L127.2,155.9z"/>
		<path fill="#F9FAFB" d="M131.9,151.7c0.7,0,1.2,0.5,1.2,1.2s-0.5,1.2-1.2,1.2c-0.7,0-1.2-0.5-1.2-1.2S131.2,151.7,131.9,151.7z
			 M131,165.9v-10.1h1.9v10.1H131z"/>
		<path fill="#F9FAFB" d="M134.9,155.9h1.8v-2.6h1.9v2.6h3.3v1.5h-3.3v5.1c0,1.2,0.3,2.1,1.5,2.1c0.6,0,1.1-0.1,1.6-0.3l0.2,1.4
			c-0.4,0.2-1.4,0.4-2.2,0.4c-2.2,0-3-1.5-3-3.5v-5.2h-1.8V155.9z"/>
		<path fill="#F9FAFB" d="M149.9,164.7c-0.6,0.7-1.8,1.5-3.4,1.5c-1.7,0-2.9-1.1-2.9-2.8c0-1.8,1.4-2.8,3.6-2.9
			c0.9-0.1,1.8-0.1,2.6-0.1v-0.4c0-1.7-0.7-2.7-2.4-2.7c-1,0-1.8,0.3-2.7,0.7l-0.4-1.4c1.1-0.7,2.1-0.9,3.4-0.9
			c2.4,0,3.9,1.5,3.9,4.2v6.1h-1.8V164.7z M149.8,163.5v-1.9c-0.8,0.1-1.5,0.1-2.3,0.2c-1.2,0.1-2.1,0.5-2.1,1.6
			c0,0.9,0.6,1.4,1.6,1.4C148.2,164.8,149.1,164.2,149.8,163.5z"/>
		<path fill="#F9FAFB" d="M164.9,164.7c-0.6,0.7-1.8,1.5-3.4,1.5c-1.7,0-2.9-1.1-2.9-2.8c0-1.8,1.4-2.8,3.6-2.9
			c0.9-0.1,1.8-0.1,2.6-0.1v-0.4c0-1.7-0.7-2.7-2.4-2.7c-1,0-1.8,0.3-2.7,0.7l-0.4-1.4c1.1-0.7,2.1-0.9,3.4-0.9
			c2.4,0,3.9,1.5,3.9,4.2v6.1h-1.8V164.7z M164.9,163.5v-1.9c-0.8,0.1-1.5,0.1-2.3,0.2c-1.2,0.1-2.1,0.5-2.1,1.6
			c0,0.9,0.6,1.4,1.6,1.4C163.2,164.8,164.2,164.2,164.9,163.5z"/>
		<path fill="#F9FAFB" d="M174.3,155.9h1.8v1.4c0.7-0.9,1.6-1.6,3.2-1.6c2.4,0,4,2.1,4,5.2c0,3.4-2.2,5.3-5.1,5.3
			c-0.8,0-1.4-0.1-2-0.3v4.4h-1.9V155.9z M176.2,158.6v5.8c0.5,0.2,1.1,0.3,1.8,0.3c2.1,0,3.4-1.4,3.4-3.8c0-2.1-0.8-3.6-2.6-3.6
			C177.5,157.2,176.7,157.9,176.2,158.6z"/>
		<path fill="#F9FAFB" d="M191.4,164.7c-0.6,0.7-1.8,1.5-3.4,1.5c-1.7,0-2.9-1.1-2.9-2.8c0-1.8,1.4-2.8,3.6-2.9
			c0.9-0.1,1.8-0.1,2.6-0.1v-0.4c0-1.7-0.7-2.7-2.4-2.7c-1,0-1.8,0.3-2.7,0.7l-0.4-1.4c1.1-0.7,2.1-0.9,3.4-0.9
			c2.4,0,3.9,1.5,3.9,4.2v6.1h-1.8V164.7z M191.3,163.5v-1.9c-0.8,0.1-1.5,0.1-2.3,0.2c-1.2,0.1-2.1,0.5-2.1,1.6
			c0,0.9,0.6,1.4,1.6,1.4C189.6,164.8,190.6,164.2,191.3,163.5z"/>
		<path fill="#F9FAFB" d="M201.9,157.4h-0.5c-1.5,0-2.5,0.5-3.3,1.8v6.7h-1.9v-10.1h1.8v1.9c0.6-1.3,1.5-2.1,3.1-2.1
			c0.3,0,0.6,0,0.8,0.1V157.4z"/>
		<path fill="#F9FAFB" d="M202.6,155.9h1.8v-2.6h1.9v2.6h3.3v1.5h-3.3v5.1c0,1.2,0.3,2.1,1.5,2.1c0.6,0,1.1-0.1,1.6-0.3l0.2,1.4
			c-0.4,0.2-1.4,0.4-2.2,0.4c-2.2,0-3-1.5-3-3.5v-5.2h-1.8V155.9z"/>
		<path fill="#F9FAFB" d="M212.9,151.7c0.7,0,1.2,0.5,1.2,1.2s-0.5,1.2-1.2,1.2c-0.7,0-1.2-0.5-1.2-1.2S212.2,151.7,212.9,151.7z
			 M212,165.9v-10.1h1.9v10.1H212z"/>
		<path fill="#F9FAFB" d="M224.1,156.2l-0.3,1.4c-0.7-0.3-1.6-0.5-2.4-0.5c-2.3,0-3.3,1.5-3.3,3.7s1,3.7,3.3,3.7
			c0.8,0,1.7-0.2,2.4-0.5l0.3,1.4c-0.7,0.3-1.9,0.5-2.8,0.5c-3.4,0-5-2.4-5-5.2s1.7-5.2,5-5.2C222.3,155.7,223.4,155.9,224.1,156.2z
			"/>
		<path fill="#F9FAFB" d="M227.3,151.7c0.7,0,1.2,0.5,1.2,1.2s-0.5,1.2-1.2,1.2c-0.7,0-1.2-0.5-1.2-1.2S226.6,151.7,227.3,151.7z
			 M226.4,165.9v-10.1h1.9v10.1H226.4z"/>
		<path fill="#F9FAFB" d="M231.4,155.9h1.8v1.4c0.7-0.9,1.6-1.6,3.2-1.6c2.4,0,4,2.1,4,5.2c0,3.4-2.2,5.3-5.1,5.3
			c-0.8,0-1.4-0.1-2-0.3v4.4h-1.9V155.9z M233.3,158.6v5.8c0.5,0.2,1.1,0.3,1.8,0.3c2.1,0,3.4-1.4,3.4-3.8c0-2.1-0.8-3.6-2.6-3.6
			C234.7,157.2,233.8,157.9,233.3,158.6z"/>
		<path fill="#F9FAFB" d="M248.5,164.7c-0.6,0.7-1.8,1.5-3.4,1.5c-1.7,0-2.9-1.1-2.9-2.8c0-1.8,1.4-2.8,3.6-2.9
			c0.9-0.1,1.8-0.1,2.6-0.1v-0.4c0-1.7-0.7-2.7-2.4-2.7c-1,0-1.8,0.3-2.7,0.7l-0.4-1.4c1.1-0.7,2.1-0.9,3.4-0.9
			c2.4,0,3.9,1.5,3.9,4.2v6.1h-1.8V164.7z M248.5,163.5v-1.9c-0.8,0.1-1.5,0.1-2.3,0.2c-1.2,0.1-2.1,0.5-2.1,1.6
			c0,0.9,0.6,1.4,1.6,1.4C246.8,164.8,247.8,164.2,248.5,163.5z"/>
		<path fill="#F9FAFB" d="M259,157.4h-0.5c-1.5,0-2.5,0.5-3.3,1.8v6.7h-1.9v-10.1h1.8v1.9c0.6-1.3,1.5-2.1,3.1-2.1
			c0.3,0,0.6,0,0.8,0.1V157.4z"/>
		<path fill="#F9FAFB" d="M273.2,159.7c0,0.6-0.1,1.1-0.2,1.7h-6.4c0.1,1.9,0.9,3.2,3.3,3.2c1.1,0,2.1-0.3,2.9-0.6l0.3,1.4
			c-0.9,0.4-2.1,0.7-3.4,0.7c-3.4,0-5-2.3-5-5.2c0-2.9,1.7-5.3,4.6-5.3C271.9,155.7,273.2,157.4,273.2,159.7z M266.7,160h4.7
			c0.2-1.6-0.4-2.9-2.1-2.9C267.7,157.1,266.8,158.4,266.7,160z"/>
		<path fill="#F9FAFB" d="M275.6,165.9v-10.1h1.8v1.5c0.8-1.1,1.8-1.7,3.2-1.7c2.5,0,3.6,2.3,3.6,5v5.3h-1.9v-5.2
			c0-2.1-0.6-3.5-2.3-3.5c-1.1,0-2,0.7-2.5,1.4v7.4H275.6z"/>
		<path fill="#F9FAFB" d="M293.6,163.3c0,0.8,0.3,1.3,1.1,1.3c0.3,0,0.6,0,0.9-0.1l0.1,1.4c-0.5,0.1-1,0.2-1.5,0.2
			c-1.8,0-2.5-1.2-2.5-2.7v-12.3h1.9V163.3z"/>
		<path fill="#F9FAFB" d="M303.2,164.7c-0.6,0.7-1.8,1.5-3.4,1.5c-1.7,0-2.9-1.1-2.9-2.8c0-1.8,1.4-2.8,3.6-2.9
			c0.9-0.1,1.8-0.1,2.6-0.1v-0.4c0-1.7-0.7-2.7-2.4-2.7c-1,0-1.8,0.3-2.7,0.7l-0.4-1.4c1.1-0.7,2.1-0.9,3.4-0.9
			c2.4,0,3.9,1.5,3.9,4.2v6.1h-1.8V164.7z M303.2,163.5v-1.9c-0.8,0.1-1.5,0.1-2.3,0.2c-1.2,0.1-2.1,0.5-2.1,1.6
			c0,0.9,0.6,1.4,1.6,1.4C301.5,164.8,302.5,164.2,303.2,163.5z"/>
	</g>
	<polygon fill="#FFFFFF" points="193.3,195.2 193.2,195.2 193.3,195.2 193.3,195.2 	"/>
	<g>
		<path fill="#FFFFFF" d="M124.9,365.7v4.3h-11.3v34.1h-5.3V370H97v-4.3H124.9z"/>
		<path fill="#FFFFFF" d="M136.1,404.1h-5.3v-38.4h10c8.2,0,14.8,3.7,14.8,10.8c0,5.3-3.6,9.4-9.7,11.2l13.5,16.4h-6.5l-12.5-15.4
			c-0.8,0-3.3,0.1-4.3,0.1V404.1z M140.7,369.9h-4.6v14.5h2.7c6.5,0,11.5-2.4,11.5-7.8C150.3,371.8,145.8,369.9,140.7,369.9z"/>
		<path fill="#FFFFFF" d="M197.7,404.1h-5.4l-3.5-9.3h-17.9l-3.5,9.3h-5.4l15.3-38.4h5.2L197.7,404.1z M172.4,390.5h14.8l-7.4-20
			L172.4,390.5z"/>
		<path fill="#FFFFFF" d="M223.7,365.7h5.3l-13.8,38.4h-5.5l-13.8-38.4h5.3l11.2,32.1L223.7,365.7z"/>
		<path fill="#FFFFFF" d="M234.2,365.7h21.4v4.3h-16.1v12.3h15.4v4.3h-15.4v13.1h16.3v4.3h-21.6V365.7z"/>
		<path fill="#FFFFFF" d="M272.2,404.8c-3.7,0-7.8-0.8-11-2.3l1-4.2c2.8,1.3,6.4,2.2,9.9,2.2c5,0,8.4-2.2,8.4-6.2
			c0-4.4-3.8-6.1-8.4-8.2c-5.2-2.5-10-5.2-10-11c0-6.7,5-10.1,12.2-10.1c3.7,0,7.4,0.9,10,2.3l-1,4.2c-2.5-1.3-5.8-2.2-9-2.2
			c-4.7,0-7,1.8-7,5.4c0,3.3,1.7,4.4,6.7,6.9c4.9,2.5,11.8,5.5,11.8,12.5C285.7,400.7,279.7,404.8,272.2,404.8z"/>
		<path fill="#FFFFFF" d="M298.1,404.1h-5.3v-38.4h5.3V404.1z M293.2,362l4.8-6.6h6.1l-6.6,6.6H293.2z"/>
		<path fill="#FFFFFF" d="M340.3,404.1h-5.4l-3.5-9.3h-17.9l-3.5,9.3h-5.4l15.3-38.4h5.2L340.3,404.1z M315.1,390.5h14.8l-7.4-20
			L315.1,390.5z"/>
	</g>
	<g>
		<path fill="#FFFFFF" d="M99.6,417.1h18v3.6h-13.5v10.3H117v3.6h-12.9v11h13.7v3.6H99.6V417.1z"/>
		<path fill="#FFFFFF" d="M124.3,417.1h9c11.1,0,18.4,6.8,18.4,16.1s-7.3,16.1-18.4,16.1h-9V417.1z M133.3,445.8
			c7.8,0,14-4.6,14-12.6c0-7.9-6.2-12.6-14-12.6h-4.5v25.1H133.3z"/>
		<path fill="#FFFFFF" d="M178.1,417.1h4.5v20.8c0,6.8-4.4,12-12.6,12c-8.2,0-12.6-5.2-12.6-12v-20.8h4.5v21c0,4.8,2.8,8.2,8.2,8.2
			s8.2-3.3,8.2-8.2V417.1z"/>
		<path fill="#FFFFFF" d="M213.6,418l-0.7,3.4c-2.2-0.8-4.8-1.3-7.3-1.3c-8.1,0-12.8,4.7-12.8,13.1s4.7,13.1,12.8,13.1
			c2.5,0,5.1-0.5,7.3-1.3l0.7,3.4c-2.1,0.9-5.6,1.5-8.5,1.5c-10.6,0-16.8-7.1-16.8-16.7c0-9.6,6.2-16.7,16.8-16.7
			C208,416.5,211.5,417.1,213.6,418z"/>
		<path fill="#FFFFFF" d="M247.2,449.4h-4.6l-3-7.8h-15.1l-2.9,7.8h-4.6l12.8-32.3h4.4L247.2,449.4z M226,438h12.4l-6.2-16.8
			L226,438z"/>
		<path fill="#FFFFFF" d="M270,417.1v3.6h-9.5v28.6H256v-28.6h-9.5v-3.6H270z"/>
		<path fill="#FFFFFF" d="M279.6,449.4h-4.5v-32.3h4.5V449.4z"/>
		<path fill="#FFFFFF" d="M307.6,417.1h4.5l-11.6,32.3h-4.7l-11.6-32.3h4.5l9.5,27L307.6,417.1z"/>
		<path fill="#FFFFFF" d="M340.6,449.4h-4.6l-3-7.8H318l-2.9,7.8h-4.6l12.8-32.3h4.4L340.6,449.4z M319.4,438h12.4l-6.2-16.8
			L319.4,438z"/>
	</g>
	<g>
		<path fill="#4E4E4E" d="M44.8,243.4c32.7,121.7,35.7,219.1,31.4,290.2C97.6,433.2,94.4,354.7,73,273.4
			C69.2,258.8,63.5,240.7,44.8,243.4"/>
		<path fill="none" stroke="#FFFFFF" stroke-width="2.85" stroke-miterlimit="10" d="M44.8,243.4c32.7,121.7,35.7,219.1,31.4,290.2
			C97.6,433.2,94.4,354.7,73,273.4C69.2,258.8,63.5,240.7,44.8,243.4z"/>
		<path fill="#969696" d="M341.9,346.3c-37-7-139-4.6-218.1,5.6c-13,1.7-31.6,3.8-35.4-8.1c5.8,3.4,15.9,4.8,36.8,0.8
			c62-11.6,179.4-19.1,206.5-16.8c-8.9-45.8-16.2-79.1-32.2-124.2c-37.7-7.5-131.6,10.5-230.9,35.7c3.7-12.7,186-57.8,241.2-52.4
			C323.1,221.1,334.9,290.7,341.9,346.3"/>
		<path fill="none" stroke="#FFFFFF" stroke-width="2.85" stroke-miterlimit="10" d="M341.9,346.3c-37-7-139-4.6-218.1,5.6
			c-13,1.7-31.6,3.8-35.4-8.1c5.8,3.4,15.9,4.8,36.8,0.8c62-11.6,179.4-19.1,206.5-16.8c-8.9-45.8-16.2-79.1-32.2-124.2
			c-37.7-7.5-131.6,10.5-230.9,35.7c3.7-12.7,186-57.8,241.2-52.4C323.1,221.1,334.9,290.7,341.9,346.3z"/>
		<path fill="#EEC030" d="M109.2,287.8c62.8-12.8,165.1-23.4,202.3-18.6c-11.4-55-18.5-56.2-45.2-55.1
			c-73.3,3.3-124.6,20.2-190.1,33.2C85.4,283.9,87.3,292.3,109.2,287.8"/>
		<path fill="#CC3331" d="M131,334.5c50.9-9.6,148.2-18.3,191.4-15.3c-1.8-19.4-14.2-21.3-42.6-20c-60,2.8-127.7,11.5-188.7,23.5
			C95.1,345.1,112,338.1,131,334.5"/>
		<path fill="#435FA8" d="M125.2,310.3c52.2-9.1,155.6-21.6,191.8-16.1c-1.6-19.8-12.5-21.3-42.6-20c-60,2.6-125,10.9-185.9,23
			C89.6,320.9,103.1,314.2,125.2,310.3"/>
		<path fill="#FFFFFF" d="M341.9,493.8c0-0.5-0.2-0.9-0.8-1.2c-0.5-0.3-1.2-0.6-2.3-0.6c-1.8,0-3.6,0.9-4.2,2.8
			c-0.3-1.3-0.8-1.8-1.1-2c-0.5-0.4-1.2-0.7-1.7-0.7c-0.7,0-1.3,0.4-1.3,1.2c0,0.4,0.2,0.7,0.5,0.9c0.6,0.3,1,0.7,1,2v4.5h0v5.9
			c0,0.9,0.6,1.5,1.4,1.5c0.8,0,1.4-0.5,1.4-1.5v-5.9v-0.7v-1c0-2.6,0.9-4.5,3.3-4.5c0.6,0,1.2,0.2,1.8,0.4c0.2,0.1,0.5,0.2,0.7,0.2
			C341.4,495.1,341.9,494.5,341.9,493.8 M327.7,488.2c0-1-0.8-1.8-1.8-1.8c-1,0-1.8,0.8-1.8,1.8c0,1,0.8,1.8,1.8,1.8
			C326.9,490,327.7,489.2,327.7,488.2 M317.8,503.4v-8.6c0-0.1,0.1-0.2,0.2-0.2h2c0.7,0,1.2-0.5,1.2-1.1c0-0.6-0.4-1.1-1.2-1.1h-2
			c-0.1,0-0.2-0.1-0.2-0.2v-3.4c0-0.9-0.6-1.5-1.4-1.5c-0.8,0-1.4,0.6-1.4,1.5v3.4c0,0.1-0.1,0.2-0.2,0.2H314
			c-0.7,0-1.2,0.5-1.2,1.1c0,0.6,0.4,1.1,1.2,1.1h0.9c0.1,0,0.2,0.1,0.2,0.2v8.7c0,3.2,1.2,4.6,4.3,4.6h0.3c1,0,1.5-0.5,1.5-1.3
			c0-0.7-0.5-1.3-1.3-1.3C318.2,505.6,317.8,505.1,317.8,503.4 M311.6,493.8c0-0.5-0.2-0.9-0.8-1.2c-0.5-0.3-1.2-0.6-2.3-0.6
			c-1.8,0-3.5,0.9-4.2,2.8c-0.3-1.3-0.8-1.8-1.1-2c-0.5-0.4-1.2-0.7-1.7-0.7c-0.7,0-1.3,0.4-1.3,1.2c0,0.4,0.2,0.7,0.5,0.9
			c0.6,0.3,1,0.7,1,2v4.5h0v5.9c0,0.9,0.6,1.5,1.4,1.5s1.4-0.5,1.4-1.5v-5.9v-0.7v-1c0-2.6,0.9-4.5,3.3-4.5c0.6,0,1.2,0.2,1.8,0.4
			c0.2,0.1,0.5,0.2,0.7,0.2C311,495.1,311.6,494.5,311.6,493.8 M299.1,506.8c0-0.3-0.1-0.6-0.2-0.8l-0.5-1c-0.2-0.5-0.3-0.8-0.3-1.6
			v-5.6c0-3.8-1.9-5.8-6.1-5.8c-2.1,0-3.8,0.5-4.7,1.2c-0.5,0.3-0.6,0.7-0.6,1.1c0,0.7,0.5,1.2,1.2,1.2c0.2,0,0.5-0.1,0.8-0.2
			c0.7-0.4,2-0.8,3.2-0.8c2.7,0,3.7,1.2,3.7,3.4v0.7c0,0.1-0.1,0.2-0.2,0.2h-3.5c-3.9,0-6.1,1.6-6.1,4.8c0,2.9,2,4.7,5.5,4.7
			c2.3,0,3.7-0.7,4.8-1.8h0l0.6,1c0.3,0.5,0.7,0.7,1.2,0.7C298.5,508.1,299.1,507.5,299.1,506.8 M295.4,502.9c0,1.9-1.5,3-3.9,3
			c-2.1,0-3.2-0.8-3.2-2.4c0-1.8,1.2-2.5,3.9-2.5h3.1c0.1,0,0.2,0.1,0.2,0.2V502.9z M282.9,504.4c0.4-1.2,0.5-2.5,0.5-4.2
			c0-1.8-0.2-3-0.5-4.2c-0.8-2.4-2.7-3.9-5.3-3.9c-2,0-3.8,0.7-4.6,2.6c-0.3-1.1-0.8-1.5-1-1.7c-0.5-0.4-1.2-0.7-1.7-0.7
			c-0.7,0-1.3,0.4-1.3,1.2c0,0.4,0.2,0.7,0.5,0.9c0.6,0.3,1,0.7,1,2v4.5h0v11.7c0,0.9,0.6,1.5,1.4,1.5c0.8,0,1.4-0.6,1.4-1.5v-6.3h0
			c0.7,1.2,2.1,2.1,4.4,2.1C280.2,508.3,282.1,506.8,282.9,504.4 M280.6,500.2c0,1.3-0.1,2.3-0.4,3.1c-0.5,1.6-1.7,2.4-3.4,2.4
			c-1.8,0-2.9-0.9-3.4-2.4c-0.3-0.8-0.4-1.8-0.4-3.1c0-1.4,0.1-2.3,0.4-3.2c0.5-1.6,1.7-2.4,3.4-2.4c1.7,0,2.9,0.9,3.4,2.4
			C280.6,497.8,280.6,498.8,280.6,500.2 M266.6,506.6v-8.7c0-3.6-2-5.8-5.5-5.8c-2.4,0-4,1-5,2.4h0c-0.8-1.5-2.4-2.4-4.5-2.4
			c-2,0-3.7,0.9-4.6,2.5c-0.3-1.1-0.8-1.5-1-1.7c-0.5-0.4-1.2-0.6-1.7-0.6c-0.7,0-1.3,0.4-1.3,1.2c0,0.4,0.2,0.7,0.5,0.9
			c0.6,0.3,1,0.7,1,2v8h0v2.3c0,0.9,0.6,1.5,1.4,1.5c0.8,0,1.4-0.6,1.4-1.5v-2.3v-2.1v-4.4c0.4-2.4,1.9-3.2,3.6-3.2
			c2.3,0,3.5,1.5,3.5,4v8.1c0,0.9,0.6,1.5,1.4,1.5c0.8,0,1.4-0.6,1.4-1.5v-8.3c0-2.3,1.5-3.8,3.6-3.8c2.3,0,3.5,1.5,3.5,4v8.1
			c0,0.9,0.6,1.5,1.4,1.5C266.1,508.1,266.6,507.5,266.6,506.6 M240.9,504.1c0.4-1.1,0.5-2.1,0.5-4c0-1.8-0.2-2.8-0.5-3.9
			c-0.8-2.7-3.1-4.2-6.1-4.2s-5.3,1.5-6.1,4.2c-0.4,1.1-0.5,2.1-0.5,3.9c0,1.8,0.2,2.9,0.5,4c0.8,2.6,3.1,4.2,6.1,4.2
			S240.1,506.7,240.9,504.1 M238.7,500.1c0,1.5-0.1,2.3-0.4,3.2c-0.5,1.6-1.8,2.4-3.5,2.4c-1.7,0-3-0.9-3.5-2.4
			c-0.3-0.8-0.4-1.7-0.4-3.2s0.1-2.3,0.4-3.1c0.5-1.6,1.8-2.4,3.5-2.4c1.7,0,3,0.9,3.5,2.4C238.6,497.8,238.7,498.7,238.7,500.1
			 M217.4,503.3c-0.3-0.8-0.4-1.8-0.4-3.2c0-1.4,0.1-2.3,0.4-3.1c0.5-1.6,1.8-2.4,3.5-2.4c1.4,0,2.2,0.5,2.9,1.3
			c0.4,0.4,0.7,0.6,1.2,0.6c0.7,0,1.2-0.5,1.2-1.2c0-0.4-0.1-0.6-0.4-1c-1-1.3-2.6-2.3-5-2.3c-3,0-5.2,1.5-6.1,4.2
			c-0.3,0.9-0.5,2.2-0.5,3.9c0,1.8,0.2,3,0.5,4c0.9,2.7,3.1,4.2,6.1,4.2c2.3,0,4-1,5-2.3c0.3-0.4,0.4-0.6,0.4-1
			c0-0.7-0.5-1.2-1.2-1.2c-0.5,0-0.8,0.3-1.2,0.7c-0.7,0.8-1.6,1.3-2.9,1.3C219.2,505.8,218,504.9,217.4,503.3 M324.6,493.7v12.9
			c0,0.9,0.6,1.5,1.4,1.5c0.8,0,1.4-0.5,1.4-1.5v-12.9c0-0.9-0.6-1.5-1.4-1.5C325.1,492.2,324.6,492.8,324.6,493.7"/>
		<path fill="#FFFFFF" d="M250.7,483.9l-2.3,0V482v-2.9c0-0.9-1.6-0.6-1.6-0.6v5.9c0,0.6,0.5,1,2.2,0.9
			C250.8,485,250.8,484.4,250.7,483.9 M214.5,484.8c0,0,0.1-1.2,1.2-1c1.2,0.2,2.7,0.4,2.7-0.4c0-0.9-3.6-0.8-3.6-3.1
			c0-3,5.1-1.5,5.1-1.5s0,1.2-1,1.2c-0.8-0.1-2.4-0.3-2.4,0.3c0,0.8,3.7,0.9,3.6,3C219.9,486.7,214.5,484.8,214.5,484.8
			 M231.2,478.5v4.1l-2.2-3.5c-0.2-0.4-0.6-0.5-0.9-0.6c-0.2,0-0.3,0-0.5,0c-0.3,0-0.6,0-0.6,0v6.1c0,0.9,1.6,0.6,1.6,0.6v-4.1
			l2.2,3.5c0.2,0.4,0.6,0.5,0.9,0.6c0.2,0,0.3,0,0.5,0c0.3,0,0.6,0,0.6,0v-6.1C232.8,478.2,231.2,478.5,231.2,478.5 M261.8,478.5
			v4.1l-2.2-3.5c-0.2-0.4-0.6-0.5-0.9-0.6c-0.2,0-0.3,0-0.5,0c-0.3,0-0.6,0-0.6,0v6.1c0,0.9,1.6,0.6,1.6,0.6v-4.1l2.2,3.5
			c0.2,0.4,0.6,0.5,0.9,0.6c0.2,0,0.3,0,0.5,0c0.3,0,0.6,0,0.6,0v-6.1C263.4,478.2,261.8,478.5,261.8,478.5 M224.2,478.9
			c-0.3-0.8-1.7-0.4-1.7-0.4l-2.5,6.1c-0.3,0.9,1.5,0.6,1.5,0.6l0.5-1.3h2.4l0.3,0.8c0.4,0.9,2,0.6,2,0.6L224.2,478.9z M222.6,482.4
			l0.7-1.8l0.6,1.8H222.6z M270.4,485.2c0,0-1.6,0.4-2-0.6l-0.3-0.8h-2.4l-0.5,1.3c0,0-1.8,0.3-1.5-0.6l2.5-6.1c0,0,1.4-0.4,1.7,0.4
			L270.4,485.2z M267.7,482.4l-0.6-1.8l-0.7,1.8H267.7z M255,478.9c-0.3-0.8-1.7-0.4-1.7-0.4l-2.5,6.1c-0.3,0.9,1.5,0.6,1.5,0.6
			l0.5-1.3h2.4l0.3,0.8c0.4,0.9,2,0.6,2,0.6L255,478.9z M253.4,482.4l0.7-1.8l0.6,1.8H253.4z M238.5,478.5h-4.4
			c-1,0-0.8,1.5-0.8,1.5h1.8v4.7c0,0.9,1.6,0.6,1.6,0.6V480h1C238.8,480,238.5,478.5,238.5,478.5 M239.2,478.5v6.1
			c0,0.9,1.6,0.6,1.6,0.6v-6.1C240.8,478.2,239.2,478.5,239.2,478.5 M246.3,483.9h-2.7v-4.8c0-0.9-1.6-0.6-1.6-0.6v5.9
			c0,0.8,0.8,1,2.6,0.9C246.5,485,246.4,484.4,246.3,483.9"/>
		<path fill="#FFFFFF" d="M200.2,469.5c0.6,1,1.1,2.3,1.1,3.8v25.2c0,1.5-0.5,2.8-1.1,3.8c-1.9-0.2-3.8-0.8-5.5-1.8l-7-4.1v-21.2
			l7-4.1C196.4,470.3,198.3,469.7,200.2,469.5"/>
		<path fill="#FFFFFF" d="M169.3,485.9l-7-4.1c-1.8-1-3.2-2.4-4.3-3.9c0.6-1,1.4-2.1,2.8-2.8l21.8-12.6c1.3-0.8,2.7-1,3.9-1
			c0.8,1.7,1.2,3.7,1.2,5.7v0v8.1L169.3,485.9z"/>
		<path fill="#E0EBF6" d="M186.4,461.6c0.8,1.7,1.2,3.7,1.2,5.7v0v8.1l7-4c0.1,0,0.1-0.1,0.2-0.1c1-0.6,2.1-1,3.2-1.3c0,0,0,0,0,0
			c0,0,0,0,0,0c0,0,0,0,0,0c0,0,0,0,0,0c0,0,0,0,0,0c0,0,0,0,0,0c0,0,0,0,0,0c0,0,0,0,0,0c0,0,0,0,0,0c0,0,0,0,0,0c0,0,0,0,0,0
			c0,0,0,0,0,0c0,0,0,0,0,0c0,0,0,0,0,0c0,0,0,0,0,0c0,0,0,0,0,0c0,0,0,0,0,0c0,0,0,0,0,0c0,0,0,0,0,0c0,0,0,0,0,0c0,0,0,0,0,0
			c0,0,0,0,0,0c0,0,0,0,0,0c0,0,0,0,0,0c0,0,0,0,0,0h0c0.5-0.1,1.1-0.2,1.6-0.3c-1.2-1.9-2.8-2.9-2.8-2.9l-3.5-2.1l-3.5-2
			C190.3,462.6,188.7,461.6,186.4,461.6"/>
		<path fill="#FFFFFF" d="M198.6,469.8C198.6,469.8,198.6,469.8,198.6,469.8L198.6,469.8 M198.5,469.8
			C198.5,469.8,198.5,469.8,198.5,469.8C198.5,469.8,198.5,469.8,198.5,469.8 M198.5,469.8C198.5,469.8,198.5,469.8,198.5,469.8
			C198.5,469.8,198.5,469.8,198.5,469.8 M198.4,469.8C198.4,469.8,198.4,469.8,198.4,469.8C198.4,469.8,198.4,469.8,198.4,469.8
			 M198.4,469.8C198.4,469.8,198.4,469.8,198.4,469.8C198.4,469.8,198.4,469.8,198.4,469.8 M198.4,469.8
			C198.4,469.8,198.4,469.8,198.4,469.8C198.4,469.8,198.4,469.8,198.4,469.8 M198.3,469.8C198.3,469.8,198.3,469.8,198.3,469.8
			C198.3,469.8,198.3,469.8,198.3,469.8 M198.3,469.8C198.3,469.8,198.3,469.8,198.3,469.8C198.3,469.8,198.3,469.8,198.3,469.8
			 M198.2,469.9C198.2,469.9,198.2,469.9,198.2,469.9C198.2,469.9,198.2,469.9,198.2,469.9 M198.2,469.9
			C198.2,469.9,198.2,469.9,198.2,469.9C198.2,469.9,198.2,469.9,198.2,469.9 M198.1,469.9C198.1,469.9,198.1,469.9,198.1,469.9
			C198.1,469.9,198.1,469.9,198.1,469.9 M198.1,469.9C198.1,469.9,198.1,469.9,198.1,469.9C198.1,469.9,198.1,469.9,198.1,469.9
			 M198.1,469.9C198.1,469.9,198,469.9,198.1,469.9C198,469.9,198.1,469.9,198.1,469.9 M198,469.9c-1.1,0.3-2.2,0.7-3.2,1.3
			c0.1-0.1,0.2-0.1,0.3-0.2C196.1,470.5,197,470.2,198,469.9"/>
		<path fill="#FFFFFF" d="M186.4,461.6c0.8,1.7,1.2,3.7,1.2,5.7C187.7,465.2,187.2,463.3,186.4,461.6"/>
		<path fill="#E0EBF6" d="M158,478c-1.1,2-1.1,3.9-1.1,3.9l0,8.3v0c0,0.4,0.1,1.7,0.8,3.2l0.1,0.2l0.1,0.1l0.1,0.2l0,0l0,0
			c1.1-1.6,2.6-2.9,4.3-3.9l7-4.1l-7-4.1c-0.2-0.1-0.3-0.2-0.5-0.3C160.3,480.6,159,479.4,158,478"/>
		<path fill="#E0EBF6" d="M187.7,496.5v8.1c0,2-0.4,4-1.2,5.7h0l0,0l0.2,0l0.1,0l0.2,0c1.7-0.2,2.9-0.7,3.2-0.9l4.5-2.6l2.6-1.5
			c0,0,0.2-0.1,0.5-0.3c0.5-0.4,1.4-1.1,2.1-2.2l0.2-0.3c-1.9-0.2-3.8-0.8-5.5-1.8L187.7,496.5z"/>
		<path fill="#FFFFFF" d="M371.9,87.7c0-0.9-0.4-1.7-1.5-2.3c-1-0.6-2.4-1.1-4.4-1.1c-3.5,0-6.9,1.8-8,5.4c-0.5-2.4-1.6-3.4-2-3.8
			c-1-0.8-2.3-1.3-3.2-1.3c-1.4,0-2.6,0.7-2.6,2.3c0,0.8,0.4,1.4,1,1.7c1.2,0.7,1.8,1.4,1.8,3.8v8.7h0v11.3c0,1.8,1.1,2.8,2.6,2.8
			c1.5,0,2.6-1.1,2.6-2.8v-11.3v-1.3V98c0-5,1.8-8.8,6.3-8.8c1.3,0,2.3,0.3,3.4,0.8c0.4,0.2,0.9,0.3,1.3,0.3
			C370.8,90.3,371.9,89.2,371.9,87.7 M344.4,76.9c0-1.9-1.6-3.4-3.4-3.4c-1.9,0-3.4,1.5-3.4,3.4c0,1.9,1.6,3.4,3.4,3.4
			C342.8,80.3,344.4,78.8,344.4,76.9 M325.2,106.3V89.7c0-0.2,0.1-0.4,0.4-0.4h3.9c1.4,0,2.3-0.9,2.3-2.1c0-1.3-0.8-2.1-2.3-2.1
			h-3.9c-0.2,0-0.4-0.1-0.4-0.4v-6.6c0-1.8-1.1-2.8-2.6-2.8c-1.5,0-2.6,1.1-2.6,2.8v6.6c0,0.3-0.1,0.4-0.4,0.4h-1.7
			c-1.4,0-2.3,0.9-2.3,2.1c0,1.2,0.8,2.1,2.3,2.1h1.7c0.3,0,0.4,0.1,0.4,0.4v16.8c0,6.3,2.3,8.8,8.4,8.8h0.6c1.9,0,2.8-1,2.8-2.4
			c0-1.4-0.9-2.4-2.6-2.4C326,110.4,325.2,109.5,325.2,106.3 M313.3,87.7c0-0.9-0.4-1.7-1.5-2.3c-1-0.6-2.4-1.1-4.4-1.1
			c-3.5,0-6.8,1.8-8.1,5.4c-0.5-2.4-1.6-3.4-2-3.8c-1-0.8-2.3-1.3-3.2-1.3c-1.4,0-2.6,0.7-2.6,2.3c0,0.8,0.4,1.4,1,1.7
			c1.2,0.7,1.9,1.4,1.9,3.8v8.7h0v11.3c0,1.8,1.1,2.8,2.6,2.8c1.5,0,2.6-1.1,2.6-2.8v-11.3v-1.3V98c0-5,1.8-8.8,6.3-8.8
			c1.3,0,2.3,0.3,3.4,0.8c0.4,0.2,0.9,0.3,1.3,0.3C312.3,90.3,313.3,89.2,313.3,87.7 M289.2,112.8c0-0.5-0.2-1.1-0.4-1.5l-1.1-1.9
			c-0.4-0.9-0.6-1.5-0.6-3.1V95.6c0-7.4-3.8-11.2-11.8-11.2c-4.1,0-7.3,1-9.1,2.3c-0.9,0.5-1.3,1.3-1.3,2.1c0,1.4,0.9,2.3,2.3,2.3
			c0.4,0,1-0.2,1.5-0.4c1.4-0.8,3.8-1.5,6.1-1.5c5.3,0,7.2,2.4,7.2,6.6v1.4c0,0.2-0.1,0.4-0.4,0.4h-6.8c-7.4,0-11.7,3.1-11.7,9.3
			c0,5.7,3.9,9,10.6,9c4.4,0,7.2-1.3,9.2-3.6h0.1l1.2,1.9c0.6,0.9,1.4,1.3,2.3,1.3C288,115.3,289.2,114.3,289.2,112.8 M282,105.3
			c0,3.7-2.9,5.9-7.6,5.9c-4,0-6.3-1.6-6.3-4.7c0-3.4,2.3-4.9,7.4-4.9h6c0.2,0,0.4,0.1,0.4,0.4V105.3z M257.9,108.2
			c0.8-2.4,1.1-4.8,1.1-8.1c0-3.4-0.3-5.8-1.1-8.2c-1.6-4.7-5.3-7.5-10.3-7.5c-3.8,0-7.4,1.4-9,5c-0.6-2.1-1.6-3-1.9-3.3
			c-1-0.8-2.3-1.3-3.2-1.3c-1.4,0-2.6,0.7-2.6,2.3c0,0.8,0.4,1.4,1,1.7c1.2,0.7,1.9,1.4,1.9,3.8v8.7h0v22.6c0,1.8,1.1,2.8,2.6,2.8
			c1.5,0,2.6-1.1,2.6-2.8v-12.1h0.1c1.4,2.3,4,4,8.5,4C252.6,115.7,256.3,112.9,257.9,108.2 M253.6,100.1c0,2.6-0.1,4.4-0.7,6.1
			c-1,3-3.3,4.7-6.6,4.7c-3.4,0-5.6-1.7-6.6-4.7c-0.6-1.6-0.7-3.5-0.7-6.1c0-2.6,0.1-4.5,0.7-6.1c1-3,3.2-4.7,6.6-4.7
			c3.3,0,5.6,1.7,6.6,4.7C253.4,95.6,253.6,97.4,253.6,100.1 M226.5,112.5V95.6c0-7-3.9-11.3-10.7-11.3c-4.7,0-7.7,1.9-9.7,4.7h-0.1
			c-1.6-2.9-4.6-4.6-8.8-4.7c-3.8-0.1-7.2,1.7-8.9,4.9c-0.6-2.1-1.5-2.9-1.9-3.3c-1-0.8-2.3-1.3-3.2-1.3c-1.4,0-2.6,0.7-2.6,2.3
			c0,0.8,0.4,1.4,1,1.7c1.2,0.7,1.9,1.4,1.9,3.8V108h0v4.5c0,1.8,1.1,2.8,2.6,2.8c1.5,0,2.6-1.1,2.6-2.8V108v-4.1v-8.4
			c0.8-4.7,3.7-6.3,6.9-6.3c4.5,0,6.7,2.8,6.7,7.6v15.6c0,1.8,1.1,2.8,2.6,2.8c1.5,0,2.6-1.1,2.6-2.8V96.6c0-4.4,2.8-7.3,6.9-7.3
			c4.5,0,6.7,2.8,6.7,7.6v15.6c0,1.8,1.1,2.8,2.6,2.8C225.4,115.3,226.5,114.3,226.5,112.5 M176.9,107.6c0.7-2.1,1-4.1,1-7.6
			c0-3.4-0.3-5.5-1-7.6c-1.6-5.1-6-8.1-11.8-8.1s-10.2,2.9-11.8,8.1c-0.7,2.1-1,4.1-1,7.6c0,3.5,0.3,5.6,1,7.6
			c1.6,5.1,6,8.1,11.8,8.1S175.3,112.7,176.9,107.6 M172.6,100c0,2.9-0.2,4.5-0.7,6.1c-1,3-3.4,4.7-6.8,4.7c-3.3,0-5.8-1.7-6.8-4.7
			c-0.5-1.6-0.7-3.3-0.7-6.1c0-2.9,0.2-4.4,0.7-6.1c1-3,3.4-4.7,6.8-4.7c3.3,0,5.8,1.7,6.8,4.7C172.4,95.6,172.6,97.1,172.6,100
			 M131.6,106.1c-0.5-1.6-0.7-3.4-0.7-6.1c0-2.6,0.2-4.5,0.7-6.1c1-3.1,3.4-4.7,6.7-4.7c2.7,0,4.3,1,5.7,2.5
			c0.7,0.8,1.4,1.3,2.3,1.3c1.3,0,2.3-1,2.3-2.3c0-0.7-0.3-1.3-0.8-1.9c-1.9-2.4-5.1-4.4-9.6-4.4c-5.8,0-10.1,2.9-11.8,8.1
			c-0.6,1.8-0.9,4.3-0.9,7.6c0,3.4,0.4,5.8,0.9,7.6c1.7,5.2,6.1,8.1,11.8,8.1c4.5,0,7.7-1.9,9.6-4.4c0.5-0.7,0.8-1.3,0.8-1.9
			c0-1.3-1-2.3-2.3-2.3c-0.9,0-1.6,0.5-2.3,1.3c-1.4,1.5-3,2.5-5.7,2.5C135,110.8,132.6,109.3,131.6,106.1 M338.3,87.6v24.9
			c0,1.8,1.1,2.8,2.6,2.8c1.5,0,2.6-1.1,2.6-2.8V87.6c0-1.7-1.1-2.8-2.6-2.8C339.5,84.7,338.3,85.8,338.3,87.6"/>
		<path fill="#FFFFFF" d="M195.7,68.6l-4.5,0V65v-5.6c0-1.7-3.1-1.1-3.1-1.1v11.4c0,1.2,1,2,4.2,1.6
			C196.1,70.9,195.9,69.6,195.7,68.6 M125.9,70.4c0,0,0.2-2.4,2.4-2c2.4,0.4,5.2,0.8,5.1-0.8c-0.1-1.6-6.9-1.5-6.9-5.9
			c-0.1-5.7,9.8-2.9,9.8-2.9s0.1,2.4-2,2.3c-1.6-0.1-4.6-0.6-4.7,0.6c-0.1,1.5,7.1,1.7,6.9,5.9C136.3,74.1,125.9,70.4,125.9,70.4
			 M158.1,58.3v7.9l-4.2-6.8c-0.4-0.7-1.1-1-1.8-1.1c-0.3-0.1-0.6-0.1-1-0.1c-0.6,0-1.1,0.1-1.1,0.1v11.8c0,1.7,3.1,1.1,3.1,1.1
			v-7.9l4.2,6.8c0.4,0.7,1.1,1,1.8,1.1c0.3,0.1,0.6,0.1,1,0.1c0.6,0,1.1-0.1,1.1-0.1V59.4C161.2,57.7,158.1,58.3,158.1,58.3
			 M217.2,58.3v7.9l-4.2-6.8c-0.4-0.7-1.1-1-1.8-1.1c-0.3-0.1-0.6-0.1-1-0.1c-0.6,0-1.1,0.1-1.1,0.1v11.8c0,1.7,3.1,1.1,3.1,1.1
			v-7.9l4.2,6.8c0.4,0.7,1.1,1,1.8,1.1c0.3,0.1,0.6,0.1,1,0.1c0.6,0,1.1-0.1,1.1-0.1V59.4C220.4,57.7,217.2,58.3,217.2,58.3
			 M144.7,59c-0.6-1.5-3.2-0.7-3.2-0.7l-4.8,11.9c-0.6,1.7,2.9,1.1,2.9,1.1l1-2.6h4.6l0.5,1.5c0.7,1.8,3.8,1.1,3.8,1.1L144.7,59z
			 M141.6,65.8l1.3-3.5l1.2,3.5H141.6z M233.9,71.2c0,0-3.1,0.7-3.8-1.1l-0.5-1.5H225l-1,2.6c0,0-3.5,0.6-2.9-1.1l4.8-11.9
			c0,0,2.6-0.8,3.2,0.7L233.9,71.2z M228.6,65.8l-1.2-3.5l-1.3,3.5H228.6z M204,59c-0.6-1.5-3.2-0.7-3.2-0.7L196,70.1
			c-0.6,1.7,2.9,1.1,2.9,1.1l1-2.6h4.6l0.5,1.5c0.7,1.8,3.8,1.1,3.8,1.1L204,59z M200.9,65.8l1.3-3.5l1.2,3.5H200.9z M172.2,58.2
			h-8.5c-2,0-1.5,2.8-1.5,2.8h0h3.4v9c0,1.7,3.2,1.1,3.2,1.1V61h1.9C172.9,61,172.2,58.2,172.2,58.2 M173.6,58.3v11.8
			c0,1.7,3.1,1.1,3.1,1.1V59.4C176.7,57.7,173.6,58.3,173.6,58.3 M187.3,68.6H182v-9.2c0-1.7-3.1-1.1-3.1-1.1v11.4
			c0,1.5,1.5,2,5,1.6C187.6,70.9,187.4,69.6,187.3,68.6"/>
		<path fill="#FFFFFF" d="M98.3,40.9c1.2,2,2.1,4.4,2.1,7.4v48.7c0,3-0.9,5.4-2,7.4c-3.7-0.3-7.3-1.5-10.7-3.4L74.1,93V52.1
			l13.5-7.8C91,42.4,94.7,41.2,98.3,40.9"/>
		<path fill="#FFFFFF" d="M38.7,72.6l-13.5-7.8c-3.4-2-6.2-4.5-8.3-7.5c1.1-2,2.8-4,5.4-5.5l42.1-24.3c2.6-1.5,5.2-1.9,7.4-1.9
			c1.5,3.3,2.4,7.1,2.4,11v0v15.6L38.7,72.6z"/>
		<path fill="#E0EBF6" d="M71.7,25.5c1.5,3.3,2.4,7.1,2.4,11v0v15.6l13.5-7.8c0.1-0.1,0.2-0.1,0.3-0.2c2-1.1,4.1-1.9,6.2-2.5
			c0,0,0,0,0,0c0,0,0,0,0.1,0c0,0,0,0,0,0c0,0,0,0,0.1,0c0,0,0,0,0,0c0,0,0,0,0.1,0c0,0,0,0,0,0c0,0,0,0,0.1,0c0,0,0,0,0,0
			c0,0,0,0,0.1,0c0,0,0,0,0,0c0,0,0,0,0,0c0,0,0.1,0,0.1,0c0,0,0,0,0,0c0,0,0,0,0.1,0c0,0,0,0,0,0c0,0,0,0,0.1,0c0,0,0,0,0,0
			c0,0,0,0,0.1,0c0,0,0,0,0,0c0,0,0,0,0.1,0l0,0c0,0,0,0,0.1,0c0,0,0,0,0,0c0,0,0,0,0.1,0h0c1-0.2,2.1-0.4,3.2-0.5
			c-2.2-3.7-5.4-5.5-5.4-5.5l-6.8-4l-6.8-3.9C79.2,27.4,76,25.6,71.7,25.5"/>
		<path fill="#FFFFFF" d="M95.2,41.4C95.2,41.4,95.2,41.4,95.2,41.4L95.2,41.4 M95.1,41.4C95.1,41.4,95.1,41.4,95.1,41.4
			C95.1,41.4,95.1,41.4,95.1,41.4 M95,41.4C95,41.4,95,41.4,95,41.4C95,41.4,95,41.4,95,41.4 M94.9,41.4
			C94.9,41.4,94.9,41.4,94.9,41.4C94.9,41.4,94.9,41.4,94.9,41.4 M94.9,41.5C94.8,41.5,94.8,41.5,94.9,41.5
			C94.8,41.5,94.8,41.5,94.9,41.5 M94.8,41.5C94.8,41.5,94.8,41.5,94.8,41.5C94.8,41.5,94.8,41.5,94.8,41.5 M94.7,41.5
			C94.7,41.5,94.7,41.5,94.7,41.5C94.7,41.5,94.7,41.5,94.7,41.5 M94.6,41.5C94.6,41.5,94.6,41.5,94.6,41.5
			C94.6,41.5,94.6,41.5,94.6,41.5 M94.5,41.5C94.5,41.5,94.5,41.5,94.5,41.5C94.5,41.5,94.5,41.5,94.5,41.5 M94.4,41.6
			C94.4,41.6,94.4,41.6,94.4,41.6C94.4,41.6,94.4,41.6,94.4,41.6 M94.3,41.6C94.3,41.6,94.3,41.6,94.3,41.6
			C94.3,41.6,94.3,41.6,94.3,41.6 M94.3,41.6C94.2,41.6,94.2,41.6,94.3,41.6C94.2,41.6,94.2,41.6,94.3,41.6 M94.2,41.6
			C94.2,41.6,94.1,41.6,94.2,41.6C94.1,41.6,94.2,41.6,94.2,41.6 M94.1,41.6C92,42.2,89.9,43,88,44.1c0.2-0.1,0.4-0.2,0.6-0.3
			C90.3,42.9,92.2,42.1,94.1,41.6"/>
		<path fill="#FFFFFF" d="M71.7,25.5c1.5,3.3,2.4,7.1,2.4,11C74.1,32.6,73.3,28.9,71.7,25.5"/>
		<path fill="#E0EBF6" d="M16.8,57.2c-2.1,3.8-2.1,7.4-2.1,7.4l0,16v0c0,0.7,0.2,3.3,1.6,6.2l0.1,0.3l0.1,0.3l0.2,0.3l0,0.1l0,0
			c2.1-3,4.9-5.6,8.3-7.6l13.6-7.8l-13.5-7.8c-0.3-0.2-0.6-0.4-0.9-0.6C21.2,62.3,18.7,60,16.8,57.2"/>
		<path fill="#E0EBF6" d="M74.1,93.1v15.7c0,3.9-0.9,7.6-2.4,11h0l0.1,0l0.4,0l0.3,0l0.4-0.1c3.2-0.3,5.6-1.4,6.2-1.8l8.7-5.1
			l5.1-2.9c0,0,0.4-0.2,1-0.7c1-0.8,2.7-2.2,4.1-4.3l0.4-0.6c-3.7-0.3-7.3-1.5-10.7-3.4L74.1,93.1z"/>
		<path fill="#FFFFFF" d="M74.1,93.1v15.7c0,3.9-0.9,7.6-2.4,11c-2.3,0-4.8-0.4-7.4-1.9L22.2,93.4c-2.6-1.5-4.3-3.5-5.4-5.5l0-0.1
			l0.1,0.1l0,0c2.1-3,4.9-5.6,8.3-7.6l13.6-7.8L74.1,93.1z"/>
	</g>
</g>
<path fill="#FFFFFF" d="M187.7,496.5v8.1c0,2-0.4,4-1.2,5.7c-1.2,0-2.5-0.2-3.8-1l-21.8-12.6c-1.3-0.8-2.2-1.8-2.8-2.8l0,0l0,0l0,0
	c1.1-1.6,2.6-2.9,4.3-3.9l7-4.1L187.7,496.5z"/>
</svg>
