<?xml version="1.0" encoding="utf-8"?>
<!-- Generator: Adobe Illustrator 18.0.0, SVG Export Plug-In . SVG Version: 6.00 Build 0)  -->
<!DOCTYPE svg PUBLIC "-//W3C//DTD SVG 1.1//EN" "http://www.w3.org/Graphics/SVG/1.1/DTD/svg11.dtd">
<svg version="1.1" id="Capa_1" xmlns="http://www.w3.org/2000/svg" xmlns:xlink="http://www.w3.org/1999/xlink" x="0px" y="0px"
	 viewBox="0 0 497.1 195.1" enable-background="new 0 0 497.1 195.1" xml:space="preserve">
<polygon fill="#FFFFFF" points="124.8,4.6 124.7,4.6 124.8,4.6 124.8,4.6 "/>
<path fill="#4E4E4E" d="M1.4,32.3c18.3,68.3,20,122.9,17.6,162.8c12-56.4,10.2-100.4-1.8-146C15,41,11.9,30.8,1.4,32.3"/>
<path fill="none" stroke="#FFFFFF" stroke-width="2" stroke-miterlimit="10" d="M1.4,32.3c18.3,68.3,20,122.9,17.6,162.8
	c12-56.4,10.2-100.4-1.8-146C15,41,11.9,30.8,1.4,32.3z"/>
<path fill="#969696" d="M168.1,90c-20.8-3.9-78-2.6-122.4,3.1c-7.3,0.9-17.7,2.1-19.9-4.5c3.3,1.9,8.9,2.7,20.6,0.5
	c34.8-6.5,100.6-10.7,115.9-9.4c-5-25.7-9.1-44.4-18-69.7c-21.1-4.2-73.8,5.9-129.5,20c2.1-7.1,104.3-32.4,135.3-29.4
	C157.5,19.8,164.1,58.8,168.1,90"/>
<path fill="none" stroke="#FFFFFF" stroke-width="2" stroke-miterlimit="10" d="M168.1,90c-20.8-3.9-78-2.6-122.4,3.1
	c-7.3,0.9-17.7,2.1-19.9-4.5c3.3,1.9,8.9,2.7,20.6,0.5c34.8-6.5,100.6-10.7,115.9-9.4c-5-25.7-9.1-44.4-18-69.7
	c-21.1-4.2-73.8,5.9-129.5,20c2.1-7.1,104.3-32.4,135.3-29.4C157.5,19.8,164.1,58.8,168.1,90z"/>
<path fill="#EEC030" d="M37.5,57.2C72.7,50,130.1,44.1,151,46.8c-6.4-30.9-10.4-31.5-25.4-30.9C84.5,17.7,55.8,27.2,19,34.5
	C24.2,55,25.2,59.7,37.5,57.2"/>
<path fill="#CC3331" d="M49.7,83.4c28.5-5.4,83.2-10.2,107.4-8.6c-1-10.9-8-11.9-23.9-11.2C99.6,65.1,61.6,70,27.4,76.7
	C29.6,89.3,39.1,85.4,49.7,83.4"/>
<path fill="#435FA8" d="M46.5,69.8c29.3-5.1,87.3-12.1,107.6-9c-0.9-11.1-7-11.9-23.9-11.2C96.5,51,60.1,55.7,25.9,62.5
	C26.5,75.8,34.1,72,46.5,69.8"/>
<g>
	<path fill="#FFFFFF" d="M204.4,16.3v4H194v31.5h-4.9V20.3h-10.5v-4H204.4z"/>
	<path fill="#FFFFFF" d="M214.8,51.8h-4.9V16.3h9.2c7.6,0,13.7,3.4,13.7,10c0,4.9-3.3,8.7-9,10.3l12.5,15.2h-6l-11.6-14.3
		c-0.7,0-3.1,0.1-3.9,0.1V51.8z M219.1,20.2h-4.3v13.4h2.5c6,0,10.7-2.2,10.7-7.2C227.9,21.9,223.8,20.2,219.1,20.2z"/>
	<path fill="#FFFFFF" d="M271.7,51.8h-5l-3.3-8.6h-16.6l-3.2,8.6h-5l14.1-35.5h4.8L271.7,51.8z M248.3,39.3H262l-6.8-18.5
		L248.3,39.3z"/>
	<path fill="#FFFFFF" d="M295.9,16.3h4.9L288,51.8h-5.1l-12.8-35.5h4.9L285.5,46L295.9,16.3z"/>
	<path fill="#FFFFFF" d="M305.6,16.3h19.8v4h-14.9v11.4h14.2v4h-14.2v12.2h15v4h-20V16.3z"/>
	<path fill="#FFFFFF" d="M340.8,52.4c-3.4,0-7.2-0.7-10.2-2.1l1-3.9c2.6,1.2,5.9,2.1,9.1,2.1c4.6,0,7.7-2,7.7-5.7
		c0-4.1-3.5-5.7-7.8-7.6c-4.9-2.3-9.3-4.8-9.3-10.2c0-6.2,4.6-9.3,11.3-9.3c3.4,0,6.8,0.9,9.2,2.1l-0.9,3.9
		c-2.3-1.2-5.3-2.1-8.3-2.1c-4.3,0-6.5,1.7-6.5,5c0,3,1.6,4.1,6.2,6.4c4.5,2.3,10.9,5.1,10.9,11.6C353.3,48.6,347.7,52.4,340.8,52.4
		z"/>
	<path fill="#FFFFFF" d="M364.7,51.8h-4.9V16.3h4.9V51.8z M360.1,12.9l4.5-6.1h5.7l-6.1,6.1H360.1z"/>
	<path fill="#FFFFFF" d="M403.8,51.8h-5l-3.3-8.6h-16.6l-3.2,8.6h-5l14.1-35.5h4.8L403.8,51.8z M380.4,39.3h13.7l-6.8-18.5
		L380.4,39.3z"/>
</g>
<g>
	<path fill="#FFFFFF" d="M180.8,63.9h16.6v3.4h-12.5v9.6h12v3.4h-12v10.2h12.6v3.4h-16.8V63.9z"/>
	<path fill="#FFFFFF" d="M203.6,63.9h8.3c10.3,0,17,6.3,17,14.9s-6.8,14.9-17,14.9h-8.3V63.9z M211.9,90.4c7.2,0,12.9-4.3,12.9-11.6
		c0-7.4-5.7-11.6-12.9-11.6h-4.2v23.2H211.9z"/>
	<path fill="#FFFFFF" d="M253.4,63.9h4.1v19.3c0,6.3-4.1,11.1-11.7,11.1c-7.6,0-11.7-4.8-11.7-11.1V63.9h4.1v19.5
		c0,4.5,2.6,7.6,7.6,7.6s7.6-3.1,7.6-7.6V63.9z"/>
	<path fill="#FFFFFF" d="M286.2,64.7l-0.7,3.2c-2-0.7-4.4-1.2-6.7-1.2c-7.5,0-11.9,4.3-11.9,12.1c0,7.8,4.4,12.1,11.9,12.1
		c2.3,0,4.7-0.5,6.7-1.2l0.7,3.2c-2,0.9-5.2,1.4-7.9,1.4c-9.8,0-15.5-6.5-15.5-15.5s5.7-15.5,15.5-15.5
		C281,63.3,284.3,63.9,286.2,64.7z"/>
	<path fill="#FFFFFF" d="M317.3,93.7h-4.2l-2.7-7.2h-13.9l-2.7,7.2h-4.2l11.9-29.9h4L317.3,93.7z M297.7,83.2h11.5l-5.7-15.6
		L297.7,83.2z"/>
	<path fill="#FFFFFF" d="M338.4,63.9v3.4h-8.8v26.5h-4.1V67.2h-8.8v-3.4H338.4z"/>
	<path fill="#FFFFFF" d="M347.3,93.7h-4.1V63.9h4.1V93.7z"/>
	<path fill="#FFFFFF" d="M373.2,63.9h4.1l-10.7,29.9h-4.3l-10.7-29.9h4.1l8.7,25L373.2,63.9z"/>
	<path fill="#FFFFFF" d="M403.8,93.7h-4.2l-2.7-7.2h-13.9l-2.7,7.2H376l11.9-29.9h4L403.8,93.7z M384.1,83.2h11.5l-5.7-15.6
		L384.1,83.2z"/>
</g>
<g>
	<path fill="#FFFFFF" d="M493.3,156.3c0-0.8-0.4-1.5-1.3-2c-0.9-0.5-2.1-1-4-1c-3.1,0-6.1,1.6-7.2,4.8c-0.5-2.2-1.5-3-1.8-3.4
		c-0.9-0.7-2-1.1-2.9-1.1c-1.3,0-2.3,0.6-2.3,2c0,0.7,0.3,1.2,0.9,1.6c1.1,0.6,1.7,1.2,1.7,3.4v7.8h0v10.1c0,1.6,1,2.5,2.3,2.5
		c1.3,0,2.3-0.9,2.3-2.5v-10.1v-1.2v-1.6c0-4.5,1.6-7.8,5.7-7.8c1.1,0,2.1,0.3,3.1,0.7c0.4,0.2,0.8,0.3,1.2,0.3
		C492.3,158.6,493.3,157.6,493.3,156.3 M468.7,146.7c0-1.7-1.4-3.1-3.1-3.1c-1.7,0-3.1,1.3-3.1,3.1c0,1.7,1.4,3.1,3.1,3.1
		C467.3,149.7,468.7,148.3,468.7,146.7 M451.5,173v-14.9c0-0.2,0.1-0.3,0.3-0.3h3.5c1.3,0,2-0.8,2-1.9c0-1.1-0.7-1.9-2-1.9h-3.5
		c-0.2,0-0.3-0.1-0.3-0.3v-5.9c0-1.6-1-2.5-2.3-2.5c-1.3,0-2.4,1-2.4,2.5v5.9c0,0.2-0.1,0.3-0.3,0.3H445c-1.3,0-2,0.8-2,1.9
		c0,1.1,0.7,1.9,2,1.9h1.5c0.2,0,0.3,0.1,0.3,0.3v15.1c0,5.6,2,7.9,7.5,7.9h0.6c1.7,0,2.5-0.9,2.5-2.2c0-1.3-0.8-2.2-2.3-2.2
		C452.3,176.7,451.5,175.8,451.5,173 M440.9,156.3c0-0.8-0.4-1.5-1.3-2c-0.9-0.5-2.1-1-4-1c-3.1,0-6.1,1.6-7.2,4.8
		c-0.5-2.2-1.5-3-1.8-3.4c-0.9-0.7-2-1.1-2.9-1.1c-1.3,0-2.3,0.6-2.3,2c0,0.7,0.3,1.2,0.9,1.6c1.1,0.6,1.7,1.2,1.7,3.4v7.8h0v10.1
		c0,1.6,1,2.5,2.4,2.5c1.3,0,2.3-0.9,2.3-2.5v-10.1v-1.2v-1.6c0-4.5,1.6-7.8,5.6-7.8c1.1,0,2.1,0.3,3.1,0.7c0.4,0.2,0.8,0.3,1.2,0.3
		C440,158.6,440.9,157.6,440.9,156.3 M419.3,178.8c0-0.4-0.2-1-0.4-1.3l-0.9-1.7c-0.4-0.8-0.5-1.3-0.5-2.7v-9.6
		c0-6.6-3.4-10-10.5-10c-3.7,0-6.5,0.9-8.2,2c-0.8,0.4-1.1,1.2-1.1,1.9c0,1.2,0.8,2,2,2c0.4,0,0.9-0.2,1.3-0.4
		c1.3-0.7,3.4-1.3,5.5-1.3c4.7,0,6.4,2.1,6.4,5.9v1.3c0,0.2-0.1,0.3-0.3,0.3h-6.1c-6.7,0-10.5,2.7-10.5,8.3c0,5.1,3.5,8.1,9.5,8.1
		c3.9,0,6.4-1.2,8.2-3.2h0.1l1.1,1.7c0.6,0.8,1.2,1.2,2.1,1.2C418.3,181,419.3,180.1,419.3,178.8 M412.9,172.1
		c0,3.3-2.6,5.3-6.8,5.3c-3.6,0-5.6-1.4-5.6-4.2c0-3,2.1-4.4,6.7-4.4h5.4c0.2,0,0.3,0.1,0.3,0.3V172.1z M391.3,174.6
		c0.7-2.1,1-4.3,1-7.3c0-3.1-0.3-5.2-1-7.3c-1.4-4.2-4.7-6.7-9.2-6.7c-3.4,0-6.6,1.2-8,4.4c-0.5-1.9-1.4-2.7-1.7-3
		c-0.9-0.7-2-1.1-2.9-1.1c-1.3,0-2.3,0.6-2.3,2c0,0.7,0.3,1.2,0.9,1.6c1.1,0.6,1.7,1.2,1.7,3.4v7.8h0v20.2c0,1.6,1,2.5,2.3,2.5
		c1.3,0,2.4-1,2.4-2.5v-10.8h0.1c1.2,2.1,3.6,3.6,7.6,3.6C386.6,181.4,389.9,178.8,391.3,174.6 M387.5,167.4c0,2.3-0.1,4-0.6,5.4
		c-0.9,2.7-2.9,4.2-5.9,4.2c-3,0-5-1.5-5.9-4.2c-0.5-1.5-0.6-3.1-0.6-5.4c0-2.4,0.1-4,0.6-5.5c0.9-2.7,2.9-4.2,5.9-4.2
		c3,0,5,1.5,5.9,4.2C387.3,163.3,387.5,165,387.5,167.4 M363.3,178.5v-15.1c0-6.3-3.5-10.1-9.6-10.1c-4.2,0-6.9,1.7-8.7,4.2H345
		c-1.5-2.6-4.1-4.1-7.8-4.2c-3.4-0.1-6.4,1.5-7.9,4.4c-0.5-1.8-1.4-2.6-1.7-2.9c-0.9-0.7-2-1.1-2.9-1.1c-1.3,0-2.3,0.6-2.3,2
		c0,0.7,0.3,1.2,0.9,1.6c1.1,0.6,1.7,1.2,1.7,3.4v13.9h0v4c0,1.6,1,2.5,2.3,2.5c1.3,0,2.4-1,2.4-2.5v-4v-3.6v-7.5
		c0.7-4.2,3.3-5.6,6.2-5.6c4,0,6,2.5,6,6.8v14c0,1.6,1,2.5,2.3,2.5s2.4-1,2.4-2.5v-14.3c0-4,2.5-6.5,6.2-6.5c4,0,6,2.5,6,6.8v14
		c0,1.6,1,2.5,2.4,2.5C362.3,181,363.3,180.1,363.3,178.5 M318.9,174.1c0.6-1.8,0.9-3.7,0.9-6.8c0-3.1-0.3-4.9-0.9-6.8
		c-1.5-4.6-5.4-7.2-10.6-7.2c-5.2,0-9.1,2.6-10.6,7.2c-0.6,1.8-0.9,3.7-0.9,6.8c0,3.1,0.3,5,0.9,6.8c1.5,4.5,5.4,7.2,10.6,7.2
		C313.5,181.4,317.4,178.7,318.9,174.1 M315,167.3c0,2.6-0.2,4-0.6,5.5c-0.9,2.7-3.1,4.2-6,4.2c-3,0-5.1-1.5-6-4.2
		c-0.4-1.5-0.6-2.9-0.6-5.5c0-2.6,0.2-4,0.6-5.4c0.9-2.7,3.1-4.2,6-4.2c3,0,5.1,1.5,6,4.2C314.8,163.3,315,164.7,315,167.3
		 M278.3,172.8c-0.4-1.4-0.6-3.1-0.6-5.5c0-2.3,0.2-4,0.6-5.4c0.9-2.8,3.1-4.2,6-4.2c2.4,0,3.9,0.9,5.1,2.2c0.6,0.7,1.2,1.1,2.1,1.1
		c1.2,0,2.1-0.9,2.1-2.1c0-0.6-0.2-1.1-0.7-1.7c-1.7-2.2-4.5-3.9-8.6-3.9c-5.1,0-9.1,2.6-10.6,7.2c-0.5,1.6-0.8,3.8-0.8,6.8
		c0,3,0.3,5.2,0.8,6.8c1.5,4.6,5.4,7.2,10.6,7.2c4,0,6.9-1.7,8.6-3.9c0.4-0.6,0.7-1.1,0.7-1.7c0-1.2-0.9-2.1-2.1-2.1
		c-0.8,0-1.5,0.4-2.1,1.1c-1.2,1.3-2.7,2.2-5.1,2.2C281.4,177,279.2,175.6,278.3,172.8 M463.3,156.2v22.3c0,1.6,1,2.5,2.4,2.5
		c1.3,0,2.3-0.9,2.3-2.5v-22.3c0-1.6-1-2.5-2.3-2.5C464.3,153.7,463.3,154.6,463.3,156.2"/>
	<path fill="#FFFFFF" d="M335.7,139.2l-4,0V136v-5c0-1.5-2.8-1-2.8-1v10.2c0,1.1,0.9,1.8,3.7,1.5C336,141.2,335.9,140.1,335.7,139.2
		 M273.3,140.8c0,0,0.2-2.1,2.1-1.8c2.1,0.4,4.7,0.7,4.6-0.7c-0.1-1.5-6.2-1.4-6.2-5.3c0-5.1,8.8-2.6,8.8-2.6s0.1,2.1-1.8,2
		c-1.4-0.1-4.1-0.5-4.2,0.5c-0.1,1.3,6.4,1.5,6.2,5.2C282.5,144.1,273.3,140.8,273.3,140.8 M302,130v7.1l-3.7-6
		c-0.4-0.6-1-0.9-1.6-1c-0.3-0.1-0.6-0.1-0.9-0.1c-0.6,0-1,0.1-1,0.1v10.6c0,1.5,2.8,1,2.8,1v-7.1l3.7,6c0.4,0.6,1,0.9,1.6,1
		c0.3,0.1,0.6,0.1,0.9,0.1c0.6,0,1-0.1,1-0.1V131C304.8,129.4,302,130,302,130 M354.9,130v7.1l-3.7-6c-0.4-0.6-1-0.9-1.6-1
		c-0.3-0.1-0.6-0.1-0.9-0.1c-0.6,0-1,0.1-1,0.1v10.6c0,1.5,2.8,1,2.8,1v-7.1l3.7,6c0.4,0.6,1,0.9,1.6,1c0.3,0.1,0.6,0.1,0.9,0.1
		c0.6,0,1-0.1,1-0.1V131C357.8,129.4,354.9,130,354.9,130 M290.1,130.6c-0.6-1.4-2.9-0.7-2.9-0.7l-4.3,10.6c-0.6,1.5,2.6,1,2.6,1
		l0.9-2.3h4.1l0.5,1.3c0.6,1.6,3.4,1,3.4,1L290.1,130.6z M287.3,136.7l1.2-3.1l1.1,3.1H287.3z M369.9,141.6c0,0-2.8,0.6-3.4-1
		l-0.5-1.3h-4.1l-0.9,2.3c0,0-3.2,0.5-2.6-1l4.3-10.6c0,0,2.3-0.7,2.9,0.7L369.9,141.6z M365.1,136.7l-1.1-3.1l-1.2,3.1H365.1z
		 M343.1,130.6c-0.6-1.4-2.9-0.7-2.9-0.7l-4.3,10.6c-0.5,1.5,2.6,1,2.6,1l0.9-2.3h4.1l0.5,1.3c0.6,1.6,3.4,1,3.4,1L343.1,130.6z
		 M340.4,136.7l1.2-3.1l1.1,3.1H340.4z M314.7,129.9h-7.6c-1.8,0-1.3,2.5-1.3,2.5h3v8.1c0,1.5,2.8,1,2.8,1v-9.1h1.7
		C315.3,132.5,314.7,129.9,314.7,129.9 M315.9,130v10.6c0,1.5,2.8,1,2.8,1V131C318.7,129.4,315.9,130,315.9,130 M328.1,139.2h-4.7
		V131c0-1.5-2.8-1-2.8-1v10.2c0,1.3,1.3,1.8,4.5,1.5C328.4,141.2,328.3,140.1,328.1,139.2"/>
	<path fill="#FFFFFF" d="M248.6,114.4c1,1.8,1.8,3.9,1.8,6.6v43.5c0,2.7-0.8,4.8-1.8,6.6c-3.3-0.3-6.5-1.3-9.6-3.1l-12.1-7v-36.6
		l12.1-7C242.1,115.7,245.3,114.7,248.6,114.4"/>
	<path fill="#FFFFFF" d="M195.2,142.8l-12.1-7c-3-1.8-5.6-4.1-7.5-6.7c1-1.8,2.5-3.6,4.8-4.9l37.7-21.8c2.3-1.3,4.6-1.7,6.7-1.7
		c1.4,3,2.1,6.3,2.1,9.8v0v14L195.2,142.8z"/>
	<path fill="#E0EBF6" d="M224.8,100.7c1.4,3,2.1,6.3,2.1,9.8v0v14l12.1-7c0.1-0.1,0.2-0.1,0.3-0.2c1.8-1,3.6-1.7,5.5-2.2
		c0,0,0,0,0,0c0,0,0,0,0.1,0c0,0,0,0,0,0c0,0,0,0,0.1,0c0,0,0,0,0,0c0,0,0,0,0.1,0c0,0,0,0,0,0c0,0,0,0,0.1,0c0,0,0,0,0,0
		c0,0,0,0,0,0c0,0,0,0,0,0c0,0,0,0,0,0c0,0,0,0,0.1,0c0,0,0,0,0,0c0,0,0,0,0.1,0c0,0,0,0,0,0c0,0,0,0,0.1,0c0,0,0,0,0,0
		c0,0,0,0,0.1,0c0,0,0,0,0,0c0,0,0,0,0.1,0c0,0,0,0,0,0c0,0,0,0,0.1,0c0,0,0,0,0,0c0,0,0,0,0.1,0h0c0.9-0.2,1.9-0.4,2.8-0.4
		c-2-3.3-4.8-4.9-4.8-4.9l-6.1-3.5l-6.1-3.5C231.5,102.4,228.6,100.8,224.8,100.7"/>
	<path fill="#FFFFFF" d="M245.8,114.9C245.8,114.9,245.8,114.9,245.8,114.9L245.8,114.9 M245.7,114.9
		C245.7,114.9,245.7,114.9,245.7,114.9C245.7,114.9,245.7,114.9,245.7,114.9 M245.6,114.9C245.6,114.9,245.6,114.9,245.6,114.9
		C245.6,114.9,245.6,114.9,245.6,114.9 M245.5,114.9C245.5,114.9,245.5,114.9,245.5,114.9C245.5,114.9,245.5,114.9,245.5,114.9
		 M245.5,114.9C245.5,114.9,245.5,114.9,245.5,114.9C245.5,114.9,245.5,114.9,245.5,114.9 M245.4,115C245.4,115,245.4,115,245.4,115
		C245.4,115,245.4,115,245.4,115 M245.3,115C245.3,115,245.3,115,245.3,115C245.3,115,245.3,115,245.3,115 M245.2,115
		C245.2,115,245.2,115,245.2,115C245.2,115,245.2,115,245.2,115 M245.2,115C245.1,115,245.1,115,245.2,115
		C245.1,115,245.1,115,245.2,115 M245.1,115C245.1,115,245.1,115,245.1,115C245.1,115,245.1,115,245.1,115 M245,115
		C245,115,245,115.1,245,115C245,115.1,245,115,245,115 M244.9,115.1C244.9,115.1,244.9,115.1,244.9,115.1
		C244.9,115.1,244.9,115.1,244.9,115.1 M244.9,115.1C244.9,115.1,244.8,115.1,244.9,115.1C244.8,115.1,244.9,115.1,244.9,115.1
		 M244.8,115.1c-1.9,0.5-3.7,1.2-5.5,2.2c0.2-0.1,0.3-0.2,0.5-0.3C241.4,116.2,243.1,115.6,244.8,115.1"/>
	<path fill="#FFFFFF" d="M224.8,100.7c1.4,3,2.1,6.3,2.1,9.8C226.9,107,226.2,103.7,224.8,100.7"/>
	<path fill="#E0EBF6" d="M175.6,129.1c-1.8,3.4-1.8,6.7-1.8,6.7l0,14.3v0c0,0.6,0.2,3,1.4,5.6l0.1,0.3l0.1,0.2l0.2,0.3l0,0.1l0,0
		c1.9-2.7,4.4-5,7.4-6.8l12.1-7l-12.1-7c-0.3-0.2-0.6-0.3-0.8-0.5C179.6,133.6,177.4,131.5,175.6,129.1"/>
	<path fill="#E0EBF6" d="M226.9,161.1v14c0,3.5-0.8,6.8-2.1,9.8h0l0.1,0l0.4,0l0.3,0l0.3,0c2.9-0.3,5-1.3,5.5-1.6l7.8-4.5l4.6-2.6
		c0,0,0.3-0.2,0.9-0.6c0.9-0.7,2.4-2,3.6-3.9l0.3-0.5c-3.3-0.3-6.5-1.3-9.6-3.1L226.9,161.1z"/>
	<path fill="#FFFFFF" d="M226.9,161.1v14c0,3.5-0.8,6.8-2.1,9.8c-2,0-4.3-0.4-6.6-1.7l-37.7-21.8c-2.3-1.3-3.8-3.1-4.8-4.9l0-0.1
		l0,0.1l0,0c1.9-2.7,4.4-5,7.4-6.8l12.1-7L226.9,161.1z"/>
</g>
</svg>
