<?xml version="1.0" encoding="utf-8"?>
<!-- Generator: Adobe Illustrator 18.0.0, SVG Export Plug-In . SVG Version: 6.00 Build 0)  -->
<!DOCTYPE svg PUBLIC "-//W3C//DTD SVG 1.1//EN" "http://www.w3.org/Graphics/SVG/1.1/DTD/svg11.dtd">
<svg version="1.1" id="Capa_1" xmlns="http://www.w3.org/2000/svg" xmlns:xlink="http://www.w3.org/1999/xlink" x="0px" y="0px"
	 viewBox="0 0 341.7 399" enable-background="new 0 0 341.7 399" xml:space="preserve">
<g>
	<polygon fill="#FFFFFF" points="237.3,15.3 237.3,15.3 237.3,15.3 237.4,15.3 	"/>
	<g>
		<path fill="#FFFFFF" d="M94.2,205.2v4.8H81.7v38h-5.9v-38H63.2v-4.8H94.2z"/>
		<path fill="#FFFFFF" d="M106.7,248h-5.9v-42.8h11.1c9.2,0,16.5,4.1,16.5,12.1c0,5.9-4,10.5-10.9,12.5l15.1,18.2h-7.3l-13.9-17.2
			c-0.9,0-3.7,0.1-4.8,0.1V248z M111.8,210h-5.1v16.1h3c7.2,0,12.8-2.7,12.8-8.7C122.5,212.1,117.5,210,111.8,210z"/>
		<path fill="#FFFFFF" d="M175.2,248h-6l-3.9-10.3h-20l-3.9,10.3h-6l17-42.8h5.8L175.2,248z M147.1,232.9h16.4l-8.2-22.3
			L147.1,232.9z"/>
		<path fill="#FFFFFF" d="M204.3,205.2h5.9L194.9,248h-6.2l-15.3-42.8h5.9l12.5,35.8L204.3,205.2z"/>
		<path fill="#FFFFFF" d="M216,205.2h23.8v4.8h-17.9v13.7h17.1v4.8h-17.1v14.6H240v4.8h-24V205.2z"/>
		<path fill="#FFFFFF" d="M258.4,248.8c-4.1,0-8.7-0.8-12.3-2.6l1.2-4.7c3.1,1.5,7.1,2.5,11,2.5c5.6,0,9.3-2.4,9.3-6.9
			c0-4.9-4.2-6.8-9.4-9.2c-5.8-2.8-11.2-5.8-11.2-12.3c0-7.5,5.6-11.2,13.6-11.2c4.1,0,8.2,1,11.1,2.6l-1.1,4.7
			c-2.8-1.5-6.4-2.5-10-2.5c-5.2,0-7.8,2-7.8,6c0,3.7,1.9,4.9,7.4,7.7c5.5,2.8,13.1,6.1,13.1,13.9
			C273.4,244.2,266.7,248.8,258.4,248.8z"/>
		<path fill="#FFFFFF" d="M287.1,248h-5.9v-42.8h5.9V248z M281.7,201.2l5.4-7.3h6.8l-7.4,7.3H281.7z"/>
		<path fill="#FFFFFF" d="M334.2,248h-6l-3.9-10.3h-20l-3.9,10.3h-6l17-42.8h5.8L334.2,248z M306.1,232.9h16.4l-8.2-22.3
			L306.1,232.9z"/>
	</g>
	<g>
		<path fill="#FFFFFF" d="M66.1,262.5h20v4H71v11.5h14.4v4H71v12.3h15.2v4H66.1V262.5z"/>
		<path fill="#FFFFFF" d="M93.6,262.5h10c12.4,0,20.5,7.6,20.5,18s-8.2,18-20.5,18h-10V262.5z M103.6,294.5c8.6,0,15.5-5.1,15.5-14
			c0-8.9-6.9-14-15.5-14h-5v28H103.6z"/>
		<path fill="#FFFFFF" d="M153.5,262.5h5v23.2c0,7.6-4.9,13.4-14.1,13.4c-9.2,0-14.1-5.8-14.1-13.4v-23.2h5V286
			c0,5.4,3.1,9.1,9.1,9.1s9.1-3.7,9.1-9.1V262.5z"/>
		<path fill="#FFFFFF" d="M193,263.6l-0.8,3.8c-2.4-0.9-5.3-1.5-8.1-1.5c-9,0-14.3,5.2-14.3,14.6c0,9.3,5.3,14.6,14.3,14.6
			c2.8,0,5.7-0.6,8.1-1.5l0.8,3.8c-2.4,1-6.3,1.7-9.5,1.7c-11.8,0-18.7-7.9-18.7-18.6s6.9-18.6,18.7-18.6
			C186.8,261.9,190.7,262.5,193,263.6z"/>
		<path fill="#FFFFFF" d="M230.5,298.5h-5.1l-3.3-8.7h-16.8l-3.2,8.7H197l14.3-36h4.9L230.5,298.5z M206.8,285.8h13.8l-6.9-18.7
			L206.8,285.8z"/>
		<path fill="#FFFFFF" d="M255.8,262.5v4h-10.6v31.9h-5v-31.9h-10.6v-4H255.8z"/>
		<path fill="#FFFFFF" d="M266.5,298.5h-5v-36h5V298.5z"/>
		<path fill="#FFFFFF" d="M297.7,262.5h5l-12.9,36h-5.2l-12.9-36h5l10.5,30.1L297.7,262.5z"/>
		<path fill="#FFFFFF" d="M334.6,298.5h-5.1l-3.3-8.7h-16.8l-3.2,8.7h-5.1l14.3-36h4.9L334.6,298.5z M310.9,285.8h13.8l-6.9-18.7
			L310.9,285.8z"/>
	</g>
	<path fill="#4E4E4E" d="M5,69c36.4,135.6,39.7,244.1,35,323.3C63.8,280.5,60.3,193,36.4,102.5C32.1,86.2,25.8,66,5,69"/>
	<path fill="none" stroke="#FFFFFF" stroke-width="3" stroke-miterlimit="10" d="M5,69c36.4,135.6,39.7,244.1,35,323.3
		C63.8,280.5,60.3,193,36.4,102.5C32.1,86.2,25.8,66,5,69z"/>
	<path fill="#969696" d="M336,183.6c-41.2-7.7-154.9-5.1-243,6.2c-14.5,1.9-35.2,4.2-39.5-9c6.5,3.8,17.7,5.3,41,0.9
		c69.1-12.9,199.8-21.2,230.1-18.7c-10-51-18-88.1-35.8-138.3c-42-8.4-146.6,11.7-257.2,39.8C35.7,50.4,238.8,0.1,300.3,6.1
		C315,44.1,328.2,121.7,336,183.6"/>
	<path fill="none" stroke="#FFFFFF" stroke-width="3" stroke-miterlimit="10" d="M336,183.6c-41.2-7.7-154.9-5.1-243,6.2
		c-14.5,1.9-35.2,4.2-39.5-9c6.5,3.8,17.7,5.3,41,0.9c69.1-12.9,199.8-21.2,230.1-18.7c-10-51-18-88.1-35.8-138.3
		c-42-8.4-146.6,11.7-257.2,39.8C35.7,50.4,238.8,0.1,300.3,6.1C315,44.1,328.2,121.7,336,183.6z"/>
	<path fill="#EEC030" d="M76.7,118.5c70-14.3,184-26.1,225.4-20.7c-12.7-61.3-20.6-62.7-50.4-61.4C170.1,40.1,113,58.9,40,73.4
		C50.2,114.1,52.4,123.5,76.7,118.5"/>
	<path fill="#CC3331" d="M101,170.5c56.7-10.7,165.1-20.3,213.3-17.1c-2-21.6-15.8-23.7-47.4-22.2c-66.8,3.1-142.3,12.8-210.2,26.2
		C61,182.3,79.8,174.5,101,170.5"/>
	<path fill="#435FA8" d="M94.6,143.6c58.1-10.1,173.3-24.1,213.6-17.9c-1.8-22.1-13.9-23.7-47.4-22.2
		C194,106.3,121.5,115.5,53.6,129C54.9,155.4,70,147.9,94.6,143.6"/>
	<path fill="#FFFFFF" d="M336,347.9c0-0.5-0.3-1-0.9-1.3c-0.6-0.3-1.4-0.6-2.6-0.6c-2,0-4,1.1-4.6,3.1c-0.3-1.4-0.9-2-1.2-2.2
		c-0.6-0.4-1.3-0.7-1.9-0.7c-0.8,0-1.5,0.4-1.5,1.3c0,0.4,0.2,0.8,0.6,1c0.7,0.4,1.1,0.8,1.1,2.2v5h0v6.5c0,1,0.6,1.6,1.5,1.6
		c0.9,0,1.5-0.6,1.5-1.6v-6.5V355v-1.1c0-2.9,1-5.1,3.6-5.1c0.7,0,1.3,0.2,2,0.4c0.3,0.1,0.5,0.2,0.8,0.2
		C335.4,349.5,336,348.8,336,347.9 M320.2,341.7c0-1.1-0.9-2-2-2c-1.1,0-2,0.9-2,2c0,1.1,0.9,2,2,2
		C319.3,343.7,320.2,342.8,320.2,341.7 M309.1,358.7v-9.6c0-0.1,0.1-0.2,0.2-0.2h2.3c0.8,0,1.3-0.5,1.3-1.2c0-0.7-0.5-1.2-1.3-1.2
		h-2.3c-0.1,0-0.2-0.1-0.2-0.2v-3.8c0-1-0.6-1.6-1.5-1.6c-0.9,0-1.5,0.6-1.5,1.6v3.8c0,0.1-0.1,0.2-0.2,0.2h-1
		c-0.8,0-1.3,0.5-1.3,1.2c0,0.7,0.5,1.2,1.3,1.2h1c0.1,0,0.2,0.1,0.2,0.2v9.7c0,3.6,1.3,5.1,4.8,5.1h0.4c1.1,0,1.6-0.6,1.6-1.4
		c0-0.8-0.5-1.4-1.5-1.4C309.6,361.1,309.1,360.5,309.1,358.7 M302.2,347.9c0-0.5-0.3-1-0.9-1.3c-0.6-0.3-1.4-0.6-2.6-0.6
		c-2,0-4,1.1-4.6,3.1c-0.3-1.4-0.9-2-1.2-2.2c-0.5-0.4-1.3-0.7-1.9-0.7c-0.8,0-1.5,0.4-1.5,1.3c0,0.4,0.2,0.8,0.6,1
		c0.7,0.4,1.1,0.8,1.1,2.2v5h0v6.5c0,1,0.6,1.6,1.5,1.6c0.9,0,1.5-0.6,1.5-1.6v-6.5V355v-1.1c0-2.9,1-5.1,3.6-5.1
		c0.7,0,1.3,0.2,2,0.4c0.3,0.1,0.5,0.2,0.8,0.2C301.6,349.5,302.2,348.8,302.2,347.9 M288.3,362.5c0-0.3-0.1-0.6-0.3-0.9l-0.6-1.1
		c-0.3-0.5-0.3-0.9-0.3-1.8v-6.2c0-4.3-2.2-6.5-6.8-6.5c-2.4,0-4.2,0.6-5.3,1.3c-0.5,0.3-0.7,0.8-0.7,1.2c0,0.8,0.5,1.3,1.3,1.3
		c0.3,0,0.6-0.1,0.9-0.3c0.8-0.4,2.2-0.9,3.5-0.9c3,0,4.1,1.4,4.1,3.8v0.8c0,0.1-0.1,0.2-0.2,0.2H280c-4.3,0-6.7,1.8-6.7,5.3
		c0,3.3,2.2,5.2,6.1,5.2c2.5,0,4.2-0.8,5.3-2.1h0l0.7,1.1c0.4,0.5,0.8,0.8,1.3,0.8C287.6,363.9,288.3,363.3,288.3,362.5
		 M284.2,358.1c0,2.1-1.7,3.4-4.4,3.4c-2.3,0-3.6-0.9-3.6-2.7c0-1.9,1.3-2.8,4.3-2.8h3.5c0.1,0,0.2,0.1,0.2,0.2V358.1z M270.2,359.8
		c0.4-1.4,0.6-2.7,0.6-4.7c0-2-0.2-3.4-0.6-4.7c-0.9-2.7-3-4.3-6-4.3c-2.2,0-4.3,0.8-5.2,2.9c-0.3-1.2-0.9-1.7-1.1-1.9
		c-0.6-0.4-1.3-0.7-1.9-0.7c-0.8,0-1.5,0.4-1.5,1.3c0,0.4,0.2,0.8,0.6,1c0.7,0.4,1.1,0.8,1.1,2.2v5h0v13c0,1,0.6,1.6,1.5,1.6
		c0.9,0,1.5-0.6,1.5-1.6v-7h0c0.8,1.3,2.3,2.3,4.9,2.3C267.2,364.1,269.3,362.5,270.2,359.8 M267.7,355.1c0,1.5-0.1,2.6-0.4,3.5
		c-0.6,1.7-1.9,2.7-3.8,2.7c-2,0-3.2-1-3.8-2.7c-0.3-0.9-0.4-2-0.4-3.5c0-1.5,0.1-2.6,0.4-3.5c0.6-1.7,1.9-2.7,3.8-2.7
		c1.9,0,3.2,1,3.8,2.7C267.7,352.5,267.7,353.6,267.7,355.1 M252.1,362.3v-9.7c0-4-2.3-6.5-6.2-6.5c-2.7,0-4.4,1.1-5.6,2.7h0
		c-0.9-1.7-2.7-2.7-5.1-2.7c-2.2,0-4.2,1-5.1,2.8c-0.3-1.2-0.9-1.7-1.1-1.9c-0.6-0.4-1.3-0.7-1.9-0.7c-0.8,0-1.5,0.4-1.5,1.3
		c0,0.4,0.2,0.8,0.6,1c0.7,0.4,1.1,0.8,1.1,2.2v8.9h0v2.6c0,1,0.6,1.6,1.5,1.6c0.9,0,1.5-0.6,1.5-1.6v-2.6v-2.4v-4.9
		c0.5-2.7,2.1-3.6,4-3.6c2.6,0,3.9,1.6,3.9,4.4v9c0,1,0.6,1.6,1.5,1.6c0.9,0,1.5-0.6,1.5-1.6v-9.2c0-2.6,1.6-4.2,4-4.2
		c2.6,0,3.9,1.6,3.9,4.4v9c0,1,0.6,1.6,1.5,1.6C251.5,363.9,252.1,363.3,252.1,362.3 M223.5,359.5c0.4-1.2,0.6-2.4,0.6-4.4
		c0-2-0.2-3.2-0.6-4.4c-0.9-3-3.5-4.7-6.8-4.7c-3.4,0-5.9,1.7-6.8,4.7c-0.4,1.2-0.6,2.4-0.6,4.4c0,2,0.2,3.2,0.6,4.4
		c0.9,2.9,3.5,4.7,6.8,4.7C220,364.1,222.6,362.4,223.5,359.5 M221,355.1c0,1.7-0.1,2.6-0.4,3.5c-0.6,1.7-2,2.7-3.9,2.7
		c-1.9,0-3.3-1-3.9-2.7c-0.3-0.9-0.4-1.9-0.4-3.5c0-1.7,0.1-2.6,0.4-3.5c0.6-1.7,2-2.7,3.9-2.7c1.9,0,3.3,1,3.9,2.7
		C220.9,352.5,221,353.4,221,355.1 M197.3,358.6c-0.3-0.9-0.4-2-0.4-3.5c0-1.5,0.1-2.6,0.4-3.5c0.6-1.8,2-2.7,3.9-2.7
		c1.6,0,2.5,0.6,3.3,1.4c0.4,0.4,0.8,0.7,1.3,0.7c0.8,0,1.3-0.6,1.3-1.3c0-0.4-0.1-0.7-0.4-1.1c-1.1-1.4-2.9-2.5-5.5-2.5
		c-3.3,0-5.8,1.7-6.8,4.7c-0.3,1-0.5,2.5-0.5,4.4c0,1.9,0.2,3.4,0.5,4.4c1,3,3.5,4.7,6.8,4.7c2.6,0,4.4-1.1,5.5-2.5
		c0.3-0.4,0.4-0.7,0.4-1.1c0-0.8-0.6-1.3-1.3-1.3c-0.5,0-0.9,0.3-1.3,0.7c-0.8,0.9-1.7,1.4-3.3,1.4
		C199.3,361.3,197.9,360.4,197.3,358.6 M316.7,347.9v14.4c0,1,0.6,1.6,1.5,1.6c0.9,0,1.5-0.6,1.5-1.6v-14.4c0-1-0.6-1.6-1.5-1.6
		C317.3,346.2,316.7,346.9,316.7,347.9"/>
	<path fill="#FFFFFF" d="M234.3,336.9l-2.6,0v-2.1v-3.2c0-1-1.8-0.7-1.8-0.7v6.6c0,0.7,0.6,1.1,2.4,1
		C234.5,338.2,234.4,337.5,234.3,336.9 M194.1,338c0,0,0.1-1.4,1.4-1.2c1.4,0.2,3,0.4,3-0.5c-0.1-1-4-0.9-4-3.4
		c0-3.3,5.7-1.7,5.7-1.7s0,1.4-1.2,1.3c-0.9-0.1-2.6-0.3-2.7,0.3c-0.1,0.9,4.1,1,4,3.4C200,340.1,194.1,338,194.1,338 M212.6,331
		v4.6l-2.4-3.9c-0.2-0.4-0.6-0.6-1-0.7c-0.2,0-0.4-0.1-0.6-0.1c-0.4,0-0.6,0.1-0.6,0.1v6.8c0,1,1.8,0.7,1.8,0.7v-4.6l2.4,3.9
		c0.2,0.4,0.6,0.6,1,0.7c0.2,0,0.4,0.1,0.6,0.1c0.4,0,0.6-0.1,0.6-0.1v-6.8C214.4,330.6,212.6,331,212.6,331 M246.8,331v4.6
		l-2.4-3.9c-0.2-0.4-0.6-0.6-1-0.7c-0.2,0-0.4-0.1-0.6-0.1c-0.4,0-0.6,0.1-0.6,0.1v6.8c0,1,1.8,0.7,1.8,0.7v-4.6l2.4,3.9
		c0.2,0.4,0.6,0.6,1,0.7c0.2,0,0.4,0.1,0.6,0.1c0.4,0,0.6-0.1,0.6-0.1v-6.8C248.6,330.6,246.8,331,246.8,331 M204.9,331.4
		c-0.4-0.9-1.9-0.4-1.9-0.4l-2.8,6.8c-0.4,1,1.7,0.6,1.7,0.6l0.6-1.5h2.7l0.3,0.8c0.4,1,2.2,0.7,2.2,0.7L204.9,331.4z M203.1,335.3
		l0.8-2l0.7,2H203.1z M256.4,338.4c0,0-1.8,0.4-2.2-0.7l-0.3-0.8h-2.7l-0.6,1.5c0,0-2,0.3-1.7-0.6l2.8-6.8c0,0,1.5-0.5,1.9,0.4
		L256.4,338.4z M253.3,335.3l-0.7-2l-0.8,2H253.3z M239.1,331.4c-0.4-0.9-1.9-0.4-1.9-0.4l-2.8,6.8c-0.4,1,1.7,0.6,1.7,0.6l0.6-1.5
		h2.7l0.3,0.8c0.4,1,2.2,0.7,2.2,0.7L239.1,331.4z M237.3,335.3l0.8-2l0.7,2H237.3z M220.8,330.9h-4.9c-1.1,0-0.8,1.6-0.8,1.6h1.9
		v5.2c0,1,1.8,0.7,1.8,0.7v-5.9h1.1C221.1,332.6,220.8,330.9,220.8,330.9 M221.5,331v6.8c0,1,1.8,0.7,1.8,0.7v-6.8
		C223.4,330.6,221.5,331,221.5,331 M229.5,336.9h-3.1v-5.3c0-1-1.8-0.7-1.8-0.7v6.6c0,0.8,0.9,1.2,2.9,1
		C229.7,338.2,229.6,337.5,229.5,336.9"/>
	<path fill="#FFFFFF" d="M178.1,320.9c0.7,1.1,1.2,2.5,1.2,4.3v28.1c0,1.7-0.5,3.1-1.2,4.3c-2.1-0.2-4.2-0.8-6.2-2l-7.8-4.5v-23.6
		l7.8-4.5C173.9,321.8,176,321.1,178.1,320.9"/>
	<path fill="#FFFFFF" d="M143.7,339.2l-7.8-4.5c-2-1.1-3.6-2.6-4.8-4.4c0.6-1.2,1.6-2.3,3.1-3.2l24.3-14c1.5-0.9,3-1.1,4.3-1.1
		c0.9,1.9,1.4,4.1,1.4,6.3v0v9L143.7,339.2z"/>
	<path fill="#E0EBF6" d="M162.8,312.1c0.9,1.9,1.4,4.1,1.4,6.3v0v9l7.8-4.5c0.1,0,0.1-0.1,0.2-0.1c1.1-0.6,2.3-1.1,3.6-1.4
		c0,0,0,0,0,0c0,0,0,0,0,0c0,0,0,0,0,0c0,0,0,0,0,0c0,0,0,0,0,0c0,0,0,0,0,0c0,0,0,0,0,0c0,0,0,0,0,0c0,0,0,0,0,0c0,0,0,0,0,0
		c0,0,0,0,0,0c0,0,0,0,0,0c0,0,0,0,0,0c0,0,0,0,0,0c0,0,0,0,0,0c0,0,0,0,0,0c0,0,0,0,0,0c0,0,0,0,0,0c0,0,0,0,0,0c0,0,0,0,0,0
		c0,0,0,0,0,0c0,0,0,0,0,0c0,0,0,0,0,0c0,0,0,0,0,0c0,0,0,0,0,0h0c0.6-0.1,1.2-0.2,1.8-0.3c-1.3-2.1-3.1-3.2-3.1-3.2l-3.9-2.3
		l-4-2.3C167.1,313.2,165.3,312.1,162.8,312.1"/>
	<path fill="#FFFFFF" d="M176.3,321.2C176.3,321.2,176.3,321.2,176.3,321.2L176.3,321.2 M176.3,321.2
		C176.3,321.2,176.2,321.2,176.3,321.2C176.2,321.2,176.3,321.2,176.3,321.2 M176.2,321.2C176.2,321.2,176.2,321.2,176.2,321.2
		C176.2,321.2,176.2,321.2,176.2,321.2 M176.2,321.2C176.2,321.2,176.2,321.2,176.2,321.2C176.2,321.2,176.2,321.2,176.2,321.2
		 M176.1,321.3C176.1,321.3,176.1,321.3,176.1,321.3C176.1,321.3,176.1,321.3,176.1,321.3 M176.1,321.3
		C176.1,321.3,176.1,321.3,176.1,321.3C176.1,321.3,176.1,321.3,176.1,321.3 M176,321.3C176,321.3,176,321.3,176,321.3
		C176,321.3,176,321.3,176,321.3 M176,321.3C175.9,321.3,175.9,321.3,176,321.3C175.9,321.3,175.9,321.3,176,321.3 M175.9,321.3
		C175.9,321.3,175.9,321.3,175.9,321.3C175.9,321.3,175.9,321.3,175.9,321.3 M175.9,321.3C175.9,321.3,175.8,321.3,175.9,321.3
		C175.8,321.3,175.9,321.3,175.9,321.3 M175.8,321.3C175.8,321.3,175.8,321.3,175.8,321.3C175.8,321.3,175.8,321.3,175.8,321.3
		 M175.8,321.3C175.8,321.3,175.8,321.3,175.8,321.3C175.8,321.3,175.8,321.3,175.8,321.3 M175.7,321.3
		C175.7,321.4,175.7,321.4,175.7,321.3C175.7,321.4,175.7,321.4,175.7,321.3 M175.7,321.4c-1.2,0.3-2.4,0.8-3.6,1.4
		c0.1-0.1,0.2-0.1,0.3-0.2C173.5,322.1,174.6,321.7,175.7,321.4"/>
	<path fill="#FFFFFF" d="M162.8,312.1c0.9,1.9,1.4,4.1,1.4,6.3C164.1,316.1,163.7,314,162.8,312.1"/>
	<path fill="#E0EBF6" d="M131.1,330.4c-1.2,2.2-1.2,4.3-1.2,4.3l0,9.2v0c0,0.4,0.1,1.9,0.9,3.6l0.1,0.2l0.1,0.2l0.1,0.2l0,0.1l0,0
		c1.2-1.7,2.8-3.2,4.8-4.4l7.8-4.5l-7.8-4.5c-0.2-0.1-0.4-0.2-0.5-0.3C133.6,333.3,132.2,331.9,131.1,330.4"/>
	<path fill="#E0EBF6" d="M164.1,351v9c0,2.3-0.5,4.4-1.4,6.3h0l0,0l0.2,0l0.2,0l0.2,0c1.8-0.2,3.2-0.8,3.6-1l5-2.9l2.9-1.7
		c0,0,0.2-0.1,0.6-0.4c0.6-0.4,1.5-1.3,2.4-2.5l0.2-0.3c-2.1-0.2-4.2-0.8-6.2-2L164.1,351z"/>
	<path fill="#FFFFFF" d="M164.1,351v9c0,2.3-0.5,4.4-1.4,6.3c-1.3,0-2.8-0.2-4.3-1.1l-24.3-14c-1.5-0.9-2.5-2-3.1-3.2l0-0.1l0,0.1
		l0,0c1.2-1.7,2.8-3.2,4.8-4.4l7.8-4.5L164.1,351z"/>
</g>
</svg>
